%FSLAX45Y45*%
G04 Gerber Fmt 4.5, Leading zero omitted, Abs format (unit mm)*
G04 Created by KiCad (PCBNEW 4.0.7) date 06/10/18 15:22:35*
%MOMM*%
%LPD*%
G01*
G04 APERTURE LIST*
%ADD10C,0.127000*%
%ADD11C,0.150000*%
%ADD12C,0.200000*%
%ADD13C,0.300000*%
G04 APERTURE END LIST*
D10*
D11*
X10508000Y-11000000D02*
X10508000Y-10000000D01*
X12008000Y-10000000D02*
X12008000Y-11000000D01*
X12008000Y-11000000D02*
X10508000Y-11000000D01*
X10508000Y-10000000D02*
X12008000Y-10000000D01*
D12*
X10813000Y-10130000D02*
X10853000Y-10170000D01*
X10853000Y-10130000D02*
X10813000Y-10170000D01*
X10930000Y-10580000D02*
X10970000Y-10620000D01*
X10970000Y-10580000D02*
X10930000Y-10620000D01*
X10938000Y-10305000D02*
X10978000Y-10345000D01*
X10978000Y-10305000D02*
X10938000Y-10345000D01*
X10963000Y-10430000D02*
X11003000Y-10470000D01*
X11003000Y-10430000D02*
X10963000Y-10470000D01*
X11413000Y-10355000D02*
X11453000Y-10395000D01*
X11453000Y-10355000D02*
X11413000Y-10395000D01*
X11488000Y-10730000D02*
X11528000Y-10770000D01*
X11528000Y-10730000D02*
X11488000Y-10770000D01*
X11568000Y-10800000D02*
X11608000Y-10840000D01*
X11608000Y-10800000D02*
X11568000Y-10840000D01*
X11758000Y-10370000D02*
X11798000Y-10410000D01*
X11798000Y-10370000D02*
X11758000Y-10410000D01*
X10558800Y-10250000D02*
G75*
G03X10558800Y-10250000I-50800J0D01*
G01*
X10558800Y-10504000D02*
G75*
G03X10558800Y-10504000I-50800J0D01*
G01*
X10558800Y-10758000D02*
G75*
G03X10558800Y-10758000I-50800J0D01*
G01*
X12058800Y-10242000D02*
G75*
G03X12058800Y-10242000I-50800J0D01*
G01*
X12058800Y-10496000D02*
G75*
G03X12058800Y-10496000I-50800J0D01*
G01*
X12058800Y-10750000D02*
G75*
G03X12058800Y-10750000I-50800J0D01*
G01*
D13*
X10771929Y-11473214D02*
X10771929Y-11173214D01*
X10843357Y-11173214D01*
X10886214Y-11187500D01*
X10914786Y-11216071D01*
X10929071Y-11244643D01*
X10943357Y-11301786D01*
X10943357Y-11344643D01*
X10929071Y-11401786D01*
X10914786Y-11430357D01*
X10886214Y-11458929D01*
X10843357Y-11473214D01*
X10771929Y-11473214D01*
X11071929Y-11473214D02*
X11071929Y-11273214D01*
X11071929Y-11330357D02*
X11086214Y-11301786D01*
X11100500Y-11287500D01*
X11129071Y-11273214D01*
X11157643Y-11273214D01*
X11257643Y-11473214D02*
X11257643Y-11273214D01*
X11257643Y-11173214D02*
X11243357Y-11187500D01*
X11257643Y-11201786D01*
X11271928Y-11187500D01*
X11257643Y-11173214D01*
X11257643Y-11201786D01*
X11443357Y-11473214D02*
X11414786Y-11458929D01*
X11400500Y-11430357D01*
X11400500Y-11173214D01*
X11600500Y-11473214D02*
X11571928Y-11458929D01*
X11557643Y-11430357D01*
X11557643Y-11173214D01*
X11943357Y-11473214D02*
X11943357Y-11173214D01*
X12043357Y-11387500D01*
X12143357Y-11173214D01*
X12143357Y-11473214D01*
X12414786Y-11473214D02*
X12414786Y-11316071D01*
X12400500Y-11287500D01*
X12371928Y-11273214D01*
X12314786Y-11273214D01*
X12286214Y-11287500D01*
X12414786Y-11458929D02*
X12386214Y-11473214D01*
X12314786Y-11473214D01*
X12286214Y-11458929D01*
X12271928Y-11430357D01*
X12271928Y-11401786D01*
X12286214Y-11373214D01*
X12314786Y-11358929D01*
X12386214Y-11358929D01*
X12414786Y-11344643D01*
X12557643Y-11273214D02*
X12557643Y-11573214D01*
X12557643Y-11287500D02*
X12586214Y-11273214D01*
X12643357Y-11273214D01*
X12671928Y-11287500D01*
X12686214Y-11301786D01*
X12700500Y-11330357D01*
X12700500Y-11416071D01*
X12686214Y-11444643D01*
X12671928Y-11458929D01*
X12643357Y-11473214D01*
X12586214Y-11473214D01*
X12557643Y-11458929D01*
X12829071Y-11444643D02*
X12843357Y-11458929D01*
X12829071Y-11473214D01*
X12814786Y-11458929D01*
X12829071Y-11444643D01*
X12829071Y-11473214D01*
X12829071Y-11287500D02*
X12843357Y-11301786D01*
X12829071Y-11316071D01*
X12814786Y-11301786D01*
X12829071Y-11287500D01*
X12829071Y-11316071D01*
X10460500Y-11947500D02*
X10500500Y-11987500D01*
X10500500Y-11947500D02*
X10460500Y-11987500D01*
X10829071Y-11803214D02*
X10857643Y-11803214D01*
X10886214Y-11817500D01*
X10900500Y-11831786D01*
X10914786Y-11860357D01*
X10929071Y-11917500D01*
X10929071Y-11988929D01*
X10914786Y-12046071D01*
X10900500Y-12074643D01*
X10886214Y-12088929D01*
X10857643Y-12103214D01*
X10829071Y-12103214D01*
X10800500Y-12088929D01*
X10786214Y-12074643D01*
X10771929Y-12046071D01*
X10757643Y-11988929D01*
X10757643Y-11917500D01*
X10771929Y-11860357D01*
X10786214Y-11831786D01*
X10800500Y-11817500D01*
X10829071Y-11803214D01*
X11057643Y-12074643D02*
X11071929Y-12088929D01*
X11057643Y-12103214D01*
X11043357Y-12088929D01*
X11057643Y-12074643D01*
X11057643Y-12103214D01*
X11329071Y-11903214D02*
X11329071Y-12103214D01*
X11257643Y-11788929D02*
X11186214Y-12003214D01*
X11371928Y-12003214D01*
X11543357Y-11803214D02*
X11571928Y-11803214D01*
X11600500Y-11817500D01*
X11614786Y-11831786D01*
X11629071Y-11860357D01*
X11643357Y-11917500D01*
X11643357Y-11988929D01*
X11629071Y-12046071D01*
X11614786Y-12074643D01*
X11600500Y-12088929D01*
X11571928Y-12103214D01*
X11543357Y-12103214D01*
X11514786Y-12088929D01*
X11500500Y-12074643D01*
X11486214Y-12046071D01*
X11471928Y-11988929D01*
X11471928Y-11917500D01*
X11486214Y-11860357D01*
X11500500Y-11831786D01*
X11514786Y-11817500D01*
X11543357Y-11803214D01*
X11771928Y-12103214D02*
X11771928Y-11903214D01*
X11771928Y-11931786D02*
X11786214Y-11917500D01*
X11814786Y-11903214D01*
X11857643Y-11903214D01*
X11886214Y-11917500D01*
X11900500Y-11946071D01*
X11900500Y-12103214D01*
X11900500Y-11946071D02*
X11914786Y-11917500D01*
X11943357Y-11903214D01*
X11986214Y-11903214D01*
X12014786Y-11917500D01*
X12029071Y-11946071D01*
X12029071Y-12103214D01*
X12171928Y-12103214D02*
X12171928Y-11903214D01*
X12171928Y-11931786D02*
X12186214Y-11917500D01*
X12214786Y-11903214D01*
X12257643Y-11903214D01*
X12286214Y-11917500D01*
X12300500Y-11946071D01*
X12300500Y-12103214D01*
X12300500Y-11946071D02*
X12314786Y-11917500D01*
X12343357Y-11903214D01*
X12386214Y-11903214D01*
X12414786Y-11917500D01*
X12429071Y-11946071D01*
X12429071Y-12103214D01*
X13014786Y-11788929D02*
X12757643Y-12174643D01*
X13400500Y-11803214D02*
X13429071Y-11803214D01*
X13457643Y-11817500D01*
X13471928Y-11831786D01*
X13486214Y-11860357D01*
X13500500Y-11917500D01*
X13500500Y-11988929D01*
X13486214Y-12046071D01*
X13471928Y-12074643D01*
X13457643Y-12088929D01*
X13429071Y-12103214D01*
X13400500Y-12103214D01*
X13371928Y-12088929D01*
X13357643Y-12074643D01*
X13343357Y-12046071D01*
X13329071Y-11988929D01*
X13329071Y-11917500D01*
X13343357Y-11860357D01*
X13357643Y-11831786D01*
X13371928Y-11817500D01*
X13400500Y-11803214D01*
X13629071Y-12074643D02*
X13643357Y-12088929D01*
X13629071Y-12103214D01*
X13614786Y-12088929D01*
X13629071Y-12074643D01*
X13629071Y-12103214D01*
X13829071Y-11803214D02*
X13857643Y-11803214D01*
X13886214Y-11817500D01*
X13900500Y-11831786D01*
X13914785Y-11860357D01*
X13929071Y-11917500D01*
X13929071Y-11988929D01*
X13914785Y-12046071D01*
X13900500Y-12074643D01*
X13886214Y-12088929D01*
X13857643Y-12103214D01*
X13829071Y-12103214D01*
X13800500Y-12088929D01*
X13786214Y-12074643D01*
X13771928Y-12046071D01*
X13757643Y-11988929D01*
X13757643Y-11917500D01*
X13771928Y-11860357D01*
X13786214Y-11831786D01*
X13800500Y-11817500D01*
X13829071Y-11803214D01*
X14214785Y-12103214D02*
X14043357Y-12103214D01*
X14129071Y-12103214D02*
X14129071Y-11803214D01*
X14100500Y-11846071D01*
X14071928Y-11874643D01*
X14043357Y-11888929D01*
X14471928Y-11803214D02*
X14414785Y-11803214D01*
X14386214Y-11817500D01*
X14371928Y-11831786D01*
X14343357Y-11874643D01*
X14329071Y-11931786D01*
X14329071Y-12046071D01*
X14343357Y-12074643D01*
X14357643Y-12088929D01*
X14386214Y-12103214D01*
X14443357Y-12103214D01*
X14471928Y-12088929D01*
X14486214Y-12074643D01*
X14500500Y-12046071D01*
X14500500Y-11974643D01*
X14486214Y-11946071D01*
X14471928Y-11931786D01*
X14443357Y-11917500D01*
X14386214Y-11917500D01*
X14357643Y-11931786D01*
X14343357Y-11946071D01*
X14329071Y-11974643D01*
X14614786Y-11803214D02*
X14614786Y-11860357D01*
X14729071Y-11803214D02*
X14729071Y-11860357D01*
X15171928Y-12217500D02*
X15157643Y-12203214D01*
X15129071Y-12160357D01*
X15114785Y-12131786D01*
X15100500Y-12088929D01*
X15086214Y-12017500D01*
X15086214Y-11960357D01*
X15100500Y-11888929D01*
X15114785Y-11846071D01*
X15129071Y-11817500D01*
X15157643Y-11774643D01*
X15171928Y-11760357D01*
X15329071Y-11931786D02*
X15300500Y-11917500D01*
X15286214Y-11903214D01*
X15271928Y-11874643D01*
X15271928Y-11860357D01*
X15286214Y-11831786D01*
X15300500Y-11817500D01*
X15329071Y-11803214D01*
X15386214Y-11803214D01*
X15414785Y-11817500D01*
X15429071Y-11831786D01*
X15443357Y-11860357D01*
X15443357Y-11874643D01*
X15429071Y-11903214D01*
X15414785Y-11917500D01*
X15386214Y-11931786D01*
X15329071Y-11931786D01*
X15300500Y-11946071D01*
X15286214Y-11960357D01*
X15271928Y-11988929D01*
X15271928Y-12046071D01*
X15286214Y-12074643D01*
X15300500Y-12088929D01*
X15329071Y-12103214D01*
X15386214Y-12103214D01*
X15414785Y-12088929D01*
X15429071Y-12074643D01*
X15443357Y-12046071D01*
X15443357Y-11988929D01*
X15429071Y-11960357D01*
X15414785Y-11946071D01*
X15386214Y-11931786D01*
X15800500Y-12103214D02*
X15800500Y-11803214D01*
X15929071Y-12103214D02*
X15929071Y-11946071D01*
X15914785Y-11917500D01*
X15886214Y-11903214D01*
X15843357Y-11903214D01*
X15814785Y-11917500D01*
X15800500Y-11931786D01*
X16114785Y-12103214D02*
X16086214Y-12088929D01*
X16071928Y-12074643D01*
X16057643Y-12046071D01*
X16057643Y-11960357D01*
X16071928Y-11931786D01*
X16086214Y-11917500D01*
X16114785Y-11903214D01*
X16157643Y-11903214D01*
X16186214Y-11917500D01*
X16200500Y-11931786D01*
X16214785Y-11960357D01*
X16214785Y-12046071D01*
X16200500Y-12074643D01*
X16186214Y-12088929D01*
X16157643Y-12103214D01*
X16114785Y-12103214D01*
X16386214Y-12103214D02*
X16357643Y-12088929D01*
X16343357Y-12060357D01*
X16343357Y-11803214D01*
X16614786Y-12088929D02*
X16586214Y-12103214D01*
X16529071Y-12103214D01*
X16500500Y-12088929D01*
X16486214Y-12060357D01*
X16486214Y-11946071D01*
X16500500Y-11917500D01*
X16529071Y-11903214D01*
X16586214Y-11903214D01*
X16614786Y-11917500D01*
X16629071Y-11946071D01*
X16629071Y-11974643D01*
X16486214Y-12003214D01*
X16743357Y-12088929D02*
X16771928Y-12103214D01*
X16829071Y-12103214D01*
X16857643Y-12088929D01*
X16871929Y-12060357D01*
X16871929Y-12046071D01*
X16857643Y-12017500D01*
X16829071Y-12003214D01*
X16786214Y-12003214D01*
X16757643Y-11988929D01*
X16743357Y-11960357D01*
X16743357Y-11946071D01*
X16757643Y-11917500D01*
X16786214Y-11903214D01*
X16829071Y-11903214D01*
X16857643Y-11917500D01*
X16971928Y-12217500D02*
X16986214Y-12203214D01*
X17014786Y-12160357D01*
X17029071Y-12131786D01*
X17043357Y-12088929D01*
X17057643Y-12017500D01*
X17057643Y-11960357D01*
X17043357Y-11888929D01*
X17029071Y-11846071D01*
X17014786Y-11817500D01*
X16986214Y-11774643D01*
X16971928Y-11760357D01*
X10500500Y-12363500D02*
G75*
G03X10500500Y-12363500I-50800J0D01*
G01*
X10929071Y-12499214D02*
X10757643Y-12499214D01*
X10843357Y-12499214D02*
X10843357Y-12199214D01*
X10814786Y-12242071D01*
X10786214Y-12270643D01*
X10757643Y-12284929D01*
X11057643Y-12470643D02*
X11071929Y-12484929D01*
X11057643Y-12499214D01*
X11043357Y-12484929D01*
X11057643Y-12470643D01*
X11057643Y-12499214D01*
X11257643Y-12199214D02*
X11286214Y-12199214D01*
X11314786Y-12213500D01*
X11329071Y-12227786D01*
X11343357Y-12256357D01*
X11357643Y-12313500D01*
X11357643Y-12384929D01*
X11343357Y-12442071D01*
X11329071Y-12470643D01*
X11314786Y-12484929D01*
X11286214Y-12499214D01*
X11257643Y-12499214D01*
X11229071Y-12484929D01*
X11214786Y-12470643D01*
X11200500Y-12442071D01*
X11186214Y-12384929D01*
X11186214Y-12313500D01*
X11200500Y-12256357D01*
X11214786Y-12227786D01*
X11229071Y-12213500D01*
X11257643Y-12199214D01*
X11471928Y-12227786D02*
X11486214Y-12213500D01*
X11514786Y-12199214D01*
X11586214Y-12199214D01*
X11614786Y-12213500D01*
X11629071Y-12227786D01*
X11643357Y-12256357D01*
X11643357Y-12284929D01*
X11629071Y-12327786D01*
X11457643Y-12499214D01*
X11643357Y-12499214D01*
X11771928Y-12499214D02*
X11771928Y-12299214D01*
X11771928Y-12327786D02*
X11786214Y-12313500D01*
X11814786Y-12299214D01*
X11857643Y-12299214D01*
X11886214Y-12313500D01*
X11900500Y-12342071D01*
X11900500Y-12499214D01*
X11900500Y-12342071D02*
X11914786Y-12313500D01*
X11943357Y-12299214D01*
X11986214Y-12299214D01*
X12014786Y-12313500D01*
X12029071Y-12342071D01*
X12029071Y-12499214D01*
X12171928Y-12499214D02*
X12171928Y-12299214D01*
X12171928Y-12327786D02*
X12186214Y-12313500D01*
X12214786Y-12299214D01*
X12257643Y-12299214D01*
X12286214Y-12313500D01*
X12300500Y-12342071D01*
X12300500Y-12499214D01*
X12300500Y-12342071D02*
X12314786Y-12313500D01*
X12343357Y-12299214D01*
X12386214Y-12299214D01*
X12414786Y-12313500D01*
X12429071Y-12342071D01*
X12429071Y-12499214D01*
X13014786Y-12184929D02*
X12757643Y-12570643D01*
X13400500Y-12199214D02*
X13429071Y-12199214D01*
X13457643Y-12213500D01*
X13471928Y-12227786D01*
X13486214Y-12256357D01*
X13500500Y-12313500D01*
X13500500Y-12384929D01*
X13486214Y-12442071D01*
X13471928Y-12470643D01*
X13457643Y-12484929D01*
X13429071Y-12499214D01*
X13400500Y-12499214D01*
X13371928Y-12484929D01*
X13357643Y-12470643D01*
X13343357Y-12442071D01*
X13329071Y-12384929D01*
X13329071Y-12313500D01*
X13343357Y-12256357D01*
X13357643Y-12227786D01*
X13371928Y-12213500D01*
X13400500Y-12199214D01*
X13629071Y-12470643D02*
X13643357Y-12484929D01*
X13629071Y-12499214D01*
X13614786Y-12484929D01*
X13629071Y-12470643D01*
X13629071Y-12499214D01*
X13829071Y-12199214D02*
X13857643Y-12199214D01*
X13886214Y-12213500D01*
X13900500Y-12227786D01*
X13914785Y-12256357D01*
X13929071Y-12313500D01*
X13929071Y-12384929D01*
X13914785Y-12442071D01*
X13900500Y-12470643D01*
X13886214Y-12484929D01*
X13857643Y-12499214D01*
X13829071Y-12499214D01*
X13800500Y-12484929D01*
X13786214Y-12470643D01*
X13771928Y-12442071D01*
X13757643Y-12384929D01*
X13757643Y-12313500D01*
X13771928Y-12256357D01*
X13786214Y-12227786D01*
X13800500Y-12213500D01*
X13829071Y-12199214D01*
X14186214Y-12299214D02*
X14186214Y-12499214D01*
X14114785Y-12184929D02*
X14043357Y-12399214D01*
X14229071Y-12399214D01*
X14400500Y-12199214D02*
X14429071Y-12199214D01*
X14457643Y-12213500D01*
X14471928Y-12227786D01*
X14486214Y-12256357D01*
X14500500Y-12313500D01*
X14500500Y-12384929D01*
X14486214Y-12442071D01*
X14471928Y-12470643D01*
X14457643Y-12484929D01*
X14429071Y-12499214D01*
X14400500Y-12499214D01*
X14371928Y-12484929D01*
X14357643Y-12470643D01*
X14343357Y-12442071D01*
X14329071Y-12384929D01*
X14329071Y-12313500D01*
X14343357Y-12256357D01*
X14357643Y-12227786D01*
X14371928Y-12213500D01*
X14400500Y-12199214D01*
X14614786Y-12199214D02*
X14614786Y-12256357D01*
X14729071Y-12199214D02*
X14729071Y-12256357D01*
X15171928Y-12613500D02*
X15157643Y-12599214D01*
X15129071Y-12556357D01*
X15114785Y-12527786D01*
X15100500Y-12484929D01*
X15086214Y-12413500D01*
X15086214Y-12356357D01*
X15100500Y-12284929D01*
X15114785Y-12242071D01*
X15129071Y-12213500D01*
X15157643Y-12170643D01*
X15171928Y-12156357D01*
X15414785Y-12199214D02*
X15357643Y-12199214D01*
X15329071Y-12213500D01*
X15314785Y-12227786D01*
X15286214Y-12270643D01*
X15271928Y-12327786D01*
X15271928Y-12442071D01*
X15286214Y-12470643D01*
X15300500Y-12484929D01*
X15329071Y-12499214D01*
X15386214Y-12499214D01*
X15414785Y-12484929D01*
X15429071Y-12470643D01*
X15443357Y-12442071D01*
X15443357Y-12370643D01*
X15429071Y-12342071D01*
X15414785Y-12327786D01*
X15386214Y-12313500D01*
X15329071Y-12313500D01*
X15300500Y-12327786D01*
X15286214Y-12342071D01*
X15271928Y-12370643D01*
X15800500Y-12499214D02*
X15800500Y-12199214D01*
X15929071Y-12499214D02*
X15929071Y-12342071D01*
X15914785Y-12313500D01*
X15886214Y-12299214D01*
X15843357Y-12299214D01*
X15814785Y-12313500D01*
X15800500Y-12327786D01*
X16114785Y-12499214D02*
X16086214Y-12484929D01*
X16071928Y-12470643D01*
X16057643Y-12442071D01*
X16057643Y-12356357D01*
X16071928Y-12327786D01*
X16086214Y-12313500D01*
X16114785Y-12299214D01*
X16157643Y-12299214D01*
X16186214Y-12313500D01*
X16200500Y-12327786D01*
X16214785Y-12356357D01*
X16214785Y-12442071D01*
X16200500Y-12470643D01*
X16186214Y-12484929D01*
X16157643Y-12499214D01*
X16114785Y-12499214D01*
X16386214Y-12499214D02*
X16357643Y-12484929D01*
X16343357Y-12456357D01*
X16343357Y-12199214D01*
X16614786Y-12484929D02*
X16586214Y-12499214D01*
X16529071Y-12499214D01*
X16500500Y-12484929D01*
X16486214Y-12456357D01*
X16486214Y-12342071D01*
X16500500Y-12313500D01*
X16529071Y-12299214D01*
X16586214Y-12299214D01*
X16614786Y-12313500D01*
X16629071Y-12342071D01*
X16629071Y-12370643D01*
X16486214Y-12399214D01*
X16743357Y-12484929D02*
X16771928Y-12499214D01*
X16829071Y-12499214D01*
X16857643Y-12484929D01*
X16871929Y-12456357D01*
X16871929Y-12442071D01*
X16857643Y-12413500D01*
X16829071Y-12399214D01*
X16786214Y-12399214D01*
X16757643Y-12384929D01*
X16743357Y-12356357D01*
X16743357Y-12342071D01*
X16757643Y-12313500D01*
X16786214Y-12299214D01*
X16829071Y-12299214D01*
X16857643Y-12313500D01*
X16971928Y-12613500D02*
X16986214Y-12599214D01*
X17014786Y-12556357D01*
X17029071Y-12527786D01*
X17043357Y-12484929D01*
X17057643Y-12413500D01*
X17057643Y-12356357D01*
X17043357Y-12284929D01*
X17029071Y-12242071D01*
X17014786Y-12213500D01*
X16986214Y-12170643D01*
X16971928Y-12156357D01*
M02*
