G04 #@! TF.FileFunction,Legend,Top*
%FSLAX46Y46*%
G04 Gerber Fmt 4.6, Leading zero omitted, Abs format (unit mm)*
G04 Created by KiCad (PCBNEW 4.0.7) date 06/11/18 20:50:21*
%MOMM*%
%LPD*%
G01*
G04 APERTURE LIST*
%ADD10C,0.100000*%
%ADD11C,0.250000*%
%ADD12C,0.200000*%
%ADD13C,0.120000*%
%ADD14C,0.150000*%
G04 APERTURE END LIST*
D10*
D11*
X107837143Y-101452381D02*
X107360952Y-101452381D01*
X107360952Y-100452381D01*
X108170476Y-100928571D02*
X108503810Y-100928571D01*
X108646667Y-101452381D02*
X108170476Y-101452381D01*
X108170476Y-100452381D01*
X108646667Y-100452381D01*
X109075238Y-101452381D02*
X109075238Y-100452381D01*
X109313333Y-100452381D01*
X109456191Y-100500000D01*
X109551429Y-100595238D01*
X109599048Y-100690476D01*
X109646667Y-100880952D01*
X109646667Y-101023810D01*
X109599048Y-101214286D01*
X109551429Y-101309524D01*
X109456191Y-101404762D01*
X109313333Y-101452381D01*
X109075238Y-101452381D01*
D12*
X106080000Y-100750000D02*
G75*
G03X106080000Y-100750000I-250000J0D01*
G01*
D13*
X109170000Y-104510000D02*
X109170000Y-101970000D01*
X107390000Y-101970000D02*
X107390000Y-104510000D01*
X107390000Y-101970000D02*
X109170000Y-101970000D01*
X109170000Y-104510000D02*
X107390000Y-104510000D01*
X115430000Y-107100000D02*
X114730000Y-107100000D01*
X114730000Y-105900000D02*
X115430000Y-105900000D01*
X111730000Y-106400000D02*
X112430000Y-106400000D01*
X112430000Y-107600000D02*
X111730000Y-107600000D01*
X118180000Y-107150000D02*
X118180000Y-107850000D01*
X116980000Y-107850000D02*
X116980000Y-107150000D01*
X115480000Y-103920000D02*
X116480000Y-103920000D01*
X116480000Y-105280000D02*
X115480000Y-105280000D01*
X111500000Y-107820000D02*
X112500000Y-107820000D01*
X112500000Y-109180000D02*
X111500000Y-109180000D01*
X118190000Y-101310000D02*
X114370000Y-101310000D01*
X114370000Y-101310000D02*
X114370000Y-103090000D01*
X114370000Y-103090000D02*
X118190000Y-103090000D01*
X118190000Y-101310000D02*
X118190000Y-103090000D01*
X108280000Y-109760000D02*
X110550000Y-109760000D01*
X110550000Y-109760000D02*
X110550000Y-108240000D01*
X110550000Y-108240000D02*
X108280000Y-108240000D01*
X107400000Y-107000000D02*
X107400000Y-105800000D01*
X109160000Y-105800000D02*
X109160000Y-107000000D01*
D14*
X112755000Y-102350000D02*
X111405000Y-102350000D01*
X113480000Y-104650000D02*
X111405000Y-104650000D01*
X110303857Y-101119000D02*
X110231286Y-101082714D01*
X110122429Y-101082714D01*
X110013572Y-101119000D01*
X109941000Y-101191571D01*
X109904715Y-101264143D01*
X109868429Y-101409286D01*
X109868429Y-101518143D01*
X109904715Y-101663286D01*
X109941000Y-101735857D01*
X110013572Y-101808429D01*
X110122429Y-101844714D01*
X110195000Y-101844714D01*
X110303857Y-101808429D01*
X110340143Y-101772143D01*
X110340143Y-101518143D01*
X110195000Y-101518143D01*
X110630429Y-101808429D02*
X110739286Y-101844714D01*
X110920715Y-101844714D01*
X110993286Y-101808429D01*
X111029572Y-101772143D01*
X111065857Y-101699571D01*
X111065857Y-101627000D01*
X111029572Y-101554429D01*
X110993286Y-101518143D01*
X110920715Y-101481857D01*
X110775572Y-101445571D01*
X110703000Y-101409286D01*
X110666715Y-101373000D01*
X110630429Y-101300429D01*
X110630429Y-101227857D01*
X110666715Y-101155286D01*
X110703000Y-101119000D01*
X110775572Y-101082714D01*
X110957000Y-101082714D01*
X111065857Y-101119000D01*
X111356143Y-101155286D02*
X111392429Y-101119000D01*
X111465000Y-101082714D01*
X111646429Y-101082714D01*
X111719000Y-101119000D01*
X111755286Y-101155286D01*
X111791571Y-101227857D01*
X111791571Y-101300429D01*
X111755286Y-101409286D01*
X111319857Y-101844714D01*
X111791571Y-101844714D01*
X115953000Y-108072143D02*
X115916714Y-108108429D01*
X115807857Y-108144714D01*
X115735286Y-108144714D01*
X115626429Y-108108429D01*
X115553857Y-108035857D01*
X115517572Y-107963286D01*
X115481286Y-107818143D01*
X115481286Y-107709286D01*
X115517572Y-107564143D01*
X115553857Y-107491571D01*
X115626429Y-107419000D01*
X115735286Y-107382714D01*
X115807857Y-107382714D01*
X115916714Y-107419000D01*
X115953000Y-107455286D01*
X116678714Y-108144714D02*
X116243286Y-108144714D01*
X116461000Y-108144714D02*
X116461000Y-107382714D01*
X116388429Y-107491571D01*
X116315857Y-107564143D01*
X116243286Y-107600429D01*
X110203000Y-105772143D02*
X110166714Y-105808429D01*
X110057857Y-105844714D01*
X109985286Y-105844714D01*
X109876429Y-105808429D01*
X109803857Y-105735857D01*
X109767572Y-105663286D01*
X109731286Y-105518143D01*
X109731286Y-105409286D01*
X109767572Y-105264143D01*
X109803857Y-105191571D01*
X109876429Y-105119000D01*
X109985286Y-105082714D01*
X110057857Y-105082714D01*
X110166714Y-105119000D01*
X110203000Y-105155286D01*
X110493286Y-105155286D02*
X110529572Y-105119000D01*
X110602143Y-105082714D01*
X110783572Y-105082714D01*
X110856143Y-105119000D01*
X110892429Y-105155286D01*
X110928714Y-105227857D01*
X110928714Y-105300429D01*
X110892429Y-105409286D01*
X110457000Y-105844714D01*
X110928714Y-105844714D01*
X115753000Y-109472143D02*
X115716714Y-109508429D01*
X115607857Y-109544714D01*
X115535286Y-109544714D01*
X115426429Y-109508429D01*
X115353857Y-109435857D01*
X115317572Y-109363286D01*
X115281286Y-109218143D01*
X115281286Y-109109286D01*
X115317572Y-108964143D01*
X115353857Y-108891571D01*
X115426429Y-108819000D01*
X115535286Y-108782714D01*
X115607857Y-108782714D01*
X115716714Y-108819000D01*
X115753000Y-108855286D01*
X116007000Y-108782714D02*
X116478714Y-108782714D01*
X116224714Y-109073000D01*
X116333572Y-109073000D01*
X116406143Y-109109286D01*
X116442429Y-109145571D01*
X116478714Y-109218143D01*
X116478714Y-109399571D01*
X116442429Y-109472143D01*
X116406143Y-109508429D01*
X116333572Y-109544714D01*
X116115857Y-109544714D01*
X116043286Y-109508429D01*
X116007000Y-109472143D01*
X113703000Y-105594714D02*
X113449000Y-105231857D01*
X113267572Y-105594714D02*
X113267572Y-104832714D01*
X113557857Y-104832714D01*
X113630429Y-104869000D01*
X113666714Y-104905286D01*
X113703000Y-104977857D01*
X113703000Y-105086714D01*
X113666714Y-105159286D01*
X113630429Y-105195571D01*
X113557857Y-105231857D01*
X113267572Y-105231857D01*
X113993286Y-104905286D02*
X114029572Y-104869000D01*
X114102143Y-104832714D01*
X114283572Y-104832714D01*
X114356143Y-104869000D01*
X114392429Y-104905286D01*
X114428714Y-104977857D01*
X114428714Y-105050429D01*
X114392429Y-105159286D01*
X113957000Y-105594714D01*
X114428714Y-105594714D01*
X113953000Y-109544714D02*
X113699000Y-109181857D01*
X113517572Y-109544714D02*
X113517572Y-108782714D01*
X113807857Y-108782714D01*
X113880429Y-108819000D01*
X113916714Y-108855286D01*
X113953000Y-108927857D01*
X113953000Y-109036714D01*
X113916714Y-109109286D01*
X113880429Y-109145571D01*
X113807857Y-109181857D01*
X113517572Y-109181857D01*
X114207000Y-108782714D02*
X114678714Y-108782714D01*
X114424714Y-109073000D01*
X114533572Y-109073000D01*
X114606143Y-109109286D01*
X114642429Y-109145571D01*
X114678714Y-109218143D01*
X114678714Y-109399571D01*
X114642429Y-109472143D01*
X114606143Y-109508429D01*
X114533572Y-109544714D01*
X114315857Y-109544714D01*
X114243286Y-109508429D01*
X114207000Y-109472143D01*
X115753857Y-100169000D02*
X115681286Y-100132714D01*
X115572429Y-100132714D01*
X115463572Y-100169000D01*
X115391000Y-100241571D01*
X115354715Y-100314143D01*
X115318429Y-100459286D01*
X115318429Y-100568143D01*
X115354715Y-100713286D01*
X115391000Y-100785857D01*
X115463572Y-100858429D01*
X115572429Y-100894714D01*
X115645000Y-100894714D01*
X115753857Y-100858429D01*
X115790143Y-100822143D01*
X115790143Y-100568143D01*
X115645000Y-100568143D01*
X116080429Y-100858429D02*
X116189286Y-100894714D01*
X116370715Y-100894714D01*
X116443286Y-100858429D01*
X116479572Y-100822143D01*
X116515857Y-100749571D01*
X116515857Y-100677000D01*
X116479572Y-100604429D01*
X116443286Y-100568143D01*
X116370715Y-100531857D01*
X116225572Y-100495571D01*
X116153000Y-100459286D01*
X116116715Y-100423000D01*
X116080429Y-100350429D01*
X116080429Y-100277857D01*
X116116715Y-100205286D01*
X116153000Y-100169000D01*
X116225572Y-100132714D01*
X116407000Y-100132714D01*
X116515857Y-100169000D01*
X117241571Y-100894714D02*
X116806143Y-100894714D01*
X117023857Y-100894714D02*
X117023857Y-100132714D01*
X116951286Y-100241571D01*
X116878714Y-100314143D01*
X116806143Y-100350429D01*
X106317572Y-109744714D02*
X106317572Y-108982714D01*
X106499000Y-108982714D01*
X106607857Y-109019000D01*
X106680429Y-109091571D01*
X106716714Y-109164143D01*
X106753000Y-109309286D01*
X106753000Y-109418143D01*
X106716714Y-109563286D01*
X106680429Y-109635857D01*
X106607857Y-109708429D01*
X106499000Y-109744714D01*
X106317572Y-109744714D01*
X107478714Y-109744714D02*
X107043286Y-109744714D01*
X107261000Y-109744714D02*
X107261000Y-108982714D01*
X107188429Y-109091571D01*
X107115857Y-109164143D01*
X107043286Y-109200429D01*
X109953000Y-107594714D02*
X109699000Y-107231857D01*
X109517572Y-107594714D02*
X109517572Y-106832714D01*
X109807857Y-106832714D01*
X109880429Y-106869000D01*
X109916714Y-106905286D01*
X109953000Y-106977857D01*
X109953000Y-107086714D01*
X109916714Y-107159286D01*
X109880429Y-107195571D01*
X109807857Y-107231857D01*
X109517572Y-107231857D01*
X110678714Y-107594714D02*
X110243286Y-107594714D01*
X110461000Y-107594714D02*
X110461000Y-106832714D01*
X110388429Y-106941571D01*
X110315857Y-107014143D01*
X110243286Y-107050429D01*
X111318095Y-105002381D02*
X111318095Y-105811905D01*
X111365714Y-105907143D01*
X111413333Y-105954762D01*
X111508571Y-106002381D01*
X111699048Y-106002381D01*
X111794286Y-105954762D01*
X111841905Y-105907143D01*
X111889524Y-105811905D01*
X111889524Y-105002381D01*
X112889524Y-106002381D02*
X112318095Y-106002381D01*
X112603809Y-106002381D02*
X112603809Y-105002381D01*
X112508571Y-105145238D01*
X112413333Y-105240476D01*
X112318095Y-105288095D01*
M02*
