G04 #@! TF.FileFunction,Copper,L2,Bot,Signal*
%FSLAX46Y46*%
G04 Gerber Fmt 4.6, Leading zero omitted, Abs format (unit mm)*
G04 Created by KiCad (PCBNEW 4.0.7) date 06/11/18 20:50:21*
%MOMM*%
%LPD*%
G01*
G04 APERTURE LIST*
%ADD10C,0.100000*%
%ADD11R,2.032000X2.032000*%
%ADD12C,0.600000*%
%ADD13C,0.750000*%
%ADD14C,0.250000*%
%ADD15C,0.200000*%
%ADD16C,0.254000*%
G04 APERTURE END LIST*
D10*
D11*
X105588000Y-107580000D03*
X105588000Y-105040000D03*
X105588000Y-102500000D03*
X119572000Y-102420000D03*
X119572000Y-104960000D03*
X119572000Y-107500000D03*
D12*
X108330000Y-101500000D03*
X115880002Y-108200000D03*
X109500000Y-106000000D03*
X115080000Y-107500000D03*
X117780000Y-103900000D03*
X109830000Y-104500000D03*
X109580000Y-103250000D03*
X114330000Y-103750000D03*
D13*
X105000000Y-108080000D02*
X106070000Y-108030000D01*
X106070000Y-108030000D02*
X108100000Y-106000000D01*
X108100000Y-106000000D02*
X109500000Y-106000000D01*
D14*
X117480001Y-104199999D02*
X117780000Y-103900000D01*
X115080000Y-107500000D02*
X115080000Y-106600000D01*
X115080000Y-106600000D02*
X117480001Y-104199999D01*
D15*
X109830000Y-104500000D02*
X107830000Y-102500000D01*
X107830000Y-102500000D02*
X105080000Y-102500000D01*
X110080000Y-103750000D02*
X109879999Y-103549999D01*
X114330000Y-103750000D02*
X110080000Y-103750000D01*
X109879999Y-103549999D02*
X109580000Y-103250000D01*
D16*
X119497000Y-100583000D02*
X105663000Y-100583000D01*
X119497000Y-100786200D02*
X105663000Y-100786200D01*
X118262181Y-100989400D02*
X106719317Y-100989400D01*
X118085612Y-101192600D02*
X107020157Y-101192600D01*
X118039709Y-101395800D02*
X107105357Y-101395800D01*
X118038048Y-101599000D02*
X107121952Y-101599000D01*
X118038048Y-101802200D02*
X107121952Y-101802200D01*
X118038048Y-102005400D02*
X108163123Y-102005400D01*
X118038048Y-102208600D02*
X108398442Y-102208600D01*
X118038048Y-102411800D02*
X108601642Y-102411800D01*
X109072426Y-102615000D02*
X108804842Y-102615000D01*
X118038048Y-102615000D02*
X110087797Y-102615000D01*
X118038048Y-102818200D02*
X110275842Y-102818200D01*
X113977482Y-103021400D02*
X110359802Y-103021400D01*
X118038048Y-103021400D02*
X114682306Y-103021400D01*
X107694758Y-103224600D02*
X107121952Y-103224600D01*
X117312897Y-103224600D02*
X114947206Y-103224600D01*
X107897958Y-103427800D02*
X107121952Y-103427800D01*
X117109342Y-103427800D02*
X115071128Y-103427800D01*
X108101158Y-103631000D02*
X107098664Y-103631000D01*
X117016809Y-103631000D02*
X115138104Y-103631000D01*
X108304358Y-103834200D02*
X107085535Y-103834200D01*
X116950602Y-103834200D02*
X115137927Y-103834200D01*
X108507558Y-104037400D02*
X107121952Y-104037400D01*
X116747402Y-104037400D02*
X115085551Y-104037400D01*
X108710758Y-104240600D02*
X107121952Y-104240600D01*
X116544202Y-104240600D02*
X114982226Y-104240600D01*
X108913958Y-104443800D02*
X107121952Y-104443800D01*
X113893887Y-104443800D02*
X110638049Y-104443800D01*
X116341002Y-104443800D02*
X114766740Y-104443800D01*
X109021872Y-104647000D02*
X107121952Y-104647000D01*
X116137802Y-104647000D02*
X110637872Y-104647000D01*
X109100442Y-104850200D02*
X107121952Y-104850200D01*
X115934602Y-104850200D02*
X110559474Y-104850200D01*
X119497000Y-104850200D02*
X117724998Y-104850200D01*
X109240745Y-105053400D02*
X107121952Y-105053400D01*
X115731402Y-105053400D02*
X110419316Y-105053400D01*
X119497000Y-105053400D02*
X117521798Y-105053400D01*
X109545126Y-105256600D02*
X107121952Y-105256600D01*
X115528202Y-105256600D02*
X110114752Y-105256600D01*
X117921000Y-105256600D02*
X117318598Y-105256600D01*
X115325002Y-105459800D02*
X107121952Y-105459800D01*
X117921000Y-105459800D02*
X117115398Y-105459800D01*
X115121802Y-105663000D02*
X107121952Y-105663000D01*
X117921000Y-105663000D02*
X116912198Y-105663000D01*
X114918602Y-105866200D02*
X107121952Y-105866200D01*
X117921000Y-105866200D02*
X116708998Y-105866200D01*
X114715402Y-106069400D02*
X107119238Y-106069400D01*
X117921000Y-106069400D02*
X116505798Y-106069400D01*
X114552087Y-106272600D02*
X107170618Y-106272600D01*
X117991536Y-106272600D02*
X116302598Y-106272600D01*
X114471705Y-106475800D02*
X107239000Y-106475800D01*
X118039709Y-106475800D02*
X116099398Y-106475800D01*
X114447000Y-106679000D02*
X107239000Y-106679000D01*
X118038048Y-106679000D02*
X115896198Y-106679000D01*
X114447000Y-106882200D02*
X107239000Y-106882200D01*
X118038048Y-106882200D02*
X115713000Y-106882200D01*
X114377268Y-107085400D02*
X107239000Y-107085400D01*
X118038048Y-107085400D02*
X115782949Y-107085400D01*
X114292892Y-107288600D02*
X107239000Y-107288600D01*
X118038048Y-107288600D02*
X115866909Y-107288600D01*
X114272007Y-107491800D02*
X105663000Y-107491800D01*
X118038048Y-107491800D02*
X115888007Y-107491800D01*
X114286315Y-107695000D02*
X105663000Y-107695000D01*
X118038048Y-107695000D02*
X115873918Y-107695000D01*
X114370275Y-107898200D02*
X107239000Y-107898200D01*
X118038048Y-107898200D02*
X115789542Y-107898200D01*
X114538662Y-108101400D02*
X107239000Y-108101400D01*
X118038048Y-108101400D02*
X115621232Y-108101400D01*
X114910723Y-108304600D02*
X107239000Y-108304600D01*
X118038048Y-108304600D02*
X115248583Y-108304600D01*
X118038048Y-108507800D02*
X107239000Y-108507800D01*
X118077811Y-108711000D02*
X107239000Y-108711000D01*
X118238948Y-108914200D02*
X107159516Y-108914200D01*
X105760150Y-109117400D02*
X105715002Y-109117400D01*
X119497000Y-109117400D02*
X106980625Y-109117400D01*
X119497000Y-109320600D02*
X105663000Y-109320600D01*
X119497000Y-100886048D02*
X118556000Y-100886048D01*
X118367747Y-100921470D01*
X118194847Y-101032728D01*
X118078855Y-101202488D01*
X118038048Y-101404000D01*
X118038048Y-103132261D01*
X117941426Y-103092140D01*
X117619984Y-103091860D01*
X117322903Y-103214611D01*
X117095410Y-103441707D01*
X116972140Y-103738574D01*
X116972075Y-103812727D01*
X114632401Y-106152401D01*
X114495184Y-106357761D01*
X114446999Y-106600000D01*
X114447000Y-106600005D01*
X114447000Y-106990207D01*
X114395410Y-107041707D01*
X114272140Y-107338574D01*
X114271860Y-107660016D01*
X114394611Y-107957097D01*
X114621707Y-108184590D01*
X114918574Y-108307860D01*
X115240016Y-108308140D01*
X115537097Y-108185389D01*
X115764590Y-107958293D01*
X115887860Y-107661426D01*
X115888140Y-107339984D01*
X115765389Y-107042903D01*
X115713000Y-106990422D01*
X115713000Y-106862198D01*
X117867121Y-104708077D01*
X117940016Y-104708140D01*
X117950541Y-104703791D01*
X118079750Y-104833000D01*
X119445000Y-104833000D01*
X119445000Y-104813000D01*
X119497000Y-104813000D01*
X119497000Y-105107000D01*
X119445000Y-105107000D01*
X119445000Y-105087000D01*
X118079750Y-105087000D01*
X117921000Y-105245750D01*
X117921000Y-106102310D01*
X118017673Y-106335699D01*
X118059591Y-106377617D01*
X118038048Y-106484000D01*
X118038048Y-108516000D01*
X118073470Y-108704253D01*
X118184728Y-108877153D01*
X118354488Y-108993145D01*
X118556000Y-109033952D01*
X119497000Y-109033952D01*
X119497000Y-109417000D01*
X105663000Y-109417000D01*
X105663000Y-109231000D01*
X105715002Y-109231000D01*
X105715002Y-109072252D01*
X105873750Y-109231000D01*
X106730309Y-109231000D01*
X106963698Y-109134327D01*
X107142327Y-108955699D01*
X107239000Y-108722310D01*
X107239000Y-107865750D01*
X107080250Y-107707000D01*
X105715000Y-107707000D01*
X105715000Y-107727000D01*
X105663000Y-107727000D01*
X105663000Y-107433000D01*
X105715000Y-107433000D01*
X105715000Y-107453000D01*
X107080250Y-107453000D01*
X107239000Y-107294250D01*
X107239000Y-106437690D01*
X107142327Y-106204301D01*
X107100409Y-106162383D01*
X107121952Y-106056000D01*
X107121952Y-104024000D01*
X107086530Y-103835747D01*
X107044736Y-103770798D01*
X107081145Y-103717512D01*
X107121952Y-103516000D01*
X107121952Y-103108000D01*
X107578158Y-103108000D01*
X109021954Y-104551796D01*
X109021860Y-104660016D01*
X109144611Y-104957097D01*
X109371707Y-105184590D01*
X109668574Y-105307860D01*
X109990016Y-105308140D01*
X110287097Y-105185389D01*
X110514590Y-104958293D01*
X110637860Y-104661426D01*
X110638124Y-104358000D01*
X113795251Y-104358000D01*
X113871707Y-104434590D01*
X114168574Y-104557860D01*
X114490016Y-104558140D01*
X114787097Y-104435389D01*
X115014590Y-104208293D01*
X115137860Y-103911426D01*
X115138140Y-103589984D01*
X115015389Y-103292903D01*
X114788293Y-103065410D01*
X114491426Y-102942140D01*
X114169984Y-102941860D01*
X113872903Y-103064611D01*
X113795379Y-103142000D01*
X110388095Y-103142000D01*
X110388140Y-103089984D01*
X110265389Y-102792903D01*
X110038293Y-102565410D01*
X109741426Y-102442140D01*
X109419984Y-102441860D01*
X109122903Y-102564611D01*
X108938517Y-102748675D01*
X108259921Y-102070079D01*
X108062672Y-101938281D01*
X107830000Y-101892000D01*
X107121952Y-101892000D01*
X107121952Y-101484000D01*
X107086530Y-101295747D01*
X106975272Y-101122847D01*
X106805512Y-101006855D01*
X106604000Y-100966048D01*
X105663000Y-100966048D01*
X105663000Y-100583000D01*
X119497000Y-100583000D01*
X119497000Y-100886048D01*
M02*
