M48
;DRILL file {KiCad 4.0.7} date 06/10/18 15:36:26
;FORMAT={-:-/ absolute / metric / decimal}
FMAT,2
METRIC,TZ
T1C0.350
T2C0.400
T3C1.000
T4C2.500
T5C3.200
%
G90
G05
M71
T1
X120.Y-83.
X120.Y-93.
X120.Y-103.
X120.Y-123.
X120.Y-133.
X120.Y-143.
X125.Y-88.
X125.Y-99.
X125.Y-108.
X125.Y-118.
X125.Y-128.
X125.Y-138.
X130.Y-83.
X130.Y-93.
X130.Y-103.
X130.Y-123.
X130.Y-133.
X130.Y-143.
X135.Y-88.
X135.Y-98.
X135.Y-128.
X135.Y-138.
X140.Y-83.
X140.Y-93.
X140.Y-123.
X140.Y-133.
X140.Y-133.
X140.Y-143.
X145.Y-88.
X145.Y-108.
X145.Y-118.
X145.Y-138.
X150.Y-83.
X150.Y-93.
X150.Y-103.
X150.Y-123.
X150.Y-128.
X150.Y-133.
X150.Y-143.
X155.Y-88.
X155.Y-108.
X155.Y-118.
X155.Y-138.
X160.Y-83.
X160.Y-93.
X160.Y-113.
X160.Y-123.
X160.Y-133.
X160.Y-143.
X165.Y-88.
X165.Y-98.
X165.Y-128.
X165.Y-138.
X170.Y-83.
X170.Y-93.
X170.Y-103.
X170.Y-113.
X170.Y-123.
X170.Y-133.
X170.Y-143.
X175.Y-88.
X175.Y-98.
X175.Y-108.
X175.Y-118.
X175.Y-128.
X175.Y-138.
X180.Y-83.
X180.Y-93.
X180.Y-103.
X180.Y-113.
X180.Y-123.
X180.Y-133.
X180.Y-143.
T2
X116.5Y-63.
X117.Y-118.
X135.Y-114.5
X135.5Y-62.5
X139.5Y-65.5
X141.5Y-72.5
X144.5Y-69.
X146.5Y-61.5
X153.Y-60.
X153.Y-62.5
X157.5Y-66.5
X163.Y-87.
X170.5Y-62.5
X185.Y-118.
X190.Y-63.
T3
X148.46Y-65.
X148.46Y-67.54
X148.46Y-70.08
X148.46Y-72.62
X151.Y-65.
X151.Y-67.54
X151.Y-70.08
X151.Y-72.62
T4
X140.Y-101.
X140.Y-125.
X150.Y-113.
X160.Y-101.
X160.Y-125.
T5
X107.Y-83.
X107.Y-143.
X193.Y-83.
X193.Y-143.
T0
M30
