%FSLAX45Y45*%
G04 Gerber Fmt 4.5, Leading zero omitted, Abs format (unit mm)*
G04 Created by KiCad (PCBNEW 4.0.7) date 06/10/18 15:36:26*
%MOMM*%
%LPD*%
G01*
G04 APERTURE LIST*
%ADD10C,0.127000*%
%ADD11C,0.100000*%
%ADD12C,0.200000*%
%ADD13C,0.300000*%
G04 APERTURE END LIST*
D10*
D11*
X10000000Y-5000000D02*
X10000000Y-15000000D01*
X20000000Y-5000000D02*
X10000000Y-5000000D01*
X20000000Y-15000000D02*
X20000000Y-5000000D01*
X10000000Y-15000000D02*
X20000000Y-15000000D01*
D12*
X11982500Y-8282500D02*
X12017500Y-8317500D01*
X12017500Y-8282500D02*
X11982500Y-8317500D01*
X11982500Y-9282500D02*
X12017500Y-9317500D01*
X12017500Y-9282500D02*
X11982500Y-9317500D01*
X11982500Y-10282500D02*
X12017500Y-10317500D01*
X12017500Y-10282500D02*
X11982500Y-10317500D01*
X11982500Y-12282500D02*
X12017500Y-12317500D01*
X12017500Y-12282500D02*
X11982500Y-12317500D01*
X11982500Y-13282500D02*
X12017500Y-13317500D01*
X12017500Y-13282500D02*
X11982500Y-13317500D01*
X11982500Y-14282500D02*
X12017500Y-14317500D01*
X12017500Y-14282500D02*
X11982500Y-14317500D01*
X12482500Y-8782500D02*
X12517500Y-8817500D01*
X12517500Y-8782500D02*
X12482500Y-8817500D01*
X12482500Y-9882500D02*
X12517500Y-9917500D01*
X12517500Y-9882500D02*
X12482500Y-9917500D01*
X12482500Y-10782500D02*
X12517500Y-10817500D01*
X12517500Y-10782500D02*
X12482500Y-10817500D01*
X12482500Y-11782500D02*
X12517500Y-11817500D01*
X12517500Y-11782500D02*
X12482500Y-11817500D01*
X12482500Y-12782500D02*
X12517500Y-12817500D01*
X12517500Y-12782500D02*
X12482500Y-12817500D01*
X12482500Y-13782500D02*
X12517500Y-13817500D01*
X12517500Y-13782500D02*
X12482500Y-13817500D01*
X12982500Y-8282500D02*
X13017500Y-8317500D01*
X13017500Y-8282500D02*
X12982500Y-8317500D01*
X12982500Y-9282500D02*
X13017500Y-9317500D01*
X13017500Y-9282500D02*
X12982500Y-9317500D01*
X12982500Y-10282500D02*
X13017500Y-10317500D01*
X13017500Y-10282500D02*
X12982500Y-10317500D01*
X12982500Y-12282500D02*
X13017500Y-12317500D01*
X13017500Y-12282500D02*
X12982500Y-12317500D01*
X12982500Y-13282500D02*
X13017500Y-13317500D01*
X13017500Y-13282500D02*
X12982500Y-13317500D01*
X12982500Y-14282500D02*
X13017500Y-14317500D01*
X13017500Y-14282500D02*
X12982500Y-14317500D01*
X13482500Y-8782500D02*
X13517500Y-8817500D01*
X13517500Y-8782500D02*
X13482500Y-8817500D01*
X13482500Y-9782500D02*
X13517500Y-9817500D01*
X13517500Y-9782500D02*
X13482500Y-9817500D01*
X13482500Y-12782500D02*
X13517500Y-12817500D01*
X13517500Y-12782500D02*
X13482500Y-12817500D01*
X13482500Y-13782500D02*
X13517500Y-13817500D01*
X13517500Y-13782500D02*
X13482500Y-13817500D01*
X13982500Y-8282500D02*
X14017500Y-8317500D01*
X14017500Y-8282500D02*
X13982500Y-8317500D01*
X13982500Y-9282500D02*
X14017500Y-9317500D01*
X14017500Y-9282500D02*
X13982500Y-9317500D01*
X13982500Y-12282500D02*
X14017500Y-12317500D01*
X14017500Y-12282500D02*
X13982500Y-12317500D01*
X13982500Y-13282500D02*
X14017500Y-13317500D01*
X14017500Y-13282500D02*
X13982500Y-13317500D01*
X13982500Y-13282500D02*
X14017500Y-13317500D01*
X14017500Y-13282500D02*
X13982500Y-13317500D01*
X13982500Y-14282500D02*
X14017500Y-14317500D01*
X14017500Y-14282500D02*
X13982500Y-14317500D01*
X14482500Y-8782500D02*
X14517500Y-8817500D01*
X14517500Y-8782500D02*
X14482500Y-8817500D01*
X14482500Y-10782500D02*
X14517500Y-10817500D01*
X14517500Y-10782500D02*
X14482500Y-10817500D01*
X14482500Y-11782500D02*
X14517500Y-11817500D01*
X14517500Y-11782500D02*
X14482500Y-11817500D01*
X14482500Y-13782500D02*
X14517500Y-13817500D01*
X14517500Y-13782500D02*
X14482500Y-13817500D01*
X14982500Y-8282500D02*
X15017500Y-8317500D01*
X15017500Y-8282500D02*
X14982500Y-8317500D01*
X14982500Y-9282500D02*
X15017500Y-9317500D01*
X15017500Y-9282500D02*
X14982500Y-9317500D01*
X14982500Y-10282500D02*
X15017500Y-10317500D01*
X15017500Y-10282500D02*
X14982500Y-10317500D01*
X14982500Y-12282500D02*
X15017500Y-12317500D01*
X15017500Y-12282500D02*
X14982500Y-12317500D01*
X14982500Y-12782500D02*
X15017500Y-12817500D01*
X15017500Y-12782500D02*
X14982500Y-12817500D01*
X14982500Y-13282500D02*
X15017500Y-13317500D01*
X15017500Y-13282500D02*
X14982500Y-13317500D01*
X14982500Y-14282500D02*
X15017500Y-14317500D01*
X15017500Y-14282500D02*
X14982500Y-14317500D01*
X15482500Y-8782500D02*
X15517500Y-8817500D01*
X15517500Y-8782500D02*
X15482500Y-8817500D01*
X15482500Y-10782500D02*
X15517500Y-10817500D01*
X15517500Y-10782500D02*
X15482500Y-10817500D01*
X15482500Y-11782500D02*
X15517500Y-11817500D01*
X15517500Y-11782500D02*
X15482500Y-11817500D01*
X15482500Y-13782500D02*
X15517500Y-13817500D01*
X15517500Y-13782500D02*
X15482500Y-13817500D01*
X15982500Y-8282500D02*
X16017500Y-8317500D01*
X16017500Y-8282500D02*
X15982500Y-8317500D01*
X15982500Y-9282500D02*
X16017500Y-9317500D01*
X16017500Y-9282500D02*
X15982500Y-9317500D01*
X15982500Y-11282500D02*
X16017500Y-11317500D01*
X16017500Y-11282500D02*
X15982500Y-11317500D01*
X15982500Y-12282500D02*
X16017500Y-12317500D01*
X16017500Y-12282500D02*
X15982500Y-12317500D01*
X15982500Y-13282500D02*
X16017500Y-13317500D01*
X16017500Y-13282500D02*
X15982500Y-13317500D01*
X15982500Y-14282500D02*
X16017500Y-14317500D01*
X16017500Y-14282500D02*
X15982500Y-14317500D01*
X16482500Y-8782500D02*
X16517500Y-8817500D01*
X16517500Y-8782500D02*
X16482500Y-8817500D01*
X16482500Y-9782500D02*
X16517500Y-9817500D01*
X16517500Y-9782500D02*
X16482500Y-9817500D01*
X16482500Y-12782500D02*
X16517500Y-12817500D01*
X16517500Y-12782500D02*
X16482500Y-12817500D01*
X16482500Y-13782500D02*
X16517500Y-13817500D01*
X16517500Y-13782500D02*
X16482500Y-13817500D01*
X16982500Y-8282500D02*
X17017500Y-8317500D01*
X17017500Y-8282500D02*
X16982500Y-8317500D01*
X16982500Y-9282500D02*
X17017500Y-9317500D01*
X17017500Y-9282500D02*
X16982500Y-9317500D01*
X16982500Y-10282500D02*
X17017500Y-10317500D01*
X17017500Y-10282500D02*
X16982500Y-10317500D01*
X16982500Y-11282500D02*
X17017500Y-11317500D01*
X17017500Y-11282500D02*
X16982500Y-11317500D01*
X16982500Y-12282500D02*
X17017500Y-12317500D01*
X17017500Y-12282500D02*
X16982500Y-12317500D01*
X16982500Y-13282500D02*
X17017500Y-13317500D01*
X17017500Y-13282500D02*
X16982500Y-13317500D01*
X16982500Y-14282500D02*
X17017500Y-14317500D01*
X17017500Y-14282500D02*
X16982500Y-14317500D01*
X17482500Y-8782500D02*
X17517500Y-8817500D01*
X17517500Y-8782500D02*
X17482500Y-8817500D01*
X17482500Y-9782500D02*
X17517500Y-9817500D01*
X17517500Y-9782500D02*
X17482500Y-9817500D01*
X17482500Y-10782500D02*
X17517500Y-10817500D01*
X17517500Y-10782500D02*
X17482500Y-10817500D01*
X17482500Y-11782500D02*
X17517500Y-11817500D01*
X17517500Y-11782500D02*
X17482500Y-11817500D01*
X17482500Y-12782500D02*
X17517500Y-12817500D01*
X17517500Y-12782500D02*
X17482500Y-12817500D01*
X17482500Y-13782500D02*
X17517500Y-13817500D01*
X17517500Y-13782500D02*
X17482500Y-13817500D01*
X17982500Y-8282500D02*
X18017500Y-8317500D01*
X18017500Y-8282500D02*
X17982500Y-8317500D01*
X17982500Y-9282500D02*
X18017500Y-9317500D01*
X18017500Y-9282500D02*
X17982500Y-9317500D01*
X17982500Y-10282500D02*
X18017500Y-10317500D01*
X18017500Y-10282500D02*
X17982500Y-10317500D01*
X17982500Y-11282500D02*
X18017500Y-11317500D01*
X18017500Y-11282500D02*
X17982500Y-11317500D01*
X17982500Y-12282500D02*
X18017500Y-12317500D01*
X18017500Y-12282500D02*
X17982500Y-12317500D01*
X17982500Y-13282500D02*
X18017500Y-13317500D01*
X18017500Y-13282500D02*
X17982500Y-13317500D01*
X17982500Y-14282500D02*
X18017500Y-14317500D01*
X18017500Y-14282500D02*
X17982500Y-14317500D01*
X11670000Y-6300000D02*
G75*
G03X11670000Y-6300000I-20000J0D01*
G01*
X11720000Y-11800000D02*
G75*
G03X11720000Y-11800000I-20000J0D01*
G01*
X13519999Y-11450000D02*
G75*
G03X13519999Y-11450000I-20000J0D01*
G01*
X13570000Y-6250000D02*
G75*
G03X13570000Y-6250000I-20000J0D01*
G01*
X13970000Y-6550000D02*
G75*
G03X13970000Y-6550000I-20000J0D01*
G01*
X14170000Y-7250000D02*
G75*
G03X14170000Y-7250000I-20000J0D01*
G01*
X14470000Y-6900000D02*
G75*
G03X14470000Y-6900000I-20000J0D01*
G01*
X14670000Y-6150000D02*
G75*
G03X14670000Y-6150000I-20000J0D01*
G01*
X15320000Y-6000000D02*
G75*
G03X15320000Y-6000000I-20000J0D01*
G01*
X15320000Y-6250000D02*
G75*
G03X15320000Y-6250000I-20000J0D01*
G01*
X15770000Y-6650000D02*
G75*
G03X15770000Y-6650000I-20000J0D01*
G01*
X16320000Y-8700000D02*
G75*
G03X16320000Y-8700000I-20000J0D01*
G01*
X17070000Y-6250000D02*
G75*
G03X17070000Y-6250000I-20000J0D01*
G01*
X18520000Y-11800000D02*
G75*
G03X18520000Y-11800000I-20000J0D01*
G01*
X19020000Y-6300000D02*
G75*
G03X19020000Y-6300000I-20000J0D01*
G01*
X14846000Y-6450000D02*
X14846000Y-6550000D01*
X14796000Y-6500000D02*
X14896000Y-6500000D01*
X14846000Y-6704000D02*
X14846000Y-6804000D01*
X14796000Y-6754000D02*
X14896000Y-6754000D01*
X14846000Y-6958000D02*
X14846000Y-7058000D01*
X14796000Y-7008000D02*
X14896000Y-7008000D01*
X14846000Y-7212000D02*
X14846000Y-7312000D01*
X14796000Y-7262000D02*
X14896000Y-7262000D01*
X15100000Y-6450000D02*
X15100000Y-6550000D01*
X15050000Y-6500000D02*
X15150000Y-6500000D01*
X15100000Y-6704000D02*
X15100000Y-6804000D01*
X15050000Y-6754000D02*
X15150000Y-6754000D01*
X15100000Y-6958000D02*
X15100000Y-7058000D01*
X15050000Y-7008000D02*
X15150000Y-7008000D01*
X15100000Y-7212000D02*
X15100000Y-7312000D01*
X15050000Y-7262000D02*
X15150000Y-7262000D01*
X14088389Y-10188389D02*
X14088389Y-10011611D01*
X13911611Y-10011611D01*
X13911611Y-10188389D01*
X14088389Y-10188389D01*
X14088389Y-12588389D02*
X14088389Y-12411611D01*
X13911611Y-12411611D01*
X13911611Y-12588389D01*
X14088389Y-12588389D01*
X15088389Y-11388389D02*
X15088389Y-11211611D01*
X14911611Y-11211611D01*
X14911611Y-11388389D01*
X15088389Y-11388389D01*
X16088389Y-10188389D02*
X16088389Y-10011611D01*
X15911611Y-10011611D01*
X15911611Y-10188389D01*
X16088389Y-10188389D01*
X16088389Y-12588389D02*
X16088389Y-12411611D01*
X15911611Y-12411611D01*
X15911611Y-12588389D01*
X16088389Y-12588389D01*
X10700000Y-8460000D02*
X10860000Y-8300000D01*
X10700000Y-8140000D01*
X10540000Y-8300000D01*
X10700000Y-8460000D01*
X10700000Y-14460000D02*
X10860000Y-14300000D01*
X10700000Y-14140000D01*
X10540000Y-14300000D01*
X10700000Y-14460000D01*
X19300000Y-8460000D02*
X19460000Y-8300000D01*
X19300000Y-8140000D01*
X19140000Y-8300000D01*
X19300000Y-8460000D01*
X19300000Y-14460000D02*
X19460000Y-14300000D01*
X19300000Y-14140000D01*
X19140000Y-14300000D01*
X19300000Y-14460000D01*
D13*
X10266429Y-15470714D02*
X10266429Y-15170714D01*
X10337857Y-15170714D01*
X10380714Y-15185000D01*
X10409286Y-15213571D01*
X10423571Y-15242143D01*
X10437857Y-15299286D01*
X10437857Y-15342143D01*
X10423571Y-15399286D01*
X10409286Y-15427857D01*
X10380714Y-15456429D01*
X10337857Y-15470714D01*
X10266429Y-15470714D01*
X10566429Y-15470714D02*
X10566429Y-15270714D01*
X10566429Y-15327857D02*
X10580714Y-15299286D01*
X10595000Y-15285000D01*
X10623571Y-15270714D01*
X10652143Y-15270714D01*
X10752143Y-15470714D02*
X10752143Y-15270714D01*
X10752143Y-15170714D02*
X10737857Y-15185000D01*
X10752143Y-15199286D01*
X10766429Y-15185000D01*
X10752143Y-15170714D01*
X10752143Y-15199286D01*
X10937857Y-15470714D02*
X10909286Y-15456429D01*
X10895000Y-15427857D01*
X10895000Y-15170714D01*
X11095000Y-15470714D02*
X11066429Y-15456429D01*
X11052143Y-15427857D01*
X11052143Y-15170714D01*
X11437857Y-15470714D02*
X11437857Y-15170714D01*
X11537857Y-15385000D01*
X11637857Y-15170714D01*
X11637857Y-15470714D01*
X11909286Y-15470714D02*
X11909286Y-15313571D01*
X11895000Y-15285000D01*
X11866428Y-15270714D01*
X11809286Y-15270714D01*
X11780714Y-15285000D01*
X11909286Y-15456429D02*
X11880714Y-15470714D01*
X11809286Y-15470714D01*
X11780714Y-15456429D01*
X11766428Y-15427857D01*
X11766428Y-15399286D01*
X11780714Y-15370714D01*
X11809286Y-15356429D01*
X11880714Y-15356429D01*
X11909286Y-15342143D01*
X12052143Y-15270714D02*
X12052143Y-15570714D01*
X12052143Y-15285000D02*
X12080714Y-15270714D01*
X12137857Y-15270714D01*
X12166428Y-15285000D01*
X12180714Y-15299286D01*
X12195000Y-15327857D01*
X12195000Y-15413571D01*
X12180714Y-15442143D01*
X12166428Y-15456429D01*
X12137857Y-15470714D01*
X12080714Y-15470714D01*
X12052143Y-15456429D01*
X12323571Y-15442143D02*
X12337857Y-15456429D01*
X12323571Y-15470714D01*
X12309286Y-15456429D01*
X12323571Y-15442143D01*
X12323571Y-15470714D01*
X12323571Y-15285000D02*
X12337857Y-15299286D01*
X12323571Y-15313571D01*
X12309286Y-15299286D01*
X12323571Y-15285000D01*
X12323571Y-15313571D01*
X9960000Y-15947500D02*
X9995000Y-15982500D01*
X9995000Y-15947500D02*
X9960000Y-15982500D01*
X10323571Y-15800714D02*
X10352143Y-15800714D01*
X10380714Y-15815000D01*
X10395000Y-15829286D01*
X10409286Y-15857857D01*
X10423571Y-15915000D01*
X10423571Y-15986429D01*
X10409286Y-16043571D01*
X10395000Y-16072143D01*
X10380714Y-16086429D01*
X10352143Y-16100714D01*
X10323571Y-16100714D01*
X10295000Y-16086429D01*
X10280714Y-16072143D01*
X10266429Y-16043571D01*
X10252143Y-15986429D01*
X10252143Y-15915000D01*
X10266429Y-15857857D01*
X10280714Y-15829286D01*
X10295000Y-15815000D01*
X10323571Y-15800714D01*
X10552143Y-16072143D02*
X10566429Y-16086429D01*
X10552143Y-16100714D01*
X10537857Y-16086429D01*
X10552143Y-16072143D01*
X10552143Y-16100714D01*
X10666428Y-15800714D02*
X10852143Y-15800714D01*
X10752143Y-15915000D01*
X10795000Y-15915000D01*
X10823571Y-15929286D01*
X10837857Y-15943571D01*
X10852143Y-15972143D01*
X10852143Y-16043571D01*
X10837857Y-16072143D01*
X10823571Y-16086429D01*
X10795000Y-16100714D01*
X10709286Y-16100714D01*
X10680714Y-16086429D01*
X10666428Y-16072143D01*
X11123571Y-15800714D02*
X10980714Y-15800714D01*
X10966429Y-15943571D01*
X10980714Y-15929286D01*
X11009286Y-15915000D01*
X11080714Y-15915000D01*
X11109286Y-15929286D01*
X11123571Y-15943571D01*
X11137857Y-15972143D01*
X11137857Y-16043571D01*
X11123571Y-16072143D01*
X11109286Y-16086429D01*
X11080714Y-16100714D01*
X11009286Y-16100714D01*
X10980714Y-16086429D01*
X10966429Y-16072143D01*
X11266428Y-16100714D02*
X11266428Y-15900714D01*
X11266428Y-15929286D02*
X11280714Y-15915000D01*
X11309286Y-15900714D01*
X11352143Y-15900714D01*
X11380714Y-15915000D01*
X11395000Y-15943571D01*
X11395000Y-16100714D01*
X11395000Y-15943571D02*
X11409286Y-15915000D01*
X11437857Y-15900714D01*
X11480714Y-15900714D01*
X11509286Y-15915000D01*
X11523571Y-15943571D01*
X11523571Y-16100714D01*
X11666428Y-16100714D02*
X11666428Y-15900714D01*
X11666428Y-15929286D02*
X11680714Y-15915000D01*
X11709286Y-15900714D01*
X11752143Y-15900714D01*
X11780714Y-15915000D01*
X11795000Y-15943571D01*
X11795000Y-16100714D01*
X11795000Y-15943571D02*
X11809286Y-15915000D01*
X11837857Y-15900714D01*
X11880714Y-15900714D01*
X11909286Y-15915000D01*
X11923571Y-15943571D01*
X11923571Y-16100714D01*
X12509286Y-15786429D02*
X12252143Y-16172143D01*
X12895000Y-15800714D02*
X12923571Y-15800714D01*
X12952143Y-15815000D01*
X12966428Y-15829286D01*
X12980714Y-15857857D01*
X12995000Y-15915000D01*
X12995000Y-15986429D01*
X12980714Y-16043571D01*
X12966428Y-16072143D01*
X12952143Y-16086429D01*
X12923571Y-16100714D01*
X12895000Y-16100714D01*
X12866428Y-16086429D01*
X12852143Y-16072143D01*
X12837857Y-16043571D01*
X12823571Y-15986429D01*
X12823571Y-15915000D01*
X12837857Y-15857857D01*
X12852143Y-15829286D01*
X12866428Y-15815000D01*
X12895000Y-15800714D01*
X13123571Y-16072143D02*
X13137857Y-16086429D01*
X13123571Y-16100714D01*
X13109286Y-16086429D01*
X13123571Y-16072143D01*
X13123571Y-16100714D01*
X13323571Y-15800714D02*
X13352143Y-15800714D01*
X13380714Y-15815000D01*
X13395000Y-15829286D01*
X13409285Y-15857857D01*
X13423571Y-15915000D01*
X13423571Y-15986429D01*
X13409285Y-16043571D01*
X13395000Y-16072143D01*
X13380714Y-16086429D01*
X13352143Y-16100714D01*
X13323571Y-16100714D01*
X13295000Y-16086429D01*
X13280714Y-16072143D01*
X13266428Y-16043571D01*
X13252143Y-15986429D01*
X13252143Y-15915000D01*
X13266428Y-15857857D01*
X13280714Y-15829286D01*
X13295000Y-15815000D01*
X13323571Y-15800714D01*
X13709285Y-16100714D02*
X13537857Y-16100714D01*
X13623571Y-16100714D02*
X13623571Y-15800714D01*
X13595000Y-15843571D01*
X13566428Y-15872143D01*
X13537857Y-15886429D01*
X13966428Y-15900714D02*
X13966428Y-16100714D01*
X13895000Y-15786429D02*
X13823571Y-16000714D01*
X14009285Y-16000714D01*
X14109286Y-15800714D02*
X14109286Y-15857857D01*
X14223571Y-15800714D02*
X14223571Y-15857857D01*
X14666428Y-16215000D02*
X14652143Y-16200714D01*
X14623571Y-16157857D01*
X14609285Y-16129286D01*
X14595000Y-16086429D01*
X14580714Y-16015000D01*
X14580714Y-15957857D01*
X14595000Y-15886429D01*
X14609285Y-15843571D01*
X14623571Y-15815000D01*
X14652143Y-15772143D01*
X14666428Y-15757857D01*
X14752143Y-15800714D02*
X14952143Y-15800714D01*
X14823571Y-16100714D01*
X15037857Y-15800714D02*
X15223571Y-15800714D01*
X15123571Y-15915000D01*
X15166428Y-15915000D01*
X15195000Y-15929286D01*
X15209285Y-15943571D01*
X15223571Y-15972143D01*
X15223571Y-16043571D01*
X15209285Y-16072143D01*
X15195000Y-16086429D01*
X15166428Y-16100714D01*
X15080714Y-16100714D01*
X15052143Y-16086429D01*
X15037857Y-16072143D01*
X15580714Y-16100714D02*
X15580714Y-15800714D01*
X15709285Y-16100714D02*
X15709285Y-15943571D01*
X15695000Y-15915000D01*
X15666428Y-15900714D01*
X15623571Y-15900714D01*
X15595000Y-15915000D01*
X15580714Y-15929286D01*
X15895000Y-16100714D02*
X15866428Y-16086429D01*
X15852143Y-16072143D01*
X15837857Y-16043571D01*
X15837857Y-15957857D01*
X15852143Y-15929286D01*
X15866428Y-15915000D01*
X15895000Y-15900714D01*
X15937857Y-15900714D01*
X15966428Y-15915000D01*
X15980714Y-15929286D01*
X15995000Y-15957857D01*
X15995000Y-16043571D01*
X15980714Y-16072143D01*
X15966428Y-16086429D01*
X15937857Y-16100714D01*
X15895000Y-16100714D01*
X16166428Y-16100714D02*
X16137857Y-16086429D01*
X16123571Y-16057857D01*
X16123571Y-15800714D01*
X16395000Y-16086429D02*
X16366428Y-16100714D01*
X16309286Y-16100714D01*
X16280714Y-16086429D01*
X16266428Y-16057857D01*
X16266428Y-15943571D01*
X16280714Y-15915000D01*
X16309286Y-15900714D01*
X16366428Y-15900714D01*
X16395000Y-15915000D01*
X16409286Y-15943571D01*
X16409286Y-15972143D01*
X16266428Y-16000714D01*
X16523571Y-16086429D02*
X16552143Y-16100714D01*
X16609286Y-16100714D01*
X16637857Y-16086429D01*
X16652143Y-16057857D01*
X16652143Y-16043571D01*
X16637857Y-16015000D01*
X16609286Y-16000714D01*
X16566428Y-16000714D01*
X16537857Y-15986429D01*
X16523571Y-15957857D01*
X16523571Y-15943571D01*
X16537857Y-15915000D01*
X16566428Y-15900714D01*
X16609286Y-15900714D01*
X16637857Y-15915000D01*
X16752143Y-16215000D02*
X16766428Y-16200714D01*
X16795000Y-16157857D01*
X16809286Y-16129286D01*
X16823571Y-16086429D01*
X16837857Y-16015000D01*
X16837857Y-15957857D01*
X16823571Y-15886429D01*
X16809286Y-15843571D01*
X16795000Y-15815000D01*
X16766428Y-15772143D01*
X16752143Y-15757857D01*
X9995000Y-16361000D02*
G75*
G03X9995000Y-16361000I-20000J0D01*
G01*
X10323571Y-16196714D02*
X10352143Y-16196714D01*
X10380714Y-16211000D01*
X10395000Y-16225286D01*
X10409286Y-16253857D01*
X10423571Y-16311000D01*
X10423571Y-16382429D01*
X10409286Y-16439571D01*
X10395000Y-16468143D01*
X10380714Y-16482429D01*
X10352143Y-16496714D01*
X10323571Y-16496714D01*
X10295000Y-16482429D01*
X10280714Y-16468143D01*
X10266429Y-16439571D01*
X10252143Y-16382429D01*
X10252143Y-16311000D01*
X10266429Y-16253857D01*
X10280714Y-16225286D01*
X10295000Y-16211000D01*
X10323571Y-16196714D01*
X10552143Y-16468143D02*
X10566429Y-16482429D01*
X10552143Y-16496714D01*
X10537857Y-16482429D01*
X10552143Y-16468143D01*
X10552143Y-16496714D01*
X10823571Y-16296714D02*
X10823571Y-16496714D01*
X10752143Y-16182429D02*
X10680714Y-16396714D01*
X10866428Y-16396714D01*
X11037857Y-16196714D02*
X11066429Y-16196714D01*
X11095000Y-16211000D01*
X11109286Y-16225286D01*
X11123571Y-16253857D01*
X11137857Y-16311000D01*
X11137857Y-16382429D01*
X11123571Y-16439571D01*
X11109286Y-16468143D01*
X11095000Y-16482429D01*
X11066429Y-16496714D01*
X11037857Y-16496714D01*
X11009286Y-16482429D01*
X10995000Y-16468143D01*
X10980714Y-16439571D01*
X10966429Y-16382429D01*
X10966429Y-16311000D01*
X10980714Y-16253857D01*
X10995000Y-16225286D01*
X11009286Y-16211000D01*
X11037857Y-16196714D01*
X11266428Y-16496714D02*
X11266428Y-16296714D01*
X11266428Y-16325286D02*
X11280714Y-16311000D01*
X11309286Y-16296714D01*
X11352143Y-16296714D01*
X11380714Y-16311000D01*
X11395000Y-16339571D01*
X11395000Y-16496714D01*
X11395000Y-16339571D02*
X11409286Y-16311000D01*
X11437857Y-16296714D01*
X11480714Y-16296714D01*
X11509286Y-16311000D01*
X11523571Y-16339571D01*
X11523571Y-16496714D01*
X11666428Y-16496714D02*
X11666428Y-16296714D01*
X11666428Y-16325286D02*
X11680714Y-16311000D01*
X11709286Y-16296714D01*
X11752143Y-16296714D01*
X11780714Y-16311000D01*
X11795000Y-16339571D01*
X11795000Y-16496714D01*
X11795000Y-16339571D02*
X11809286Y-16311000D01*
X11837857Y-16296714D01*
X11880714Y-16296714D01*
X11909286Y-16311000D01*
X11923571Y-16339571D01*
X11923571Y-16496714D01*
X12509286Y-16182429D02*
X12252143Y-16568143D01*
X12895000Y-16196714D02*
X12923571Y-16196714D01*
X12952143Y-16211000D01*
X12966428Y-16225286D01*
X12980714Y-16253857D01*
X12995000Y-16311000D01*
X12995000Y-16382429D01*
X12980714Y-16439571D01*
X12966428Y-16468143D01*
X12952143Y-16482429D01*
X12923571Y-16496714D01*
X12895000Y-16496714D01*
X12866428Y-16482429D01*
X12852143Y-16468143D01*
X12837857Y-16439571D01*
X12823571Y-16382429D01*
X12823571Y-16311000D01*
X12837857Y-16253857D01*
X12852143Y-16225286D01*
X12866428Y-16211000D01*
X12895000Y-16196714D01*
X13123571Y-16468143D02*
X13137857Y-16482429D01*
X13123571Y-16496714D01*
X13109286Y-16482429D01*
X13123571Y-16468143D01*
X13123571Y-16496714D01*
X13323571Y-16196714D02*
X13352143Y-16196714D01*
X13380714Y-16211000D01*
X13395000Y-16225286D01*
X13409285Y-16253857D01*
X13423571Y-16311000D01*
X13423571Y-16382429D01*
X13409285Y-16439571D01*
X13395000Y-16468143D01*
X13380714Y-16482429D01*
X13352143Y-16496714D01*
X13323571Y-16496714D01*
X13295000Y-16482429D01*
X13280714Y-16468143D01*
X13266428Y-16439571D01*
X13252143Y-16382429D01*
X13252143Y-16311000D01*
X13266428Y-16253857D01*
X13280714Y-16225286D01*
X13295000Y-16211000D01*
X13323571Y-16196714D01*
X13709285Y-16496714D02*
X13537857Y-16496714D01*
X13623571Y-16496714D02*
X13623571Y-16196714D01*
X13595000Y-16239571D01*
X13566428Y-16268143D01*
X13537857Y-16282429D01*
X13966428Y-16196714D02*
X13909285Y-16196714D01*
X13880714Y-16211000D01*
X13866428Y-16225286D01*
X13837857Y-16268143D01*
X13823571Y-16325286D01*
X13823571Y-16439571D01*
X13837857Y-16468143D01*
X13852143Y-16482429D01*
X13880714Y-16496714D01*
X13937857Y-16496714D01*
X13966428Y-16482429D01*
X13980714Y-16468143D01*
X13995000Y-16439571D01*
X13995000Y-16368143D01*
X13980714Y-16339571D01*
X13966428Y-16325286D01*
X13937857Y-16311000D01*
X13880714Y-16311000D01*
X13852143Y-16325286D01*
X13837857Y-16339571D01*
X13823571Y-16368143D01*
X14109286Y-16196714D02*
X14109286Y-16253857D01*
X14223571Y-16196714D02*
X14223571Y-16253857D01*
X14666428Y-16611000D02*
X14652143Y-16596714D01*
X14623571Y-16553857D01*
X14609285Y-16525286D01*
X14595000Y-16482429D01*
X14580714Y-16411000D01*
X14580714Y-16353857D01*
X14595000Y-16282429D01*
X14609285Y-16239571D01*
X14623571Y-16211000D01*
X14652143Y-16168143D01*
X14666428Y-16153857D01*
X14937857Y-16496714D02*
X14766428Y-16496714D01*
X14852143Y-16496714D02*
X14852143Y-16196714D01*
X14823571Y-16239571D01*
X14795000Y-16268143D01*
X14766428Y-16282429D01*
X15209285Y-16196714D02*
X15066428Y-16196714D01*
X15052143Y-16339571D01*
X15066428Y-16325286D01*
X15095000Y-16311000D01*
X15166428Y-16311000D01*
X15195000Y-16325286D01*
X15209285Y-16339571D01*
X15223571Y-16368143D01*
X15223571Y-16439571D01*
X15209285Y-16468143D01*
X15195000Y-16482429D01*
X15166428Y-16496714D01*
X15095000Y-16496714D01*
X15066428Y-16482429D01*
X15052143Y-16468143D01*
X15580714Y-16496714D02*
X15580714Y-16196714D01*
X15709285Y-16496714D02*
X15709285Y-16339571D01*
X15695000Y-16311000D01*
X15666428Y-16296714D01*
X15623571Y-16296714D01*
X15595000Y-16311000D01*
X15580714Y-16325286D01*
X15895000Y-16496714D02*
X15866428Y-16482429D01*
X15852143Y-16468143D01*
X15837857Y-16439571D01*
X15837857Y-16353857D01*
X15852143Y-16325286D01*
X15866428Y-16311000D01*
X15895000Y-16296714D01*
X15937857Y-16296714D01*
X15966428Y-16311000D01*
X15980714Y-16325286D01*
X15995000Y-16353857D01*
X15995000Y-16439571D01*
X15980714Y-16468143D01*
X15966428Y-16482429D01*
X15937857Y-16496714D01*
X15895000Y-16496714D01*
X16166428Y-16496714D02*
X16137857Y-16482429D01*
X16123571Y-16453857D01*
X16123571Y-16196714D01*
X16395000Y-16482429D02*
X16366428Y-16496714D01*
X16309286Y-16496714D01*
X16280714Y-16482429D01*
X16266428Y-16453857D01*
X16266428Y-16339571D01*
X16280714Y-16311000D01*
X16309286Y-16296714D01*
X16366428Y-16296714D01*
X16395000Y-16311000D01*
X16409286Y-16339571D01*
X16409286Y-16368143D01*
X16266428Y-16396714D01*
X16523571Y-16482429D02*
X16552143Y-16496714D01*
X16609286Y-16496714D01*
X16637857Y-16482429D01*
X16652143Y-16453857D01*
X16652143Y-16439571D01*
X16637857Y-16411000D01*
X16609286Y-16396714D01*
X16566428Y-16396714D01*
X16537857Y-16382429D01*
X16523571Y-16353857D01*
X16523571Y-16339571D01*
X16537857Y-16311000D01*
X16566428Y-16296714D01*
X16609286Y-16296714D01*
X16637857Y-16311000D01*
X16752143Y-16611000D02*
X16766428Y-16596714D01*
X16795000Y-16553857D01*
X16809286Y-16525286D01*
X16823571Y-16482429D01*
X16837857Y-16411000D01*
X16837857Y-16353857D01*
X16823571Y-16282429D01*
X16809286Y-16239571D01*
X16795000Y-16211000D01*
X16766428Y-16168143D01*
X16752143Y-16153857D01*
X9945000Y-16707000D02*
X9945000Y-16807000D01*
X9895000Y-16757000D02*
X9995000Y-16757000D01*
X10423571Y-16892714D02*
X10252143Y-16892714D01*
X10337857Y-16892714D02*
X10337857Y-16592714D01*
X10309286Y-16635571D01*
X10280714Y-16664143D01*
X10252143Y-16678429D01*
X10552143Y-16864143D02*
X10566429Y-16878429D01*
X10552143Y-16892714D01*
X10537857Y-16878429D01*
X10552143Y-16864143D01*
X10552143Y-16892714D01*
X10752143Y-16592714D02*
X10780714Y-16592714D01*
X10809286Y-16607000D01*
X10823571Y-16621286D01*
X10837857Y-16649857D01*
X10852143Y-16707000D01*
X10852143Y-16778429D01*
X10837857Y-16835572D01*
X10823571Y-16864143D01*
X10809286Y-16878429D01*
X10780714Y-16892714D01*
X10752143Y-16892714D01*
X10723571Y-16878429D01*
X10709286Y-16864143D01*
X10695000Y-16835572D01*
X10680714Y-16778429D01*
X10680714Y-16707000D01*
X10695000Y-16649857D01*
X10709286Y-16621286D01*
X10723571Y-16607000D01*
X10752143Y-16592714D01*
X11037857Y-16592714D02*
X11066429Y-16592714D01*
X11095000Y-16607000D01*
X11109286Y-16621286D01*
X11123571Y-16649857D01*
X11137857Y-16707000D01*
X11137857Y-16778429D01*
X11123571Y-16835572D01*
X11109286Y-16864143D01*
X11095000Y-16878429D01*
X11066429Y-16892714D01*
X11037857Y-16892714D01*
X11009286Y-16878429D01*
X10995000Y-16864143D01*
X10980714Y-16835572D01*
X10966429Y-16778429D01*
X10966429Y-16707000D01*
X10980714Y-16649857D01*
X10995000Y-16621286D01*
X11009286Y-16607000D01*
X11037857Y-16592714D01*
X11266428Y-16892714D02*
X11266428Y-16692714D01*
X11266428Y-16721286D02*
X11280714Y-16707000D01*
X11309286Y-16692714D01*
X11352143Y-16692714D01*
X11380714Y-16707000D01*
X11395000Y-16735571D01*
X11395000Y-16892714D01*
X11395000Y-16735571D02*
X11409286Y-16707000D01*
X11437857Y-16692714D01*
X11480714Y-16692714D01*
X11509286Y-16707000D01*
X11523571Y-16735571D01*
X11523571Y-16892714D01*
X11666428Y-16892714D02*
X11666428Y-16692714D01*
X11666428Y-16721286D02*
X11680714Y-16707000D01*
X11709286Y-16692714D01*
X11752143Y-16692714D01*
X11780714Y-16707000D01*
X11795000Y-16735571D01*
X11795000Y-16892714D01*
X11795000Y-16735571D02*
X11809286Y-16707000D01*
X11837857Y-16692714D01*
X11880714Y-16692714D01*
X11909286Y-16707000D01*
X11923571Y-16735571D01*
X11923571Y-16892714D01*
X12509286Y-16578429D02*
X12252143Y-16964143D01*
X12895000Y-16592714D02*
X12923571Y-16592714D01*
X12952143Y-16607000D01*
X12966428Y-16621286D01*
X12980714Y-16649857D01*
X12995000Y-16707000D01*
X12995000Y-16778429D01*
X12980714Y-16835572D01*
X12966428Y-16864143D01*
X12952143Y-16878429D01*
X12923571Y-16892714D01*
X12895000Y-16892714D01*
X12866428Y-16878429D01*
X12852143Y-16864143D01*
X12837857Y-16835572D01*
X12823571Y-16778429D01*
X12823571Y-16707000D01*
X12837857Y-16649857D01*
X12852143Y-16621286D01*
X12866428Y-16607000D01*
X12895000Y-16592714D01*
X13123571Y-16864143D02*
X13137857Y-16878429D01*
X13123571Y-16892714D01*
X13109286Y-16878429D01*
X13123571Y-16864143D01*
X13123571Y-16892714D01*
X13323571Y-16592714D02*
X13352143Y-16592714D01*
X13380714Y-16607000D01*
X13395000Y-16621286D01*
X13409285Y-16649857D01*
X13423571Y-16707000D01*
X13423571Y-16778429D01*
X13409285Y-16835572D01*
X13395000Y-16864143D01*
X13380714Y-16878429D01*
X13352143Y-16892714D01*
X13323571Y-16892714D01*
X13295000Y-16878429D01*
X13280714Y-16864143D01*
X13266428Y-16835572D01*
X13252143Y-16778429D01*
X13252143Y-16707000D01*
X13266428Y-16649857D01*
X13280714Y-16621286D01*
X13295000Y-16607000D01*
X13323571Y-16592714D01*
X13523571Y-16592714D02*
X13709285Y-16592714D01*
X13609285Y-16707000D01*
X13652143Y-16707000D01*
X13680714Y-16721286D01*
X13695000Y-16735571D01*
X13709285Y-16764143D01*
X13709285Y-16835572D01*
X13695000Y-16864143D01*
X13680714Y-16878429D01*
X13652143Y-16892714D01*
X13566428Y-16892714D01*
X13537857Y-16878429D01*
X13523571Y-16864143D01*
X13852143Y-16892714D02*
X13909285Y-16892714D01*
X13937857Y-16878429D01*
X13952143Y-16864143D01*
X13980714Y-16821286D01*
X13995000Y-16764143D01*
X13995000Y-16649857D01*
X13980714Y-16621286D01*
X13966428Y-16607000D01*
X13937857Y-16592714D01*
X13880714Y-16592714D01*
X13852143Y-16607000D01*
X13837857Y-16621286D01*
X13823571Y-16649857D01*
X13823571Y-16721286D01*
X13837857Y-16749857D01*
X13852143Y-16764143D01*
X13880714Y-16778429D01*
X13937857Y-16778429D01*
X13966428Y-16764143D01*
X13980714Y-16749857D01*
X13995000Y-16721286D01*
X14109286Y-16592714D02*
X14109286Y-16649857D01*
X14223571Y-16592714D02*
X14223571Y-16649857D01*
X14666428Y-17007000D02*
X14652143Y-16992714D01*
X14623571Y-16949857D01*
X14609285Y-16921286D01*
X14595000Y-16878429D01*
X14580714Y-16807000D01*
X14580714Y-16749857D01*
X14595000Y-16678429D01*
X14609285Y-16635571D01*
X14623571Y-16607000D01*
X14652143Y-16564143D01*
X14666428Y-16549857D01*
X14823571Y-16721286D02*
X14795000Y-16707000D01*
X14780714Y-16692714D01*
X14766428Y-16664143D01*
X14766428Y-16649857D01*
X14780714Y-16621286D01*
X14795000Y-16607000D01*
X14823571Y-16592714D01*
X14880714Y-16592714D01*
X14909285Y-16607000D01*
X14923571Y-16621286D01*
X14937857Y-16649857D01*
X14937857Y-16664143D01*
X14923571Y-16692714D01*
X14909285Y-16707000D01*
X14880714Y-16721286D01*
X14823571Y-16721286D01*
X14795000Y-16735571D01*
X14780714Y-16749857D01*
X14766428Y-16778429D01*
X14766428Y-16835572D01*
X14780714Y-16864143D01*
X14795000Y-16878429D01*
X14823571Y-16892714D01*
X14880714Y-16892714D01*
X14909285Y-16878429D01*
X14923571Y-16864143D01*
X14937857Y-16835572D01*
X14937857Y-16778429D01*
X14923571Y-16749857D01*
X14909285Y-16735571D01*
X14880714Y-16721286D01*
X15295000Y-16892714D02*
X15295000Y-16592714D01*
X15423571Y-16892714D02*
X15423571Y-16735571D01*
X15409285Y-16707000D01*
X15380714Y-16692714D01*
X15337857Y-16692714D01*
X15309285Y-16707000D01*
X15295000Y-16721286D01*
X15609285Y-16892714D02*
X15580714Y-16878429D01*
X15566428Y-16864143D01*
X15552143Y-16835572D01*
X15552143Y-16749857D01*
X15566428Y-16721286D01*
X15580714Y-16707000D01*
X15609285Y-16692714D01*
X15652143Y-16692714D01*
X15680714Y-16707000D01*
X15695000Y-16721286D01*
X15709285Y-16749857D01*
X15709285Y-16835572D01*
X15695000Y-16864143D01*
X15680714Y-16878429D01*
X15652143Y-16892714D01*
X15609285Y-16892714D01*
X15880714Y-16892714D02*
X15852143Y-16878429D01*
X15837857Y-16849857D01*
X15837857Y-16592714D01*
X16109286Y-16878429D02*
X16080714Y-16892714D01*
X16023571Y-16892714D01*
X15995000Y-16878429D01*
X15980714Y-16849857D01*
X15980714Y-16735571D01*
X15995000Y-16707000D01*
X16023571Y-16692714D01*
X16080714Y-16692714D01*
X16109286Y-16707000D01*
X16123571Y-16735571D01*
X16123571Y-16764143D01*
X15980714Y-16792714D01*
X16237857Y-16878429D02*
X16266428Y-16892714D01*
X16323571Y-16892714D01*
X16352143Y-16878429D01*
X16366428Y-16849857D01*
X16366428Y-16835572D01*
X16352143Y-16807000D01*
X16323571Y-16792714D01*
X16280714Y-16792714D01*
X16252143Y-16778429D01*
X16237857Y-16749857D01*
X16237857Y-16735571D01*
X16252143Y-16707000D01*
X16280714Y-16692714D01*
X16323571Y-16692714D01*
X16352143Y-16707000D01*
X16466428Y-17007000D02*
X16480714Y-16992714D01*
X16509286Y-16949857D01*
X16523571Y-16921286D01*
X16537857Y-16878429D01*
X16552143Y-16807000D01*
X16552143Y-16749857D01*
X16537857Y-16678429D01*
X16523571Y-16635571D01*
X16509286Y-16607000D01*
X16480714Y-16564143D01*
X16466428Y-16549857D01*
X9958389Y-17241389D02*
X9958389Y-17064611D01*
X9781611Y-17064611D01*
X9781611Y-17241389D01*
X9958389Y-17241389D01*
X10252143Y-17017286D02*
X10266429Y-17003000D01*
X10295000Y-16988714D01*
X10366429Y-16988714D01*
X10395000Y-17003000D01*
X10409286Y-17017286D01*
X10423571Y-17045857D01*
X10423571Y-17074429D01*
X10409286Y-17117286D01*
X10237857Y-17288714D01*
X10423571Y-17288714D01*
X10552143Y-17260143D02*
X10566429Y-17274429D01*
X10552143Y-17288714D01*
X10537857Y-17274429D01*
X10552143Y-17260143D01*
X10552143Y-17288714D01*
X10837857Y-16988714D02*
X10695000Y-16988714D01*
X10680714Y-17131572D01*
X10695000Y-17117286D01*
X10723571Y-17103000D01*
X10795000Y-17103000D01*
X10823571Y-17117286D01*
X10837857Y-17131572D01*
X10852143Y-17160143D01*
X10852143Y-17231572D01*
X10837857Y-17260143D01*
X10823571Y-17274429D01*
X10795000Y-17288714D01*
X10723571Y-17288714D01*
X10695000Y-17274429D01*
X10680714Y-17260143D01*
X11037857Y-16988714D02*
X11066429Y-16988714D01*
X11095000Y-17003000D01*
X11109286Y-17017286D01*
X11123571Y-17045857D01*
X11137857Y-17103000D01*
X11137857Y-17174429D01*
X11123571Y-17231572D01*
X11109286Y-17260143D01*
X11095000Y-17274429D01*
X11066429Y-17288714D01*
X11037857Y-17288714D01*
X11009286Y-17274429D01*
X10995000Y-17260143D01*
X10980714Y-17231572D01*
X10966429Y-17174429D01*
X10966429Y-17103000D01*
X10980714Y-17045857D01*
X10995000Y-17017286D01*
X11009286Y-17003000D01*
X11037857Y-16988714D01*
X11266428Y-17288714D02*
X11266428Y-17088714D01*
X11266428Y-17117286D02*
X11280714Y-17103000D01*
X11309286Y-17088714D01*
X11352143Y-17088714D01*
X11380714Y-17103000D01*
X11395000Y-17131572D01*
X11395000Y-17288714D01*
X11395000Y-17131572D02*
X11409286Y-17103000D01*
X11437857Y-17088714D01*
X11480714Y-17088714D01*
X11509286Y-17103000D01*
X11523571Y-17131572D01*
X11523571Y-17288714D01*
X11666428Y-17288714D02*
X11666428Y-17088714D01*
X11666428Y-17117286D02*
X11680714Y-17103000D01*
X11709286Y-17088714D01*
X11752143Y-17088714D01*
X11780714Y-17103000D01*
X11795000Y-17131572D01*
X11795000Y-17288714D01*
X11795000Y-17131572D02*
X11809286Y-17103000D01*
X11837857Y-17088714D01*
X11880714Y-17088714D01*
X11909286Y-17103000D01*
X11923571Y-17131572D01*
X11923571Y-17288714D01*
X12509286Y-16974429D02*
X12252143Y-17360143D01*
X12895000Y-16988714D02*
X12923571Y-16988714D01*
X12952143Y-17003000D01*
X12966428Y-17017286D01*
X12980714Y-17045857D01*
X12995000Y-17103000D01*
X12995000Y-17174429D01*
X12980714Y-17231572D01*
X12966428Y-17260143D01*
X12952143Y-17274429D01*
X12923571Y-17288714D01*
X12895000Y-17288714D01*
X12866428Y-17274429D01*
X12852143Y-17260143D01*
X12837857Y-17231572D01*
X12823571Y-17174429D01*
X12823571Y-17103000D01*
X12837857Y-17045857D01*
X12852143Y-17017286D01*
X12866428Y-17003000D01*
X12895000Y-16988714D01*
X13123571Y-17260143D02*
X13137857Y-17274429D01*
X13123571Y-17288714D01*
X13109286Y-17274429D01*
X13123571Y-17260143D01*
X13123571Y-17288714D01*
X13323571Y-16988714D02*
X13352143Y-16988714D01*
X13380714Y-17003000D01*
X13395000Y-17017286D01*
X13409285Y-17045857D01*
X13423571Y-17103000D01*
X13423571Y-17174429D01*
X13409285Y-17231572D01*
X13395000Y-17260143D01*
X13380714Y-17274429D01*
X13352143Y-17288714D01*
X13323571Y-17288714D01*
X13295000Y-17274429D01*
X13280714Y-17260143D01*
X13266428Y-17231572D01*
X13252143Y-17174429D01*
X13252143Y-17103000D01*
X13266428Y-17045857D01*
X13280714Y-17017286D01*
X13295000Y-17003000D01*
X13323571Y-16988714D01*
X13566428Y-17288714D02*
X13623571Y-17288714D01*
X13652143Y-17274429D01*
X13666428Y-17260143D01*
X13695000Y-17217286D01*
X13709285Y-17160143D01*
X13709285Y-17045857D01*
X13695000Y-17017286D01*
X13680714Y-17003000D01*
X13652143Y-16988714D01*
X13595000Y-16988714D01*
X13566428Y-17003000D01*
X13552143Y-17017286D01*
X13537857Y-17045857D01*
X13537857Y-17117286D01*
X13552143Y-17145857D01*
X13566428Y-17160143D01*
X13595000Y-17174429D01*
X13652143Y-17174429D01*
X13680714Y-17160143D01*
X13695000Y-17145857D01*
X13709285Y-17117286D01*
X13880714Y-17117286D02*
X13852143Y-17103000D01*
X13837857Y-17088714D01*
X13823571Y-17060143D01*
X13823571Y-17045857D01*
X13837857Y-17017286D01*
X13852143Y-17003000D01*
X13880714Y-16988714D01*
X13937857Y-16988714D01*
X13966428Y-17003000D01*
X13980714Y-17017286D01*
X13995000Y-17045857D01*
X13995000Y-17060143D01*
X13980714Y-17088714D01*
X13966428Y-17103000D01*
X13937857Y-17117286D01*
X13880714Y-17117286D01*
X13852143Y-17131572D01*
X13837857Y-17145857D01*
X13823571Y-17174429D01*
X13823571Y-17231572D01*
X13837857Y-17260143D01*
X13852143Y-17274429D01*
X13880714Y-17288714D01*
X13937857Y-17288714D01*
X13966428Y-17274429D01*
X13980714Y-17260143D01*
X13995000Y-17231572D01*
X13995000Y-17174429D01*
X13980714Y-17145857D01*
X13966428Y-17131572D01*
X13937857Y-17117286D01*
X14109286Y-16988714D02*
X14109286Y-17045857D01*
X14223571Y-16988714D02*
X14223571Y-17045857D01*
X14666428Y-17403000D02*
X14652143Y-17388714D01*
X14623571Y-17345857D01*
X14609285Y-17317286D01*
X14595000Y-17274429D01*
X14580714Y-17203000D01*
X14580714Y-17145857D01*
X14595000Y-17074429D01*
X14609285Y-17031572D01*
X14623571Y-17003000D01*
X14652143Y-16960143D01*
X14666428Y-16945857D01*
X14923571Y-16988714D02*
X14780714Y-16988714D01*
X14766428Y-17131572D01*
X14780714Y-17117286D01*
X14809285Y-17103000D01*
X14880714Y-17103000D01*
X14909285Y-17117286D01*
X14923571Y-17131572D01*
X14937857Y-17160143D01*
X14937857Y-17231572D01*
X14923571Y-17260143D01*
X14909285Y-17274429D01*
X14880714Y-17288714D01*
X14809285Y-17288714D01*
X14780714Y-17274429D01*
X14766428Y-17260143D01*
X15295000Y-17288714D02*
X15295000Y-16988714D01*
X15423571Y-17288714D02*
X15423571Y-17131572D01*
X15409285Y-17103000D01*
X15380714Y-17088714D01*
X15337857Y-17088714D01*
X15309285Y-17103000D01*
X15295000Y-17117286D01*
X15609285Y-17288714D02*
X15580714Y-17274429D01*
X15566428Y-17260143D01*
X15552143Y-17231572D01*
X15552143Y-17145857D01*
X15566428Y-17117286D01*
X15580714Y-17103000D01*
X15609285Y-17088714D01*
X15652143Y-17088714D01*
X15680714Y-17103000D01*
X15695000Y-17117286D01*
X15709285Y-17145857D01*
X15709285Y-17231572D01*
X15695000Y-17260143D01*
X15680714Y-17274429D01*
X15652143Y-17288714D01*
X15609285Y-17288714D01*
X15880714Y-17288714D02*
X15852143Y-17274429D01*
X15837857Y-17245857D01*
X15837857Y-16988714D01*
X16109286Y-17274429D02*
X16080714Y-17288714D01*
X16023571Y-17288714D01*
X15995000Y-17274429D01*
X15980714Y-17245857D01*
X15980714Y-17131572D01*
X15995000Y-17103000D01*
X16023571Y-17088714D01*
X16080714Y-17088714D01*
X16109286Y-17103000D01*
X16123571Y-17131572D01*
X16123571Y-17160143D01*
X15980714Y-17188714D01*
X16237857Y-17274429D02*
X16266428Y-17288714D01*
X16323571Y-17288714D01*
X16352143Y-17274429D01*
X16366428Y-17245857D01*
X16366428Y-17231572D01*
X16352143Y-17203000D01*
X16323571Y-17188714D01*
X16280714Y-17188714D01*
X16252143Y-17174429D01*
X16237857Y-17145857D01*
X16237857Y-17131572D01*
X16252143Y-17103000D01*
X16280714Y-17088714D01*
X16323571Y-17088714D01*
X16352143Y-17103000D01*
X16466428Y-17403000D02*
X16480714Y-17388714D01*
X16509286Y-17345857D01*
X16523571Y-17317286D01*
X16537857Y-17274429D01*
X16552143Y-17203000D01*
X16552143Y-17145857D01*
X16537857Y-17074429D01*
X16523571Y-17031572D01*
X16509286Y-17003000D01*
X16480714Y-16960143D01*
X16466428Y-16945857D01*
X9835000Y-17709000D02*
X9995000Y-17549000D01*
X9835000Y-17389000D01*
X9675000Y-17549000D01*
X9835000Y-17709000D01*
X10237857Y-17384714D02*
X10423571Y-17384714D01*
X10323571Y-17499000D01*
X10366429Y-17499000D01*
X10395000Y-17513286D01*
X10409286Y-17527572D01*
X10423571Y-17556143D01*
X10423571Y-17627572D01*
X10409286Y-17656143D01*
X10395000Y-17670429D01*
X10366429Y-17684714D01*
X10280714Y-17684714D01*
X10252143Y-17670429D01*
X10237857Y-17656143D01*
X10552143Y-17656143D02*
X10566429Y-17670429D01*
X10552143Y-17684714D01*
X10537857Y-17670429D01*
X10552143Y-17656143D01*
X10552143Y-17684714D01*
X10680714Y-17413286D02*
X10695000Y-17399000D01*
X10723571Y-17384714D01*
X10795000Y-17384714D01*
X10823571Y-17399000D01*
X10837857Y-17413286D01*
X10852143Y-17441857D01*
X10852143Y-17470429D01*
X10837857Y-17513286D01*
X10666428Y-17684714D01*
X10852143Y-17684714D01*
X11037857Y-17384714D02*
X11066429Y-17384714D01*
X11095000Y-17399000D01*
X11109286Y-17413286D01*
X11123571Y-17441857D01*
X11137857Y-17499000D01*
X11137857Y-17570429D01*
X11123571Y-17627572D01*
X11109286Y-17656143D01*
X11095000Y-17670429D01*
X11066429Y-17684714D01*
X11037857Y-17684714D01*
X11009286Y-17670429D01*
X10995000Y-17656143D01*
X10980714Y-17627572D01*
X10966429Y-17570429D01*
X10966429Y-17499000D01*
X10980714Y-17441857D01*
X10995000Y-17413286D01*
X11009286Y-17399000D01*
X11037857Y-17384714D01*
X11266428Y-17684714D02*
X11266428Y-17484714D01*
X11266428Y-17513286D02*
X11280714Y-17499000D01*
X11309286Y-17484714D01*
X11352143Y-17484714D01*
X11380714Y-17499000D01*
X11395000Y-17527572D01*
X11395000Y-17684714D01*
X11395000Y-17527572D02*
X11409286Y-17499000D01*
X11437857Y-17484714D01*
X11480714Y-17484714D01*
X11509286Y-17499000D01*
X11523571Y-17527572D01*
X11523571Y-17684714D01*
X11666428Y-17684714D02*
X11666428Y-17484714D01*
X11666428Y-17513286D02*
X11680714Y-17499000D01*
X11709286Y-17484714D01*
X11752143Y-17484714D01*
X11780714Y-17499000D01*
X11795000Y-17527572D01*
X11795000Y-17684714D01*
X11795000Y-17527572D02*
X11809286Y-17499000D01*
X11837857Y-17484714D01*
X11880714Y-17484714D01*
X11909286Y-17499000D01*
X11923571Y-17527572D01*
X11923571Y-17684714D01*
X12509286Y-17370429D02*
X12252143Y-17756143D01*
X12895000Y-17384714D02*
X12923571Y-17384714D01*
X12952143Y-17399000D01*
X12966428Y-17413286D01*
X12980714Y-17441857D01*
X12995000Y-17499000D01*
X12995000Y-17570429D01*
X12980714Y-17627572D01*
X12966428Y-17656143D01*
X12952143Y-17670429D01*
X12923571Y-17684714D01*
X12895000Y-17684714D01*
X12866428Y-17670429D01*
X12852143Y-17656143D01*
X12837857Y-17627572D01*
X12823571Y-17570429D01*
X12823571Y-17499000D01*
X12837857Y-17441857D01*
X12852143Y-17413286D01*
X12866428Y-17399000D01*
X12895000Y-17384714D01*
X13123571Y-17656143D02*
X13137857Y-17670429D01*
X13123571Y-17684714D01*
X13109286Y-17670429D01*
X13123571Y-17656143D01*
X13123571Y-17684714D01*
X13423571Y-17684714D02*
X13252143Y-17684714D01*
X13337857Y-17684714D02*
X13337857Y-17384714D01*
X13309285Y-17427572D01*
X13280714Y-17456143D01*
X13252143Y-17470429D01*
X13537857Y-17413286D02*
X13552143Y-17399000D01*
X13580714Y-17384714D01*
X13652143Y-17384714D01*
X13680714Y-17399000D01*
X13695000Y-17413286D01*
X13709285Y-17441857D01*
X13709285Y-17470429D01*
X13695000Y-17513286D01*
X13523571Y-17684714D01*
X13709285Y-17684714D01*
X13966428Y-17384714D02*
X13909285Y-17384714D01*
X13880714Y-17399000D01*
X13866428Y-17413286D01*
X13837857Y-17456143D01*
X13823571Y-17513286D01*
X13823571Y-17627572D01*
X13837857Y-17656143D01*
X13852143Y-17670429D01*
X13880714Y-17684714D01*
X13937857Y-17684714D01*
X13966428Y-17670429D01*
X13980714Y-17656143D01*
X13995000Y-17627572D01*
X13995000Y-17556143D01*
X13980714Y-17527572D01*
X13966428Y-17513286D01*
X13937857Y-17499000D01*
X13880714Y-17499000D01*
X13852143Y-17513286D01*
X13837857Y-17527572D01*
X13823571Y-17556143D01*
X14109286Y-17384714D02*
X14109286Y-17441857D01*
X14223571Y-17384714D02*
X14223571Y-17441857D01*
X14666428Y-17799000D02*
X14652143Y-17784714D01*
X14623571Y-17741857D01*
X14609285Y-17713286D01*
X14595000Y-17670429D01*
X14580714Y-17599000D01*
X14580714Y-17541857D01*
X14595000Y-17470429D01*
X14609285Y-17427572D01*
X14623571Y-17399000D01*
X14652143Y-17356143D01*
X14666428Y-17341857D01*
X14909285Y-17484714D02*
X14909285Y-17684714D01*
X14837857Y-17370429D02*
X14766428Y-17584714D01*
X14952143Y-17584714D01*
X15295000Y-17684714D02*
X15295000Y-17384714D01*
X15423571Y-17684714D02*
X15423571Y-17527572D01*
X15409285Y-17499000D01*
X15380714Y-17484714D01*
X15337857Y-17484714D01*
X15309285Y-17499000D01*
X15295000Y-17513286D01*
X15609285Y-17684714D02*
X15580714Y-17670429D01*
X15566428Y-17656143D01*
X15552143Y-17627572D01*
X15552143Y-17541857D01*
X15566428Y-17513286D01*
X15580714Y-17499000D01*
X15609285Y-17484714D01*
X15652143Y-17484714D01*
X15680714Y-17499000D01*
X15695000Y-17513286D01*
X15709285Y-17541857D01*
X15709285Y-17627572D01*
X15695000Y-17656143D01*
X15680714Y-17670429D01*
X15652143Y-17684714D01*
X15609285Y-17684714D01*
X15880714Y-17684714D02*
X15852143Y-17670429D01*
X15837857Y-17641857D01*
X15837857Y-17384714D01*
X16109286Y-17670429D02*
X16080714Y-17684714D01*
X16023571Y-17684714D01*
X15995000Y-17670429D01*
X15980714Y-17641857D01*
X15980714Y-17527572D01*
X15995000Y-17499000D01*
X16023571Y-17484714D01*
X16080714Y-17484714D01*
X16109286Y-17499000D01*
X16123571Y-17527572D01*
X16123571Y-17556143D01*
X15980714Y-17584714D01*
X16237857Y-17670429D02*
X16266428Y-17684714D01*
X16323571Y-17684714D01*
X16352143Y-17670429D01*
X16366428Y-17641857D01*
X16366428Y-17627572D01*
X16352143Y-17599000D01*
X16323571Y-17584714D01*
X16280714Y-17584714D01*
X16252143Y-17570429D01*
X16237857Y-17541857D01*
X16237857Y-17527572D01*
X16252143Y-17499000D01*
X16280714Y-17484714D01*
X16323571Y-17484714D01*
X16352143Y-17499000D01*
X16466428Y-17799000D02*
X16480714Y-17784714D01*
X16509286Y-17741857D01*
X16523571Y-17713286D01*
X16537857Y-17670429D01*
X16552143Y-17599000D01*
X16552143Y-17541857D01*
X16537857Y-17470429D01*
X16523571Y-17427572D01*
X16509286Y-17399000D01*
X16480714Y-17356143D01*
X16466428Y-17341857D01*
M02*
