G04 #@! TF.FileFunction,Copper,L1,Top,Signal*
%FSLAX46Y46*%
G04 Gerber Fmt 4.6, Leading zero omitted, Abs format (unit mm)*
G04 Created by KiCad (PCBNEW 4.0.7) date 06/11/18 22:56:17*
%MOMM*%
%LPD*%
G01*
G04 APERTURE LIST*
%ADD10C,0.100000*%
%ADD11C,6.400000*%
%ADD12R,1.700000X1.700000*%
%ADD13O,1.700000X1.700000*%
%ADD14C,0.500000*%
%ADD15C,2.500000*%
%ADD16C,0.600000*%
%ADD17C,0.250000*%
%ADD18C,0.254000*%
G04 APERTURE END LIST*
D10*
D11*
X107000000Y-83000000D03*
D12*
X151000000Y-65000000D03*
D13*
X148460000Y-65000000D03*
X151000000Y-67540000D03*
X148460000Y-67540000D03*
X151000000Y-70080000D03*
X148460000Y-70080000D03*
X151000000Y-72620000D03*
X148460000Y-72620000D03*
D11*
X107000000Y-143000000D03*
X193000000Y-143000000D03*
X193000000Y-83000000D03*
D14*
X135000000Y-128000000D03*
X135000000Y-138000000D03*
X145000000Y-138000000D03*
X125000000Y-138000000D03*
X125000000Y-118000000D03*
X125000000Y-128000000D03*
X155000000Y-118000000D03*
X145000000Y-118000000D03*
X145000000Y-108000000D03*
X155000000Y-108000000D03*
X125000000Y-108000000D03*
X125000000Y-99000000D03*
X135000000Y-98000000D03*
X125000000Y-88000000D03*
X135000000Y-88000000D03*
X145000000Y-88000000D03*
X155000000Y-88000000D03*
X165000000Y-88000000D03*
X175000000Y-88000000D03*
X165000000Y-98000000D03*
X175000000Y-98000000D03*
X175000000Y-108000000D03*
X175000000Y-118000000D03*
X150000000Y-128000000D03*
X155000000Y-138000000D03*
X165000000Y-138000000D03*
X165000000Y-128000000D03*
X175000000Y-128000000D03*
X175000000Y-138000000D03*
X150000000Y-103000000D03*
X160000000Y-123000000D03*
X140000000Y-123000000D03*
X150000000Y-133000000D03*
X150000000Y-123000000D03*
X140000000Y-133000000D03*
X140000000Y-133000000D03*
X130000000Y-123000000D03*
X130000000Y-103000000D03*
X140000000Y-93000000D03*
X150000000Y-93000000D03*
X160000000Y-93000000D03*
X170000000Y-103000000D03*
X170000000Y-113000000D03*
X170000000Y-123000000D03*
X160000000Y-133000000D03*
X170000000Y-93000000D03*
X130000000Y-93000000D03*
X170000000Y-133000000D03*
X130000000Y-133000000D03*
X160000000Y-113000000D03*
X180000000Y-133000000D03*
X180000000Y-123000000D03*
X180000000Y-113000000D03*
X180000000Y-103000000D03*
X180000000Y-93000000D03*
X180000000Y-83000000D03*
X170000000Y-83000000D03*
X160000000Y-83000000D03*
X150000000Y-83000000D03*
X140000000Y-83000000D03*
X130000000Y-83000000D03*
X120000000Y-83000000D03*
X120000000Y-93000000D03*
X120000000Y-103000000D03*
X120000000Y-123000000D03*
X120000000Y-133000000D03*
X180000000Y-143000000D03*
X170000000Y-143000000D03*
X150000000Y-143000000D03*
X160000000Y-143000000D03*
X140000000Y-143000000D03*
X130000000Y-143000000D03*
X120000000Y-143000000D03*
D15*
X160000000Y-101000000D03*
X140000000Y-101000000D03*
X150000000Y-113000000D03*
X140000000Y-125000000D03*
X160000000Y-125000000D03*
D16*
X170500000Y-62500000D03*
X163000000Y-87000000D03*
X135500000Y-62500000D03*
X153000000Y-62500000D03*
X135750000Y-115750000D03*
X153000000Y-60000000D03*
X146500000Y-61500000D03*
X144500000Y-69000000D03*
X141500000Y-72500000D03*
X116500000Y-63000000D03*
X117000000Y-118000000D03*
X190000000Y-63000000D03*
X185000000Y-118000000D03*
X139500000Y-65500000D03*
X157500000Y-66500000D03*
D17*
X151000000Y-72620000D02*
X160880000Y-72620000D01*
X170500000Y-63000000D02*
X170500000Y-62500000D01*
X160880000Y-72620000D02*
X170500000Y-63000000D01*
X138500000Y-62500000D02*
X135500000Y-62500000D01*
X153000000Y-62500000D02*
X138500000Y-62500000D01*
X138575001Y-115750000D02*
X136174264Y-115750000D01*
X140000000Y-114325001D02*
X138575001Y-115750000D01*
X136174264Y-115750000D02*
X135750000Y-115750000D01*
X140000000Y-114325001D02*
X140174999Y-114325001D01*
X140000000Y-114325001D02*
X141674999Y-114325001D01*
X148460000Y-70080000D02*
X145580000Y-70080000D01*
X151500000Y-61500000D02*
X153000000Y-60000000D01*
X146500000Y-61500000D02*
X151500000Y-61500000D01*
X145580000Y-70080000D02*
X144500000Y-69000000D01*
X145000000Y-86000000D02*
X145000000Y-76000000D01*
X141799999Y-72799999D02*
X141500000Y-72500000D01*
X145000000Y-76000000D02*
X141799999Y-72799999D01*
X116500000Y-63000000D02*
X121040000Y-67540000D01*
X121040000Y-67540000D02*
X148460000Y-67540000D01*
X117000000Y-118000000D02*
X122000000Y-118000000D01*
X148460000Y-72620000D02*
X150840000Y-75000000D01*
X178000000Y-75000000D02*
X190000000Y-63000000D01*
X150840000Y-75000000D02*
X178000000Y-75000000D01*
X185000000Y-118000000D02*
X176000000Y-118000000D01*
X148460000Y-65000000D02*
X140000000Y-65000000D01*
X140000000Y-65000000D02*
X139500000Y-65500000D01*
X151000000Y-67540000D02*
X156460000Y-67540000D01*
X156460000Y-67540000D02*
X157500000Y-66500000D01*
X148460000Y-65000000D02*
X151000000Y-67540000D01*
D18*
G36*
X149357024Y-103428812D02*
X149570067Y-103642226D01*
X149848563Y-103757868D01*
X150150114Y-103758131D01*
X150428812Y-103642976D01*
X150642226Y-103429933D01*
X150717624Y-103248356D01*
X152969291Y-103623634D01*
X154438353Y-104113321D01*
X156915164Y-106094770D01*
X157901308Y-107080914D01*
X158884895Y-108556294D01*
X159376366Y-110030709D01*
X159751657Y-112282456D01*
X159571188Y-112357024D01*
X159357774Y-112570067D01*
X159242132Y-112848563D01*
X159241869Y-113150114D01*
X159357024Y-113428812D01*
X159570067Y-113642226D01*
X159848563Y-113757868D01*
X159873000Y-113757889D01*
X159873000Y-113984366D01*
X159380173Y-115955674D01*
X157895626Y-118924768D01*
X155924768Y-120895626D01*
X155443204Y-121136408D01*
X155423800Y-121148400D01*
X154445712Y-121881966D01*
X153572450Y-122076024D01*
X153543204Y-122086408D01*
X152960286Y-122377867D01*
X150717544Y-122751657D01*
X150642976Y-122571188D01*
X150429933Y-122357774D01*
X150151437Y-122242132D01*
X149849886Y-122241869D01*
X149571188Y-122357024D01*
X149357774Y-122570067D01*
X149282376Y-122751644D01*
X147039715Y-122377867D01*
X145067040Y-121391530D01*
X143083424Y-119903818D01*
X142596182Y-119416576D01*
X141646336Y-118150114D01*
X144241869Y-118150114D01*
X144357024Y-118428812D01*
X144570067Y-118642226D01*
X144848563Y-118757868D01*
X145150114Y-118758131D01*
X145428812Y-118642976D01*
X145642226Y-118429933D01*
X145757868Y-118151437D01*
X145757869Y-118150114D01*
X154241869Y-118150114D01*
X154357024Y-118428812D01*
X154570067Y-118642226D01*
X154848563Y-118757868D01*
X155150114Y-118758131D01*
X155428812Y-118642976D01*
X155642226Y-118429933D01*
X155757868Y-118151437D01*
X155758131Y-117849886D01*
X155642976Y-117571188D01*
X155429933Y-117357774D01*
X155151437Y-117242132D01*
X154849886Y-117241869D01*
X154571188Y-117357024D01*
X154357774Y-117570067D01*
X154242132Y-117848563D01*
X154241869Y-118150114D01*
X145757869Y-118150114D01*
X145758131Y-117849886D01*
X145642976Y-117571188D01*
X145429933Y-117357774D01*
X145151437Y-117242132D01*
X144849886Y-117241869D01*
X144571188Y-117357024D01*
X144357774Y-117570067D01*
X144242132Y-117848563D01*
X144241869Y-118150114D01*
X141646336Y-118150114D01*
X141113966Y-117440288D01*
X140622024Y-115964462D01*
X140162658Y-114127000D01*
X148641014Y-114127000D01*
X149002873Y-114489491D01*
X149648778Y-114757694D01*
X150348154Y-114758304D01*
X150994526Y-114491229D01*
X151359391Y-114127000D01*
X153750000Y-114127000D01*
X153796159Y-114118315D01*
X153838553Y-114091035D01*
X153866994Y-114049410D01*
X153877000Y-114000000D01*
X153877000Y-112000000D01*
X153868315Y-111953841D01*
X153841035Y-111911447D01*
X153799410Y-111883006D01*
X153750000Y-111873000D01*
X151358986Y-111873000D01*
X150997127Y-111510509D01*
X150351222Y-111242306D01*
X149651846Y-111241696D01*
X149005474Y-111508771D01*
X148640609Y-111873000D01*
X140316585Y-111873000D01*
X140420710Y-111248246D01*
X146123012Y-111248246D01*
X146132334Y-111297789D01*
X146160197Y-111339803D01*
X146410197Y-111589803D01*
X146447377Y-111615584D01*
X146496491Y-111626952D01*
X146546159Y-111618315D01*
X146588553Y-111591035D01*
X146616994Y-111549410D01*
X146627000Y-111500000D01*
X146627000Y-111250000D01*
X146618315Y-111203841D01*
X146591035Y-111161447D01*
X146549410Y-111133006D01*
X146500000Y-111123000D01*
X146250000Y-111123000D01*
X146205480Y-111131059D01*
X146162713Y-111157751D01*
X146133700Y-111198978D01*
X146123012Y-111248246D01*
X140420710Y-111248246D01*
X140623634Y-110030709D01*
X141113966Y-108559712D01*
X141421164Y-108150114D01*
X144241869Y-108150114D01*
X144357024Y-108428812D01*
X144570067Y-108642226D01*
X144848563Y-108757868D01*
X145150114Y-108758131D01*
X145428812Y-108642976D01*
X145642226Y-108429933D01*
X145757868Y-108151437D01*
X145757869Y-108150114D01*
X154241869Y-108150114D01*
X154357024Y-108428812D01*
X154570067Y-108642226D01*
X154848563Y-108757868D01*
X155150114Y-108758131D01*
X155428812Y-108642976D01*
X155642226Y-108429933D01*
X155757868Y-108151437D01*
X155758131Y-107849886D01*
X155642976Y-107571188D01*
X155429933Y-107357774D01*
X155151437Y-107242132D01*
X154849886Y-107241869D01*
X154571188Y-107357024D01*
X154357774Y-107570067D01*
X154242132Y-107848563D01*
X154241869Y-108150114D01*
X145757869Y-108150114D01*
X145758131Y-107849886D01*
X145642976Y-107571188D01*
X145429933Y-107357774D01*
X145151437Y-107242132D01*
X144849886Y-107241869D01*
X144571188Y-107357024D01*
X144357774Y-107570067D01*
X144242132Y-107848563D01*
X144241869Y-108150114D01*
X141421164Y-108150114D01*
X142596182Y-106583424D01*
X143583424Y-105596182D01*
X145559712Y-104113966D01*
X147030709Y-103623634D01*
X149282456Y-103248343D01*
X149357024Y-103428812D01*
X149357024Y-103428812D01*
G37*
X149357024Y-103428812D02*
X149570067Y-103642226D01*
X149848563Y-103757868D01*
X150150114Y-103758131D01*
X150428812Y-103642976D01*
X150642226Y-103429933D01*
X150717624Y-103248356D01*
X152969291Y-103623634D01*
X154438353Y-104113321D01*
X156915164Y-106094770D01*
X157901308Y-107080914D01*
X158884895Y-108556294D01*
X159376366Y-110030709D01*
X159751657Y-112282456D01*
X159571188Y-112357024D01*
X159357774Y-112570067D01*
X159242132Y-112848563D01*
X159241869Y-113150114D01*
X159357024Y-113428812D01*
X159570067Y-113642226D01*
X159848563Y-113757868D01*
X159873000Y-113757889D01*
X159873000Y-113984366D01*
X159380173Y-115955674D01*
X157895626Y-118924768D01*
X155924768Y-120895626D01*
X155443204Y-121136408D01*
X155423800Y-121148400D01*
X154445712Y-121881966D01*
X153572450Y-122076024D01*
X153543204Y-122086408D01*
X152960286Y-122377867D01*
X150717544Y-122751657D01*
X150642976Y-122571188D01*
X150429933Y-122357774D01*
X150151437Y-122242132D01*
X149849886Y-122241869D01*
X149571188Y-122357024D01*
X149357774Y-122570067D01*
X149282376Y-122751644D01*
X147039715Y-122377867D01*
X145067040Y-121391530D01*
X143083424Y-119903818D01*
X142596182Y-119416576D01*
X141646336Y-118150114D01*
X144241869Y-118150114D01*
X144357024Y-118428812D01*
X144570067Y-118642226D01*
X144848563Y-118757868D01*
X145150114Y-118758131D01*
X145428812Y-118642976D01*
X145642226Y-118429933D01*
X145757868Y-118151437D01*
X145757869Y-118150114D01*
X154241869Y-118150114D01*
X154357024Y-118428812D01*
X154570067Y-118642226D01*
X154848563Y-118757868D01*
X155150114Y-118758131D01*
X155428812Y-118642976D01*
X155642226Y-118429933D01*
X155757868Y-118151437D01*
X155758131Y-117849886D01*
X155642976Y-117571188D01*
X155429933Y-117357774D01*
X155151437Y-117242132D01*
X154849886Y-117241869D01*
X154571188Y-117357024D01*
X154357774Y-117570067D01*
X154242132Y-117848563D01*
X154241869Y-118150114D01*
X145757869Y-118150114D01*
X145758131Y-117849886D01*
X145642976Y-117571188D01*
X145429933Y-117357774D01*
X145151437Y-117242132D01*
X144849886Y-117241869D01*
X144571188Y-117357024D01*
X144357774Y-117570067D01*
X144242132Y-117848563D01*
X144241869Y-118150114D01*
X141646336Y-118150114D01*
X141113966Y-117440288D01*
X140622024Y-115964462D01*
X140162658Y-114127000D01*
X148641014Y-114127000D01*
X149002873Y-114489491D01*
X149648778Y-114757694D01*
X150348154Y-114758304D01*
X150994526Y-114491229D01*
X151359391Y-114127000D01*
X153750000Y-114127000D01*
X153796159Y-114118315D01*
X153838553Y-114091035D01*
X153866994Y-114049410D01*
X153877000Y-114000000D01*
X153877000Y-112000000D01*
X153868315Y-111953841D01*
X153841035Y-111911447D01*
X153799410Y-111883006D01*
X153750000Y-111873000D01*
X151358986Y-111873000D01*
X150997127Y-111510509D01*
X150351222Y-111242306D01*
X149651846Y-111241696D01*
X149005474Y-111508771D01*
X148640609Y-111873000D01*
X140316585Y-111873000D01*
X140420710Y-111248246D01*
X146123012Y-111248246D01*
X146132334Y-111297789D01*
X146160197Y-111339803D01*
X146410197Y-111589803D01*
X146447377Y-111615584D01*
X146496491Y-111626952D01*
X146546159Y-111618315D01*
X146588553Y-111591035D01*
X146616994Y-111549410D01*
X146627000Y-111500000D01*
X146627000Y-111250000D01*
X146618315Y-111203841D01*
X146591035Y-111161447D01*
X146549410Y-111133006D01*
X146500000Y-111123000D01*
X146250000Y-111123000D01*
X146205480Y-111131059D01*
X146162713Y-111157751D01*
X146133700Y-111198978D01*
X146123012Y-111248246D01*
X140420710Y-111248246D01*
X140623634Y-110030709D01*
X141113966Y-108559712D01*
X141421164Y-108150114D01*
X144241869Y-108150114D01*
X144357024Y-108428812D01*
X144570067Y-108642226D01*
X144848563Y-108757868D01*
X145150114Y-108758131D01*
X145428812Y-108642976D01*
X145642226Y-108429933D01*
X145757868Y-108151437D01*
X145757869Y-108150114D01*
X154241869Y-108150114D01*
X154357024Y-108428812D01*
X154570067Y-108642226D01*
X154848563Y-108757868D01*
X155150114Y-108758131D01*
X155428812Y-108642976D01*
X155642226Y-108429933D01*
X155757868Y-108151437D01*
X155758131Y-107849886D01*
X155642976Y-107571188D01*
X155429933Y-107357774D01*
X155151437Y-107242132D01*
X154849886Y-107241869D01*
X154571188Y-107357024D01*
X154357774Y-107570067D01*
X154242132Y-107848563D01*
X154241869Y-108150114D01*
X145757869Y-108150114D01*
X145758131Y-107849886D01*
X145642976Y-107571188D01*
X145429933Y-107357774D01*
X145151437Y-107242132D01*
X144849886Y-107241869D01*
X144571188Y-107357024D01*
X144357774Y-107570067D01*
X144242132Y-107848563D01*
X144241869Y-108150114D01*
X141421164Y-108150114D01*
X142596182Y-106583424D01*
X143583424Y-105596182D01*
X145559712Y-104113966D01*
X147030709Y-103623634D01*
X149282456Y-103248343D01*
X149357024Y-103428812D01*
G36*
X179863145Y-115042751D02*
X178877184Y-120465542D01*
X176386519Y-126941269D01*
X175758101Y-127883896D01*
X175758131Y-127849886D01*
X175642976Y-127571188D01*
X175429933Y-127357774D01*
X175151437Y-127242132D01*
X174849886Y-127241869D01*
X174571188Y-127357024D01*
X174357774Y-127570067D01*
X174242132Y-127848563D01*
X174241869Y-128150114D01*
X174357024Y-128428812D01*
X174570067Y-128642226D01*
X174848563Y-128757868D01*
X175150114Y-128758131D01*
X175184845Y-128743780D01*
X173399222Y-131422216D01*
X169415944Y-135903402D01*
X166433835Y-137891475D01*
X165695486Y-138301669D01*
X165757868Y-138151437D01*
X165758131Y-137849886D01*
X165642976Y-137571188D01*
X165429933Y-137357774D01*
X165151437Y-137242132D01*
X164849886Y-137241869D01*
X164571188Y-137357024D01*
X164357774Y-137570067D01*
X164242132Y-137848563D01*
X164241869Y-138150114D01*
X164357024Y-138428812D01*
X164570067Y-138642226D01*
X164848563Y-138757868D01*
X164874288Y-138757890D01*
X161948642Y-140383250D01*
X157471270Y-141875707D01*
X150727157Y-142774922D01*
X150642976Y-142571188D01*
X150625712Y-142553894D01*
X154553738Y-138625868D01*
X154570067Y-138642226D01*
X154848563Y-138757868D01*
X155150114Y-138758131D01*
X155428812Y-138642976D01*
X155642226Y-138429933D01*
X155757868Y-138151437D01*
X155758131Y-137849886D01*
X155642976Y-137571188D01*
X155429933Y-137357774D01*
X155151437Y-137242132D01*
X154849886Y-137241869D01*
X154571188Y-137357024D01*
X154553894Y-137374288D01*
X150625868Y-133446262D01*
X150642226Y-133429933D01*
X150757868Y-133151437D01*
X150757869Y-133150114D01*
X159241869Y-133150114D01*
X159357024Y-133428812D01*
X159570067Y-133642226D01*
X159848563Y-133757868D01*
X160150114Y-133758131D01*
X160428812Y-133642976D01*
X160642226Y-133429933D01*
X160757868Y-133151437D01*
X160757869Y-133150114D01*
X169241869Y-133150114D01*
X169357024Y-133428812D01*
X169570067Y-133642226D01*
X169848563Y-133757868D01*
X170150114Y-133758131D01*
X170428812Y-133642976D01*
X170642226Y-133429933D01*
X170757868Y-133151437D01*
X170758131Y-132849886D01*
X170642976Y-132571188D01*
X170429933Y-132357774D01*
X170151437Y-132242132D01*
X169849886Y-132241869D01*
X169571188Y-132357024D01*
X169357774Y-132570067D01*
X169242132Y-132848563D01*
X169241869Y-133150114D01*
X160757869Y-133150114D01*
X160758131Y-132849886D01*
X160642976Y-132571188D01*
X160429933Y-132357774D01*
X160151437Y-132242132D01*
X159849886Y-132241869D01*
X159571188Y-132357024D01*
X159357774Y-132570067D01*
X159242132Y-132848563D01*
X159241869Y-133150114D01*
X150757869Y-133150114D01*
X150757889Y-133127000D01*
X153500000Y-133127000D01*
X153534890Y-133122114D01*
X157034890Y-132122114D01*
X157056796Y-132113592D01*
X161056796Y-130113592D01*
X161081303Y-130097564D01*
X163418243Y-128150114D01*
X164241869Y-128150114D01*
X164357024Y-128428812D01*
X164570067Y-128642226D01*
X164848563Y-128757868D01*
X165150114Y-128758131D01*
X165428812Y-128642976D01*
X165642226Y-128429933D01*
X165757868Y-128151437D01*
X165758131Y-127849886D01*
X165642976Y-127571188D01*
X165429933Y-127357774D01*
X165151437Y-127242132D01*
X164849886Y-127241869D01*
X164571188Y-127357024D01*
X164357774Y-127570067D01*
X164242132Y-127848563D01*
X164241869Y-128150114D01*
X163418243Y-128150114D01*
X164081303Y-127597564D01*
X164100248Y-127577970D01*
X167544136Y-123150114D01*
X169241869Y-123150114D01*
X169357024Y-123428812D01*
X169570067Y-123642226D01*
X169848563Y-123757868D01*
X170150114Y-123758131D01*
X170428812Y-123642976D01*
X170642226Y-123429933D01*
X170757868Y-123151437D01*
X170758131Y-122849886D01*
X170642976Y-122571188D01*
X170429933Y-122357774D01*
X170151437Y-122242132D01*
X169849886Y-122241869D01*
X169571188Y-122357024D01*
X169357774Y-122570067D01*
X169242132Y-122848563D01*
X169241869Y-123150114D01*
X167544136Y-123150114D01*
X167600248Y-123077970D01*
X167616054Y-123051580D01*
X169616054Y-118551580D01*
X169625724Y-118517961D01*
X169678273Y-118150114D01*
X174241869Y-118150114D01*
X174357024Y-118428812D01*
X174570067Y-118642226D01*
X174848563Y-118757868D01*
X175150114Y-118758131D01*
X175428812Y-118642976D01*
X175642226Y-118429933D01*
X175757868Y-118151437D01*
X175758131Y-117849886D01*
X175642976Y-117571188D01*
X175429933Y-117357774D01*
X175151437Y-117242132D01*
X174849886Y-117241869D01*
X174571188Y-117357024D01*
X174357774Y-117570067D01*
X174242132Y-117848563D01*
X174241869Y-118150114D01*
X169678273Y-118150114D01*
X170119737Y-115059869D01*
X175000000Y-110179606D01*
X179863145Y-115042751D01*
X179863145Y-115042751D01*
G37*
X179863145Y-115042751D02*
X178877184Y-120465542D01*
X176386519Y-126941269D01*
X175758101Y-127883896D01*
X175758131Y-127849886D01*
X175642976Y-127571188D01*
X175429933Y-127357774D01*
X175151437Y-127242132D01*
X174849886Y-127241869D01*
X174571188Y-127357024D01*
X174357774Y-127570067D01*
X174242132Y-127848563D01*
X174241869Y-128150114D01*
X174357024Y-128428812D01*
X174570067Y-128642226D01*
X174848563Y-128757868D01*
X175150114Y-128758131D01*
X175184845Y-128743780D01*
X173399222Y-131422216D01*
X169415944Y-135903402D01*
X166433835Y-137891475D01*
X165695486Y-138301669D01*
X165757868Y-138151437D01*
X165758131Y-137849886D01*
X165642976Y-137571188D01*
X165429933Y-137357774D01*
X165151437Y-137242132D01*
X164849886Y-137241869D01*
X164571188Y-137357024D01*
X164357774Y-137570067D01*
X164242132Y-137848563D01*
X164241869Y-138150114D01*
X164357024Y-138428812D01*
X164570067Y-138642226D01*
X164848563Y-138757868D01*
X164874288Y-138757890D01*
X161948642Y-140383250D01*
X157471270Y-141875707D01*
X150727157Y-142774922D01*
X150642976Y-142571188D01*
X150625712Y-142553894D01*
X154553738Y-138625868D01*
X154570067Y-138642226D01*
X154848563Y-138757868D01*
X155150114Y-138758131D01*
X155428812Y-138642976D01*
X155642226Y-138429933D01*
X155757868Y-138151437D01*
X155758131Y-137849886D01*
X155642976Y-137571188D01*
X155429933Y-137357774D01*
X155151437Y-137242132D01*
X154849886Y-137241869D01*
X154571188Y-137357024D01*
X154553894Y-137374288D01*
X150625868Y-133446262D01*
X150642226Y-133429933D01*
X150757868Y-133151437D01*
X150757869Y-133150114D01*
X159241869Y-133150114D01*
X159357024Y-133428812D01*
X159570067Y-133642226D01*
X159848563Y-133757868D01*
X160150114Y-133758131D01*
X160428812Y-133642976D01*
X160642226Y-133429933D01*
X160757868Y-133151437D01*
X160757869Y-133150114D01*
X169241869Y-133150114D01*
X169357024Y-133428812D01*
X169570067Y-133642226D01*
X169848563Y-133757868D01*
X170150114Y-133758131D01*
X170428812Y-133642976D01*
X170642226Y-133429933D01*
X170757868Y-133151437D01*
X170758131Y-132849886D01*
X170642976Y-132571188D01*
X170429933Y-132357774D01*
X170151437Y-132242132D01*
X169849886Y-132241869D01*
X169571188Y-132357024D01*
X169357774Y-132570067D01*
X169242132Y-132848563D01*
X169241869Y-133150114D01*
X160757869Y-133150114D01*
X160758131Y-132849886D01*
X160642976Y-132571188D01*
X160429933Y-132357774D01*
X160151437Y-132242132D01*
X159849886Y-132241869D01*
X159571188Y-132357024D01*
X159357774Y-132570067D01*
X159242132Y-132848563D01*
X159241869Y-133150114D01*
X150757869Y-133150114D01*
X150757889Y-133127000D01*
X153500000Y-133127000D01*
X153534890Y-133122114D01*
X157034890Y-132122114D01*
X157056796Y-132113592D01*
X161056796Y-130113592D01*
X161081303Y-130097564D01*
X163418243Y-128150114D01*
X164241869Y-128150114D01*
X164357024Y-128428812D01*
X164570067Y-128642226D01*
X164848563Y-128757868D01*
X165150114Y-128758131D01*
X165428812Y-128642976D01*
X165642226Y-128429933D01*
X165757868Y-128151437D01*
X165758131Y-127849886D01*
X165642976Y-127571188D01*
X165429933Y-127357774D01*
X165151437Y-127242132D01*
X164849886Y-127241869D01*
X164571188Y-127357024D01*
X164357774Y-127570067D01*
X164242132Y-127848563D01*
X164241869Y-128150114D01*
X163418243Y-128150114D01*
X164081303Y-127597564D01*
X164100248Y-127577970D01*
X167544136Y-123150114D01*
X169241869Y-123150114D01*
X169357024Y-123428812D01*
X169570067Y-123642226D01*
X169848563Y-123757868D01*
X170150114Y-123758131D01*
X170428812Y-123642976D01*
X170642226Y-123429933D01*
X170757868Y-123151437D01*
X170758131Y-122849886D01*
X170642976Y-122571188D01*
X170429933Y-122357774D01*
X170151437Y-122242132D01*
X169849886Y-122241869D01*
X169571188Y-122357024D01*
X169357774Y-122570067D01*
X169242132Y-122848563D01*
X169241869Y-123150114D01*
X167544136Y-123150114D01*
X167600248Y-123077970D01*
X167616054Y-123051580D01*
X169616054Y-118551580D01*
X169625724Y-118517961D01*
X169678273Y-118150114D01*
X174241869Y-118150114D01*
X174357024Y-118428812D01*
X174570067Y-118642226D01*
X174848563Y-118757868D01*
X175150114Y-118758131D01*
X175428812Y-118642976D01*
X175642226Y-118429933D01*
X175757868Y-118151437D01*
X175758131Y-117849886D01*
X175642976Y-117571188D01*
X175429933Y-117357774D01*
X175151437Y-117242132D01*
X174849886Y-117241869D01*
X174571188Y-117357024D01*
X174357774Y-117570067D01*
X174242132Y-117848563D01*
X174241869Y-118150114D01*
X169678273Y-118150114D01*
X170119737Y-115059869D01*
X175000000Y-110179606D01*
X179863145Y-115042751D01*
G36*
X149357024Y-83428812D02*
X149374288Y-83446106D01*
X145446262Y-87374132D01*
X145429933Y-87357774D01*
X145151437Y-87242132D01*
X144849886Y-87241869D01*
X144571188Y-87357024D01*
X144357774Y-87570067D01*
X144242132Y-87848563D01*
X144241869Y-88150114D01*
X144357024Y-88428812D01*
X144570067Y-88642226D01*
X144848563Y-88757868D01*
X145150114Y-88758131D01*
X145428812Y-88642976D01*
X145446106Y-88625712D01*
X149374132Y-92553738D01*
X149357774Y-92570067D01*
X149242132Y-92848563D01*
X149242111Y-92873000D01*
X147000000Y-92873000D01*
X146969198Y-92876792D01*
X142969198Y-93876792D01*
X142938323Y-93888982D01*
X138438323Y-96388982D01*
X138417349Y-96403574D01*
X134917349Y-99403574D01*
X134898400Y-99423800D01*
X133398400Y-101423800D01*
X133391098Y-101434659D01*
X131891098Y-103934659D01*
X131883269Y-103949972D01*
X130383269Y-107449972D01*
X130374276Y-107482039D01*
X129889853Y-110873000D01*
X120146432Y-110873000D01*
X120535416Y-108150114D01*
X124241869Y-108150114D01*
X124357024Y-108428812D01*
X124570067Y-108642226D01*
X124848563Y-108757868D01*
X125150114Y-108758131D01*
X125428812Y-108642976D01*
X125642226Y-108429933D01*
X125757868Y-108151437D01*
X125758131Y-107849886D01*
X125642976Y-107571188D01*
X125429933Y-107357774D01*
X125151437Y-107242132D01*
X124849886Y-107241869D01*
X124571188Y-107357024D01*
X124357774Y-107570067D01*
X124242132Y-107848563D01*
X124241869Y-108150114D01*
X120535416Y-108150114D01*
X120624379Y-107527377D01*
X121937558Y-103150114D01*
X129241869Y-103150114D01*
X129357024Y-103428812D01*
X129570067Y-103642226D01*
X129848563Y-103757868D01*
X130150114Y-103758131D01*
X130428812Y-103642976D01*
X130642226Y-103429933D01*
X130757868Y-103151437D01*
X130758131Y-102849886D01*
X130642976Y-102571188D01*
X130429933Y-102357774D01*
X130151437Y-102242132D01*
X129849886Y-102241869D01*
X129571188Y-102357024D01*
X129357774Y-102570067D01*
X129242132Y-102848563D01*
X129241869Y-103150114D01*
X121937558Y-103150114D01*
X122119328Y-102544215D01*
X123627816Y-99150114D01*
X124241869Y-99150114D01*
X124357024Y-99428812D01*
X124570067Y-99642226D01*
X124848563Y-99757868D01*
X125150114Y-99758131D01*
X125428812Y-99642976D01*
X125642226Y-99429933D01*
X125757868Y-99151437D01*
X125758131Y-98849886D01*
X125642976Y-98571188D01*
X125429933Y-98357774D01*
X125151437Y-98242132D01*
X124849886Y-98241869D01*
X124571188Y-98357024D01*
X124357774Y-98570067D01*
X124242132Y-98848563D01*
X124241869Y-99150114D01*
X123627816Y-99150114D01*
X124072261Y-98150114D01*
X134241869Y-98150114D01*
X134357024Y-98428812D01*
X134570067Y-98642226D01*
X134848563Y-98757868D01*
X135150114Y-98758131D01*
X135428812Y-98642976D01*
X135642226Y-98429933D01*
X135757868Y-98151437D01*
X135758131Y-97849886D01*
X135642976Y-97571188D01*
X135429933Y-97357774D01*
X135151437Y-97242132D01*
X134849886Y-97241869D01*
X134571188Y-97357024D01*
X134357774Y-97570067D01*
X134242132Y-97848563D01*
X134241869Y-98150114D01*
X124072261Y-98150114D01*
X124110827Y-98063341D01*
X126600594Y-94577667D01*
X127790221Y-93150114D01*
X129241869Y-93150114D01*
X129357024Y-93428812D01*
X129570067Y-93642226D01*
X129848563Y-93757868D01*
X130150114Y-93758131D01*
X130428812Y-93642976D01*
X130642226Y-93429933D01*
X130757868Y-93151437D01*
X130757869Y-93150114D01*
X139241869Y-93150114D01*
X139357024Y-93428812D01*
X139570067Y-93642226D01*
X139848563Y-93757868D01*
X140150114Y-93758131D01*
X140428812Y-93642976D01*
X140642226Y-93429933D01*
X140757868Y-93151437D01*
X140758131Y-92849886D01*
X140642976Y-92571188D01*
X140429933Y-92357774D01*
X140151437Y-92242132D01*
X139849886Y-92241869D01*
X139571188Y-92357024D01*
X139357774Y-92570067D01*
X139242132Y-92848563D01*
X139241869Y-93150114D01*
X130757869Y-93150114D01*
X130758131Y-92849886D01*
X130642976Y-92571188D01*
X130429933Y-92357774D01*
X130151437Y-92242132D01*
X129849886Y-92241869D01*
X129571188Y-92357024D01*
X129357774Y-92570067D01*
X129242132Y-92848563D01*
X129241869Y-93150114D01*
X127790221Y-93150114D01*
X129090173Y-91590173D01*
X132076091Y-89101907D01*
X134351620Y-87584888D01*
X134242132Y-87848563D01*
X134241869Y-88150114D01*
X134357024Y-88428812D01*
X134570067Y-88642226D01*
X134848563Y-88757868D01*
X135150114Y-88758131D01*
X135428812Y-88642976D01*
X135642226Y-88429933D01*
X135757868Y-88151437D01*
X135758131Y-87849886D01*
X135642976Y-87571188D01*
X135429933Y-87357774D01*
X135151437Y-87242132D01*
X134866127Y-87241883D01*
X135063868Y-87110056D01*
X139046990Y-85118495D01*
X144023778Y-83625458D01*
X149258047Y-83189269D01*
X149357024Y-83428812D01*
X149357024Y-83428812D01*
G37*
X149357024Y-83428812D02*
X149374288Y-83446106D01*
X145446262Y-87374132D01*
X145429933Y-87357774D01*
X145151437Y-87242132D01*
X144849886Y-87241869D01*
X144571188Y-87357024D01*
X144357774Y-87570067D01*
X144242132Y-87848563D01*
X144241869Y-88150114D01*
X144357024Y-88428812D01*
X144570067Y-88642226D01*
X144848563Y-88757868D01*
X145150114Y-88758131D01*
X145428812Y-88642976D01*
X145446106Y-88625712D01*
X149374132Y-92553738D01*
X149357774Y-92570067D01*
X149242132Y-92848563D01*
X149242111Y-92873000D01*
X147000000Y-92873000D01*
X146969198Y-92876792D01*
X142969198Y-93876792D01*
X142938323Y-93888982D01*
X138438323Y-96388982D01*
X138417349Y-96403574D01*
X134917349Y-99403574D01*
X134898400Y-99423800D01*
X133398400Y-101423800D01*
X133391098Y-101434659D01*
X131891098Y-103934659D01*
X131883269Y-103949972D01*
X130383269Y-107449972D01*
X130374276Y-107482039D01*
X129889853Y-110873000D01*
X120146432Y-110873000D01*
X120535416Y-108150114D01*
X124241869Y-108150114D01*
X124357024Y-108428812D01*
X124570067Y-108642226D01*
X124848563Y-108757868D01*
X125150114Y-108758131D01*
X125428812Y-108642976D01*
X125642226Y-108429933D01*
X125757868Y-108151437D01*
X125758131Y-107849886D01*
X125642976Y-107571188D01*
X125429933Y-107357774D01*
X125151437Y-107242132D01*
X124849886Y-107241869D01*
X124571188Y-107357024D01*
X124357774Y-107570067D01*
X124242132Y-107848563D01*
X124241869Y-108150114D01*
X120535416Y-108150114D01*
X120624379Y-107527377D01*
X121937558Y-103150114D01*
X129241869Y-103150114D01*
X129357024Y-103428812D01*
X129570067Y-103642226D01*
X129848563Y-103757868D01*
X130150114Y-103758131D01*
X130428812Y-103642976D01*
X130642226Y-103429933D01*
X130757868Y-103151437D01*
X130758131Y-102849886D01*
X130642976Y-102571188D01*
X130429933Y-102357774D01*
X130151437Y-102242132D01*
X129849886Y-102241869D01*
X129571188Y-102357024D01*
X129357774Y-102570067D01*
X129242132Y-102848563D01*
X129241869Y-103150114D01*
X121937558Y-103150114D01*
X122119328Y-102544215D01*
X123627816Y-99150114D01*
X124241869Y-99150114D01*
X124357024Y-99428812D01*
X124570067Y-99642226D01*
X124848563Y-99757868D01*
X125150114Y-99758131D01*
X125428812Y-99642976D01*
X125642226Y-99429933D01*
X125757868Y-99151437D01*
X125758131Y-98849886D01*
X125642976Y-98571188D01*
X125429933Y-98357774D01*
X125151437Y-98242132D01*
X124849886Y-98241869D01*
X124571188Y-98357024D01*
X124357774Y-98570067D01*
X124242132Y-98848563D01*
X124241869Y-99150114D01*
X123627816Y-99150114D01*
X124072261Y-98150114D01*
X134241869Y-98150114D01*
X134357024Y-98428812D01*
X134570067Y-98642226D01*
X134848563Y-98757868D01*
X135150114Y-98758131D01*
X135428812Y-98642976D01*
X135642226Y-98429933D01*
X135757868Y-98151437D01*
X135758131Y-97849886D01*
X135642976Y-97571188D01*
X135429933Y-97357774D01*
X135151437Y-97242132D01*
X134849886Y-97241869D01*
X134571188Y-97357024D01*
X134357774Y-97570067D01*
X134242132Y-97848563D01*
X134241869Y-98150114D01*
X124072261Y-98150114D01*
X124110827Y-98063341D01*
X126600594Y-94577667D01*
X127790221Y-93150114D01*
X129241869Y-93150114D01*
X129357024Y-93428812D01*
X129570067Y-93642226D01*
X129848563Y-93757868D01*
X130150114Y-93758131D01*
X130428812Y-93642976D01*
X130642226Y-93429933D01*
X130757868Y-93151437D01*
X130757869Y-93150114D01*
X139241869Y-93150114D01*
X139357024Y-93428812D01*
X139570067Y-93642226D01*
X139848563Y-93757868D01*
X140150114Y-93758131D01*
X140428812Y-93642976D01*
X140642226Y-93429933D01*
X140757868Y-93151437D01*
X140758131Y-92849886D01*
X140642976Y-92571188D01*
X140429933Y-92357774D01*
X140151437Y-92242132D01*
X139849886Y-92241869D01*
X139571188Y-92357024D01*
X139357774Y-92570067D01*
X139242132Y-92848563D01*
X139241869Y-93150114D01*
X130757869Y-93150114D01*
X130758131Y-92849886D01*
X130642976Y-92571188D01*
X130429933Y-92357774D01*
X130151437Y-92242132D01*
X129849886Y-92241869D01*
X129571188Y-92357024D01*
X129357774Y-92570067D01*
X129242132Y-92848563D01*
X129241869Y-93150114D01*
X127790221Y-93150114D01*
X129090173Y-91590173D01*
X132076091Y-89101907D01*
X134351620Y-87584888D01*
X134242132Y-87848563D01*
X134241869Y-88150114D01*
X134357024Y-88428812D01*
X134570067Y-88642226D01*
X134848563Y-88757868D01*
X135150114Y-88758131D01*
X135428812Y-88642976D01*
X135642226Y-88429933D01*
X135757868Y-88151437D01*
X135758131Y-87849886D01*
X135642976Y-87571188D01*
X135429933Y-87357774D01*
X135151437Y-87242132D01*
X134866127Y-87241883D01*
X135063868Y-87110056D01*
X139046990Y-85118495D01*
X144023778Y-83625458D01*
X149258047Y-83189269D01*
X149357024Y-83428812D01*
G36*
X124374132Y-117553738D02*
X124357774Y-117570067D01*
X124242132Y-117848563D01*
X124241869Y-118150114D01*
X124357024Y-118428812D01*
X124570067Y-118642226D01*
X124848563Y-118757868D01*
X125150114Y-118758131D01*
X125428812Y-118642976D01*
X125642226Y-118429933D01*
X125757868Y-118151437D01*
X125758131Y-117849886D01*
X125642976Y-117571188D01*
X125625712Y-117553894D01*
X128302606Y-114877000D01*
X129873000Y-114877000D01*
X129873000Y-116000000D01*
X129876792Y-116030802D01*
X130876792Y-120030802D01*
X130886408Y-120056796D01*
X132386408Y-123056796D01*
X132394330Y-123070447D01*
X134394330Y-126070447D01*
X134410197Y-126089803D01*
X136910197Y-128589803D01*
X136923800Y-128601600D01*
X138923800Y-130101600D01*
X138943204Y-130113592D01*
X141943204Y-131613592D01*
X141959839Y-131620483D01*
X144959839Y-132620483D01*
X144979121Y-132625272D01*
X147938975Y-133118581D01*
X152820394Y-138000000D01*
X147955098Y-142865296D01*
X144524441Y-142375202D01*
X140540673Y-141379260D01*
X137053458Y-139884739D01*
X135063868Y-138889944D01*
X134865777Y-138757883D01*
X135150114Y-138758131D01*
X135428812Y-138642976D01*
X135642226Y-138429933D01*
X135757868Y-138151437D01*
X135757869Y-138150114D01*
X144241869Y-138150114D01*
X144357024Y-138428812D01*
X144570067Y-138642226D01*
X144848563Y-138757868D01*
X145150114Y-138758131D01*
X145428812Y-138642976D01*
X145642226Y-138429933D01*
X145757868Y-138151437D01*
X145758131Y-137849886D01*
X145642976Y-137571188D01*
X145429933Y-137357774D01*
X145151437Y-137242132D01*
X144849886Y-137241869D01*
X144571188Y-137357024D01*
X144357774Y-137570067D01*
X144242132Y-137848563D01*
X144241869Y-138150114D01*
X135757869Y-138150114D01*
X135758131Y-137849886D01*
X135642976Y-137571188D01*
X135429933Y-137357774D01*
X135151437Y-137242132D01*
X134849886Y-137241869D01*
X134571188Y-137357024D01*
X134357774Y-137570067D01*
X134242132Y-137848563D01*
X134241869Y-138150114D01*
X134351266Y-138414876D01*
X133574310Y-137896905D01*
X129088089Y-134407622D01*
X128010225Y-133150114D01*
X129241869Y-133150114D01*
X129357024Y-133428812D01*
X129570067Y-133642226D01*
X129848563Y-133757868D01*
X130150114Y-133758131D01*
X130428812Y-133642976D01*
X130642226Y-133429933D01*
X130757868Y-133151437D01*
X130757869Y-133150114D01*
X139241869Y-133150114D01*
X139357024Y-133428812D01*
X139570067Y-133642226D01*
X139848563Y-133757868D01*
X140150114Y-133758131D01*
X140428812Y-133642976D01*
X140642226Y-133429933D01*
X140757868Y-133151437D01*
X140758131Y-132849886D01*
X140642976Y-132571188D01*
X140429933Y-132357774D01*
X140151437Y-132242132D01*
X139849886Y-132241869D01*
X139571188Y-132357024D01*
X139357774Y-132570067D01*
X139242132Y-132848563D01*
X139241869Y-133150114D01*
X130757869Y-133150114D01*
X130758131Y-132849886D01*
X130642976Y-132571188D01*
X130429933Y-132357774D01*
X130151437Y-132242132D01*
X129849886Y-132241869D01*
X129571188Y-132357024D01*
X129357774Y-132570067D01*
X129242132Y-132848563D01*
X129241869Y-133150114D01*
X128010225Y-133150114D01*
X126102636Y-130924594D01*
X124713339Y-128701718D01*
X124848563Y-128757868D01*
X125150114Y-128758131D01*
X125428812Y-128642976D01*
X125642226Y-128429933D01*
X125757868Y-128151437D01*
X125757869Y-128150114D01*
X134241869Y-128150114D01*
X134357024Y-128428812D01*
X134570067Y-128642226D01*
X134848563Y-128757868D01*
X135150114Y-128758131D01*
X135428812Y-128642976D01*
X135642226Y-128429933D01*
X135757868Y-128151437D01*
X135758131Y-127849886D01*
X135642976Y-127571188D01*
X135429933Y-127357774D01*
X135151437Y-127242132D01*
X134849886Y-127241869D01*
X134571188Y-127357024D01*
X134357774Y-127570067D01*
X134242132Y-127848563D01*
X134241869Y-128150114D01*
X125757869Y-128150114D01*
X125758131Y-127849886D01*
X125642976Y-127571188D01*
X125429933Y-127357774D01*
X125151437Y-127242132D01*
X124849886Y-127241869D01*
X124571188Y-127357024D01*
X124357774Y-127570067D01*
X124242132Y-127848563D01*
X124242046Y-127947648D01*
X123612428Y-126940260D01*
X121927919Y-123150114D01*
X129241869Y-123150114D01*
X129357024Y-123428812D01*
X129570067Y-123642226D01*
X129848563Y-123757868D01*
X130150114Y-123758131D01*
X130428812Y-123642976D01*
X130642226Y-123429933D01*
X130757868Y-123151437D01*
X130758131Y-122849886D01*
X130642976Y-122571188D01*
X130429933Y-122357774D01*
X130151437Y-122242132D01*
X129849886Y-122241869D01*
X129571188Y-122357024D01*
X129357774Y-122570067D01*
X129242132Y-122848563D01*
X129241869Y-123150114D01*
X121927919Y-123150114D01*
X121619670Y-122456556D01*
X120625044Y-118975366D01*
X120169670Y-114877000D01*
X121697394Y-114877000D01*
X124374132Y-117553738D01*
X124374132Y-117553738D01*
G37*
X124374132Y-117553738D02*
X124357774Y-117570067D01*
X124242132Y-117848563D01*
X124241869Y-118150114D01*
X124357024Y-118428812D01*
X124570067Y-118642226D01*
X124848563Y-118757868D01*
X125150114Y-118758131D01*
X125428812Y-118642976D01*
X125642226Y-118429933D01*
X125757868Y-118151437D01*
X125758131Y-117849886D01*
X125642976Y-117571188D01*
X125625712Y-117553894D01*
X128302606Y-114877000D01*
X129873000Y-114877000D01*
X129873000Y-116000000D01*
X129876792Y-116030802D01*
X130876792Y-120030802D01*
X130886408Y-120056796D01*
X132386408Y-123056796D01*
X132394330Y-123070447D01*
X134394330Y-126070447D01*
X134410197Y-126089803D01*
X136910197Y-128589803D01*
X136923800Y-128601600D01*
X138923800Y-130101600D01*
X138943204Y-130113592D01*
X141943204Y-131613592D01*
X141959839Y-131620483D01*
X144959839Y-132620483D01*
X144979121Y-132625272D01*
X147938975Y-133118581D01*
X152820394Y-138000000D01*
X147955098Y-142865296D01*
X144524441Y-142375202D01*
X140540673Y-141379260D01*
X137053458Y-139884739D01*
X135063868Y-138889944D01*
X134865777Y-138757883D01*
X135150114Y-138758131D01*
X135428812Y-138642976D01*
X135642226Y-138429933D01*
X135757868Y-138151437D01*
X135757869Y-138150114D01*
X144241869Y-138150114D01*
X144357024Y-138428812D01*
X144570067Y-138642226D01*
X144848563Y-138757868D01*
X145150114Y-138758131D01*
X145428812Y-138642976D01*
X145642226Y-138429933D01*
X145757868Y-138151437D01*
X145758131Y-137849886D01*
X145642976Y-137571188D01*
X145429933Y-137357774D01*
X145151437Y-137242132D01*
X144849886Y-137241869D01*
X144571188Y-137357024D01*
X144357774Y-137570067D01*
X144242132Y-137848563D01*
X144241869Y-138150114D01*
X135757869Y-138150114D01*
X135758131Y-137849886D01*
X135642976Y-137571188D01*
X135429933Y-137357774D01*
X135151437Y-137242132D01*
X134849886Y-137241869D01*
X134571188Y-137357024D01*
X134357774Y-137570067D01*
X134242132Y-137848563D01*
X134241869Y-138150114D01*
X134351266Y-138414876D01*
X133574310Y-137896905D01*
X129088089Y-134407622D01*
X128010225Y-133150114D01*
X129241869Y-133150114D01*
X129357024Y-133428812D01*
X129570067Y-133642226D01*
X129848563Y-133757868D01*
X130150114Y-133758131D01*
X130428812Y-133642976D01*
X130642226Y-133429933D01*
X130757868Y-133151437D01*
X130757869Y-133150114D01*
X139241869Y-133150114D01*
X139357024Y-133428812D01*
X139570067Y-133642226D01*
X139848563Y-133757868D01*
X140150114Y-133758131D01*
X140428812Y-133642976D01*
X140642226Y-133429933D01*
X140757868Y-133151437D01*
X140758131Y-132849886D01*
X140642976Y-132571188D01*
X140429933Y-132357774D01*
X140151437Y-132242132D01*
X139849886Y-132241869D01*
X139571188Y-132357024D01*
X139357774Y-132570067D01*
X139242132Y-132848563D01*
X139241869Y-133150114D01*
X130757869Y-133150114D01*
X130758131Y-132849886D01*
X130642976Y-132571188D01*
X130429933Y-132357774D01*
X130151437Y-132242132D01*
X129849886Y-132241869D01*
X129571188Y-132357024D01*
X129357774Y-132570067D01*
X129242132Y-132848563D01*
X129241869Y-133150114D01*
X128010225Y-133150114D01*
X126102636Y-130924594D01*
X124713339Y-128701718D01*
X124848563Y-128757868D01*
X125150114Y-128758131D01*
X125428812Y-128642976D01*
X125642226Y-128429933D01*
X125757868Y-128151437D01*
X125757869Y-128150114D01*
X134241869Y-128150114D01*
X134357024Y-128428812D01*
X134570067Y-128642226D01*
X134848563Y-128757868D01*
X135150114Y-128758131D01*
X135428812Y-128642976D01*
X135642226Y-128429933D01*
X135757868Y-128151437D01*
X135758131Y-127849886D01*
X135642976Y-127571188D01*
X135429933Y-127357774D01*
X135151437Y-127242132D01*
X134849886Y-127241869D01*
X134571188Y-127357024D01*
X134357774Y-127570067D01*
X134242132Y-127848563D01*
X134241869Y-128150114D01*
X125757869Y-128150114D01*
X125758131Y-127849886D01*
X125642976Y-127571188D01*
X125429933Y-127357774D01*
X125151437Y-127242132D01*
X124849886Y-127241869D01*
X124571188Y-127357024D01*
X124357774Y-127570067D01*
X124242132Y-127848563D01*
X124242046Y-127947648D01*
X123612428Y-126940260D01*
X121927919Y-123150114D01*
X129241869Y-123150114D01*
X129357024Y-123428812D01*
X129570067Y-123642226D01*
X129848563Y-123757868D01*
X130150114Y-123758131D01*
X130428812Y-123642976D01*
X130642226Y-123429933D01*
X130757868Y-123151437D01*
X130758131Y-122849886D01*
X130642976Y-122571188D01*
X130429933Y-122357774D01*
X130151437Y-122242132D01*
X129849886Y-122241869D01*
X129571188Y-122357024D01*
X129357774Y-122570067D01*
X129242132Y-122848563D01*
X129241869Y-123150114D01*
X121927919Y-123150114D01*
X121619670Y-122456556D01*
X120625044Y-118975366D01*
X120169670Y-114877000D01*
X121697394Y-114877000D01*
X124374132Y-117553738D01*
G36*
X156969198Y-84123208D02*
X157000000Y-84127000D01*
X157975540Y-84127000D01*
X162947938Y-86115959D01*
X164932960Y-87108470D01*
X165111129Y-87242097D01*
X164849886Y-87241869D01*
X164571188Y-87357024D01*
X164357774Y-87570067D01*
X164242132Y-87848563D01*
X164241869Y-88150114D01*
X164357024Y-88428812D01*
X164570067Y-88642226D01*
X164848563Y-88757868D01*
X165150114Y-88758131D01*
X165428812Y-88642976D01*
X165642226Y-88429933D01*
X165757868Y-88151437D01*
X165758131Y-87849886D01*
X165684764Y-87672323D01*
X168916576Y-90096182D01*
X172903818Y-94083424D01*
X175327761Y-97315349D01*
X175151437Y-97242132D01*
X174849886Y-97241869D01*
X174571188Y-97357024D01*
X174357774Y-97570067D01*
X174242132Y-97848563D01*
X174241869Y-98150114D01*
X174357024Y-98428812D01*
X174570067Y-98642226D01*
X174848563Y-98757868D01*
X175150114Y-98758131D01*
X175428812Y-98642976D01*
X175642226Y-98429933D01*
X175757868Y-98151437D01*
X175758097Y-97889129D01*
X175891530Y-98067040D01*
X177880173Y-102044326D01*
X178876057Y-106027862D01*
X179873000Y-111012577D01*
X179873000Y-112241889D01*
X179849886Y-112241869D01*
X179571188Y-112357024D01*
X179553894Y-112374288D01*
X175625868Y-108446262D01*
X175642226Y-108429933D01*
X175757868Y-108151437D01*
X175758131Y-107849886D01*
X175642976Y-107571188D01*
X175429933Y-107357774D01*
X175151437Y-107242132D01*
X174849886Y-107241869D01*
X174571188Y-107357024D01*
X174357774Y-107570067D01*
X174242132Y-107848563D01*
X174241869Y-108150114D01*
X174357024Y-108428812D01*
X174374288Y-108446106D01*
X170446262Y-112374132D01*
X170429933Y-112357774D01*
X170151437Y-112242132D01*
X170127000Y-112242111D01*
X170127000Y-111000000D01*
X170124534Y-110975093D01*
X169124534Y-105975093D01*
X169113592Y-105943204D01*
X167717047Y-103150114D01*
X169241869Y-103150114D01*
X169357024Y-103428812D01*
X169570067Y-103642226D01*
X169848563Y-103757868D01*
X170150114Y-103758131D01*
X170428812Y-103642976D01*
X170642226Y-103429933D01*
X170757868Y-103151437D01*
X170758131Y-102849886D01*
X170642976Y-102571188D01*
X170429933Y-102357774D01*
X170151437Y-102242132D01*
X169849886Y-102241869D01*
X169571188Y-102357024D01*
X169357774Y-102570067D01*
X169242132Y-102848563D01*
X169241869Y-103150114D01*
X167717047Y-103150114D01*
X167113592Y-101943204D01*
X167101600Y-101923800D01*
X166351600Y-100923800D01*
X166339803Y-100910197D01*
X163579720Y-98150114D01*
X164241869Y-98150114D01*
X164357024Y-98428812D01*
X164570067Y-98642226D01*
X164848563Y-98757868D01*
X165150114Y-98758131D01*
X165428812Y-98642976D01*
X165642226Y-98429933D01*
X165757868Y-98151437D01*
X165758131Y-97849886D01*
X165642976Y-97571188D01*
X165429933Y-97357774D01*
X165151437Y-97242132D01*
X164849886Y-97241869D01*
X164571188Y-97357024D01*
X164357774Y-97570067D01*
X164242132Y-97848563D01*
X164241869Y-98150114D01*
X163579720Y-98150114D01*
X162589803Y-97160197D01*
X162556796Y-97136408D01*
X162063868Y-96889944D01*
X159070447Y-94894330D01*
X159056796Y-94886408D01*
X157056796Y-93886408D01*
X157024907Y-93875466D01*
X153398148Y-93150114D01*
X159241869Y-93150114D01*
X159357024Y-93428812D01*
X159570067Y-93642226D01*
X159848563Y-93757868D01*
X160150114Y-93758131D01*
X160428812Y-93642976D01*
X160642226Y-93429933D01*
X160757868Y-93151437D01*
X160757869Y-93150114D01*
X169241869Y-93150114D01*
X169357024Y-93428812D01*
X169570067Y-93642226D01*
X169848563Y-93757868D01*
X170150114Y-93758131D01*
X170428812Y-93642976D01*
X170642226Y-93429933D01*
X170757868Y-93151437D01*
X170758131Y-92849886D01*
X170642976Y-92571188D01*
X170429933Y-92357774D01*
X170151437Y-92242132D01*
X169849886Y-92241869D01*
X169571188Y-92357024D01*
X169357774Y-92570067D01*
X169242132Y-92848563D01*
X169241869Y-93150114D01*
X160757869Y-93150114D01*
X160758131Y-92849886D01*
X160642976Y-92571188D01*
X160429933Y-92357774D01*
X160151437Y-92242132D01*
X159849886Y-92241869D01*
X159571188Y-92357024D01*
X159357774Y-92570067D01*
X159242132Y-92848563D01*
X159241869Y-93150114D01*
X153398148Y-93150114D01*
X152062613Y-92883007D01*
X147329720Y-88150114D01*
X154241869Y-88150114D01*
X154357024Y-88428812D01*
X154570067Y-88642226D01*
X154848563Y-88757868D01*
X155150114Y-88758131D01*
X155428812Y-88642976D01*
X155642226Y-88429933D01*
X155757868Y-88151437D01*
X155758131Y-87849886D01*
X155642976Y-87571188D01*
X155429933Y-87357774D01*
X155151437Y-87242132D01*
X154849886Y-87241869D01*
X154571188Y-87357024D01*
X154357774Y-87570067D01*
X154242132Y-87848563D01*
X154241869Y-88150114D01*
X147329720Y-88150114D01*
X147179606Y-88000000D01*
X152052606Y-83127000D01*
X152984366Y-83127000D01*
X156969198Y-84123208D01*
X156969198Y-84123208D01*
G37*
X156969198Y-84123208D02*
X157000000Y-84127000D01*
X157975540Y-84127000D01*
X162947938Y-86115959D01*
X164932960Y-87108470D01*
X165111129Y-87242097D01*
X164849886Y-87241869D01*
X164571188Y-87357024D01*
X164357774Y-87570067D01*
X164242132Y-87848563D01*
X164241869Y-88150114D01*
X164357024Y-88428812D01*
X164570067Y-88642226D01*
X164848563Y-88757868D01*
X165150114Y-88758131D01*
X165428812Y-88642976D01*
X165642226Y-88429933D01*
X165757868Y-88151437D01*
X165758131Y-87849886D01*
X165684764Y-87672323D01*
X168916576Y-90096182D01*
X172903818Y-94083424D01*
X175327761Y-97315349D01*
X175151437Y-97242132D01*
X174849886Y-97241869D01*
X174571188Y-97357024D01*
X174357774Y-97570067D01*
X174242132Y-97848563D01*
X174241869Y-98150114D01*
X174357024Y-98428812D01*
X174570067Y-98642226D01*
X174848563Y-98757868D01*
X175150114Y-98758131D01*
X175428812Y-98642976D01*
X175642226Y-98429933D01*
X175757868Y-98151437D01*
X175758097Y-97889129D01*
X175891530Y-98067040D01*
X177880173Y-102044326D01*
X178876057Y-106027862D01*
X179873000Y-111012577D01*
X179873000Y-112241889D01*
X179849886Y-112241869D01*
X179571188Y-112357024D01*
X179553894Y-112374288D01*
X175625868Y-108446262D01*
X175642226Y-108429933D01*
X175757868Y-108151437D01*
X175758131Y-107849886D01*
X175642976Y-107571188D01*
X175429933Y-107357774D01*
X175151437Y-107242132D01*
X174849886Y-107241869D01*
X174571188Y-107357024D01*
X174357774Y-107570067D01*
X174242132Y-107848563D01*
X174241869Y-108150114D01*
X174357024Y-108428812D01*
X174374288Y-108446106D01*
X170446262Y-112374132D01*
X170429933Y-112357774D01*
X170151437Y-112242132D01*
X170127000Y-112242111D01*
X170127000Y-111000000D01*
X170124534Y-110975093D01*
X169124534Y-105975093D01*
X169113592Y-105943204D01*
X167717047Y-103150114D01*
X169241869Y-103150114D01*
X169357024Y-103428812D01*
X169570067Y-103642226D01*
X169848563Y-103757868D01*
X170150114Y-103758131D01*
X170428812Y-103642976D01*
X170642226Y-103429933D01*
X170757868Y-103151437D01*
X170758131Y-102849886D01*
X170642976Y-102571188D01*
X170429933Y-102357774D01*
X170151437Y-102242132D01*
X169849886Y-102241869D01*
X169571188Y-102357024D01*
X169357774Y-102570067D01*
X169242132Y-102848563D01*
X169241869Y-103150114D01*
X167717047Y-103150114D01*
X167113592Y-101943204D01*
X167101600Y-101923800D01*
X166351600Y-100923800D01*
X166339803Y-100910197D01*
X163579720Y-98150114D01*
X164241869Y-98150114D01*
X164357024Y-98428812D01*
X164570067Y-98642226D01*
X164848563Y-98757868D01*
X165150114Y-98758131D01*
X165428812Y-98642976D01*
X165642226Y-98429933D01*
X165757868Y-98151437D01*
X165758131Y-97849886D01*
X165642976Y-97571188D01*
X165429933Y-97357774D01*
X165151437Y-97242132D01*
X164849886Y-97241869D01*
X164571188Y-97357024D01*
X164357774Y-97570067D01*
X164242132Y-97848563D01*
X164241869Y-98150114D01*
X163579720Y-98150114D01*
X162589803Y-97160197D01*
X162556796Y-97136408D01*
X162063868Y-96889944D01*
X159070447Y-94894330D01*
X159056796Y-94886408D01*
X157056796Y-93886408D01*
X157024907Y-93875466D01*
X153398148Y-93150114D01*
X159241869Y-93150114D01*
X159357024Y-93428812D01*
X159570067Y-93642226D01*
X159848563Y-93757868D01*
X160150114Y-93758131D01*
X160428812Y-93642976D01*
X160642226Y-93429933D01*
X160757868Y-93151437D01*
X160757869Y-93150114D01*
X169241869Y-93150114D01*
X169357024Y-93428812D01*
X169570067Y-93642226D01*
X169848563Y-93757868D01*
X170150114Y-93758131D01*
X170428812Y-93642976D01*
X170642226Y-93429933D01*
X170757868Y-93151437D01*
X170758131Y-92849886D01*
X170642976Y-92571188D01*
X170429933Y-92357774D01*
X170151437Y-92242132D01*
X169849886Y-92241869D01*
X169571188Y-92357024D01*
X169357774Y-92570067D01*
X169242132Y-92848563D01*
X169241869Y-93150114D01*
X160757869Y-93150114D01*
X160758131Y-92849886D01*
X160642976Y-92571188D01*
X160429933Y-92357774D01*
X160151437Y-92242132D01*
X159849886Y-92241869D01*
X159571188Y-92357024D01*
X159357774Y-92570067D01*
X159242132Y-92848563D01*
X159241869Y-93150114D01*
X153398148Y-93150114D01*
X152062613Y-92883007D01*
X147329720Y-88150114D01*
X154241869Y-88150114D01*
X154357024Y-88428812D01*
X154570067Y-88642226D01*
X154848563Y-88757868D01*
X155150114Y-88758131D01*
X155428812Y-88642976D01*
X155642226Y-88429933D01*
X155757868Y-88151437D01*
X155758131Y-87849886D01*
X155642976Y-87571188D01*
X155429933Y-87357774D01*
X155151437Y-87242132D01*
X154849886Y-87241869D01*
X154571188Y-87357024D01*
X154357774Y-87570067D01*
X154242132Y-87848563D01*
X154241869Y-88150114D01*
X147329720Y-88150114D01*
X147179606Y-88000000D01*
X152052606Y-83127000D01*
X152984366Y-83127000D01*
X156969198Y-84123208D01*
M02*
