%FSLAX45Y45*%
G04 Gerber Fmt 4.5, Leading zero omitted, Abs format (unit mm)*
G04 Created by KiCad (PCBNEW 4.0.7) date 06/10/18 15:24:39*
%MOMM*%
%LPD*%
G01*
G04 APERTURE LIST*
%ADD10C,0.127000*%
%ADD11C,0.150000*%
%ADD12C,0.200000*%
%ADD13C,0.300000*%
G04 APERTURE END LIST*
D10*
D11*
X5000000Y-15000000D02*
X5000000Y-5000000D01*
X15000000Y-15000000D02*
X5000000Y-15000000D01*
X15000000Y-5000000D02*
X15000000Y-15000000D01*
X5000000Y-5000000D02*
X15000000Y-5000000D01*
D12*
X5160000Y-9900000D02*
X5200000Y-9940000D01*
X5200000Y-9900000D02*
X5160000Y-9940000D01*
X5380000Y-10080000D02*
X5420000Y-10120000D01*
X5420000Y-10080000D02*
X5380000Y-10120000D01*
X5555300Y-9797100D02*
X5595300Y-9837100D01*
X5595300Y-9797100D02*
X5555300Y-9837100D01*
X5600000Y-10580000D02*
X5640000Y-10620000D01*
X5640000Y-10580000D02*
X5600000Y-10620000D01*
X5730000Y-9935000D02*
X5770000Y-9975000D01*
X5770000Y-9935000D02*
X5730000Y-9975000D01*
X5740000Y-9560000D02*
X5780000Y-9600000D01*
X5780000Y-9560000D02*
X5740000Y-9600000D01*
X6030000Y-10079998D02*
X6070000Y-10119998D01*
X6070000Y-10079998D02*
X6030000Y-10119998D01*
X6230000Y-10580001D02*
X6270000Y-10620001D01*
X6270000Y-10580001D02*
X6230000Y-10620001D01*
X6379997Y-9980000D02*
X6419997Y-10020000D01*
X6419997Y-9980000D02*
X6379997Y-10020000D01*
X6457000Y-9886000D02*
X6497000Y-9926000D01*
X6497000Y-9886000D02*
X6457000Y-9926000D01*
X6480000Y-9980000D02*
X6520000Y-10020000D01*
X6520000Y-9980000D02*
X6480000Y-10020000D01*
X6680000Y-7280000D02*
X6720000Y-7320000D01*
X6720000Y-7280000D02*
X6680000Y-7320000D01*
X6820000Y-11760000D02*
X6860000Y-11800000D01*
X6860000Y-11760000D02*
X6820000Y-11800000D01*
X6825300Y-12222800D02*
X6865300Y-12262800D01*
X6865300Y-12222800D02*
X6825300Y-12262800D01*
X6850700Y-13899200D02*
X6890700Y-13939200D01*
X6890700Y-13899200D02*
X6850700Y-13939200D01*
X6940000Y-12800000D02*
X6980000Y-12840000D01*
X6980000Y-12800000D02*
X6940000Y-12840000D01*
X7030000Y-7455000D02*
X7070000Y-7495000D01*
X7070000Y-7455000D02*
X7030000Y-7495000D01*
X7080000Y-9655000D02*
X7120000Y-9695000D01*
X7120000Y-9655000D02*
X7080000Y-9695000D01*
X7280000Y-9430000D02*
X7320000Y-9470000D01*
X7320000Y-9430000D02*
X7280000Y-9470000D01*
X7815900Y-12883200D02*
X7855900Y-12923200D01*
X7855900Y-12883200D02*
X7815900Y-12923200D01*
X7854000Y-12756200D02*
X7894000Y-12796200D01*
X7894000Y-12756200D02*
X7854000Y-12796200D01*
X7980000Y-6230000D02*
X8020000Y-6270000D01*
X8020000Y-6230000D02*
X7980000Y-6270000D01*
X8003305Y-9768305D02*
X8043305Y-9808305D01*
X8043305Y-9768305D02*
X8003305Y-9808305D01*
X8030000Y-11555000D02*
X8070000Y-11595000D01*
X8070000Y-11555000D02*
X8030000Y-11595000D01*
X8085805Y-8810805D02*
X8125805Y-8850805D01*
X8125805Y-8810805D02*
X8085805Y-8850805D01*
X8166116Y-8470915D02*
X8206116Y-8510915D01*
X8206116Y-8470915D02*
X8166116Y-8510915D01*
X8280000Y-10530000D02*
X8320000Y-10570000D01*
X8320000Y-10530000D02*
X8280000Y-10570000D01*
X8362000Y-11791000D02*
X8402000Y-11831000D01*
X8402000Y-11791000D02*
X8362000Y-11831000D01*
X8450900Y-11791000D02*
X8490900Y-11831000D01*
X8490900Y-11791000D02*
X8450900Y-11831000D01*
X8575000Y-11620000D02*
X8615000Y-11660000D01*
X8615000Y-11620000D02*
X8575000Y-11660000D01*
X8580000Y-11030000D02*
X8620000Y-11070000D01*
X8620000Y-11030000D02*
X8580000Y-11070000D01*
X8653690Y-8242920D02*
X8693690Y-8282920D01*
X8693690Y-8242920D02*
X8653690Y-8282920D01*
X8655000Y-10355000D02*
X8695000Y-10395000D01*
X8695000Y-10355000D02*
X8655000Y-10395000D01*
X8705000Y-12580000D02*
X8745000Y-12620000D01*
X8745000Y-12580000D02*
X8705000Y-12620000D01*
X8760000Y-8520000D02*
X8800000Y-8560000D01*
X8800000Y-8520000D02*
X8760000Y-8560000D01*
X8863184Y-10520876D02*
X8903184Y-10560876D01*
X8903184Y-10520876D02*
X8863184Y-10560876D01*
X8875000Y-10620001D02*
X8915000Y-10660001D01*
X8915000Y-10620001D02*
X8875000Y-10660001D01*
X8897399Y-9800990D02*
X8937399Y-9840990D01*
X8937399Y-9800990D02*
X8897399Y-9840990D01*
X8946514Y-8375096D02*
X8986514Y-8415096D01*
X8986514Y-8375096D02*
X8946514Y-8415096D01*
X8980000Y-8800000D02*
X9020000Y-8840000D01*
X9020000Y-8800000D02*
X8980000Y-8840000D01*
X8985955Y-9760655D02*
X9025955Y-9800655D01*
X9025955Y-9760655D02*
X8985955Y-9800655D01*
X8995000Y-11680000D02*
X9035000Y-11720000D01*
X9035000Y-11680000D02*
X8995000Y-11720000D01*
X9004455Y-9017155D02*
X9044455Y-9057155D01*
X9044455Y-9017155D02*
X9004455Y-9057155D01*
X9005000Y-12555000D02*
X9045000Y-12595000D01*
X9045000Y-12555000D02*
X9005000Y-12595000D01*
X9032498Y-8284651D02*
X9072498Y-8324651D01*
X9072498Y-8284651D02*
X9032498Y-8324651D01*
X9032498Y-8580001D02*
X9072498Y-8620001D01*
X9072498Y-8580001D02*
X9032498Y-8620001D01*
X9055000Y-10305000D02*
X9095000Y-10345000D01*
X9095000Y-10305000D02*
X9055000Y-10345000D01*
X9105000Y-10405000D02*
X9145000Y-10445000D01*
X9145000Y-10405000D02*
X9105000Y-10445000D01*
X9354999Y-10405000D02*
X9394999Y-10445000D01*
X9394999Y-10405000D02*
X9354999Y-10445000D01*
X9355000Y-9730000D02*
X9395000Y-9770000D01*
X9395000Y-9730000D02*
X9355000Y-9770000D01*
X9375000Y-7500000D02*
X9415000Y-7540000D01*
X9415000Y-7500000D02*
X9375000Y-7540000D01*
X9375000Y-10840000D02*
X9415000Y-10880000D01*
X9415000Y-10840000D02*
X9375000Y-10880000D01*
X9394093Y-8240907D02*
X9434093Y-8280907D01*
X9434093Y-8240907D02*
X9394093Y-8280907D01*
X9400000Y-9640000D02*
X9440000Y-9680000D01*
X9440000Y-9640000D02*
X9400000Y-9680000D01*
X9405000Y-8355000D02*
X9445000Y-8395000D01*
X9445000Y-8355000D02*
X9405000Y-8395000D01*
X9405000Y-12305000D02*
X9445000Y-12345000D01*
X9445000Y-12305000D02*
X9405000Y-12345000D01*
X9505000Y-7905000D02*
X9545000Y-7945000D01*
X9545000Y-7905000D02*
X9505000Y-7945000D01*
X9530000Y-12555000D02*
X9570000Y-12595000D01*
X9570000Y-12555000D02*
X9530000Y-12595000D01*
X9554999Y-7980000D02*
X9594999Y-8020000D01*
X9594999Y-7980000D02*
X9554999Y-8020000D01*
X9605000Y-8080000D02*
X9645000Y-8120000D01*
X9645000Y-8080000D02*
X9605000Y-8120000D01*
X9795000Y-8820000D02*
X9835000Y-8860000D01*
X9835000Y-8820000D02*
X9795000Y-8860000D01*
X9979999Y-11730000D02*
X10019999Y-11770000D01*
X10019999Y-11730000D02*
X9979999Y-11770000D01*
X10080001Y-8480000D02*
X10120001Y-8520000D01*
X10120001Y-8480000D02*
X10080001Y-8520000D01*
X10095000Y-8220000D02*
X10135000Y-8260000D01*
X10135000Y-8220000D02*
X10095000Y-8260000D01*
X10157253Y-9718419D02*
X10197253Y-9758419D01*
X10197253Y-9718419D02*
X10157253Y-9758419D01*
X10194409Y-9789268D02*
X10234409Y-9829268D01*
X10234409Y-9789268D02*
X10194409Y-9829268D01*
X10255000Y-9105000D02*
X10295000Y-9145000D01*
X10295000Y-9105000D02*
X10255000Y-9145000D01*
X10274269Y-9794019D02*
X10314269Y-9834019D01*
X10314269Y-9794019D02*
X10274269Y-9834019D01*
X10317501Y-8255000D02*
X10357501Y-8295000D01*
X10357501Y-8255000D02*
X10317501Y-8295000D01*
X10330000Y-8980000D02*
X10370000Y-9020000D01*
X10370000Y-8980000D02*
X10330000Y-9020000D01*
X10405000Y-8030000D02*
X10445000Y-8070000D01*
X10445000Y-8030000D02*
X10405000Y-8070000D01*
X10405000Y-8230000D02*
X10445000Y-8270000D01*
X10445000Y-8230000D02*
X10405000Y-8270000D01*
X10455000Y-9105000D02*
X10495000Y-9145000D01*
X10495000Y-9105000D02*
X10455000Y-9145000D01*
X10540000Y-12920000D02*
X10580000Y-12960000D01*
X10580000Y-12920000D02*
X10540000Y-12960000D01*
X10637502Y-8587584D02*
X10677502Y-8627584D01*
X10677502Y-8587584D02*
X10637502Y-8627584D01*
X10637502Y-8730000D02*
X10677502Y-8770000D01*
X10677502Y-8730000D02*
X10637502Y-8770000D01*
X10640000Y-12600000D02*
X10680000Y-12640000D01*
X10680000Y-12600000D02*
X10640000Y-12640000D01*
X10680000Y-5380000D02*
X10720000Y-5420000D01*
X10720000Y-5380000D02*
X10680000Y-5420000D01*
X10680000Y-9455000D02*
X10720000Y-9495000D01*
X10720000Y-9455000D02*
X10680000Y-9495000D01*
X10692501Y-8430000D02*
X10732501Y-8470000D01*
X10732501Y-8430000D02*
X10692501Y-8470000D01*
X10762503Y-8605000D02*
X10802503Y-8645000D01*
X10802503Y-8605000D02*
X10762503Y-8645000D01*
X10762503Y-8755000D02*
X10802503Y-8795000D01*
X10802503Y-8755000D02*
X10762503Y-8795000D01*
X10780000Y-7130000D02*
X10820000Y-7170000D01*
X10820000Y-7130000D02*
X10780000Y-7170000D01*
X10830000Y-6880001D02*
X10870000Y-6920001D01*
X10870000Y-6880001D02*
X10830000Y-6920001D01*
X10930000Y-9505000D02*
X10970000Y-9545000D01*
X10970000Y-9505000D02*
X10930000Y-9545000D01*
X10978200Y-14064300D02*
X11018200Y-14104300D01*
X11018200Y-14064300D02*
X10978200Y-14104300D01*
X11030000Y-8880000D02*
X11070000Y-8920000D01*
X11070000Y-8880000D02*
X11030000Y-8920000D01*
X11080000Y-5980000D02*
X11120000Y-6020000D01*
X11120000Y-5980000D02*
X11080000Y-6020000D01*
X11105000Y-8780000D02*
X11145000Y-8820000D01*
X11145000Y-8780000D02*
X11105000Y-8820000D01*
X11130000Y-8955000D02*
X11170000Y-8995000D01*
X11170000Y-8955000D02*
X11130000Y-8995000D01*
X11155000Y-8630000D02*
X11195000Y-8670000D01*
X11195000Y-8630000D02*
X11155000Y-8670000D01*
X11180000Y-5480000D02*
X11220000Y-5520000D01*
X11220000Y-5480000D02*
X11180000Y-5520000D01*
X11300000Y-10480000D02*
X11340000Y-10520000D01*
X11340000Y-10480000D02*
X11300000Y-10520000D01*
X11305000Y-5580000D02*
X11345000Y-5620000D01*
X11345000Y-5580000D02*
X11305000Y-5620000D01*
X11359200Y-13061000D02*
X11399200Y-13101000D01*
X11399200Y-13061000D02*
X11359200Y-13101000D01*
X11560000Y-9380000D02*
X11600000Y-9420000D01*
X11600000Y-9380000D02*
X11560000Y-9420000D01*
X11655000Y-6529999D02*
X11695000Y-6569999D01*
X11695000Y-6529999D02*
X11655000Y-6569999D01*
X11780000Y-11180000D02*
X11820000Y-11220000D01*
X11820000Y-11180000D02*
X11780000Y-11220000D01*
X11805000Y-7080000D02*
X11845000Y-7120000D01*
X11845000Y-7080000D02*
X11805000Y-7120000D01*
X11805000Y-9405000D02*
X11845000Y-9445000D01*
X11845000Y-9405000D02*
X11805000Y-9445000D01*
X11905000Y-6330000D02*
X11945000Y-6370000D01*
X11945000Y-6330000D02*
X11905000Y-6370000D01*
X11910340Y-6942614D02*
X11950340Y-6982614D01*
X11950340Y-6942614D02*
X11910340Y-6982614D01*
X12005000Y-8905000D02*
X12045000Y-8945000D01*
X12045000Y-8905000D02*
X12005000Y-8945000D01*
X12080000Y-10580000D02*
X12120000Y-10620000D01*
X12120000Y-10580000D02*
X12080000Y-10620000D01*
X12105000Y-10805000D02*
X12145000Y-10845000D01*
X12145000Y-10805000D02*
X12105000Y-10845000D01*
X12180000Y-7330000D02*
X12220000Y-7370000D01*
X12220000Y-7330000D02*
X12180000Y-7370000D01*
X12260000Y-9140000D02*
X12300000Y-9180000D01*
X12300000Y-9140000D02*
X12260000Y-9180000D01*
X12260000Y-9140000D02*
X12300000Y-9180000D01*
X12300000Y-9140000D02*
X12260000Y-9180000D01*
X12280000Y-11055000D02*
X12320000Y-11095000D01*
X12320000Y-11055000D02*
X12280000Y-11095000D01*
X12305000Y-6905000D02*
X12345000Y-6945000D01*
X12345000Y-6905000D02*
X12305000Y-6945000D01*
X12335000Y-9940000D02*
X12375000Y-9980000D01*
X12375000Y-9940000D02*
X12335000Y-9980000D01*
X12340000Y-10560000D02*
X12380000Y-10600000D01*
X12380000Y-10560000D02*
X12340000Y-10600000D01*
X12340000Y-10560000D02*
X12380000Y-10600000D01*
X12380000Y-10560000D02*
X12340000Y-10600000D01*
X12355000Y-11240000D02*
X12395000Y-11280000D01*
X12395000Y-11240000D02*
X12355000Y-11280000D01*
X12430000Y-8630001D02*
X12470000Y-8670001D01*
X12470000Y-8630001D02*
X12430000Y-8670001D01*
X12495000Y-9340000D02*
X12535000Y-9380000D01*
X12535000Y-9340000D02*
X12495000Y-9380000D01*
X12505000Y-5905001D02*
X12545000Y-5945001D01*
X12545000Y-5905001D02*
X12505000Y-5945001D01*
X12505000Y-6755000D02*
X12545000Y-6795000D01*
X12545000Y-6755000D02*
X12505000Y-6795000D01*
X12583211Y-5658211D02*
X12623211Y-5698211D01*
X12623211Y-5658211D02*
X12583211Y-5698211D01*
X12930000Y-7130001D02*
X12970000Y-7170001D01*
X12970000Y-7130001D02*
X12930000Y-7170001D01*
X12960000Y-9140000D02*
X13000000Y-9180000D01*
X13000000Y-9140000D02*
X12960000Y-9180000D01*
X13213400Y-5796600D02*
X13253400Y-5836600D01*
X13253400Y-5796600D02*
X13213400Y-5836600D01*
X13300000Y-9440000D02*
X13340000Y-9480000D01*
X13340000Y-9440000D02*
X13300000Y-9480000D01*
X13315000Y-9780000D02*
X13355000Y-9820000D01*
X13355000Y-9780000D02*
X13315000Y-9820000D01*
X13320000Y-9260000D02*
X13360000Y-9300000D01*
X13360000Y-9260000D02*
X13320000Y-9300000D01*
X13340000Y-6780000D02*
X13380000Y-6820000D01*
X13380000Y-6780000D02*
X13340000Y-6820000D01*
X13380000Y-6980000D02*
X13420000Y-7020000D01*
X13420000Y-6980000D02*
X13380000Y-7020000D01*
X13630000Y-6205000D02*
X13670000Y-6245000D01*
X13670000Y-6205000D02*
X13630000Y-6245000D01*
X13680000Y-7280000D02*
X13720000Y-7320000D01*
X13720000Y-7280000D02*
X13680000Y-7320000D01*
X13855000Y-9020000D02*
X13895000Y-9060000D01*
X13895000Y-9020000D02*
X13855000Y-9060000D01*
X13875000Y-9960000D02*
X13915000Y-10000000D01*
X13915000Y-9960000D02*
X13875000Y-10000000D01*
X13904997Y-8330000D02*
X13944997Y-8370000D01*
X13944997Y-8330000D02*
X13904997Y-8370000D01*
X14020000Y-6760000D02*
X14060000Y-6800000D01*
X14060000Y-6760000D02*
X14020000Y-6800000D01*
X14155000Y-5855000D02*
X14195000Y-5895000D01*
X14195000Y-5855000D02*
X14155000Y-5895000D01*
X14480000Y-7179998D02*
X14520000Y-7219998D01*
X14520000Y-7179998D02*
X14480000Y-7219998D01*
X11882830Y-12500000D02*
G75*
G03X11882830Y-12500000I-36830J0D01*
G01*
X12136830Y-12500000D02*
G75*
G03X12136830Y-12500000I-36830J0D01*
G01*
X12390830Y-12500000D02*
G75*
G03X12390830Y-12500000I-36830J0D01*
G01*
X8500000Y-8972000D02*
X8500000Y-9052000D01*
X8460000Y-9012000D02*
X8540000Y-9012000D01*
X8500000Y-9460000D02*
X8500000Y-9540000D01*
X8460000Y-9500000D02*
X8540000Y-9500000D01*
X10025000Y-5985000D02*
X10025000Y-6065000D01*
X9985000Y-6025000D02*
X10065000Y-6025000D01*
X10375000Y-5985000D02*
X10375000Y-6065000D01*
X10335000Y-6025000D02*
X10415000Y-6025000D01*
X11655000Y-8360000D02*
X11655000Y-8440000D01*
X11615000Y-8400000D02*
X11695000Y-8400000D01*
X11655000Y-8868000D02*
X11655000Y-8948000D01*
X11615000Y-8908000D02*
X11695000Y-8908000D01*
X13495000Y-8360000D02*
X13495000Y-8440000D01*
X13455000Y-8400000D02*
X13535000Y-8400000D01*
X13495000Y-8868000D02*
X13495000Y-8948000D01*
X13455000Y-8908000D02*
X13535000Y-8908000D01*
X9431820Y-6731820D02*
X9431820Y-6668180D01*
X9368180Y-6668180D01*
X9368180Y-6731820D01*
X9431820Y-6731820D01*
X9431820Y-7061820D02*
X9431820Y-6998180D01*
X9368180Y-6998180D01*
X9368180Y-7061820D01*
X9431820Y-7061820D01*
X9681820Y-6731820D02*
X9681820Y-6668180D01*
X9618180Y-6668180D01*
X9618180Y-6731820D01*
X9681820Y-6731820D01*
X9681820Y-7061820D02*
X9681820Y-6998180D01*
X9618180Y-6998180D01*
X9618180Y-7061820D01*
X9681820Y-7061820D01*
X9931820Y-6731820D02*
X9931820Y-6668180D01*
X9868180Y-6668180D01*
X9868180Y-6731820D01*
X9931820Y-6731820D01*
X9931820Y-7061820D02*
X9931820Y-6998180D01*
X9868180Y-6998180D01*
X9868180Y-7061820D01*
X9931820Y-7061820D01*
X10783820Y-14509820D02*
X10783820Y-14446180D01*
X10720180Y-14446180D01*
X10720180Y-14509820D01*
X10783820Y-14509820D01*
X11037820Y-14509820D02*
X11037820Y-14446180D01*
X10974180Y-14446180D01*
X10974180Y-14509820D01*
X11037820Y-14509820D01*
X11799820Y-14509820D02*
X11799820Y-14446180D01*
X11736180Y-14446180D01*
X11736180Y-14509820D01*
X11799820Y-14509820D01*
X12053820Y-14509820D02*
X12053820Y-14446180D01*
X11990180Y-14446180D01*
X11990180Y-14509820D01*
X12053820Y-14509820D01*
X5500000Y-12250000D02*
X5550000Y-12200000D01*
X5500000Y-12150000D01*
X5450000Y-12200000D01*
X5500000Y-12250000D01*
X5500000Y-12504000D02*
X5550000Y-12454000D01*
X5500000Y-12404000D01*
X5450000Y-12454000D01*
X5500000Y-12504000D01*
X5500000Y-12758000D02*
X5550000Y-12708000D01*
X5500000Y-12658000D01*
X5450000Y-12708000D01*
X5500000Y-12758000D01*
X5500000Y-13012000D02*
X5550000Y-12962000D01*
X5500000Y-12912000D01*
X5450000Y-12962000D01*
X5500000Y-13012000D01*
X6500000Y-14550000D02*
X6550000Y-14500000D01*
X6500000Y-14450000D01*
X6450000Y-14500000D01*
X6500000Y-14550000D01*
X6754000Y-14550000D02*
X6804000Y-14500000D01*
X6754000Y-14450000D01*
X6704000Y-14500000D01*
X6754000Y-14550000D01*
X7008000Y-14550000D02*
X7058000Y-14500000D01*
X7008000Y-14450000D01*
X6958000Y-14500000D01*
X7008000Y-14550000D01*
X7262000Y-14550000D02*
X7312000Y-14500000D01*
X7262000Y-14450000D01*
X7212000Y-14500000D01*
X7262000Y-14550000D01*
X8000000Y-5650000D02*
X8050000Y-5600000D01*
X8000000Y-5550000D01*
X7950000Y-5600000D01*
X8000000Y-5650000D01*
X8300000Y-14550000D02*
X8350000Y-14500000D01*
X8300000Y-14450000D01*
X8250000Y-14500000D01*
X8300000Y-14550000D01*
X8500000Y-5650000D02*
X8550000Y-5600000D01*
X8500000Y-5550000D01*
X8450000Y-5600000D01*
X8500000Y-5650000D01*
X8554000Y-14550000D02*
X8604000Y-14500000D01*
X8554000Y-14450000D01*
X8504000Y-14500000D01*
X8554000Y-14550000D01*
X8808000Y-14550000D02*
X8858000Y-14500000D01*
X8808000Y-14450000D01*
X8758000Y-14500000D01*
X8808000Y-14550000D01*
X9000000Y-11096000D02*
X9050000Y-11046000D01*
X9000000Y-10996000D01*
X8950000Y-11046000D01*
X9000000Y-11096000D01*
X9000000Y-11350000D02*
X9050000Y-11300000D01*
X9000000Y-11250000D01*
X8950000Y-11300000D01*
X9000000Y-11350000D01*
X9062000Y-14550000D02*
X9112000Y-14500000D01*
X9062000Y-14450000D01*
X9012000Y-14500000D01*
X9062000Y-14550000D01*
X9254000Y-11096000D02*
X9304000Y-11046000D01*
X9254000Y-10996000D01*
X9204000Y-11046000D01*
X9254000Y-11096000D01*
X9254000Y-11350000D02*
X9304000Y-11300000D01*
X9254000Y-11250000D01*
X9204000Y-11300000D01*
X9254000Y-11350000D01*
X9508000Y-11096000D02*
X9558000Y-11046000D01*
X9508000Y-10996000D01*
X9458000Y-11046000D01*
X9508000Y-11096000D01*
X9508000Y-11350000D02*
X9558000Y-11300000D01*
X9508000Y-11250000D01*
X9458000Y-11300000D01*
X9508000Y-11350000D01*
X9762000Y-11096000D02*
X9812000Y-11046000D01*
X9762000Y-10996000D01*
X9712000Y-11046000D01*
X9762000Y-11096000D01*
X9762000Y-11350000D02*
X9812000Y-11300000D01*
X9762000Y-11250000D01*
X9712000Y-11300000D01*
X9762000Y-11350000D01*
X10000000Y-5350000D02*
X10050000Y-5300000D01*
X10000000Y-5250000D01*
X9950000Y-5300000D01*
X10000000Y-5350000D01*
X10100000Y-12250000D02*
X10150000Y-12200000D01*
X10100000Y-12150000D01*
X10050000Y-12200000D01*
X10100000Y-12250000D01*
X10100000Y-12504000D02*
X10150000Y-12454000D01*
X10100000Y-12404000D01*
X10050000Y-12454000D01*
X10100000Y-12504000D01*
X10100000Y-12758000D02*
X10150000Y-12708000D01*
X10100000Y-12658000D01*
X10050000Y-12708000D01*
X10100000Y-12758000D01*
X10254000Y-5350000D02*
X10304000Y-5300000D01*
X10254000Y-5250000D01*
X10204000Y-5300000D01*
X10254000Y-5350000D01*
X10508000Y-5350000D02*
X10558000Y-5300000D01*
X10508000Y-5250000D01*
X10458000Y-5300000D01*
X10508000Y-5350000D01*
X10700000Y-11350000D02*
X10750000Y-11300000D01*
X10700000Y-11250000D01*
X10650000Y-11300000D01*
X10700000Y-11350000D01*
X10954000Y-11350000D02*
X11004000Y-11300000D01*
X10954000Y-11250000D01*
X10904000Y-11300000D01*
X10954000Y-11350000D01*
X11074400Y-6984200D02*
X11124400Y-6934200D01*
X11074400Y-6884200D01*
X11024400Y-6934200D01*
X11074400Y-6984200D01*
X11074400Y-7238200D02*
X11124400Y-7188200D01*
X11074400Y-7138200D01*
X11024400Y-7188200D01*
X11074400Y-7238200D01*
X11074400Y-7746200D02*
X11124400Y-7696200D01*
X11074400Y-7646200D01*
X11024400Y-7696200D01*
X11074400Y-7746200D01*
X11074400Y-8000200D02*
X11124400Y-7950200D01*
X11074400Y-7900200D01*
X11024400Y-7950200D01*
X11074400Y-8000200D01*
X11074400Y-8254200D02*
X11124400Y-8204200D01*
X11074400Y-8154200D01*
X11024400Y-8204200D01*
X11074400Y-8254200D01*
X11208000Y-11350000D02*
X11258000Y-11300000D01*
X11208000Y-11250000D01*
X11158000Y-11300000D01*
X11208000Y-11350000D01*
X11462000Y-11350000D02*
X11512000Y-11300000D01*
X11462000Y-11250000D01*
X11412000Y-11300000D01*
X11462000Y-11350000D01*
X12800000Y-5296000D02*
X12850000Y-5246000D01*
X12800000Y-5196000D01*
X12750000Y-5246000D01*
X12800000Y-5296000D01*
X12800000Y-5550000D02*
X12850000Y-5500000D01*
X12800000Y-5450000D01*
X12750000Y-5500000D01*
X12800000Y-5550000D01*
X13054000Y-5296000D02*
X13104000Y-5246000D01*
X13054000Y-5196000D01*
X13004000Y-5246000D01*
X13054000Y-5296000D01*
X13054000Y-5550000D02*
X13104000Y-5500000D01*
X13054000Y-5450000D01*
X13004000Y-5500000D01*
X13054000Y-5550000D01*
X13308000Y-5296000D02*
X13358000Y-5246000D01*
X13308000Y-5196000D01*
X13258000Y-5246000D01*
X13308000Y-5296000D01*
X13308000Y-5550000D02*
X13358000Y-5500000D01*
X13308000Y-5450000D01*
X13258000Y-5500000D01*
X13308000Y-5550000D01*
X14224000Y-10769000D02*
X14274000Y-10719000D01*
X14224000Y-10669000D01*
X14174000Y-10719000D01*
X14224000Y-10769000D01*
X14224000Y-11023000D02*
X14274000Y-10973000D01*
X14224000Y-10923000D01*
X14174000Y-10973000D01*
X14224000Y-11023000D01*
X14224000Y-11226000D02*
X14274000Y-11176000D01*
X14224000Y-11126000D01*
X14174000Y-11176000D01*
X14224000Y-11226000D01*
X14224000Y-11480000D02*
X14274000Y-11430000D01*
X14224000Y-11380000D01*
X14174000Y-11430000D01*
X14224000Y-11480000D01*
X14224000Y-12801000D02*
X14274000Y-12751000D01*
X14224000Y-12701000D01*
X14174000Y-12751000D01*
X14224000Y-12801000D01*
X14224000Y-13055000D02*
X14274000Y-13005000D01*
X14224000Y-12955000D01*
X14174000Y-13005000D01*
X14224000Y-13055000D01*
X14224000Y-13258000D02*
X14274000Y-13208000D01*
X14224000Y-13158000D01*
X14174000Y-13208000D01*
X14224000Y-13258000D01*
X14224000Y-13512000D02*
X14274000Y-13462000D01*
X14224000Y-13412000D01*
X14174000Y-13462000D01*
X14224000Y-13512000D01*
X5320000Y-6820000D02*
X5430000Y-6930000D01*
X5430000Y-6820000D02*
X5320000Y-6930000D01*
X5430000Y-6875000D02*
G75*
G03X5430000Y-6875000I-55000J0D01*
G01*
X5320000Y-7270000D02*
X5430000Y-7380000D01*
X5430000Y-7270000D02*
X5320000Y-7380000D01*
X5430000Y-7325000D02*
G75*
G03X5430000Y-7325000I-55000J0D01*
G01*
X5970000Y-6820000D02*
X6080000Y-6930000D01*
X6080000Y-6820000D02*
X5970000Y-6930000D01*
X6080000Y-6875000D02*
G75*
G03X6080000Y-6875000I-55000J0D01*
G01*
X5970000Y-7270000D02*
X6080000Y-7380000D01*
X6080000Y-7270000D02*
X5970000Y-7380000D01*
X6080000Y-7325000D02*
G75*
G03X6080000Y-7325000I-55000J0D01*
G01*
X7995000Y-7245000D02*
X8105000Y-7355000D01*
X8105000Y-7245000D02*
X7995000Y-7355000D01*
X8105000Y-7300000D02*
G75*
G03X8105000Y-7300000I-55000J0D01*
G01*
X7995000Y-7895000D02*
X8105000Y-8005000D01*
X8105000Y-7895000D02*
X7995000Y-8005000D01*
X8105000Y-7950000D02*
G75*
G03X8105000Y-7950000I-55000J0D01*
G01*
X8445000Y-7245000D02*
X8555000Y-7355000D01*
X8555000Y-7245000D02*
X8445000Y-7355000D01*
X8555000Y-7300000D02*
G75*
G03X8555000Y-7300000I-55000J0D01*
G01*
X8445000Y-7895000D02*
X8555000Y-8005000D01*
X8555000Y-7895000D02*
X8445000Y-8005000D01*
X8555000Y-7950000D02*
G75*
G03X8555000Y-7950000I-55000J0D01*
G01*
X6150000Y-5620000D02*
X6310000Y-5780000D01*
X6310000Y-5620000D02*
X6150000Y-5780000D01*
X6230000Y-5620000D02*
X6230000Y-5780000D01*
X6150000Y-5700000D02*
X6310000Y-5700000D01*
X6620000Y-5320000D02*
X6780000Y-5480000D01*
X6780000Y-5320000D02*
X6620000Y-5480000D01*
X6700000Y-5320000D02*
X6700000Y-5480000D01*
X6620000Y-5400000D02*
X6780000Y-5400000D01*
X6620000Y-5920000D02*
X6780000Y-6080000D01*
X6780000Y-5920000D02*
X6620000Y-6080000D01*
X6700000Y-5920000D02*
X6700000Y-6080000D01*
X6620000Y-6000000D02*
X6780000Y-6000000D01*
X9990000Y-14390000D02*
X10210000Y-14610000D01*
X10210000Y-14390000D02*
X9990000Y-14610000D01*
X10177783Y-14577782D02*
X10177783Y-14422217D01*
X10022218Y-14422217D01*
X10022218Y-14577782D01*
X10177783Y-14577782D01*
X12490000Y-14390000D02*
X12710000Y-14610000D01*
X12710000Y-14390000D02*
X12490000Y-14610000D01*
X12677782Y-14577782D02*
X12677782Y-14422217D01*
X12522217Y-14422217D01*
X12522217Y-14577782D01*
X12677782Y-14577782D01*
X14376000Y-10299000D02*
X14606000Y-10529000D01*
X14606000Y-10299000D02*
X14376000Y-10529000D01*
X14491000Y-10529000D02*
X14606000Y-10414000D01*
X14491000Y-10299000D01*
X14376000Y-10414000D01*
X14491000Y-10529000D01*
X14376000Y-11671000D02*
X14606000Y-11901000D01*
X14606000Y-11671000D02*
X14376000Y-11901000D01*
X14491000Y-11901000D02*
X14606000Y-11786000D01*
X14491000Y-11671000D01*
X14376000Y-11786000D01*
X14491000Y-11901000D01*
X14376000Y-12331000D02*
X14606000Y-12561000D01*
X14606000Y-12331000D02*
X14376000Y-12561000D01*
X14491000Y-12561000D02*
X14606000Y-12446000D01*
X14491000Y-12331000D01*
X14376000Y-12446000D01*
X14491000Y-12561000D01*
X14376000Y-13703000D02*
X14606000Y-13933000D01*
X14606000Y-13703000D02*
X14376000Y-13933000D01*
X14491000Y-13933000D02*
X14606000Y-13818000D01*
X14491000Y-13703000D01*
X14376000Y-13818000D01*
X14491000Y-13933000D01*
X5500000Y-5340000D02*
X5500000Y-5660000D01*
X5340000Y-5500000D02*
X5660000Y-5500000D01*
X5660000Y-5500000D02*
G75*
G03X5660000Y-5500000I-160000J0D01*
G01*
X5500000Y-14340000D02*
X5500000Y-14660000D01*
X5340000Y-14500000D02*
X5660000Y-14500000D01*
X5660000Y-14500000D02*
G75*
G03X5660000Y-14500000I-160000J0D01*
G01*
X14500000Y-5340000D02*
X14500000Y-5660000D01*
X14340000Y-5500000D02*
X14660000Y-5500000D01*
X14660000Y-5500000D02*
G75*
G03X14660000Y-5500000I-160000J0D01*
G01*
X14500000Y-14340000D02*
X14500000Y-14660000D01*
X14340000Y-14500000D02*
X14660000Y-14500000D01*
X14660000Y-14500000D02*
G75*
G03X14660000Y-14500000I-160000J0D01*
G01*
D13*
X5263929Y-15473214D02*
X5263929Y-15173214D01*
X5335357Y-15173214D01*
X5378214Y-15187500D01*
X5406786Y-15216071D01*
X5421071Y-15244643D01*
X5435357Y-15301786D01*
X5435357Y-15344643D01*
X5421071Y-15401786D01*
X5406786Y-15430357D01*
X5378214Y-15458929D01*
X5335357Y-15473214D01*
X5263929Y-15473214D01*
X5563929Y-15473214D02*
X5563929Y-15273214D01*
X5563929Y-15330357D02*
X5578214Y-15301786D01*
X5592500Y-15287500D01*
X5621071Y-15273214D01*
X5649643Y-15273214D01*
X5749643Y-15473214D02*
X5749643Y-15273214D01*
X5749643Y-15173214D02*
X5735357Y-15187500D01*
X5749643Y-15201786D01*
X5763928Y-15187500D01*
X5749643Y-15173214D01*
X5749643Y-15201786D01*
X5935357Y-15473214D02*
X5906786Y-15458929D01*
X5892500Y-15430357D01*
X5892500Y-15173214D01*
X6092500Y-15473214D02*
X6063928Y-15458929D01*
X6049643Y-15430357D01*
X6049643Y-15173214D01*
X6435357Y-15473214D02*
X6435357Y-15173214D01*
X6535357Y-15387500D01*
X6635357Y-15173214D01*
X6635357Y-15473214D01*
X6906786Y-15473214D02*
X6906786Y-15316071D01*
X6892500Y-15287500D01*
X6863928Y-15273214D01*
X6806786Y-15273214D01*
X6778214Y-15287500D01*
X6906786Y-15458929D02*
X6878214Y-15473214D01*
X6806786Y-15473214D01*
X6778214Y-15458929D01*
X6763928Y-15430357D01*
X6763928Y-15401786D01*
X6778214Y-15373214D01*
X6806786Y-15358929D01*
X6878214Y-15358929D01*
X6906786Y-15344643D01*
X7049643Y-15273214D02*
X7049643Y-15573214D01*
X7049643Y-15287500D02*
X7078214Y-15273214D01*
X7135357Y-15273214D01*
X7163928Y-15287500D01*
X7178214Y-15301786D01*
X7192500Y-15330357D01*
X7192500Y-15416071D01*
X7178214Y-15444643D01*
X7163928Y-15458929D01*
X7135357Y-15473214D01*
X7078214Y-15473214D01*
X7049643Y-15458929D01*
X7321071Y-15444643D02*
X7335357Y-15458929D01*
X7321071Y-15473214D01*
X7306786Y-15458929D01*
X7321071Y-15444643D01*
X7321071Y-15473214D01*
X7321071Y-15287500D02*
X7335357Y-15301786D01*
X7321071Y-15316071D01*
X7306786Y-15301786D01*
X7321071Y-15287500D01*
X7321071Y-15316071D01*
X4952500Y-15947500D02*
X4992500Y-15987500D01*
X4992500Y-15947500D02*
X4952500Y-15987500D01*
X5321071Y-15803214D02*
X5349643Y-15803214D01*
X5378214Y-15817500D01*
X5392500Y-15831786D01*
X5406786Y-15860357D01*
X5421071Y-15917500D01*
X5421071Y-15988929D01*
X5406786Y-16046071D01*
X5392500Y-16074643D01*
X5378214Y-16088929D01*
X5349643Y-16103214D01*
X5321071Y-16103214D01*
X5292500Y-16088929D01*
X5278214Y-16074643D01*
X5263929Y-16046071D01*
X5249643Y-15988929D01*
X5249643Y-15917500D01*
X5263929Y-15860357D01*
X5278214Y-15831786D01*
X5292500Y-15817500D01*
X5321071Y-15803214D01*
X5549643Y-16074643D02*
X5563929Y-16088929D01*
X5549643Y-16103214D01*
X5535357Y-16088929D01*
X5549643Y-16074643D01*
X5549643Y-16103214D01*
X5821071Y-15903214D02*
X5821071Y-16103214D01*
X5749643Y-15788929D02*
X5678214Y-16003214D01*
X5863928Y-16003214D01*
X6035357Y-15803214D02*
X6063928Y-15803214D01*
X6092500Y-15817500D01*
X6106786Y-15831786D01*
X6121071Y-15860357D01*
X6135357Y-15917500D01*
X6135357Y-15988929D01*
X6121071Y-16046071D01*
X6106786Y-16074643D01*
X6092500Y-16088929D01*
X6063928Y-16103214D01*
X6035357Y-16103214D01*
X6006786Y-16088929D01*
X5992500Y-16074643D01*
X5978214Y-16046071D01*
X5963928Y-15988929D01*
X5963928Y-15917500D01*
X5978214Y-15860357D01*
X5992500Y-15831786D01*
X6006786Y-15817500D01*
X6035357Y-15803214D01*
X6263928Y-16103214D02*
X6263928Y-15903214D01*
X6263928Y-15931786D02*
X6278214Y-15917500D01*
X6306786Y-15903214D01*
X6349643Y-15903214D01*
X6378214Y-15917500D01*
X6392500Y-15946071D01*
X6392500Y-16103214D01*
X6392500Y-15946071D02*
X6406786Y-15917500D01*
X6435357Y-15903214D01*
X6478214Y-15903214D01*
X6506786Y-15917500D01*
X6521071Y-15946071D01*
X6521071Y-16103214D01*
X6663928Y-16103214D02*
X6663928Y-15903214D01*
X6663928Y-15931786D02*
X6678214Y-15917500D01*
X6706786Y-15903214D01*
X6749643Y-15903214D01*
X6778214Y-15917500D01*
X6792500Y-15946071D01*
X6792500Y-16103214D01*
X6792500Y-15946071D02*
X6806786Y-15917500D01*
X6835357Y-15903214D01*
X6878214Y-15903214D01*
X6906786Y-15917500D01*
X6921071Y-15946071D01*
X6921071Y-16103214D01*
X7506786Y-15788929D02*
X7249643Y-16174643D01*
X7892500Y-15803214D02*
X7921071Y-15803214D01*
X7949643Y-15817500D01*
X7963928Y-15831786D01*
X7978214Y-15860357D01*
X7992500Y-15917500D01*
X7992500Y-15988929D01*
X7978214Y-16046071D01*
X7963928Y-16074643D01*
X7949643Y-16088929D01*
X7921071Y-16103214D01*
X7892500Y-16103214D01*
X7863928Y-16088929D01*
X7849643Y-16074643D01*
X7835357Y-16046071D01*
X7821071Y-15988929D01*
X7821071Y-15917500D01*
X7835357Y-15860357D01*
X7849643Y-15831786D01*
X7863928Y-15817500D01*
X7892500Y-15803214D01*
X8121071Y-16074643D02*
X8135357Y-16088929D01*
X8121071Y-16103214D01*
X8106786Y-16088929D01*
X8121071Y-16074643D01*
X8121071Y-16103214D01*
X8321071Y-15803214D02*
X8349643Y-15803214D01*
X8378214Y-15817500D01*
X8392500Y-15831786D01*
X8406786Y-15860357D01*
X8421071Y-15917500D01*
X8421071Y-15988929D01*
X8406786Y-16046071D01*
X8392500Y-16074643D01*
X8378214Y-16088929D01*
X8349643Y-16103214D01*
X8321071Y-16103214D01*
X8292500Y-16088929D01*
X8278214Y-16074643D01*
X8263928Y-16046071D01*
X8249643Y-15988929D01*
X8249643Y-15917500D01*
X8263928Y-15860357D01*
X8278214Y-15831786D01*
X8292500Y-15817500D01*
X8321071Y-15803214D01*
X8706786Y-16103214D02*
X8535357Y-16103214D01*
X8621071Y-16103214D02*
X8621071Y-15803214D01*
X8592500Y-15846071D01*
X8563928Y-15874643D01*
X8535357Y-15888929D01*
X8963928Y-15803214D02*
X8906786Y-15803214D01*
X8878214Y-15817500D01*
X8863928Y-15831786D01*
X8835357Y-15874643D01*
X8821071Y-15931786D01*
X8821071Y-16046071D01*
X8835357Y-16074643D01*
X8849643Y-16088929D01*
X8878214Y-16103214D01*
X8935357Y-16103214D01*
X8963928Y-16088929D01*
X8978214Y-16074643D01*
X8992500Y-16046071D01*
X8992500Y-15974643D01*
X8978214Y-15946071D01*
X8963928Y-15931786D01*
X8935357Y-15917500D01*
X8878214Y-15917500D01*
X8849643Y-15931786D01*
X8835357Y-15946071D01*
X8821071Y-15974643D01*
X9106786Y-15803214D02*
X9106786Y-15860357D01*
X9221071Y-15803214D02*
X9221071Y-15860357D01*
X9663928Y-16217500D02*
X9649643Y-16203214D01*
X9621071Y-16160357D01*
X9606786Y-16131786D01*
X9592500Y-16088929D01*
X9578214Y-16017500D01*
X9578214Y-15960357D01*
X9592500Y-15888929D01*
X9606786Y-15846071D01*
X9621071Y-15817500D01*
X9649643Y-15774643D01*
X9663928Y-15760357D01*
X9935357Y-16103214D02*
X9763928Y-16103214D01*
X9849643Y-16103214D02*
X9849643Y-15803214D01*
X9821071Y-15846071D01*
X9792500Y-15874643D01*
X9763928Y-15888929D01*
X10035357Y-15803214D02*
X10221071Y-15803214D01*
X10121071Y-15917500D01*
X10163928Y-15917500D01*
X10192500Y-15931786D01*
X10206786Y-15946071D01*
X10221071Y-15974643D01*
X10221071Y-16046071D01*
X10206786Y-16074643D01*
X10192500Y-16088929D01*
X10163928Y-16103214D01*
X10078214Y-16103214D01*
X10049643Y-16088929D01*
X10035357Y-16074643D01*
X10492500Y-15803214D02*
X10349643Y-15803214D01*
X10335357Y-15946071D01*
X10349643Y-15931786D01*
X10378214Y-15917500D01*
X10449643Y-15917500D01*
X10478214Y-15931786D01*
X10492500Y-15946071D01*
X10506786Y-15974643D01*
X10506786Y-16046071D01*
X10492500Y-16074643D01*
X10478214Y-16088929D01*
X10449643Y-16103214D01*
X10378214Y-16103214D01*
X10349643Y-16088929D01*
X10335357Y-16074643D01*
X10863928Y-16103214D02*
X10863928Y-15803214D01*
X10992500Y-16103214D02*
X10992500Y-15946071D01*
X10978214Y-15917500D01*
X10949643Y-15903214D01*
X10906786Y-15903214D01*
X10878214Y-15917500D01*
X10863928Y-15931786D01*
X11178214Y-16103214D02*
X11149643Y-16088929D01*
X11135357Y-16074643D01*
X11121071Y-16046071D01*
X11121071Y-15960357D01*
X11135357Y-15931786D01*
X11149643Y-15917500D01*
X11178214Y-15903214D01*
X11221071Y-15903214D01*
X11249643Y-15917500D01*
X11263928Y-15931786D01*
X11278214Y-15960357D01*
X11278214Y-16046071D01*
X11263928Y-16074643D01*
X11249643Y-16088929D01*
X11221071Y-16103214D01*
X11178214Y-16103214D01*
X11449643Y-16103214D02*
X11421071Y-16088929D01*
X11406786Y-16060357D01*
X11406786Y-15803214D01*
X11678214Y-16088929D02*
X11649643Y-16103214D01*
X11592500Y-16103214D01*
X11563928Y-16088929D01*
X11549643Y-16060357D01*
X11549643Y-15946071D01*
X11563928Y-15917500D01*
X11592500Y-15903214D01*
X11649643Y-15903214D01*
X11678214Y-15917500D01*
X11692500Y-15946071D01*
X11692500Y-15974643D01*
X11549643Y-16003214D01*
X11806786Y-16088929D02*
X11835357Y-16103214D01*
X11892500Y-16103214D01*
X11921071Y-16088929D01*
X11935357Y-16060357D01*
X11935357Y-16046071D01*
X11921071Y-16017500D01*
X11892500Y-16003214D01*
X11849643Y-16003214D01*
X11821071Y-15988929D01*
X11806786Y-15960357D01*
X11806786Y-15946071D01*
X11821071Y-15917500D01*
X11849643Y-15903214D01*
X11892500Y-15903214D01*
X11921071Y-15917500D01*
X12035357Y-16217500D02*
X12049643Y-16203214D01*
X12078214Y-16160357D01*
X12092500Y-16131786D01*
X12106786Y-16088929D01*
X12121071Y-16017500D01*
X12121071Y-15960357D01*
X12106786Y-15888929D01*
X12092500Y-15846071D01*
X12078214Y-15817500D01*
X12049643Y-15774643D01*
X12035357Y-15760357D01*
X4992500Y-16363500D02*
G75*
G03X4992500Y-16363500I-36830J0D01*
G01*
X5321071Y-16199214D02*
X5349643Y-16199214D01*
X5378214Y-16213500D01*
X5392500Y-16227786D01*
X5406786Y-16256357D01*
X5421071Y-16313500D01*
X5421071Y-16384929D01*
X5406786Y-16442071D01*
X5392500Y-16470643D01*
X5378214Y-16484929D01*
X5349643Y-16499214D01*
X5321071Y-16499214D01*
X5292500Y-16484929D01*
X5278214Y-16470643D01*
X5263929Y-16442071D01*
X5249643Y-16384929D01*
X5249643Y-16313500D01*
X5263929Y-16256357D01*
X5278214Y-16227786D01*
X5292500Y-16213500D01*
X5321071Y-16199214D01*
X5549643Y-16470643D02*
X5563929Y-16484929D01*
X5549643Y-16499214D01*
X5535357Y-16484929D01*
X5549643Y-16470643D01*
X5549643Y-16499214D01*
X5663928Y-16199214D02*
X5863928Y-16199214D01*
X5735357Y-16499214D01*
X6106786Y-16299214D02*
X6106786Y-16499214D01*
X6035357Y-16184929D02*
X5963928Y-16399214D01*
X6149643Y-16399214D01*
X6263928Y-16499214D02*
X6263928Y-16299214D01*
X6263928Y-16327786D02*
X6278214Y-16313500D01*
X6306786Y-16299214D01*
X6349643Y-16299214D01*
X6378214Y-16313500D01*
X6392500Y-16342071D01*
X6392500Y-16499214D01*
X6392500Y-16342071D02*
X6406786Y-16313500D01*
X6435357Y-16299214D01*
X6478214Y-16299214D01*
X6506786Y-16313500D01*
X6521071Y-16342071D01*
X6521071Y-16499214D01*
X6663928Y-16499214D02*
X6663928Y-16299214D01*
X6663928Y-16327786D02*
X6678214Y-16313500D01*
X6706786Y-16299214D01*
X6749643Y-16299214D01*
X6778214Y-16313500D01*
X6792500Y-16342071D01*
X6792500Y-16499214D01*
X6792500Y-16342071D02*
X6806786Y-16313500D01*
X6835357Y-16299214D01*
X6878214Y-16299214D01*
X6906786Y-16313500D01*
X6921071Y-16342071D01*
X6921071Y-16499214D01*
X7506786Y-16184929D02*
X7249643Y-16570643D01*
X7892500Y-16199214D02*
X7921071Y-16199214D01*
X7949643Y-16213500D01*
X7963928Y-16227786D01*
X7978214Y-16256357D01*
X7992500Y-16313500D01*
X7992500Y-16384929D01*
X7978214Y-16442071D01*
X7963928Y-16470643D01*
X7949643Y-16484929D01*
X7921071Y-16499214D01*
X7892500Y-16499214D01*
X7863928Y-16484929D01*
X7849643Y-16470643D01*
X7835357Y-16442071D01*
X7821071Y-16384929D01*
X7821071Y-16313500D01*
X7835357Y-16256357D01*
X7849643Y-16227786D01*
X7863928Y-16213500D01*
X7892500Y-16199214D01*
X8121071Y-16470643D02*
X8135357Y-16484929D01*
X8121071Y-16499214D01*
X8106786Y-16484929D01*
X8121071Y-16470643D01*
X8121071Y-16499214D01*
X8321071Y-16199214D02*
X8349643Y-16199214D01*
X8378214Y-16213500D01*
X8392500Y-16227786D01*
X8406786Y-16256357D01*
X8421071Y-16313500D01*
X8421071Y-16384929D01*
X8406786Y-16442071D01*
X8392500Y-16470643D01*
X8378214Y-16484929D01*
X8349643Y-16499214D01*
X8321071Y-16499214D01*
X8292500Y-16484929D01*
X8278214Y-16470643D01*
X8263928Y-16442071D01*
X8249643Y-16384929D01*
X8249643Y-16313500D01*
X8263928Y-16256357D01*
X8278214Y-16227786D01*
X8292500Y-16213500D01*
X8321071Y-16199214D01*
X8535357Y-16227786D02*
X8549643Y-16213500D01*
X8578214Y-16199214D01*
X8649643Y-16199214D01*
X8678214Y-16213500D01*
X8692500Y-16227786D01*
X8706786Y-16256357D01*
X8706786Y-16284929D01*
X8692500Y-16327786D01*
X8521071Y-16499214D01*
X8706786Y-16499214D01*
X8849643Y-16499214D02*
X8906786Y-16499214D01*
X8935357Y-16484929D01*
X8949643Y-16470643D01*
X8978214Y-16427786D01*
X8992500Y-16370643D01*
X8992500Y-16256357D01*
X8978214Y-16227786D01*
X8963928Y-16213500D01*
X8935357Y-16199214D01*
X8878214Y-16199214D01*
X8849643Y-16213500D01*
X8835357Y-16227786D01*
X8821071Y-16256357D01*
X8821071Y-16327786D01*
X8835357Y-16356357D01*
X8849643Y-16370643D01*
X8878214Y-16384929D01*
X8935357Y-16384929D01*
X8963928Y-16370643D01*
X8978214Y-16356357D01*
X8992500Y-16327786D01*
X9106786Y-16199214D02*
X9106786Y-16256357D01*
X9221071Y-16199214D02*
X9221071Y-16256357D01*
X9663928Y-16613500D02*
X9649643Y-16599214D01*
X9621071Y-16556357D01*
X9606786Y-16527786D01*
X9592500Y-16484929D01*
X9578214Y-16413500D01*
X9578214Y-16356357D01*
X9592500Y-16284929D01*
X9606786Y-16242071D01*
X9621071Y-16213500D01*
X9649643Y-16170643D01*
X9663928Y-16156357D01*
X9749643Y-16199214D02*
X9935357Y-16199214D01*
X9835357Y-16313500D01*
X9878214Y-16313500D01*
X9906786Y-16327786D01*
X9921071Y-16342071D01*
X9935357Y-16370643D01*
X9935357Y-16442071D01*
X9921071Y-16470643D01*
X9906786Y-16484929D01*
X9878214Y-16499214D01*
X9792500Y-16499214D01*
X9763928Y-16484929D01*
X9749643Y-16470643D01*
X10292500Y-16499214D02*
X10292500Y-16199214D01*
X10421071Y-16499214D02*
X10421071Y-16342071D01*
X10406786Y-16313500D01*
X10378214Y-16299214D01*
X10335357Y-16299214D01*
X10306786Y-16313500D01*
X10292500Y-16327786D01*
X10606786Y-16499214D02*
X10578214Y-16484929D01*
X10563928Y-16470643D01*
X10549643Y-16442071D01*
X10549643Y-16356357D01*
X10563928Y-16327786D01*
X10578214Y-16313500D01*
X10606786Y-16299214D01*
X10649643Y-16299214D01*
X10678214Y-16313500D01*
X10692500Y-16327786D01*
X10706786Y-16356357D01*
X10706786Y-16442071D01*
X10692500Y-16470643D01*
X10678214Y-16484929D01*
X10649643Y-16499214D01*
X10606786Y-16499214D01*
X10878214Y-16499214D02*
X10849643Y-16484929D01*
X10835357Y-16456357D01*
X10835357Y-16199214D01*
X11106786Y-16484929D02*
X11078214Y-16499214D01*
X11021071Y-16499214D01*
X10992500Y-16484929D01*
X10978214Y-16456357D01*
X10978214Y-16342071D01*
X10992500Y-16313500D01*
X11021071Y-16299214D01*
X11078214Y-16299214D01*
X11106786Y-16313500D01*
X11121071Y-16342071D01*
X11121071Y-16370643D01*
X10978214Y-16399214D01*
X11235357Y-16484929D02*
X11263928Y-16499214D01*
X11321071Y-16499214D01*
X11349643Y-16484929D01*
X11363928Y-16456357D01*
X11363928Y-16442071D01*
X11349643Y-16413500D01*
X11321071Y-16399214D01*
X11278214Y-16399214D01*
X11249643Y-16384929D01*
X11235357Y-16356357D01*
X11235357Y-16342071D01*
X11249643Y-16313500D01*
X11278214Y-16299214D01*
X11321071Y-16299214D01*
X11349643Y-16313500D01*
X11463928Y-16613500D02*
X11478214Y-16599214D01*
X11506786Y-16556357D01*
X11521071Y-16527786D01*
X11535357Y-16484929D01*
X11549643Y-16413500D01*
X11549643Y-16356357D01*
X11535357Y-16284929D01*
X11521071Y-16242071D01*
X11506786Y-16213500D01*
X11478214Y-16170643D01*
X11463928Y-16156357D01*
X4952500Y-16719500D02*
X4952500Y-16799500D01*
X4912500Y-16759500D02*
X4992500Y-16759500D01*
X5321071Y-16595214D02*
X5349643Y-16595214D01*
X5378214Y-16609500D01*
X5392500Y-16623786D01*
X5406786Y-16652357D01*
X5421071Y-16709500D01*
X5421071Y-16780929D01*
X5406786Y-16838072D01*
X5392500Y-16866643D01*
X5378214Y-16880929D01*
X5349643Y-16895214D01*
X5321071Y-16895214D01*
X5292500Y-16880929D01*
X5278214Y-16866643D01*
X5263929Y-16838072D01*
X5249643Y-16780929D01*
X5249643Y-16709500D01*
X5263929Y-16652357D01*
X5278214Y-16623786D01*
X5292500Y-16609500D01*
X5321071Y-16595214D01*
X5549643Y-16866643D02*
X5563929Y-16880929D01*
X5549643Y-16895214D01*
X5535357Y-16880929D01*
X5549643Y-16866643D01*
X5549643Y-16895214D01*
X5735357Y-16723786D02*
X5706786Y-16709500D01*
X5692500Y-16695214D01*
X5678214Y-16666643D01*
X5678214Y-16652357D01*
X5692500Y-16623786D01*
X5706786Y-16609500D01*
X5735357Y-16595214D01*
X5792500Y-16595214D01*
X5821071Y-16609500D01*
X5835357Y-16623786D01*
X5849643Y-16652357D01*
X5849643Y-16666643D01*
X5835357Y-16695214D01*
X5821071Y-16709500D01*
X5792500Y-16723786D01*
X5735357Y-16723786D01*
X5706786Y-16738071D01*
X5692500Y-16752357D01*
X5678214Y-16780929D01*
X5678214Y-16838072D01*
X5692500Y-16866643D01*
X5706786Y-16880929D01*
X5735357Y-16895214D01*
X5792500Y-16895214D01*
X5821071Y-16880929D01*
X5835357Y-16866643D01*
X5849643Y-16838072D01*
X5849643Y-16780929D01*
X5835357Y-16752357D01*
X5821071Y-16738071D01*
X5792500Y-16723786D01*
X6035357Y-16595214D02*
X6063928Y-16595214D01*
X6092500Y-16609500D01*
X6106786Y-16623786D01*
X6121071Y-16652357D01*
X6135357Y-16709500D01*
X6135357Y-16780929D01*
X6121071Y-16838072D01*
X6106786Y-16866643D01*
X6092500Y-16880929D01*
X6063928Y-16895214D01*
X6035357Y-16895214D01*
X6006786Y-16880929D01*
X5992500Y-16866643D01*
X5978214Y-16838072D01*
X5963928Y-16780929D01*
X5963928Y-16709500D01*
X5978214Y-16652357D01*
X5992500Y-16623786D01*
X6006786Y-16609500D01*
X6035357Y-16595214D01*
X6263928Y-16895214D02*
X6263928Y-16695214D01*
X6263928Y-16723786D02*
X6278214Y-16709500D01*
X6306786Y-16695214D01*
X6349643Y-16695214D01*
X6378214Y-16709500D01*
X6392500Y-16738071D01*
X6392500Y-16895214D01*
X6392500Y-16738071D02*
X6406786Y-16709500D01*
X6435357Y-16695214D01*
X6478214Y-16695214D01*
X6506786Y-16709500D01*
X6521071Y-16738071D01*
X6521071Y-16895214D01*
X6663928Y-16895214D02*
X6663928Y-16695214D01*
X6663928Y-16723786D02*
X6678214Y-16709500D01*
X6706786Y-16695214D01*
X6749643Y-16695214D01*
X6778214Y-16709500D01*
X6792500Y-16738071D01*
X6792500Y-16895214D01*
X6792500Y-16738071D02*
X6806786Y-16709500D01*
X6835357Y-16695214D01*
X6878214Y-16695214D01*
X6906786Y-16709500D01*
X6921071Y-16738071D01*
X6921071Y-16895214D01*
X7506786Y-16580929D02*
X7249643Y-16966643D01*
X7892500Y-16595214D02*
X7921071Y-16595214D01*
X7949643Y-16609500D01*
X7963928Y-16623786D01*
X7978214Y-16652357D01*
X7992500Y-16709500D01*
X7992500Y-16780929D01*
X7978214Y-16838072D01*
X7963928Y-16866643D01*
X7949643Y-16880929D01*
X7921071Y-16895214D01*
X7892500Y-16895214D01*
X7863928Y-16880929D01*
X7849643Y-16866643D01*
X7835357Y-16838072D01*
X7821071Y-16780929D01*
X7821071Y-16709500D01*
X7835357Y-16652357D01*
X7849643Y-16623786D01*
X7863928Y-16609500D01*
X7892500Y-16595214D01*
X8121071Y-16866643D02*
X8135357Y-16880929D01*
X8121071Y-16895214D01*
X8106786Y-16880929D01*
X8121071Y-16866643D01*
X8121071Y-16895214D01*
X8321071Y-16595214D02*
X8349643Y-16595214D01*
X8378214Y-16609500D01*
X8392500Y-16623786D01*
X8406786Y-16652357D01*
X8421071Y-16709500D01*
X8421071Y-16780929D01*
X8406786Y-16838072D01*
X8392500Y-16866643D01*
X8378214Y-16880929D01*
X8349643Y-16895214D01*
X8321071Y-16895214D01*
X8292500Y-16880929D01*
X8278214Y-16866643D01*
X8263928Y-16838072D01*
X8249643Y-16780929D01*
X8249643Y-16709500D01*
X8263928Y-16652357D01*
X8278214Y-16623786D01*
X8292500Y-16609500D01*
X8321071Y-16595214D01*
X8521071Y-16595214D02*
X8706786Y-16595214D01*
X8606786Y-16709500D01*
X8649643Y-16709500D01*
X8678214Y-16723786D01*
X8692500Y-16738071D01*
X8706786Y-16766643D01*
X8706786Y-16838072D01*
X8692500Y-16866643D01*
X8678214Y-16880929D01*
X8649643Y-16895214D01*
X8563928Y-16895214D01*
X8535357Y-16880929D01*
X8521071Y-16866643D01*
X8992500Y-16895214D02*
X8821071Y-16895214D01*
X8906786Y-16895214D02*
X8906786Y-16595214D01*
X8878214Y-16638071D01*
X8849643Y-16666643D01*
X8821071Y-16680929D01*
X9106786Y-16595214D02*
X9106786Y-16652357D01*
X9221071Y-16595214D02*
X9221071Y-16652357D01*
X9663928Y-17009500D02*
X9649643Y-16995214D01*
X9621071Y-16952357D01*
X9606786Y-16923786D01*
X9592500Y-16880929D01*
X9578214Y-16809500D01*
X9578214Y-16752357D01*
X9592500Y-16680929D01*
X9606786Y-16638071D01*
X9621071Y-16609500D01*
X9649643Y-16566643D01*
X9663928Y-16552357D01*
X9821071Y-16723786D02*
X9792500Y-16709500D01*
X9778214Y-16695214D01*
X9763928Y-16666643D01*
X9763928Y-16652357D01*
X9778214Y-16623786D01*
X9792500Y-16609500D01*
X9821071Y-16595214D01*
X9878214Y-16595214D01*
X9906786Y-16609500D01*
X9921071Y-16623786D01*
X9935357Y-16652357D01*
X9935357Y-16666643D01*
X9921071Y-16695214D01*
X9906786Y-16709500D01*
X9878214Y-16723786D01*
X9821071Y-16723786D01*
X9792500Y-16738071D01*
X9778214Y-16752357D01*
X9763928Y-16780929D01*
X9763928Y-16838072D01*
X9778214Y-16866643D01*
X9792500Y-16880929D01*
X9821071Y-16895214D01*
X9878214Y-16895214D01*
X9906786Y-16880929D01*
X9921071Y-16866643D01*
X9935357Y-16838072D01*
X9935357Y-16780929D01*
X9921071Y-16752357D01*
X9906786Y-16738071D01*
X9878214Y-16723786D01*
X10292500Y-16895214D02*
X10292500Y-16595214D01*
X10421071Y-16895214D02*
X10421071Y-16738071D01*
X10406786Y-16709500D01*
X10378214Y-16695214D01*
X10335357Y-16695214D01*
X10306786Y-16709500D01*
X10292500Y-16723786D01*
X10606786Y-16895214D02*
X10578214Y-16880929D01*
X10563928Y-16866643D01*
X10549643Y-16838072D01*
X10549643Y-16752357D01*
X10563928Y-16723786D01*
X10578214Y-16709500D01*
X10606786Y-16695214D01*
X10649643Y-16695214D01*
X10678214Y-16709500D01*
X10692500Y-16723786D01*
X10706786Y-16752357D01*
X10706786Y-16838072D01*
X10692500Y-16866643D01*
X10678214Y-16880929D01*
X10649643Y-16895214D01*
X10606786Y-16895214D01*
X10878214Y-16895214D02*
X10849643Y-16880929D01*
X10835357Y-16852357D01*
X10835357Y-16595214D01*
X11106786Y-16880929D02*
X11078214Y-16895214D01*
X11021071Y-16895214D01*
X10992500Y-16880929D01*
X10978214Y-16852357D01*
X10978214Y-16738071D01*
X10992500Y-16709500D01*
X11021071Y-16695214D01*
X11078214Y-16695214D01*
X11106786Y-16709500D01*
X11121071Y-16738071D01*
X11121071Y-16766643D01*
X10978214Y-16795214D01*
X11235357Y-16880929D02*
X11263928Y-16895214D01*
X11321071Y-16895214D01*
X11349643Y-16880929D01*
X11363928Y-16852357D01*
X11363928Y-16838072D01*
X11349643Y-16809500D01*
X11321071Y-16795214D01*
X11278214Y-16795214D01*
X11249643Y-16780929D01*
X11235357Y-16752357D01*
X11235357Y-16738071D01*
X11249643Y-16709500D01*
X11278214Y-16695214D01*
X11321071Y-16695214D01*
X11349643Y-16709500D01*
X11463928Y-17009500D02*
X11478214Y-16995214D01*
X11506786Y-16952357D01*
X11521071Y-16923786D01*
X11535357Y-16880929D01*
X11549643Y-16809500D01*
X11549643Y-16752357D01*
X11535357Y-16680929D01*
X11521071Y-16638071D01*
X11506786Y-16609500D01*
X11478214Y-16566643D01*
X11463928Y-16552357D01*
X4979320Y-17187320D02*
X4979320Y-17123680D01*
X4915680Y-17123680D01*
X4915680Y-17187320D01*
X4979320Y-17187320D01*
X5321071Y-16991214D02*
X5349643Y-16991214D01*
X5378214Y-17005500D01*
X5392500Y-17019786D01*
X5406786Y-17048357D01*
X5421071Y-17105500D01*
X5421071Y-17176929D01*
X5406786Y-17234072D01*
X5392500Y-17262643D01*
X5378214Y-17276929D01*
X5349643Y-17291214D01*
X5321071Y-17291214D01*
X5292500Y-17276929D01*
X5278214Y-17262643D01*
X5263929Y-17234072D01*
X5249643Y-17176929D01*
X5249643Y-17105500D01*
X5263929Y-17048357D01*
X5278214Y-17019786D01*
X5292500Y-17005500D01*
X5321071Y-16991214D01*
X5549643Y-17262643D02*
X5563929Y-17276929D01*
X5549643Y-17291214D01*
X5535357Y-17276929D01*
X5549643Y-17262643D01*
X5549643Y-17291214D01*
X5706786Y-17291214D02*
X5763928Y-17291214D01*
X5792500Y-17276929D01*
X5806786Y-17262643D01*
X5835357Y-17219786D01*
X5849643Y-17162643D01*
X5849643Y-17048357D01*
X5835357Y-17019786D01*
X5821071Y-17005500D01*
X5792500Y-16991214D01*
X5735357Y-16991214D01*
X5706786Y-17005500D01*
X5692500Y-17019786D01*
X5678214Y-17048357D01*
X5678214Y-17119786D01*
X5692500Y-17148357D01*
X5706786Y-17162643D01*
X5735357Y-17176929D01*
X5792500Y-17176929D01*
X5821071Y-17162643D01*
X5835357Y-17148357D01*
X5849643Y-17119786D01*
X6035357Y-16991214D02*
X6063928Y-16991214D01*
X6092500Y-17005500D01*
X6106786Y-17019786D01*
X6121071Y-17048357D01*
X6135357Y-17105500D01*
X6135357Y-17176929D01*
X6121071Y-17234072D01*
X6106786Y-17262643D01*
X6092500Y-17276929D01*
X6063928Y-17291214D01*
X6035357Y-17291214D01*
X6006786Y-17276929D01*
X5992500Y-17262643D01*
X5978214Y-17234072D01*
X5963928Y-17176929D01*
X5963928Y-17105500D01*
X5978214Y-17048357D01*
X5992500Y-17019786D01*
X6006786Y-17005500D01*
X6035357Y-16991214D01*
X6263928Y-17291214D02*
X6263928Y-17091214D01*
X6263928Y-17119786D02*
X6278214Y-17105500D01*
X6306786Y-17091214D01*
X6349643Y-17091214D01*
X6378214Y-17105500D01*
X6392500Y-17134072D01*
X6392500Y-17291214D01*
X6392500Y-17134072D02*
X6406786Y-17105500D01*
X6435357Y-17091214D01*
X6478214Y-17091214D01*
X6506786Y-17105500D01*
X6521071Y-17134072D01*
X6521071Y-17291214D01*
X6663928Y-17291214D02*
X6663928Y-17091214D01*
X6663928Y-17119786D02*
X6678214Y-17105500D01*
X6706786Y-17091214D01*
X6749643Y-17091214D01*
X6778214Y-17105500D01*
X6792500Y-17134072D01*
X6792500Y-17291214D01*
X6792500Y-17134072D02*
X6806786Y-17105500D01*
X6835357Y-17091214D01*
X6878214Y-17091214D01*
X6906786Y-17105500D01*
X6921071Y-17134072D01*
X6921071Y-17291214D01*
X7506786Y-16976929D02*
X7249643Y-17362643D01*
X7892500Y-16991214D02*
X7921071Y-16991214D01*
X7949643Y-17005500D01*
X7963928Y-17019786D01*
X7978214Y-17048357D01*
X7992500Y-17105500D01*
X7992500Y-17176929D01*
X7978214Y-17234072D01*
X7963928Y-17262643D01*
X7949643Y-17276929D01*
X7921071Y-17291214D01*
X7892500Y-17291214D01*
X7863928Y-17276929D01*
X7849643Y-17262643D01*
X7835357Y-17234072D01*
X7821071Y-17176929D01*
X7821071Y-17105500D01*
X7835357Y-17048357D01*
X7849643Y-17019786D01*
X7863928Y-17005500D01*
X7892500Y-16991214D01*
X8121071Y-17262643D02*
X8135357Y-17276929D01*
X8121071Y-17291214D01*
X8106786Y-17276929D01*
X8121071Y-17262643D01*
X8121071Y-17291214D01*
X8321071Y-16991214D02*
X8349643Y-16991214D01*
X8378214Y-17005500D01*
X8392500Y-17019786D01*
X8406786Y-17048357D01*
X8421071Y-17105500D01*
X8421071Y-17176929D01*
X8406786Y-17234072D01*
X8392500Y-17262643D01*
X8378214Y-17276929D01*
X8349643Y-17291214D01*
X8321071Y-17291214D01*
X8292500Y-17276929D01*
X8278214Y-17262643D01*
X8263928Y-17234072D01*
X8249643Y-17176929D01*
X8249643Y-17105500D01*
X8263928Y-17048357D01*
X8278214Y-17019786D01*
X8292500Y-17005500D01*
X8321071Y-16991214D01*
X8521071Y-16991214D02*
X8706786Y-16991214D01*
X8606786Y-17105500D01*
X8649643Y-17105500D01*
X8678214Y-17119786D01*
X8692500Y-17134072D01*
X8706786Y-17162643D01*
X8706786Y-17234072D01*
X8692500Y-17262643D01*
X8678214Y-17276929D01*
X8649643Y-17291214D01*
X8563928Y-17291214D01*
X8535357Y-17276929D01*
X8521071Y-17262643D01*
X8978214Y-16991214D02*
X8835357Y-16991214D01*
X8821071Y-17134072D01*
X8835357Y-17119786D01*
X8863928Y-17105500D01*
X8935357Y-17105500D01*
X8963928Y-17119786D01*
X8978214Y-17134072D01*
X8992500Y-17162643D01*
X8992500Y-17234072D01*
X8978214Y-17262643D01*
X8963928Y-17276929D01*
X8935357Y-17291214D01*
X8863928Y-17291214D01*
X8835357Y-17276929D01*
X8821071Y-17262643D01*
X9106786Y-16991214D02*
X9106786Y-17048357D01*
X9221071Y-16991214D02*
X9221071Y-17048357D01*
X9663928Y-17405500D02*
X9649643Y-17391214D01*
X9621071Y-17348357D01*
X9606786Y-17319786D01*
X9592500Y-17276929D01*
X9578214Y-17205500D01*
X9578214Y-17148357D01*
X9592500Y-17076929D01*
X9606786Y-17034072D01*
X9621071Y-17005500D01*
X9649643Y-16962643D01*
X9663928Y-16948357D01*
X9935357Y-17291214D02*
X9763928Y-17291214D01*
X9849643Y-17291214D02*
X9849643Y-16991214D01*
X9821071Y-17034072D01*
X9792500Y-17062643D01*
X9763928Y-17076929D01*
X10121071Y-16991214D02*
X10149643Y-16991214D01*
X10178214Y-17005500D01*
X10192500Y-17019786D01*
X10206786Y-17048357D01*
X10221071Y-17105500D01*
X10221071Y-17176929D01*
X10206786Y-17234072D01*
X10192500Y-17262643D01*
X10178214Y-17276929D01*
X10149643Y-17291214D01*
X10121071Y-17291214D01*
X10092500Y-17276929D01*
X10078214Y-17262643D01*
X10063928Y-17234072D01*
X10049643Y-17176929D01*
X10049643Y-17105500D01*
X10063928Y-17048357D01*
X10078214Y-17019786D01*
X10092500Y-17005500D01*
X10121071Y-16991214D01*
X10578214Y-17291214D02*
X10578214Y-16991214D01*
X10706786Y-17291214D02*
X10706786Y-17134072D01*
X10692500Y-17105500D01*
X10663928Y-17091214D01*
X10621071Y-17091214D01*
X10592500Y-17105500D01*
X10578214Y-17119786D01*
X10892500Y-17291214D02*
X10863928Y-17276929D01*
X10849643Y-17262643D01*
X10835357Y-17234072D01*
X10835357Y-17148357D01*
X10849643Y-17119786D01*
X10863928Y-17105500D01*
X10892500Y-17091214D01*
X10935357Y-17091214D01*
X10963928Y-17105500D01*
X10978214Y-17119786D01*
X10992500Y-17148357D01*
X10992500Y-17234072D01*
X10978214Y-17262643D01*
X10963928Y-17276929D01*
X10935357Y-17291214D01*
X10892500Y-17291214D01*
X11163928Y-17291214D02*
X11135357Y-17276929D01*
X11121071Y-17248357D01*
X11121071Y-16991214D01*
X11392500Y-17276929D02*
X11363928Y-17291214D01*
X11306786Y-17291214D01*
X11278214Y-17276929D01*
X11263928Y-17248357D01*
X11263928Y-17134072D01*
X11278214Y-17105500D01*
X11306786Y-17091214D01*
X11363928Y-17091214D01*
X11392500Y-17105500D01*
X11406786Y-17134072D01*
X11406786Y-17162643D01*
X11263928Y-17191214D01*
X11521071Y-17276929D02*
X11549643Y-17291214D01*
X11606786Y-17291214D01*
X11635357Y-17276929D01*
X11649643Y-17248357D01*
X11649643Y-17234072D01*
X11635357Y-17205500D01*
X11606786Y-17191214D01*
X11563928Y-17191214D01*
X11535357Y-17176929D01*
X11521071Y-17148357D01*
X11521071Y-17134072D01*
X11535357Y-17105500D01*
X11563928Y-17091214D01*
X11606786Y-17091214D01*
X11635357Y-17105500D01*
X11749643Y-17405500D02*
X11763928Y-17391214D01*
X11792500Y-17348357D01*
X11806786Y-17319786D01*
X11821071Y-17276929D01*
X11835357Y-17205500D01*
X11835357Y-17148357D01*
X11821071Y-17076929D01*
X11806786Y-17034072D01*
X11792500Y-17005500D01*
X11763928Y-16962643D01*
X11749643Y-16948357D01*
X4942500Y-17601500D02*
X4992500Y-17551500D01*
X4942500Y-17501500D01*
X4892500Y-17551500D01*
X4942500Y-17601500D01*
X5421071Y-17687214D02*
X5249643Y-17687214D01*
X5335357Y-17687214D02*
X5335357Y-17387214D01*
X5306786Y-17430072D01*
X5278214Y-17458643D01*
X5249643Y-17472929D01*
X5549643Y-17658643D02*
X5563929Y-17672929D01*
X5549643Y-17687214D01*
X5535357Y-17672929D01*
X5549643Y-17658643D01*
X5549643Y-17687214D01*
X5749643Y-17387214D02*
X5778214Y-17387214D01*
X5806786Y-17401500D01*
X5821071Y-17415786D01*
X5835357Y-17444357D01*
X5849643Y-17501500D01*
X5849643Y-17572929D01*
X5835357Y-17630072D01*
X5821071Y-17658643D01*
X5806786Y-17672929D01*
X5778214Y-17687214D01*
X5749643Y-17687214D01*
X5721071Y-17672929D01*
X5706786Y-17658643D01*
X5692500Y-17630072D01*
X5678214Y-17572929D01*
X5678214Y-17501500D01*
X5692500Y-17444357D01*
X5706786Y-17415786D01*
X5721071Y-17401500D01*
X5749643Y-17387214D01*
X6035357Y-17387214D02*
X6063928Y-17387214D01*
X6092500Y-17401500D01*
X6106786Y-17415786D01*
X6121071Y-17444357D01*
X6135357Y-17501500D01*
X6135357Y-17572929D01*
X6121071Y-17630072D01*
X6106786Y-17658643D01*
X6092500Y-17672929D01*
X6063928Y-17687214D01*
X6035357Y-17687214D01*
X6006786Y-17672929D01*
X5992500Y-17658643D01*
X5978214Y-17630072D01*
X5963928Y-17572929D01*
X5963928Y-17501500D01*
X5978214Y-17444357D01*
X5992500Y-17415786D01*
X6006786Y-17401500D01*
X6035357Y-17387214D01*
X6263928Y-17687214D02*
X6263928Y-17487214D01*
X6263928Y-17515786D02*
X6278214Y-17501500D01*
X6306786Y-17487214D01*
X6349643Y-17487214D01*
X6378214Y-17501500D01*
X6392500Y-17530072D01*
X6392500Y-17687214D01*
X6392500Y-17530072D02*
X6406786Y-17501500D01*
X6435357Y-17487214D01*
X6478214Y-17487214D01*
X6506786Y-17501500D01*
X6521071Y-17530072D01*
X6521071Y-17687214D01*
X6663928Y-17687214D02*
X6663928Y-17487214D01*
X6663928Y-17515786D02*
X6678214Y-17501500D01*
X6706786Y-17487214D01*
X6749643Y-17487214D01*
X6778214Y-17501500D01*
X6792500Y-17530072D01*
X6792500Y-17687214D01*
X6792500Y-17530072D02*
X6806786Y-17501500D01*
X6835357Y-17487214D01*
X6878214Y-17487214D01*
X6906786Y-17501500D01*
X6921071Y-17530072D01*
X6921071Y-17687214D01*
X7506786Y-17372929D02*
X7249643Y-17758643D01*
X7892500Y-17387214D02*
X7921071Y-17387214D01*
X7949643Y-17401500D01*
X7963928Y-17415786D01*
X7978214Y-17444357D01*
X7992500Y-17501500D01*
X7992500Y-17572929D01*
X7978214Y-17630072D01*
X7963928Y-17658643D01*
X7949643Y-17672929D01*
X7921071Y-17687214D01*
X7892500Y-17687214D01*
X7863928Y-17672929D01*
X7849643Y-17658643D01*
X7835357Y-17630072D01*
X7821071Y-17572929D01*
X7821071Y-17501500D01*
X7835357Y-17444357D01*
X7849643Y-17415786D01*
X7863928Y-17401500D01*
X7892500Y-17387214D01*
X8121071Y-17658643D02*
X8135357Y-17672929D01*
X8121071Y-17687214D01*
X8106786Y-17672929D01*
X8121071Y-17658643D01*
X8121071Y-17687214D01*
X8321071Y-17387214D02*
X8349643Y-17387214D01*
X8378214Y-17401500D01*
X8392500Y-17415786D01*
X8406786Y-17444357D01*
X8421071Y-17501500D01*
X8421071Y-17572929D01*
X8406786Y-17630072D01*
X8392500Y-17658643D01*
X8378214Y-17672929D01*
X8349643Y-17687214D01*
X8321071Y-17687214D01*
X8292500Y-17672929D01*
X8278214Y-17658643D01*
X8263928Y-17630072D01*
X8249643Y-17572929D01*
X8249643Y-17501500D01*
X8263928Y-17444357D01*
X8278214Y-17415786D01*
X8292500Y-17401500D01*
X8321071Y-17387214D01*
X8521071Y-17387214D02*
X8706786Y-17387214D01*
X8606786Y-17501500D01*
X8649643Y-17501500D01*
X8678214Y-17515786D01*
X8692500Y-17530072D01*
X8706786Y-17558643D01*
X8706786Y-17630072D01*
X8692500Y-17658643D01*
X8678214Y-17672929D01*
X8649643Y-17687214D01*
X8563928Y-17687214D01*
X8535357Y-17672929D01*
X8521071Y-17658643D01*
X8849643Y-17687214D02*
X8906786Y-17687214D01*
X8935357Y-17672929D01*
X8949643Y-17658643D01*
X8978214Y-17615786D01*
X8992500Y-17558643D01*
X8992500Y-17444357D01*
X8978214Y-17415786D01*
X8963928Y-17401500D01*
X8935357Y-17387214D01*
X8878214Y-17387214D01*
X8849643Y-17401500D01*
X8835357Y-17415786D01*
X8821071Y-17444357D01*
X8821071Y-17515786D01*
X8835357Y-17544357D01*
X8849643Y-17558643D01*
X8878214Y-17572929D01*
X8935357Y-17572929D01*
X8963928Y-17558643D01*
X8978214Y-17544357D01*
X8992500Y-17515786D01*
X9106786Y-17387214D02*
X9106786Y-17444357D01*
X9221071Y-17387214D02*
X9221071Y-17444357D01*
X9663928Y-17801500D02*
X9649643Y-17787214D01*
X9621071Y-17744357D01*
X9606786Y-17715786D01*
X9592500Y-17672929D01*
X9578214Y-17601500D01*
X9578214Y-17544357D01*
X9592500Y-17472929D01*
X9606786Y-17430072D01*
X9621071Y-17401500D01*
X9649643Y-17358643D01*
X9663928Y-17344357D01*
X9921071Y-17387214D02*
X9778214Y-17387214D01*
X9763928Y-17530072D01*
X9778214Y-17515786D01*
X9806786Y-17501500D01*
X9878214Y-17501500D01*
X9906786Y-17515786D01*
X9921071Y-17530072D01*
X9935357Y-17558643D01*
X9935357Y-17630072D01*
X9921071Y-17658643D01*
X9906786Y-17672929D01*
X9878214Y-17687214D01*
X9806786Y-17687214D01*
X9778214Y-17672929D01*
X9763928Y-17658643D01*
X10221071Y-17687214D02*
X10049643Y-17687214D01*
X10135357Y-17687214D02*
X10135357Y-17387214D01*
X10106786Y-17430072D01*
X10078214Y-17458643D01*
X10049643Y-17472929D01*
X10578214Y-17687214D02*
X10578214Y-17387214D01*
X10706786Y-17687214D02*
X10706786Y-17530072D01*
X10692500Y-17501500D01*
X10663928Y-17487214D01*
X10621071Y-17487214D01*
X10592500Y-17501500D01*
X10578214Y-17515786D01*
X10892500Y-17687214D02*
X10863928Y-17672929D01*
X10849643Y-17658643D01*
X10835357Y-17630072D01*
X10835357Y-17544357D01*
X10849643Y-17515786D01*
X10863928Y-17501500D01*
X10892500Y-17487214D01*
X10935357Y-17487214D01*
X10963928Y-17501500D01*
X10978214Y-17515786D01*
X10992500Y-17544357D01*
X10992500Y-17630072D01*
X10978214Y-17658643D01*
X10963928Y-17672929D01*
X10935357Y-17687214D01*
X10892500Y-17687214D01*
X11163928Y-17687214D02*
X11135357Y-17672929D01*
X11121071Y-17644357D01*
X11121071Y-17387214D01*
X11392500Y-17672929D02*
X11363928Y-17687214D01*
X11306786Y-17687214D01*
X11278214Y-17672929D01*
X11263928Y-17644357D01*
X11263928Y-17530072D01*
X11278214Y-17501500D01*
X11306786Y-17487214D01*
X11363928Y-17487214D01*
X11392500Y-17501500D01*
X11406786Y-17530072D01*
X11406786Y-17558643D01*
X11263928Y-17587214D01*
X11521071Y-17672929D02*
X11549643Y-17687214D01*
X11606786Y-17687214D01*
X11635357Y-17672929D01*
X11649643Y-17644357D01*
X11649643Y-17630072D01*
X11635357Y-17601500D01*
X11606786Y-17587214D01*
X11563928Y-17587214D01*
X11535357Y-17572929D01*
X11521071Y-17544357D01*
X11521071Y-17530072D01*
X11535357Y-17501500D01*
X11563928Y-17487214D01*
X11606786Y-17487214D01*
X11635357Y-17501500D01*
X11749643Y-17801500D02*
X11763928Y-17787214D01*
X11792500Y-17744357D01*
X11806786Y-17715786D01*
X11821071Y-17672929D01*
X11835357Y-17601500D01*
X11835357Y-17544357D01*
X11821071Y-17472929D01*
X11806786Y-17430072D01*
X11792500Y-17401500D01*
X11763928Y-17358643D01*
X11749643Y-17344357D01*
X4882500Y-17892500D02*
X4992500Y-18002500D01*
X4992500Y-17892500D02*
X4882500Y-18002500D01*
X4992500Y-17947500D02*
G75*
G03X4992500Y-17947500I-55000J0D01*
G01*
X5421071Y-18083214D02*
X5249643Y-18083214D01*
X5335357Y-18083214D02*
X5335357Y-17783214D01*
X5306786Y-17826072D01*
X5278214Y-17854643D01*
X5249643Y-17868929D01*
X5549643Y-18054643D02*
X5563929Y-18068929D01*
X5549643Y-18083214D01*
X5535357Y-18068929D01*
X5549643Y-18054643D01*
X5549643Y-18083214D01*
X5849643Y-18083214D02*
X5678214Y-18083214D01*
X5763928Y-18083214D02*
X5763928Y-17783214D01*
X5735357Y-17826072D01*
X5706786Y-17854643D01*
X5678214Y-17868929D01*
X6035357Y-17783214D02*
X6063928Y-17783214D01*
X6092500Y-17797500D01*
X6106786Y-17811786D01*
X6121071Y-17840357D01*
X6135357Y-17897500D01*
X6135357Y-17968929D01*
X6121071Y-18026072D01*
X6106786Y-18054643D01*
X6092500Y-18068929D01*
X6063928Y-18083214D01*
X6035357Y-18083214D01*
X6006786Y-18068929D01*
X5992500Y-18054643D01*
X5978214Y-18026072D01*
X5963928Y-17968929D01*
X5963928Y-17897500D01*
X5978214Y-17840357D01*
X5992500Y-17811786D01*
X6006786Y-17797500D01*
X6035357Y-17783214D01*
X6263928Y-18083214D02*
X6263928Y-17883214D01*
X6263928Y-17911786D02*
X6278214Y-17897500D01*
X6306786Y-17883214D01*
X6349643Y-17883214D01*
X6378214Y-17897500D01*
X6392500Y-17926072D01*
X6392500Y-18083214D01*
X6392500Y-17926072D02*
X6406786Y-17897500D01*
X6435357Y-17883214D01*
X6478214Y-17883214D01*
X6506786Y-17897500D01*
X6521071Y-17926072D01*
X6521071Y-18083214D01*
X6663928Y-18083214D02*
X6663928Y-17883214D01*
X6663928Y-17911786D02*
X6678214Y-17897500D01*
X6706786Y-17883214D01*
X6749643Y-17883214D01*
X6778214Y-17897500D01*
X6792500Y-17926072D01*
X6792500Y-18083214D01*
X6792500Y-17926072D02*
X6806786Y-17897500D01*
X6835357Y-17883214D01*
X6878214Y-17883214D01*
X6906786Y-17897500D01*
X6921071Y-17926072D01*
X6921071Y-18083214D01*
X7506786Y-17768929D02*
X7249643Y-18154643D01*
X7892500Y-17783214D02*
X7921071Y-17783214D01*
X7949643Y-17797500D01*
X7963928Y-17811786D01*
X7978214Y-17840357D01*
X7992500Y-17897500D01*
X7992500Y-17968929D01*
X7978214Y-18026072D01*
X7963928Y-18054643D01*
X7949643Y-18068929D01*
X7921071Y-18083214D01*
X7892500Y-18083214D01*
X7863928Y-18068929D01*
X7849643Y-18054643D01*
X7835357Y-18026072D01*
X7821071Y-17968929D01*
X7821071Y-17897500D01*
X7835357Y-17840357D01*
X7849643Y-17811786D01*
X7863928Y-17797500D01*
X7892500Y-17783214D01*
X8121071Y-18054643D02*
X8135357Y-18068929D01*
X8121071Y-18083214D01*
X8106786Y-18068929D01*
X8121071Y-18054643D01*
X8121071Y-18083214D01*
X8321071Y-17783214D02*
X8349643Y-17783214D01*
X8378214Y-17797500D01*
X8392500Y-17811786D01*
X8406786Y-17840357D01*
X8421071Y-17897500D01*
X8421071Y-17968929D01*
X8406786Y-18026072D01*
X8392500Y-18054643D01*
X8378214Y-18068929D01*
X8349643Y-18083214D01*
X8321071Y-18083214D01*
X8292500Y-18068929D01*
X8278214Y-18054643D01*
X8263928Y-18026072D01*
X8249643Y-17968929D01*
X8249643Y-17897500D01*
X8263928Y-17840357D01*
X8278214Y-17811786D01*
X8292500Y-17797500D01*
X8321071Y-17783214D01*
X8678214Y-17883214D02*
X8678214Y-18083214D01*
X8606786Y-17768929D02*
X8535357Y-17983214D01*
X8721071Y-17983214D01*
X8806786Y-17783214D02*
X8992500Y-17783214D01*
X8892500Y-17897500D01*
X8935357Y-17897500D01*
X8963928Y-17911786D01*
X8978214Y-17926072D01*
X8992500Y-17954643D01*
X8992500Y-18026072D01*
X8978214Y-18054643D01*
X8963928Y-18068929D01*
X8935357Y-18083214D01*
X8849643Y-18083214D01*
X8821071Y-18068929D01*
X8806786Y-18054643D01*
X9106786Y-17783214D02*
X9106786Y-17840357D01*
X9221071Y-17783214D02*
X9221071Y-17840357D01*
X9663928Y-18197500D02*
X9649643Y-18183214D01*
X9621071Y-18140357D01*
X9606786Y-18111786D01*
X9592500Y-18068929D01*
X9578214Y-17997500D01*
X9578214Y-17940357D01*
X9592500Y-17868929D01*
X9606786Y-17826072D01*
X9621071Y-17797500D01*
X9649643Y-17754643D01*
X9663928Y-17740357D01*
X9821071Y-17911786D02*
X9792500Y-17897500D01*
X9778214Y-17883214D01*
X9763928Y-17854643D01*
X9763928Y-17840357D01*
X9778214Y-17811786D01*
X9792500Y-17797500D01*
X9821071Y-17783214D01*
X9878214Y-17783214D01*
X9906786Y-17797500D01*
X9921071Y-17811786D01*
X9935357Y-17840357D01*
X9935357Y-17854643D01*
X9921071Y-17883214D01*
X9906786Y-17897500D01*
X9878214Y-17911786D01*
X9821071Y-17911786D01*
X9792500Y-17926072D01*
X9778214Y-17940357D01*
X9763928Y-17968929D01*
X9763928Y-18026072D01*
X9778214Y-18054643D01*
X9792500Y-18068929D01*
X9821071Y-18083214D01*
X9878214Y-18083214D01*
X9906786Y-18068929D01*
X9921071Y-18054643D01*
X9935357Y-18026072D01*
X9935357Y-17968929D01*
X9921071Y-17940357D01*
X9906786Y-17926072D01*
X9878214Y-17911786D01*
X10292500Y-18083214D02*
X10292500Y-17783214D01*
X10421071Y-18083214D02*
X10421071Y-17926072D01*
X10406786Y-17897500D01*
X10378214Y-17883214D01*
X10335357Y-17883214D01*
X10306786Y-17897500D01*
X10292500Y-17911786D01*
X10606786Y-18083214D02*
X10578214Y-18068929D01*
X10563928Y-18054643D01*
X10549643Y-18026072D01*
X10549643Y-17940357D01*
X10563928Y-17911786D01*
X10578214Y-17897500D01*
X10606786Y-17883214D01*
X10649643Y-17883214D01*
X10678214Y-17897500D01*
X10692500Y-17911786D01*
X10706786Y-17940357D01*
X10706786Y-18026072D01*
X10692500Y-18054643D01*
X10678214Y-18068929D01*
X10649643Y-18083214D01*
X10606786Y-18083214D01*
X10878214Y-18083214D02*
X10849643Y-18068929D01*
X10835357Y-18040357D01*
X10835357Y-17783214D01*
X11106786Y-18068929D02*
X11078214Y-18083214D01*
X11021071Y-18083214D01*
X10992500Y-18068929D01*
X10978214Y-18040357D01*
X10978214Y-17926072D01*
X10992500Y-17897500D01*
X11021071Y-17883214D01*
X11078214Y-17883214D01*
X11106786Y-17897500D01*
X11121071Y-17926072D01*
X11121071Y-17954643D01*
X10978214Y-17983214D01*
X11235357Y-18068929D02*
X11263928Y-18083214D01*
X11321071Y-18083214D01*
X11349643Y-18068929D01*
X11363928Y-18040357D01*
X11363928Y-18026072D01*
X11349643Y-17997500D01*
X11321071Y-17983214D01*
X11278214Y-17983214D01*
X11249643Y-17968929D01*
X11235357Y-17940357D01*
X11235357Y-17926072D01*
X11249643Y-17897500D01*
X11278214Y-17883214D01*
X11321071Y-17883214D01*
X11349643Y-17897500D01*
X11463928Y-18197500D02*
X11478214Y-18183214D01*
X11506786Y-18140357D01*
X11521071Y-18111786D01*
X11535357Y-18068929D01*
X11549643Y-17997500D01*
X11549643Y-17940357D01*
X11535357Y-17868929D01*
X11521071Y-17826072D01*
X11506786Y-17797500D01*
X11478214Y-17754643D01*
X11463928Y-17740357D01*
X4832500Y-18263500D02*
X4992500Y-18423500D01*
X4992500Y-18263500D02*
X4832500Y-18423500D01*
X4912500Y-18263500D02*
X4912500Y-18423500D01*
X4832500Y-18343500D02*
X4992500Y-18343500D01*
X5421071Y-18479214D02*
X5249643Y-18479214D01*
X5335357Y-18479214D02*
X5335357Y-18179214D01*
X5306786Y-18222072D01*
X5278214Y-18250643D01*
X5249643Y-18264929D01*
X5549643Y-18450643D02*
X5563929Y-18464929D01*
X5549643Y-18479214D01*
X5535357Y-18464929D01*
X5549643Y-18450643D01*
X5549643Y-18479214D01*
X5821071Y-18179214D02*
X5763928Y-18179214D01*
X5735357Y-18193500D01*
X5721071Y-18207786D01*
X5692500Y-18250643D01*
X5678214Y-18307786D01*
X5678214Y-18422072D01*
X5692500Y-18450643D01*
X5706786Y-18464929D01*
X5735357Y-18479214D01*
X5792500Y-18479214D01*
X5821071Y-18464929D01*
X5835357Y-18450643D01*
X5849643Y-18422072D01*
X5849643Y-18350643D01*
X5835357Y-18322072D01*
X5821071Y-18307786D01*
X5792500Y-18293500D01*
X5735357Y-18293500D01*
X5706786Y-18307786D01*
X5692500Y-18322072D01*
X5678214Y-18350643D01*
X6035357Y-18179214D02*
X6063928Y-18179214D01*
X6092500Y-18193500D01*
X6106786Y-18207786D01*
X6121071Y-18236357D01*
X6135357Y-18293500D01*
X6135357Y-18364929D01*
X6121071Y-18422072D01*
X6106786Y-18450643D01*
X6092500Y-18464929D01*
X6063928Y-18479214D01*
X6035357Y-18479214D01*
X6006786Y-18464929D01*
X5992500Y-18450643D01*
X5978214Y-18422072D01*
X5963928Y-18364929D01*
X5963928Y-18293500D01*
X5978214Y-18236357D01*
X5992500Y-18207786D01*
X6006786Y-18193500D01*
X6035357Y-18179214D01*
X6263928Y-18479214D02*
X6263928Y-18279214D01*
X6263928Y-18307786D02*
X6278214Y-18293500D01*
X6306786Y-18279214D01*
X6349643Y-18279214D01*
X6378214Y-18293500D01*
X6392500Y-18322072D01*
X6392500Y-18479214D01*
X6392500Y-18322072D02*
X6406786Y-18293500D01*
X6435357Y-18279214D01*
X6478214Y-18279214D01*
X6506786Y-18293500D01*
X6521071Y-18322072D01*
X6521071Y-18479214D01*
X6663928Y-18479214D02*
X6663928Y-18279214D01*
X6663928Y-18307786D02*
X6678214Y-18293500D01*
X6706786Y-18279214D01*
X6749643Y-18279214D01*
X6778214Y-18293500D01*
X6792500Y-18322072D01*
X6792500Y-18479214D01*
X6792500Y-18322072D02*
X6806786Y-18293500D01*
X6835357Y-18279214D01*
X6878214Y-18279214D01*
X6906786Y-18293500D01*
X6921071Y-18322072D01*
X6921071Y-18479214D01*
X7506786Y-18164929D02*
X7249643Y-18550643D01*
X7892500Y-18179214D02*
X7921071Y-18179214D01*
X7949643Y-18193500D01*
X7963928Y-18207786D01*
X7978214Y-18236357D01*
X7992500Y-18293500D01*
X7992500Y-18364929D01*
X7978214Y-18422072D01*
X7963928Y-18450643D01*
X7949643Y-18464929D01*
X7921071Y-18479214D01*
X7892500Y-18479214D01*
X7863928Y-18464929D01*
X7849643Y-18450643D01*
X7835357Y-18422072D01*
X7821071Y-18364929D01*
X7821071Y-18293500D01*
X7835357Y-18236357D01*
X7849643Y-18207786D01*
X7863928Y-18193500D01*
X7892500Y-18179214D01*
X8121071Y-18450643D02*
X8135357Y-18464929D01*
X8121071Y-18479214D01*
X8106786Y-18464929D01*
X8121071Y-18450643D01*
X8121071Y-18479214D01*
X8321071Y-18179214D02*
X8349643Y-18179214D01*
X8378214Y-18193500D01*
X8392500Y-18207786D01*
X8406786Y-18236357D01*
X8421071Y-18293500D01*
X8421071Y-18364929D01*
X8406786Y-18422072D01*
X8392500Y-18450643D01*
X8378214Y-18464929D01*
X8349643Y-18479214D01*
X8321071Y-18479214D01*
X8292500Y-18464929D01*
X8278214Y-18450643D01*
X8263928Y-18422072D01*
X8249643Y-18364929D01*
X8249643Y-18293500D01*
X8263928Y-18236357D01*
X8278214Y-18207786D01*
X8292500Y-18193500D01*
X8321071Y-18179214D01*
X8678214Y-18179214D02*
X8621071Y-18179214D01*
X8592500Y-18193500D01*
X8578214Y-18207786D01*
X8549643Y-18250643D01*
X8535357Y-18307786D01*
X8535357Y-18422072D01*
X8549643Y-18450643D01*
X8563928Y-18464929D01*
X8592500Y-18479214D01*
X8649643Y-18479214D01*
X8678214Y-18464929D01*
X8692500Y-18450643D01*
X8706786Y-18422072D01*
X8706786Y-18350643D01*
X8692500Y-18322072D01*
X8678214Y-18307786D01*
X8649643Y-18293500D01*
X8592500Y-18293500D01*
X8563928Y-18307786D01*
X8549643Y-18322072D01*
X8535357Y-18350643D01*
X8806786Y-18179214D02*
X8992500Y-18179214D01*
X8892500Y-18293500D01*
X8935357Y-18293500D01*
X8963928Y-18307786D01*
X8978214Y-18322072D01*
X8992500Y-18350643D01*
X8992500Y-18422072D01*
X8978214Y-18450643D01*
X8963928Y-18464929D01*
X8935357Y-18479214D01*
X8849643Y-18479214D01*
X8821071Y-18464929D01*
X8806786Y-18450643D01*
X9106786Y-18179214D02*
X9106786Y-18236357D01*
X9221071Y-18179214D02*
X9221071Y-18236357D01*
X9663928Y-18593500D02*
X9649643Y-18579214D01*
X9621071Y-18536357D01*
X9606786Y-18507786D01*
X9592500Y-18464929D01*
X9578214Y-18393500D01*
X9578214Y-18336357D01*
X9592500Y-18264929D01*
X9606786Y-18222072D01*
X9621071Y-18193500D01*
X9649643Y-18150643D01*
X9663928Y-18136357D01*
X9749643Y-18179214D02*
X9935357Y-18179214D01*
X9835357Y-18293500D01*
X9878214Y-18293500D01*
X9906786Y-18307786D01*
X9921071Y-18322072D01*
X9935357Y-18350643D01*
X9935357Y-18422072D01*
X9921071Y-18450643D01*
X9906786Y-18464929D01*
X9878214Y-18479214D01*
X9792500Y-18479214D01*
X9763928Y-18464929D01*
X9749643Y-18450643D01*
X10292500Y-18479214D02*
X10292500Y-18179214D01*
X10421071Y-18479214D02*
X10421071Y-18322072D01*
X10406786Y-18293500D01*
X10378214Y-18279214D01*
X10335357Y-18279214D01*
X10306786Y-18293500D01*
X10292500Y-18307786D01*
X10606786Y-18479214D02*
X10578214Y-18464929D01*
X10563928Y-18450643D01*
X10549643Y-18422072D01*
X10549643Y-18336357D01*
X10563928Y-18307786D01*
X10578214Y-18293500D01*
X10606786Y-18279214D01*
X10649643Y-18279214D01*
X10678214Y-18293500D01*
X10692500Y-18307786D01*
X10706786Y-18336357D01*
X10706786Y-18422072D01*
X10692500Y-18450643D01*
X10678214Y-18464929D01*
X10649643Y-18479214D01*
X10606786Y-18479214D01*
X10878214Y-18479214D02*
X10849643Y-18464929D01*
X10835357Y-18436357D01*
X10835357Y-18179214D01*
X11106786Y-18464929D02*
X11078214Y-18479214D01*
X11021071Y-18479214D01*
X10992500Y-18464929D01*
X10978214Y-18436357D01*
X10978214Y-18322072D01*
X10992500Y-18293500D01*
X11021071Y-18279214D01*
X11078214Y-18279214D01*
X11106786Y-18293500D01*
X11121071Y-18322072D01*
X11121071Y-18350643D01*
X10978214Y-18379214D01*
X11235357Y-18464929D02*
X11263928Y-18479214D01*
X11321071Y-18479214D01*
X11349643Y-18464929D01*
X11363928Y-18436357D01*
X11363928Y-18422072D01*
X11349643Y-18393500D01*
X11321071Y-18379214D01*
X11278214Y-18379214D01*
X11249643Y-18364929D01*
X11235357Y-18336357D01*
X11235357Y-18322072D01*
X11249643Y-18293500D01*
X11278214Y-18279214D01*
X11321071Y-18279214D01*
X11349643Y-18293500D01*
X11463928Y-18593500D02*
X11478214Y-18579214D01*
X11506786Y-18536357D01*
X11521071Y-18507786D01*
X11535357Y-18464929D01*
X11549643Y-18393500D01*
X11549643Y-18336357D01*
X11535357Y-18264929D01*
X11521071Y-18222072D01*
X11506786Y-18193500D01*
X11478214Y-18150643D01*
X11463928Y-18136357D01*
X4772500Y-18629500D02*
X4992500Y-18849500D01*
X4992500Y-18629500D02*
X4772500Y-18849500D01*
X4960282Y-18817283D02*
X4960282Y-18661718D01*
X4804717Y-18661718D01*
X4804717Y-18817283D01*
X4960282Y-18817283D01*
X5249643Y-18603786D02*
X5263929Y-18589500D01*
X5292500Y-18575214D01*
X5363929Y-18575214D01*
X5392500Y-18589500D01*
X5406786Y-18603786D01*
X5421071Y-18632357D01*
X5421071Y-18660929D01*
X5406786Y-18703786D01*
X5235357Y-18875214D01*
X5421071Y-18875214D01*
X5549643Y-18846643D02*
X5563929Y-18860929D01*
X5549643Y-18875214D01*
X5535357Y-18860929D01*
X5549643Y-18846643D01*
X5549643Y-18875214D01*
X5678214Y-18603786D02*
X5692500Y-18589500D01*
X5721071Y-18575214D01*
X5792500Y-18575214D01*
X5821071Y-18589500D01*
X5835357Y-18603786D01*
X5849643Y-18632357D01*
X5849643Y-18660929D01*
X5835357Y-18703786D01*
X5663928Y-18875214D01*
X5849643Y-18875214D01*
X6035357Y-18575214D02*
X6063928Y-18575214D01*
X6092500Y-18589500D01*
X6106786Y-18603786D01*
X6121071Y-18632357D01*
X6135357Y-18689500D01*
X6135357Y-18760929D01*
X6121071Y-18818072D01*
X6106786Y-18846643D01*
X6092500Y-18860929D01*
X6063928Y-18875214D01*
X6035357Y-18875214D01*
X6006786Y-18860929D01*
X5992500Y-18846643D01*
X5978214Y-18818072D01*
X5963928Y-18760929D01*
X5963928Y-18689500D01*
X5978214Y-18632357D01*
X5992500Y-18603786D01*
X6006786Y-18589500D01*
X6035357Y-18575214D01*
X6263928Y-18875214D02*
X6263928Y-18675214D01*
X6263928Y-18703786D02*
X6278214Y-18689500D01*
X6306786Y-18675214D01*
X6349643Y-18675214D01*
X6378214Y-18689500D01*
X6392500Y-18718072D01*
X6392500Y-18875214D01*
X6392500Y-18718072D02*
X6406786Y-18689500D01*
X6435357Y-18675214D01*
X6478214Y-18675214D01*
X6506786Y-18689500D01*
X6521071Y-18718072D01*
X6521071Y-18875214D01*
X6663928Y-18875214D02*
X6663928Y-18675214D01*
X6663928Y-18703786D02*
X6678214Y-18689500D01*
X6706786Y-18675214D01*
X6749643Y-18675214D01*
X6778214Y-18689500D01*
X6792500Y-18718072D01*
X6792500Y-18875214D01*
X6792500Y-18718072D02*
X6806786Y-18689500D01*
X6835357Y-18675214D01*
X6878214Y-18675214D01*
X6906786Y-18689500D01*
X6921071Y-18718072D01*
X6921071Y-18875214D01*
X7506786Y-18560929D02*
X7249643Y-18946643D01*
X7892500Y-18575214D02*
X7921071Y-18575214D01*
X7949643Y-18589500D01*
X7963928Y-18603786D01*
X7978214Y-18632357D01*
X7992500Y-18689500D01*
X7992500Y-18760929D01*
X7978214Y-18818072D01*
X7963928Y-18846643D01*
X7949643Y-18860929D01*
X7921071Y-18875214D01*
X7892500Y-18875214D01*
X7863928Y-18860929D01*
X7849643Y-18846643D01*
X7835357Y-18818072D01*
X7821071Y-18760929D01*
X7821071Y-18689500D01*
X7835357Y-18632357D01*
X7849643Y-18603786D01*
X7863928Y-18589500D01*
X7892500Y-18575214D01*
X8121071Y-18846643D02*
X8135357Y-18860929D01*
X8121071Y-18875214D01*
X8106786Y-18860929D01*
X8121071Y-18846643D01*
X8121071Y-18875214D01*
X8321071Y-18575214D02*
X8349643Y-18575214D01*
X8378214Y-18589500D01*
X8392500Y-18603786D01*
X8406786Y-18632357D01*
X8421071Y-18689500D01*
X8421071Y-18760929D01*
X8406786Y-18818072D01*
X8392500Y-18846643D01*
X8378214Y-18860929D01*
X8349643Y-18875214D01*
X8321071Y-18875214D01*
X8292500Y-18860929D01*
X8278214Y-18846643D01*
X8263928Y-18818072D01*
X8249643Y-18760929D01*
X8249643Y-18689500D01*
X8263928Y-18632357D01*
X8278214Y-18603786D01*
X8292500Y-18589500D01*
X8321071Y-18575214D01*
X8592500Y-18703786D02*
X8563928Y-18689500D01*
X8549643Y-18675214D01*
X8535357Y-18646643D01*
X8535357Y-18632357D01*
X8549643Y-18603786D01*
X8563928Y-18589500D01*
X8592500Y-18575214D01*
X8649643Y-18575214D01*
X8678214Y-18589500D01*
X8692500Y-18603786D01*
X8706786Y-18632357D01*
X8706786Y-18646643D01*
X8692500Y-18675214D01*
X8678214Y-18689500D01*
X8649643Y-18703786D01*
X8592500Y-18703786D01*
X8563928Y-18718072D01*
X8549643Y-18732357D01*
X8535357Y-18760929D01*
X8535357Y-18818072D01*
X8549643Y-18846643D01*
X8563928Y-18860929D01*
X8592500Y-18875214D01*
X8649643Y-18875214D01*
X8678214Y-18860929D01*
X8692500Y-18846643D01*
X8706786Y-18818072D01*
X8706786Y-18760929D01*
X8692500Y-18732357D01*
X8678214Y-18718072D01*
X8649643Y-18703786D01*
X8806786Y-18575214D02*
X9006786Y-18575214D01*
X8878214Y-18875214D01*
X9106786Y-18575214D02*
X9106786Y-18632357D01*
X9221071Y-18575214D02*
X9221071Y-18632357D01*
X9663928Y-18989500D02*
X9649643Y-18975214D01*
X9621071Y-18932357D01*
X9606786Y-18903786D01*
X9592500Y-18860929D01*
X9578214Y-18789500D01*
X9578214Y-18732357D01*
X9592500Y-18660929D01*
X9606786Y-18618072D01*
X9621071Y-18589500D01*
X9649643Y-18546643D01*
X9663928Y-18532357D01*
X9763928Y-18603786D02*
X9778214Y-18589500D01*
X9806786Y-18575214D01*
X9878214Y-18575214D01*
X9906786Y-18589500D01*
X9921071Y-18603786D01*
X9935357Y-18632357D01*
X9935357Y-18660929D01*
X9921071Y-18703786D01*
X9749643Y-18875214D01*
X9935357Y-18875214D01*
X10292500Y-18875214D02*
X10292500Y-18575214D01*
X10421071Y-18875214D02*
X10421071Y-18718072D01*
X10406786Y-18689500D01*
X10378214Y-18675214D01*
X10335357Y-18675214D01*
X10306786Y-18689500D01*
X10292500Y-18703786D01*
X10606786Y-18875214D02*
X10578214Y-18860929D01*
X10563928Y-18846643D01*
X10549643Y-18818072D01*
X10549643Y-18732357D01*
X10563928Y-18703786D01*
X10578214Y-18689500D01*
X10606786Y-18675214D01*
X10649643Y-18675214D01*
X10678214Y-18689500D01*
X10692500Y-18703786D01*
X10706786Y-18732357D01*
X10706786Y-18818072D01*
X10692500Y-18846643D01*
X10678214Y-18860929D01*
X10649643Y-18875214D01*
X10606786Y-18875214D01*
X10878214Y-18875214D02*
X10849643Y-18860929D01*
X10835357Y-18832357D01*
X10835357Y-18575214D01*
X11106786Y-18860929D02*
X11078214Y-18875214D01*
X11021071Y-18875214D01*
X10992500Y-18860929D01*
X10978214Y-18832357D01*
X10978214Y-18718072D01*
X10992500Y-18689500D01*
X11021071Y-18675214D01*
X11078214Y-18675214D01*
X11106786Y-18689500D01*
X11121071Y-18718072D01*
X11121071Y-18746643D01*
X10978214Y-18775214D01*
X11235357Y-18860929D02*
X11263928Y-18875214D01*
X11321071Y-18875214D01*
X11349643Y-18860929D01*
X11363928Y-18832357D01*
X11363928Y-18818072D01*
X11349643Y-18789500D01*
X11321071Y-18775214D01*
X11278214Y-18775214D01*
X11249643Y-18760929D01*
X11235357Y-18732357D01*
X11235357Y-18718072D01*
X11249643Y-18689500D01*
X11278214Y-18675214D01*
X11321071Y-18675214D01*
X11349643Y-18689500D01*
X11463928Y-18989500D02*
X11478214Y-18975214D01*
X11506786Y-18932357D01*
X11521071Y-18903786D01*
X11535357Y-18860929D01*
X11549643Y-18789500D01*
X11549643Y-18732357D01*
X11535357Y-18660929D01*
X11521071Y-18618072D01*
X11506786Y-18589500D01*
X11478214Y-18546643D01*
X11463928Y-18532357D01*
X4762500Y-19020500D02*
X4992500Y-19250500D01*
X4992500Y-19020500D02*
X4762500Y-19250500D01*
X4877500Y-19250500D02*
X4992500Y-19135500D01*
X4877500Y-19020500D01*
X4762500Y-19135500D01*
X4877500Y-19250500D01*
X5249643Y-18999786D02*
X5263929Y-18985500D01*
X5292500Y-18971214D01*
X5363929Y-18971214D01*
X5392500Y-18985500D01*
X5406786Y-18999786D01*
X5421071Y-19028357D01*
X5421071Y-19056929D01*
X5406786Y-19099786D01*
X5235357Y-19271214D01*
X5421071Y-19271214D01*
X5549643Y-19242643D02*
X5563929Y-19256929D01*
X5549643Y-19271214D01*
X5535357Y-19256929D01*
X5549643Y-19242643D01*
X5549643Y-19271214D01*
X5663928Y-18971214D02*
X5849643Y-18971214D01*
X5749643Y-19085500D01*
X5792500Y-19085500D01*
X5821071Y-19099786D01*
X5835357Y-19114072D01*
X5849643Y-19142643D01*
X5849643Y-19214072D01*
X5835357Y-19242643D01*
X5821071Y-19256929D01*
X5792500Y-19271214D01*
X5706786Y-19271214D01*
X5678214Y-19256929D01*
X5663928Y-19242643D01*
X6035357Y-18971214D02*
X6063928Y-18971214D01*
X6092500Y-18985500D01*
X6106786Y-18999786D01*
X6121071Y-19028357D01*
X6135357Y-19085500D01*
X6135357Y-19156929D01*
X6121071Y-19214072D01*
X6106786Y-19242643D01*
X6092500Y-19256929D01*
X6063928Y-19271214D01*
X6035357Y-19271214D01*
X6006786Y-19256929D01*
X5992500Y-19242643D01*
X5978214Y-19214072D01*
X5963928Y-19156929D01*
X5963928Y-19085500D01*
X5978214Y-19028357D01*
X5992500Y-18999786D01*
X6006786Y-18985500D01*
X6035357Y-18971214D01*
X6263928Y-19271214D02*
X6263928Y-19071214D01*
X6263928Y-19099786D02*
X6278214Y-19085500D01*
X6306786Y-19071214D01*
X6349643Y-19071214D01*
X6378214Y-19085500D01*
X6392500Y-19114072D01*
X6392500Y-19271214D01*
X6392500Y-19114072D02*
X6406786Y-19085500D01*
X6435357Y-19071214D01*
X6478214Y-19071214D01*
X6506786Y-19085500D01*
X6521071Y-19114072D01*
X6521071Y-19271214D01*
X6663928Y-19271214D02*
X6663928Y-19071214D01*
X6663928Y-19099786D02*
X6678214Y-19085500D01*
X6706786Y-19071214D01*
X6749643Y-19071214D01*
X6778214Y-19085500D01*
X6792500Y-19114072D01*
X6792500Y-19271214D01*
X6792500Y-19114072D02*
X6806786Y-19085500D01*
X6835357Y-19071214D01*
X6878214Y-19071214D01*
X6906786Y-19085500D01*
X6921071Y-19114072D01*
X6921071Y-19271214D01*
X7506786Y-18956929D02*
X7249643Y-19342643D01*
X7892500Y-18971214D02*
X7921071Y-18971214D01*
X7949643Y-18985500D01*
X7963928Y-18999786D01*
X7978214Y-19028357D01*
X7992500Y-19085500D01*
X7992500Y-19156929D01*
X7978214Y-19214072D01*
X7963928Y-19242643D01*
X7949643Y-19256929D01*
X7921071Y-19271214D01*
X7892500Y-19271214D01*
X7863928Y-19256929D01*
X7849643Y-19242643D01*
X7835357Y-19214072D01*
X7821071Y-19156929D01*
X7821071Y-19085500D01*
X7835357Y-19028357D01*
X7849643Y-18999786D01*
X7863928Y-18985500D01*
X7892500Y-18971214D01*
X8121071Y-19242643D02*
X8135357Y-19256929D01*
X8121071Y-19271214D01*
X8106786Y-19256929D01*
X8121071Y-19242643D01*
X8121071Y-19271214D01*
X8321071Y-18971214D02*
X8349643Y-18971214D01*
X8378214Y-18985500D01*
X8392500Y-18999786D01*
X8406786Y-19028357D01*
X8421071Y-19085500D01*
X8421071Y-19156929D01*
X8406786Y-19214072D01*
X8392500Y-19242643D01*
X8378214Y-19256929D01*
X8349643Y-19271214D01*
X8321071Y-19271214D01*
X8292500Y-19256929D01*
X8278214Y-19242643D01*
X8263928Y-19214072D01*
X8249643Y-19156929D01*
X8249643Y-19085500D01*
X8263928Y-19028357D01*
X8278214Y-18999786D01*
X8292500Y-18985500D01*
X8321071Y-18971214D01*
X8563928Y-19271214D02*
X8621071Y-19271214D01*
X8649643Y-19256929D01*
X8663928Y-19242643D01*
X8692500Y-19199786D01*
X8706786Y-19142643D01*
X8706786Y-19028357D01*
X8692500Y-18999786D01*
X8678214Y-18985500D01*
X8649643Y-18971214D01*
X8592500Y-18971214D01*
X8563928Y-18985500D01*
X8549643Y-18999786D01*
X8535357Y-19028357D01*
X8535357Y-19099786D01*
X8549643Y-19128357D01*
X8563928Y-19142643D01*
X8592500Y-19156929D01*
X8649643Y-19156929D01*
X8678214Y-19142643D01*
X8692500Y-19128357D01*
X8706786Y-19099786D01*
X8992500Y-19271214D02*
X8821071Y-19271214D01*
X8906786Y-19271214D02*
X8906786Y-18971214D01*
X8878214Y-19014072D01*
X8849643Y-19042643D01*
X8821071Y-19056929D01*
X9106786Y-18971214D02*
X9106786Y-19028357D01*
X9221071Y-18971214D02*
X9221071Y-19028357D01*
X9663928Y-19385500D02*
X9649643Y-19371214D01*
X9621071Y-19328357D01*
X9606786Y-19299786D01*
X9592500Y-19256929D01*
X9578214Y-19185500D01*
X9578214Y-19128357D01*
X9592500Y-19056929D01*
X9606786Y-19014072D01*
X9621071Y-18985500D01*
X9649643Y-18942643D01*
X9663928Y-18928357D01*
X9906786Y-19071214D02*
X9906786Y-19271214D01*
X9835357Y-18956929D02*
X9763928Y-19171214D01*
X9949643Y-19171214D01*
X10292500Y-19271214D02*
X10292500Y-18971214D01*
X10421071Y-19271214D02*
X10421071Y-19114072D01*
X10406786Y-19085500D01*
X10378214Y-19071214D01*
X10335357Y-19071214D01*
X10306786Y-19085500D01*
X10292500Y-19099786D01*
X10606786Y-19271214D02*
X10578214Y-19256929D01*
X10563928Y-19242643D01*
X10549643Y-19214072D01*
X10549643Y-19128357D01*
X10563928Y-19099786D01*
X10578214Y-19085500D01*
X10606786Y-19071214D01*
X10649643Y-19071214D01*
X10678214Y-19085500D01*
X10692500Y-19099786D01*
X10706786Y-19128357D01*
X10706786Y-19214072D01*
X10692500Y-19242643D01*
X10678214Y-19256929D01*
X10649643Y-19271214D01*
X10606786Y-19271214D01*
X10878214Y-19271214D02*
X10849643Y-19256929D01*
X10835357Y-19228357D01*
X10835357Y-18971214D01*
X11106786Y-19256929D02*
X11078214Y-19271214D01*
X11021071Y-19271214D01*
X10992500Y-19256929D01*
X10978214Y-19228357D01*
X10978214Y-19114072D01*
X10992500Y-19085500D01*
X11021071Y-19071214D01*
X11078214Y-19071214D01*
X11106786Y-19085500D01*
X11121071Y-19114072D01*
X11121071Y-19142643D01*
X10978214Y-19171214D01*
X11235357Y-19256929D02*
X11263928Y-19271214D01*
X11321071Y-19271214D01*
X11349643Y-19256929D01*
X11363928Y-19228357D01*
X11363928Y-19214072D01*
X11349643Y-19185500D01*
X11321071Y-19171214D01*
X11278214Y-19171214D01*
X11249643Y-19156929D01*
X11235357Y-19128357D01*
X11235357Y-19114072D01*
X11249643Y-19085500D01*
X11278214Y-19071214D01*
X11321071Y-19071214D01*
X11349643Y-19085500D01*
X11463928Y-19385500D02*
X11478214Y-19371214D01*
X11506786Y-19328357D01*
X11521071Y-19299786D01*
X11535357Y-19256929D01*
X11549643Y-19185500D01*
X11549643Y-19128357D01*
X11535357Y-19056929D01*
X11521071Y-19014072D01*
X11506786Y-18985500D01*
X11478214Y-18942643D01*
X11463928Y-18928357D01*
X4832500Y-19371500D02*
X4832500Y-19691500D01*
X4672500Y-19531500D02*
X4992500Y-19531500D01*
X4992500Y-19531500D02*
G75*
G03X4992500Y-19531500I-160000J0D01*
G01*
X5235357Y-19367214D02*
X5421071Y-19367214D01*
X5321071Y-19481500D01*
X5363929Y-19481500D01*
X5392500Y-19495786D01*
X5406786Y-19510072D01*
X5421071Y-19538643D01*
X5421071Y-19610072D01*
X5406786Y-19638643D01*
X5392500Y-19652929D01*
X5363929Y-19667214D01*
X5278214Y-19667214D01*
X5249643Y-19652929D01*
X5235357Y-19638643D01*
X5549643Y-19638643D02*
X5563929Y-19652929D01*
X5549643Y-19667214D01*
X5535357Y-19652929D01*
X5549643Y-19638643D01*
X5549643Y-19667214D01*
X5678214Y-19395786D02*
X5692500Y-19381500D01*
X5721071Y-19367214D01*
X5792500Y-19367214D01*
X5821071Y-19381500D01*
X5835357Y-19395786D01*
X5849643Y-19424357D01*
X5849643Y-19452929D01*
X5835357Y-19495786D01*
X5663928Y-19667214D01*
X5849643Y-19667214D01*
X6035357Y-19367214D02*
X6063928Y-19367214D01*
X6092500Y-19381500D01*
X6106786Y-19395786D01*
X6121071Y-19424357D01*
X6135357Y-19481500D01*
X6135357Y-19552929D01*
X6121071Y-19610072D01*
X6106786Y-19638643D01*
X6092500Y-19652929D01*
X6063928Y-19667214D01*
X6035357Y-19667214D01*
X6006786Y-19652929D01*
X5992500Y-19638643D01*
X5978214Y-19610072D01*
X5963928Y-19552929D01*
X5963928Y-19481500D01*
X5978214Y-19424357D01*
X5992500Y-19395786D01*
X6006786Y-19381500D01*
X6035357Y-19367214D01*
X6263928Y-19667214D02*
X6263928Y-19467214D01*
X6263928Y-19495786D02*
X6278214Y-19481500D01*
X6306786Y-19467214D01*
X6349643Y-19467214D01*
X6378214Y-19481500D01*
X6392500Y-19510072D01*
X6392500Y-19667214D01*
X6392500Y-19510072D02*
X6406786Y-19481500D01*
X6435357Y-19467214D01*
X6478214Y-19467214D01*
X6506786Y-19481500D01*
X6521071Y-19510072D01*
X6521071Y-19667214D01*
X6663928Y-19667214D02*
X6663928Y-19467214D01*
X6663928Y-19495786D02*
X6678214Y-19481500D01*
X6706786Y-19467214D01*
X6749643Y-19467214D01*
X6778214Y-19481500D01*
X6792500Y-19510072D01*
X6792500Y-19667214D01*
X6792500Y-19510072D02*
X6806786Y-19481500D01*
X6835357Y-19467214D01*
X6878214Y-19467214D01*
X6906786Y-19481500D01*
X6921071Y-19510072D01*
X6921071Y-19667214D01*
X7506786Y-19352929D02*
X7249643Y-19738643D01*
X7892500Y-19367214D02*
X7921071Y-19367214D01*
X7949643Y-19381500D01*
X7963928Y-19395786D01*
X7978214Y-19424357D01*
X7992500Y-19481500D01*
X7992500Y-19552929D01*
X7978214Y-19610072D01*
X7963928Y-19638643D01*
X7949643Y-19652929D01*
X7921071Y-19667214D01*
X7892500Y-19667214D01*
X7863928Y-19652929D01*
X7849643Y-19638643D01*
X7835357Y-19610072D01*
X7821071Y-19552929D01*
X7821071Y-19481500D01*
X7835357Y-19424357D01*
X7849643Y-19395786D01*
X7863928Y-19381500D01*
X7892500Y-19367214D01*
X8121071Y-19638643D02*
X8135357Y-19652929D01*
X8121071Y-19667214D01*
X8106786Y-19652929D01*
X8121071Y-19638643D01*
X8121071Y-19667214D01*
X8421071Y-19667214D02*
X8249643Y-19667214D01*
X8335357Y-19667214D02*
X8335357Y-19367214D01*
X8306785Y-19410072D01*
X8278214Y-19438643D01*
X8249643Y-19452929D01*
X8535357Y-19395786D02*
X8549643Y-19381500D01*
X8578214Y-19367214D01*
X8649643Y-19367214D01*
X8678214Y-19381500D01*
X8692500Y-19395786D01*
X8706786Y-19424357D01*
X8706786Y-19452929D01*
X8692500Y-19495786D01*
X8521071Y-19667214D01*
X8706786Y-19667214D01*
X8963928Y-19367214D02*
X8906786Y-19367214D01*
X8878214Y-19381500D01*
X8863928Y-19395786D01*
X8835357Y-19438643D01*
X8821071Y-19495786D01*
X8821071Y-19610072D01*
X8835357Y-19638643D01*
X8849643Y-19652929D01*
X8878214Y-19667214D01*
X8935357Y-19667214D01*
X8963928Y-19652929D01*
X8978214Y-19638643D01*
X8992500Y-19610072D01*
X8992500Y-19538643D01*
X8978214Y-19510072D01*
X8963928Y-19495786D01*
X8935357Y-19481500D01*
X8878214Y-19481500D01*
X8849643Y-19495786D01*
X8835357Y-19510072D01*
X8821071Y-19538643D01*
X9106786Y-19367214D02*
X9106786Y-19424357D01*
X9221071Y-19367214D02*
X9221071Y-19424357D01*
X9663928Y-19781500D02*
X9649643Y-19767214D01*
X9621071Y-19724357D01*
X9606786Y-19695786D01*
X9592500Y-19652929D01*
X9578214Y-19581500D01*
X9578214Y-19524357D01*
X9592500Y-19452929D01*
X9606786Y-19410072D01*
X9621071Y-19381500D01*
X9649643Y-19338643D01*
X9663928Y-19324357D01*
X9906786Y-19467214D02*
X9906786Y-19667214D01*
X9835357Y-19352929D02*
X9763928Y-19567214D01*
X9949643Y-19567214D01*
X10292500Y-19667214D02*
X10292500Y-19367214D01*
X10421071Y-19667214D02*
X10421071Y-19510072D01*
X10406786Y-19481500D01*
X10378214Y-19467214D01*
X10335357Y-19467214D01*
X10306786Y-19481500D01*
X10292500Y-19495786D01*
X10606786Y-19667214D02*
X10578214Y-19652929D01*
X10563928Y-19638643D01*
X10549643Y-19610072D01*
X10549643Y-19524357D01*
X10563928Y-19495786D01*
X10578214Y-19481500D01*
X10606786Y-19467214D01*
X10649643Y-19467214D01*
X10678214Y-19481500D01*
X10692500Y-19495786D01*
X10706786Y-19524357D01*
X10706786Y-19610072D01*
X10692500Y-19638643D01*
X10678214Y-19652929D01*
X10649643Y-19667214D01*
X10606786Y-19667214D01*
X10878214Y-19667214D02*
X10849643Y-19652929D01*
X10835357Y-19624357D01*
X10835357Y-19367214D01*
X11106786Y-19652929D02*
X11078214Y-19667214D01*
X11021071Y-19667214D01*
X10992500Y-19652929D01*
X10978214Y-19624357D01*
X10978214Y-19510072D01*
X10992500Y-19481500D01*
X11021071Y-19467214D01*
X11078214Y-19467214D01*
X11106786Y-19481500D01*
X11121071Y-19510072D01*
X11121071Y-19538643D01*
X10978214Y-19567214D01*
X11235357Y-19652929D02*
X11263928Y-19667214D01*
X11321071Y-19667214D01*
X11349643Y-19652929D01*
X11363928Y-19624357D01*
X11363928Y-19610072D01*
X11349643Y-19581500D01*
X11321071Y-19567214D01*
X11278214Y-19567214D01*
X11249643Y-19552929D01*
X11235357Y-19524357D01*
X11235357Y-19510072D01*
X11249643Y-19481500D01*
X11278214Y-19467214D01*
X11321071Y-19467214D01*
X11349643Y-19481500D01*
X11463928Y-19781500D02*
X11478214Y-19767214D01*
X11506786Y-19724357D01*
X11521071Y-19695786D01*
X11535357Y-19652929D01*
X11549643Y-19581500D01*
X11549643Y-19524357D01*
X11535357Y-19452929D01*
X11521071Y-19410072D01*
X11506786Y-19381500D01*
X11478214Y-19338643D01*
X11463928Y-19324357D01*
M02*
