M48
;DRILL file {KiCad 4.0.7} date 06/10/18 15:24:34
;FORMAT={-:-/ absolute / metric / decimal}
FMAT,2
METRIC,TZ
T1C0.400
T2C0.737
T3C0.800
T4C0.900
T5C1.000
T6C1.100
T7C1.600
T8C2.200
T9C2.300
T10C3.200
%
G90
G05
M71
T1
X51.8Y-99.2
X54.Y-101.
X55.753Y-98.171
X56.2Y-106.
X57.5Y-99.55
X57.6Y-95.8
X60.5Y-101.
X62.5Y-106.
X64.Y-100.
X64.77Y-99.06
X65.Y-100.
X67.Y-73.
X68.4Y-117.8
X68.453Y-122.428
X68.707Y-139.192
X69.6Y-128.2
X70.5Y-74.75
X71.Y-96.75
X73.Y-94.5
X78.359Y-129.032
X78.74Y-127.762
X80.Y-62.5
X80.233Y-97.883
X80.5Y-115.75
X81.058Y-88.308
X81.861Y-84.909
X83.Y-105.5
X83.82Y-118.11
X84.709Y-118.11
X85.95Y-116.4
X86.Y-110.5
X86.737Y-82.629
X86.75Y-103.75
X87.25Y-126.
X87.8Y-85.4
X88.832Y-105.409
X88.95Y-106.4
X89.174Y-98.21
X89.665Y-83.951
X90.Y-88.2
X90.06Y-97.807
X90.15Y-117.
X90.245Y-90.372
X90.25Y-125.75
X90.525Y-83.047
X90.525Y-86.
X90.75Y-103.25
X91.25Y-104.25
X93.75Y-104.25
X93.75Y-97.5
X93.95Y-75.2
X93.95Y-108.6
X94.141Y-82.609
X94.2Y-96.6
X94.25Y-83.75
X94.25Y-123.25
X95.25Y-79.25
X95.5Y-125.75
X95.75Y-80.
X96.25Y-81.
X98.15Y-88.4
X100.Y-117.5
X101.Y-85.
X101.15Y-82.4
X101.773Y-97.384
X102.144Y-98.093
X102.75Y-91.25
X102.943Y-98.14
X103.375Y-82.75
X103.5Y-90.
X104.25Y-80.5
X104.25Y-82.5
X104.75Y-91.25
X105.6Y-129.4
X106.575Y-86.076
X106.575Y-87.5
X106.6Y-126.2
X107.Y-54.
X107.Y-94.75
X107.125Y-84.5
X107.825Y-86.25
X107.825Y-87.75
X108.Y-71.5
X108.5Y-69.
X109.5Y-95.25
X109.982Y-140.843
X110.5Y-89.
X111.Y-60.
X111.25Y-88.
X111.5Y-89.75
X111.75Y-86.5
X112.Y-55.
X113.2Y-105.
X113.25Y-56.
X113.792Y-130.81
X115.8Y-94.
X116.75Y-65.5
X118.Y-112.
X118.25Y-71.
X118.25Y-94.25
X119.25Y-63.5
X119.303Y-69.626
X120.25Y-89.25
X121.Y-106.
X121.25Y-108.25
X122.Y-73.5
X122.8Y-91.6
X122.8Y-91.6
X123.Y-110.75
X123.25Y-69.25
X123.55Y-99.6
X123.6Y-105.8
X123.6Y-105.8
X123.75Y-112.6
X124.5Y-86.5
X125.15Y-93.6
X125.25Y-59.25
X125.25Y-67.75
X126.032Y-56.782
X129.5Y-71.5
X129.8Y-91.6
X132.334Y-58.166
X133.2Y-94.6
X133.35Y-98.
X133.4Y-92.8
X133.6Y-68.
X134.Y-70.
X136.5Y-62.25
X137.Y-73.
X138.75Y-90.4
X138.95Y-99.8
X139.25Y-83.5
X140.4Y-67.8
X141.75Y-58.75
X145.Y-72.
T2
X118.46Y-125.
X121.Y-125.
X123.54Y-125.
T3
X85.Y-90.12
X85.Y-95.
X100.25Y-60.25
X103.75Y-60.25
X116.55Y-84.
X116.55Y-89.08
X134.95Y-84.
X134.95Y-89.08
T4
X94.Y-67.
X94.Y-70.3
X96.5Y-67.
X96.5Y-70.3
X99.Y-67.
X99.Y-70.3
X107.52Y-144.78
X110.06Y-144.78
X117.68Y-144.78
X120.22Y-144.78
T5
X55.Y-122.
X55.Y-124.54
X55.Y-127.08
X55.Y-129.62
X65.Y-145.
X67.54Y-145.
X70.08Y-145.
X72.62Y-145.
X80.Y-56.
X83.Y-145.
X85.Y-56.
X85.54Y-145.
X88.08Y-145.
X90.Y-110.46
X90.Y-113.
X90.62Y-145.
X92.54Y-110.46
X92.54Y-113.
X95.08Y-110.46
X95.08Y-113.
X97.62Y-110.46
X97.62Y-113.
X100.Y-53.
X101.Y-122.
X101.Y-124.54
X101.Y-127.08
X102.54Y-53.
X105.08Y-53.
X107.Y-113.
X109.54Y-113.
X110.744Y-69.342
X110.744Y-71.882
X110.744Y-76.962
X110.744Y-79.502
X110.744Y-82.042
X112.08Y-113.
X114.62Y-113.
X128.Y-52.46
X128.Y-55.
X130.54Y-52.46
X130.54Y-55.
X133.08Y-52.46
X133.08Y-55.
X142.24Y-107.19
X142.24Y-109.73
X142.24Y-111.76
X142.24Y-114.3
X142.24Y-127.51
X142.24Y-130.05
X142.24Y-132.08
X142.24Y-134.62
T6
X53.75Y-68.75
X53.75Y-73.25
X60.25Y-68.75
X60.25Y-73.25
X80.5Y-73.
X80.5Y-79.5
X85.Y-73.
X85.Y-79.5
T7
X62.3Y-57.
X67.Y-54.
X67.Y-60.
T8
X101.Y-145.
X126.Y-145.
T9
X144.91Y-104.14
X144.91Y-117.86
X144.91Y-124.46
X144.91Y-138.18
T10
X55.Y-55.
X55.Y-145.
X145.Y-55.
X145.Y-145.
T0
M30
