G04 #@! TF.FileFunction,Paste,Top*
%FSLAX46Y46*%
G04 Gerber Fmt 4.6, Leading zero omitted, Abs format (unit mm)*
G04 Created by KiCad (PCBNEW 4.0.7) date 06/11/18 20:49:47*
%MOMM*%
%LPD*%
G01*
G04 APERTURE LIST*
%ADD10C,0.100000*%
%ADD11R,1.800000X1.000000*%
%ADD12R,1.000000X2.000000*%
%ADD13R,0.750000X0.800000*%
%ADD14R,0.800000X0.750000*%
%ADD15R,2.030000X1.140000*%
%ADD16R,1.270000X0.970000*%
%ADD17R,1.009200X0.599200*%
%ADD18R,0.500000X0.900000*%
%ADD19R,0.900000X0.500000*%
%ADD20R,1.060000X0.400000*%
%ADD21R,1.499200X0.549200*%
%ADD22R,0.700000X1.300000*%
%ADD23R,1.600000X1.000000*%
%ADD24R,1.250000X1.000000*%
%ADD25R,1.000000X1.250000*%
%ADD26R,0.970000X1.270000*%
%ADD27R,0.900000X0.800000*%
%ADD28R,1.600000X0.550000*%
%ADD29R,0.550000X1.600000*%
%ADD30R,1.060000X0.650000*%
%ADD31R,0.600000X0.500000*%
%ADD32R,0.800000X0.800000*%
%ADD33R,4.200000X1.500000*%
%ADD34R,1.500000X1.300000*%
%ADD35R,1.300000X1.500000*%
%ADD36R,1.700000X0.900000*%
%ADD37R,1.676400X1.676400*%
%ADD38C,1.676400*%
%ADD39R,1.448400X0.498400*%
%ADD40R,2.098040X1.198880*%
%ADD41R,1.198880X2.098040*%
G04 APERTURE END LIST*
D10*
D11*
X73250000Y-90250000D03*
X73250000Y-88750000D03*
X73250000Y-87250000D03*
X73250000Y-85750000D03*
X73250000Y-84250000D03*
X73250000Y-82750000D03*
X73250000Y-81250000D03*
X73250000Y-79750000D03*
D12*
X53500000Y-91500000D03*
X55000000Y-91500000D03*
X56500000Y-91500000D03*
X58000000Y-91500000D03*
X59500000Y-91500000D03*
X61000000Y-91500000D03*
X62500000Y-91500000D03*
X64000000Y-91500000D03*
X65500000Y-91500000D03*
X67000000Y-91500000D03*
X68500000Y-91500000D03*
X70000000Y-91500000D03*
X71500000Y-91500000D03*
X71500000Y-78500000D03*
X70000000Y-78500000D03*
X68500000Y-78500000D03*
X67000000Y-78500000D03*
X65500000Y-78500000D03*
X64000000Y-78500000D03*
X62500000Y-78500000D03*
X61000000Y-78500000D03*
X59500000Y-78500000D03*
X58000000Y-78500000D03*
X56500000Y-78500000D03*
X55000000Y-78500000D03*
X53500000Y-78500000D03*
D13*
X108000000Y-52250000D03*
X108000000Y-53750000D03*
X113000000Y-52250000D03*
X113000000Y-53750000D03*
D14*
X127750000Y-62000000D03*
X126250000Y-62000000D03*
X126750000Y-74000000D03*
X125250000Y-74000000D03*
D13*
X59000000Y-122750000D03*
X59000000Y-121250000D03*
D14*
X66250000Y-129000000D03*
X67750000Y-129000000D03*
D13*
X65000000Y-132750000D03*
X65000000Y-131250000D03*
D14*
X142750000Y-62000000D03*
X141250000Y-62000000D03*
X142750000Y-74000000D03*
X141250000Y-74000000D03*
D13*
X137000000Y-93250000D03*
X137000000Y-94750000D03*
X122000000Y-93250000D03*
X122000000Y-94750000D03*
D15*
X133000000Y-111800000D03*
X133000000Y-114200000D03*
X133000000Y-132800000D03*
X133000000Y-135200000D03*
D16*
X82000000Y-126360000D03*
X82000000Y-127640000D03*
D17*
X69900000Y-116050000D03*
X72100000Y-117000000D03*
X69900000Y-117950000D03*
D18*
X121750000Y-75000000D03*
X120250000Y-75000000D03*
D19*
X121750000Y-80000000D03*
X121750000Y-78500000D03*
D18*
X121750000Y-71500000D03*
X120250000Y-71500000D03*
X120250000Y-70000000D03*
X121750000Y-70000000D03*
X66750000Y-126000000D03*
X65250000Y-126000000D03*
X63750000Y-126000000D03*
X62250000Y-126000000D03*
D19*
X82000000Y-122250000D03*
X82000000Y-123750000D03*
X63000000Y-72500000D03*
X63000000Y-71000000D03*
D18*
X105750000Y-125000000D03*
X104250000Y-125000000D03*
D19*
X120000000Y-140750000D03*
X120000000Y-139250000D03*
D18*
X136750000Y-75000000D03*
X135250000Y-75000000D03*
D19*
X137000000Y-80500000D03*
X137000000Y-79000000D03*
D18*
X136750000Y-71500000D03*
X135250000Y-71500000D03*
X135250000Y-70000000D03*
X136750000Y-70000000D03*
D19*
X119750000Y-93250000D03*
X119750000Y-94750000D03*
X134950000Y-93250000D03*
X134950000Y-94750000D03*
D20*
X128100000Y-70980000D03*
X128100000Y-70330000D03*
X128100000Y-69670000D03*
X128100000Y-69020000D03*
X125900000Y-69020000D03*
X125900000Y-69670000D03*
X125900000Y-70330000D03*
X125900000Y-70980000D03*
D21*
X106300000Y-131095000D03*
X106300000Y-132365000D03*
X106300000Y-133635000D03*
X106300000Y-134905000D03*
X111700000Y-134905000D03*
X111700000Y-133635000D03*
X111700000Y-132365000D03*
X111700000Y-131095000D03*
D20*
X143100000Y-70980000D03*
X143100000Y-70330000D03*
X143100000Y-69670000D03*
X143100000Y-69020000D03*
X140900000Y-69020000D03*
X140900000Y-69670000D03*
X140900000Y-70330000D03*
X140900000Y-70980000D03*
D13*
X80000000Y-117250000D03*
X80000000Y-118750000D03*
D22*
X65050000Y-121000000D03*
X66950000Y-121000000D03*
D19*
X121000000Y-111250000D03*
X121000000Y-112750000D03*
X121000000Y-114000000D03*
X121000000Y-115500000D03*
X127250000Y-110250000D03*
X127250000Y-111750000D03*
X127250000Y-113250000D03*
X127250000Y-114750000D03*
D23*
X120500000Y-55600000D03*
X120500000Y-52400000D03*
X115500000Y-55600000D03*
X115500000Y-52400000D03*
D24*
X89000000Y-56000000D03*
X89000000Y-58000000D03*
X91000000Y-56000000D03*
X91000000Y-58000000D03*
X110000000Y-54000000D03*
X110000000Y-52000000D03*
D25*
X67000000Y-141000000D03*
X65000000Y-141000000D03*
X93000000Y-80000000D03*
X91000000Y-80000000D03*
D14*
X91250000Y-82000000D03*
X92750000Y-82000000D03*
D13*
X79600000Y-89450000D03*
X79600000Y-90950000D03*
X79600000Y-95750000D03*
X79600000Y-94250000D03*
D25*
X126000000Y-64000000D03*
X128000000Y-64000000D03*
X126000000Y-66000000D03*
X128000000Y-66000000D03*
X126000000Y-83000000D03*
X128000000Y-83000000D03*
X126000000Y-85000000D03*
X128000000Y-85000000D03*
X126000000Y-87000000D03*
X128000000Y-87000000D03*
D24*
X62000000Y-121000000D03*
X62000000Y-123000000D03*
X77000000Y-117000000D03*
X77000000Y-119000000D03*
X136000000Y-115000000D03*
X136000000Y-113000000D03*
X136000000Y-135000000D03*
X136000000Y-133000000D03*
D25*
X141000000Y-64000000D03*
X143000000Y-64000000D03*
X141000000Y-66000000D03*
X143000000Y-66000000D03*
X141000000Y-83000000D03*
X143000000Y-83000000D03*
X141000000Y-85000000D03*
X143000000Y-85000000D03*
X141000000Y-87000000D03*
X143000000Y-87000000D03*
D14*
X73750000Y-105000000D03*
X72250000Y-105000000D03*
X73750000Y-103000000D03*
X72250000Y-103000000D03*
X68750000Y-98000000D03*
X67250000Y-98000000D03*
D13*
X68400000Y-100050000D03*
X68400000Y-101550000D03*
X66200000Y-100050000D03*
X66200000Y-101550000D03*
D26*
X68730000Y-137000000D03*
X70000000Y-137000000D03*
X71270000Y-137000000D03*
X76270000Y-137000000D03*
X75000000Y-137000000D03*
X73730000Y-137000000D03*
D16*
X108800000Y-90730000D03*
X108800000Y-92000000D03*
X108800000Y-93270000D03*
D26*
X97730000Y-79756000D03*
X99000000Y-79756000D03*
X100270000Y-79756000D03*
D27*
X59400000Y-102550000D03*
X59400000Y-104450000D03*
X61400000Y-103500000D03*
X53000000Y-102550000D03*
X53000000Y-104450000D03*
X55000000Y-103500000D03*
D19*
X70000000Y-141750000D03*
X70000000Y-140250000D03*
X73000000Y-141750000D03*
X73000000Y-140250000D03*
X87884000Y-78244000D03*
X87884000Y-79744000D03*
D18*
X76250000Y-98000000D03*
X77750000Y-98000000D03*
X76250000Y-100000000D03*
X77750000Y-100000000D03*
X59650000Y-106500000D03*
X61150000Y-106500000D03*
X53250000Y-106500000D03*
X54750000Y-106500000D03*
X61650000Y-100500000D03*
X63150000Y-100500000D03*
X55250000Y-100500000D03*
X56750000Y-100500000D03*
D28*
X92750000Y-87200000D03*
X92750000Y-88000000D03*
X92750000Y-88800000D03*
X92750000Y-89600000D03*
X92750000Y-90400000D03*
X92750000Y-91200000D03*
X92750000Y-92000000D03*
X92750000Y-92800000D03*
D29*
X94200000Y-94250000D03*
X95000000Y-94250000D03*
X95800000Y-94250000D03*
X96600000Y-94250000D03*
X97400000Y-94250000D03*
X98200000Y-94250000D03*
X99000000Y-94250000D03*
X99800000Y-94250000D03*
D28*
X101250000Y-92800000D03*
X101250000Y-92000000D03*
X101250000Y-91200000D03*
X101250000Y-90400000D03*
X101250000Y-89600000D03*
X101250000Y-88800000D03*
X101250000Y-88000000D03*
X101250000Y-87200000D03*
D29*
X99800000Y-85750000D03*
X99000000Y-85750000D03*
X98200000Y-85750000D03*
X97400000Y-85750000D03*
X96600000Y-85750000D03*
X95800000Y-85750000D03*
X95000000Y-85750000D03*
X94200000Y-85750000D03*
D30*
X73100000Y-99950000D03*
X73100000Y-99000000D03*
X73100000Y-98050000D03*
X70900000Y-98050000D03*
X70900000Y-99950000D03*
D26*
X61040000Y-110000000D03*
X59760000Y-110000000D03*
X54640000Y-110000000D03*
X53360000Y-110000000D03*
D13*
X98298000Y-122059000D03*
X98298000Y-123559000D03*
D16*
X126750000Y-104480000D03*
X126750000Y-105750000D03*
X126750000Y-107020000D03*
X119000000Y-104730000D03*
X119000000Y-106000000D03*
X119000000Y-107270000D03*
X91200000Y-77240000D03*
X91200000Y-75960000D03*
D26*
X66640000Y-118000000D03*
X65360000Y-118000000D03*
D16*
X137000000Y-106360000D03*
X137000000Y-107640000D03*
X137000000Y-127360000D03*
X137000000Y-128640000D03*
D31*
X121550000Y-68000000D03*
X120450000Y-68000000D03*
X136550000Y-68000000D03*
X135450000Y-68000000D03*
D32*
X133566000Y-58166000D03*
X135166000Y-58166000D03*
X91800000Y-51500000D03*
X90200000Y-51500000D03*
X104950000Y-68250000D03*
X106550000Y-68250000D03*
X105000000Y-72200000D03*
X106600000Y-72200000D03*
X111800000Y-102000000D03*
X110200000Y-102000000D03*
X111800000Y-105000000D03*
X110200000Y-105000000D03*
X74450000Y-72000000D03*
X76050000Y-72000000D03*
X113800000Y-125000000D03*
X112200000Y-125000000D03*
X74950000Y-69250000D03*
X76550000Y-69250000D03*
D33*
X127000000Y-76200000D03*
X127000000Y-79800000D03*
X142000000Y-76200000D03*
X142000000Y-79800000D03*
D34*
X92350000Y-53500000D03*
X89650000Y-53500000D03*
D35*
X124000000Y-55350000D03*
X124000000Y-52650000D03*
D34*
X108600000Y-65750000D03*
X105900000Y-65750000D03*
X105550000Y-75800000D03*
X102850000Y-75800000D03*
D36*
X127000000Y-92450000D03*
X127000000Y-89550000D03*
D34*
X62350000Y-130000000D03*
X59650000Y-130000000D03*
X62350000Y-134600000D03*
X59650000Y-134600000D03*
D36*
X142000000Y-92450000D03*
X142000000Y-89550000D03*
D34*
X108650000Y-139000000D03*
X111350000Y-139000000D03*
X111650000Y-122000000D03*
X114350000Y-122000000D03*
D35*
X118000000Y-135350000D03*
X118000000Y-132650000D03*
X53750000Y-65600000D03*
X53750000Y-62900000D03*
D37*
X123540000Y-125000000D03*
D38*
X121000000Y-125000000D03*
X118460000Y-125000000D03*
D39*
X71300000Y-122555000D03*
X71300000Y-123825000D03*
X71300000Y-125095000D03*
X71300000Y-126365000D03*
X71300000Y-127635000D03*
X71300000Y-128905000D03*
X71300000Y-130175000D03*
X71300000Y-131445000D03*
X76700000Y-131445000D03*
X76700000Y-130175000D03*
X76700000Y-128905000D03*
X76700000Y-127635000D03*
X76700000Y-126365000D03*
X76700000Y-125095000D03*
X76700000Y-123825000D03*
X76700000Y-122555000D03*
D30*
X119650000Y-97050000D03*
X119650000Y-98000000D03*
X119650000Y-98950000D03*
X121850000Y-98950000D03*
X121850000Y-97050000D03*
X134650000Y-97050000D03*
X134650000Y-98000000D03*
X134650000Y-98950000D03*
X136850000Y-98950000D03*
X136850000Y-97050000D03*
D34*
X72100000Y-71250000D03*
X69400000Y-71250000D03*
X72350000Y-68750000D03*
X69650000Y-68750000D03*
X108350000Y-102000000D03*
X105650000Y-102000000D03*
X108350000Y-105000000D03*
X105650000Y-105000000D03*
X137080000Y-58166000D03*
X139780000Y-58166000D03*
D40*
X75600000Y-57999640D03*
X75600000Y-53600360D03*
X127000000Y-99199640D03*
X127000000Y-94800360D03*
X133000000Y-109199640D03*
X133000000Y-104800360D03*
X133000000Y-130199640D03*
X133000000Y-125800360D03*
X142000000Y-99199640D03*
X142000000Y-94800360D03*
D41*
X76800360Y-105000000D03*
X81199640Y-105000000D03*
M02*
