G04 #@! TF.FileFunction,Copper,L2,Bot,Signal*
%FSLAX46Y46*%
G04 Gerber Fmt 4.6, Leading zero omitted, Abs format (unit mm)*
G04 Created by KiCad (PCBNEW 4.0.7) date 06/10/18 15:24:31*
%MOMM*%
%LPD*%
G01*
G04 APERTURE LIST*
%ADD10C,0.100000*%
%ADD11C,1.500000*%
%ADD12C,3.000000*%
%ADD13R,2.600000X2.600000*%
%ADD14C,2.600000*%
%ADD15R,1.700000X1.700000*%
%ADD16O,1.700000X1.700000*%
%ADD17R,1.800000X1.800000*%
%ADD18C,1.800000*%
%ADD19R,2.000000X2.000000*%
%ADD20C,2.000000*%
%ADD21R,1.400000X1.400000*%
%ADD22C,1.400000*%
%ADD23C,1.600000*%
%ADD24O,1.600000X1.600000*%
%ADD25R,1.676400X1.676400*%
%ADD26C,1.676400*%
%ADD27R,1.600000X1.600000*%
%ADD28C,6.400000*%
%ADD29C,4.400000*%
%ADD30C,0.600000*%
%ADD31C,1.000000*%
%ADD32C,0.250000*%
%ADD33C,0.500000*%
%ADD34C,0.750000*%
%ADD35C,0.254000*%
G04 APERTURE END LIST*
D10*
D11*
X142240000Y-107190000D03*
X142240000Y-109730000D03*
X142240000Y-111760000D03*
X142240000Y-114300000D03*
D12*
X144910000Y-104140000D03*
X144910000Y-117860000D03*
D11*
X142240000Y-127510000D03*
X142240000Y-130050000D03*
X142240000Y-132080000D03*
X142240000Y-134620000D03*
D12*
X144910000Y-124460000D03*
X144910000Y-138180000D03*
D13*
X67000000Y-60000000D03*
D14*
X67000000Y-54000000D03*
X62300000Y-57000000D03*
D15*
X65000000Y-145000000D03*
D16*
X67540000Y-145000000D03*
X70080000Y-145000000D03*
X72620000Y-145000000D03*
D15*
X90000000Y-113000000D03*
D16*
X90000000Y-110460000D03*
X92540000Y-113000000D03*
X92540000Y-110460000D03*
X95080000Y-113000000D03*
X95080000Y-110460000D03*
X97620000Y-113000000D03*
X97620000Y-110460000D03*
D15*
X100000000Y-53000000D03*
D16*
X102540000Y-53000000D03*
X105080000Y-53000000D03*
D17*
X107520000Y-144780000D03*
D18*
X110060000Y-144780000D03*
D17*
X117680000Y-144780000D03*
D18*
X120220000Y-144780000D03*
D19*
X80000000Y-56000000D03*
D20*
X85000000Y-56000000D03*
D11*
X85000000Y-95000000D03*
X85000000Y-90120000D03*
D15*
X55000000Y-122000000D03*
D16*
X55000000Y-124540000D03*
X55000000Y-127080000D03*
X55000000Y-129620000D03*
D15*
X110744000Y-76962000D03*
D16*
X110744000Y-79502000D03*
X110744000Y-82042000D03*
D15*
X110744000Y-71882000D03*
D16*
X110744000Y-69342000D03*
D15*
X83000000Y-145000000D03*
D16*
X85540000Y-145000000D03*
X88080000Y-145000000D03*
X90620000Y-145000000D03*
D20*
X80500000Y-73000000D03*
X85000000Y-73000000D03*
X80500000Y-79500000D03*
X85000000Y-79500000D03*
X53750000Y-73250000D03*
X53750000Y-68750000D03*
X60250000Y-73250000D03*
X60250000Y-68750000D03*
D21*
X94000000Y-67000000D03*
D22*
X96500000Y-67000000D03*
X99000000Y-67000000D03*
X94000000Y-70300000D03*
X96500000Y-70300000D03*
X99000000Y-70300000D03*
D15*
X128000000Y-55000000D03*
D16*
X128000000Y-52460000D03*
X130540000Y-55000000D03*
X130540000Y-52460000D03*
X133080000Y-55000000D03*
X133080000Y-52460000D03*
D15*
X101000000Y-122000000D03*
D16*
X101000000Y-124540000D03*
X101000000Y-127080000D03*
D15*
X107000000Y-113000000D03*
D16*
X109540000Y-113000000D03*
X112080000Y-113000000D03*
X114620000Y-113000000D03*
D23*
X116550000Y-84000000D03*
D24*
X116550000Y-89080000D03*
D23*
X134950000Y-84000000D03*
D24*
X134950000Y-89080000D03*
D25*
X123540000Y-125000000D03*
D26*
X121000000Y-125000000D03*
X118460000Y-125000000D03*
D27*
X103750000Y-60250000D03*
D23*
X100250000Y-60250000D03*
D28*
X145000000Y-145000000D03*
X55000000Y-145000000D03*
X145000000Y-55000000D03*
X55000000Y-55000000D03*
D29*
X126000000Y-145000000D03*
X101000000Y-145000000D03*
D30*
X119250000Y-63500000D03*
X121000000Y-106000000D03*
X121250000Y-108250000D03*
X123000000Y-110750000D03*
X63999974Y-100000000D03*
X57500000Y-99550000D03*
X83000000Y-105500000D03*
X86000000Y-110500000D03*
X109982000Y-140843000D03*
X113792000Y-130810000D03*
X129800000Y-91600000D03*
X122800000Y-91600000D03*
X122800000Y-91600000D03*
X95250000Y-79250000D03*
X125250000Y-59250006D03*
X57600000Y-95800000D03*
X51800000Y-99200000D03*
X115800000Y-94000000D03*
X80000000Y-62500000D03*
X94140934Y-82609066D03*
X119303398Y-69626142D03*
X93749992Y-104250000D03*
X87250000Y-126000000D03*
X90250000Y-125750000D03*
X94250000Y-123250000D03*
X95500000Y-125750000D03*
X71000000Y-96750000D03*
X73000000Y-94500000D03*
X86750000Y-103750000D03*
X93750000Y-97500000D03*
X111750000Y-86500000D03*
X101000006Y-85000000D03*
X80233051Y-97883051D03*
X81058050Y-88308050D03*
X101150000Y-82400000D03*
X98150000Y-88400000D03*
X93950000Y-75200000D03*
X123250000Y-69250000D03*
X80500000Y-115750000D03*
X108500000Y-69000008D03*
X136500000Y-62250000D03*
X141750000Y-58750000D03*
X133350000Y-98000000D03*
X93950000Y-108600000D03*
X85950000Y-116400000D03*
X90150000Y-117000000D03*
X70500000Y-74750000D03*
X108000000Y-71500000D03*
X112000000Y-55000000D03*
X107000000Y-54000000D03*
X68707000Y-139192000D03*
X69600000Y-128200000D03*
X133400000Y-92800000D03*
X145000000Y-71999980D03*
X129500000Y-71500008D03*
X134000000Y-70000000D03*
X123550000Y-99600000D03*
X125150000Y-93600000D03*
X124500000Y-86500010D03*
X122000000Y-73500000D03*
X138950000Y-99800000D03*
X138750000Y-90400000D03*
X139249970Y-83500000D03*
X137000000Y-73000000D03*
X107000000Y-94750000D03*
X132334000Y-58166000D03*
X116750000Y-65499992D03*
X120250000Y-89250000D03*
X111000000Y-60000000D03*
X123600000Y-105800000D03*
X123600000Y-105800000D03*
X113200000Y-105000000D03*
X101772531Y-97384190D03*
X102144087Y-98092684D03*
X53999996Y-101000000D03*
X67000000Y-73000000D03*
X62500000Y-106000006D03*
X65000000Y-100000000D03*
X60500000Y-100999982D03*
X56200000Y-106000000D03*
X87800000Y-85400000D03*
X90524979Y-86000006D03*
X90524979Y-83046513D03*
X81861157Y-84909153D03*
X106575021Y-86075843D03*
X107825033Y-87750000D03*
X111500000Y-89750000D03*
X118250000Y-94250000D03*
X107125010Y-84500000D03*
X104250000Y-82500000D03*
X111250000Y-88000000D03*
X133200000Y-94600000D03*
X91250000Y-104250000D03*
X88950000Y-106400010D03*
X78359000Y-129032000D03*
X84709000Y-118110000D03*
X90750000Y-103250000D03*
X88831837Y-105408762D03*
X78740000Y-127762000D03*
X83820000Y-118110000D03*
X96250000Y-81000000D03*
X95749990Y-80000000D03*
X109500000Y-95250000D03*
X118000000Y-112000000D03*
X107825032Y-86250000D03*
X104250000Y-80500000D03*
X110500000Y-89000000D03*
X123750000Y-112600000D03*
X113250000Y-56000000D03*
X90000000Y-88200000D03*
X89173989Y-98209895D03*
X90059551Y-97806551D03*
X90244551Y-90371551D03*
X102750000Y-91250000D03*
X104750000Y-91250000D03*
X103375010Y-82750000D03*
X102942687Y-98140189D03*
X68452998Y-122428000D03*
X68400000Y-117799998D03*
X64770000Y-99060000D03*
X55753000Y-98171000D03*
X94200000Y-96600000D03*
X126032114Y-56782114D03*
X103500000Y-90000000D03*
X94250000Y-83750000D03*
X89665138Y-83950962D03*
X86736897Y-82629203D03*
X106575021Y-87500000D03*
X99999992Y-117500000D03*
X106600000Y-126200000D03*
X105600000Y-129400000D03*
X125250000Y-67750000D03*
X118250000Y-71000000D03*
X133600000Y-68000000D03*
X140400000Y-67800000D03*
D31*
X126589999Y-53449999D02*
X126449999Y-53589999D01*
X126449999Y-53950001D02*
X119250000Y-61150000D01*
X119250000Y-61150000D02*
X119250000Y-63075736D01*
X128000000Y-52460000D02*
X127940000Y-52460000D01*
X126950001Y-53449999D02*
X126589999Y-53449999D01*
X127940000Y-52460000D02*
X126950001Y-53449999D01*
X126449999Y-53589999D02*
X126449999Y-53950001D01*
X119250000Y-63075736D02*
X119250000Y-63500000D01*
D32*
X121250000Y-109000000D02*
X121250000Y-108250000D01*
X123000000Y-110750000D02*
X121250000Y-109000000D01*
X57550000Y-99500000D02*
X58050000Y-99000000D01*
X57500000Y-99550000D02*
X58050000Y-99000000D01*
X58050000Y-99000000D02*
X62500000Y-99000000D01*
X62500000Y-99000000D02*
X63200001Y-99700001D01*
X63575710Y-100000000D02*
X63999974Y-100000000D01*
X64000000Y-100000000D02*
X63999974Y-100000000D01*
X63500000Y-100000000D02*
X63575710Y-100000000D01*
X63200001Y-99700001D02*
X63500000Y-100000000D01*
D31*
X86000000Y-110500000D02*
X86000000Y-108500000D01*
X86000000Y-108500000D02*
X83000000Y-105500000D01*
D32*
X109982000Y-140843000D02*
X110109000Y-140970000D01*
X110109000Y-140970000D02*
X111252000Y-140970000D01*
X111252000Y-140970000D02*
X113792000Y-138430000D01*
X113792000Y-138430000D02*
X113792000Y-130810000D01*
D33*
X117680000Y-144780000D02*
X113792000Y-140892000D01*
X113792000Y-140892000D02*
X113792000Y-130810000D01*
X113792000Y-130810000D02*
X113792000Y-130385736D01*
X113792000Y-130385736D02*
X105406264Y-122000000D01*
X105406264Y-122000000D02*
X102350000Y-122000000D01*
X102350000Y-122000000D02*
X101000000Y-122000000D01*
X122800000Y-91600000D02*
X129800000Y-91600000D01*
D32*
X85000000Y-79500000D02*
X95000000Y-79500000D01*
X95000000Y-79500000D02*
X95250000Y-79250000D01*
X85000000Y-73000000D02*
X86750000Y-73000000D01*
X86750000Y-73000000D02*
X88000000Y-74250000D01*
X111250000Y-74250000D02*
X125250000Y-60250000D01*
X88000000Y-74250000D02*
X111250000Y-74250000D01*
X125250000Y-60250000D02*
X125250000Y-59250006D01*
X51800000Y-99200000D02*
X55200000Y-95800000D01*
X55200000Y-95800000D02*
X57600000Y-95800000D01*
D31*
X80000000Y-56000000D02*
X80000000Y-62500000D01*
D32*
X94350000Y-82400000D02*
X94140934Y-82609066D01*
X101150000Y-82400000D02*
X94350000Y-82400000D01*
X93750000Y-104249992D02*
X93749992Y-104250000D01*
X93750000Y-97500000D02*
X93750000Y-104249992D01*
X73000000Y-94500000D02*
X71000000Y-96500000D01*
X71000000Y-96500000D02*
X71000000Y-96750000D01*
X71000000Y-96750000D02*
X71300001Y-96449999D01*
X87250000Y-126000000D02*
X87549999Y-125700001D01*
X94250000Y-123250000D02*
X92750000Y-123250000D01*
X92750000Y-123250000D02*
X90250000Y-125750000D01*
X101000000Y-127080000D02*
X96830000Y-127080000D01*
X96830000Y-127080000D02*
X95500000Y-125750000D01*
X71299999Y-96450001D02*
X71000000Y-96750000D01*
X71300001Y-96200001D02*
X71300001Y-96449999D01*
X71300001Y-96449999D02*
X71299999Y-96450001D01*
X72750000Y-94500000D02*
X72750000Y-94750002D01*
X72750000Y-94750002D02*
X71300001Y-96200001D01*
X86750000Y-103325736D02*
X86750000Y-103750000D01*
X116550000Y-84000000D02*
X115250000Y-84000000D01*
X115250000Y-84000000D02*
X113049999Y-86200001D01*
X113049999Y-86200001D02*
X112049999Y-86200001D01*
X112049999Y-86200001D02*
X111750000Y-86500000D01*
X100700007Y-85299999D02*
X101000006Y-85000000D01*
X98150000Y-87850006D02*
X100700007Y-85299999D01*
X98150000Y-88400000D02*
X98150000Y-87850006D01*
X100850001Y-82699999D02*
X101150000Y-82400000D01*
X100850001Y-82699999D02*
X100850001Y-82900001D01*
X93950000Y-75200000D02*
X93650001Y-75499999D01*
X85950000Y-116400000D02*
X81150000Y-116400000D01*
X81150000Y-116400000D02*
X80500000Y-115750000D01*
X108500000Y-71000000D02*
X108500000Y-69424272D01*
X108000000Y-71500000D02*
X108500000Y-71000000D01*
X108500000Y-69424272D02*
X108500000Y-69000008D01*
X138250000Y-62250000D02*
X136500000Y-62250000D01*
X141750000Y-58750000D02*
X138250000Y-62250000D01*
X94230001Y-112080001D02*
X93904999Y-111754999D01*
X93904999Y-111754999D02*
X93904999Y-108645001D01*
X93904999Y-108645001D02*
X93950000Y-108600000D01*
X95080000Y-113000000D02*
X94230001Y-112150001D01*
X94230001Y-112150001D02*
X94230001Y-112080001D01*
X92540000Y-113000000D02*
X92540000Y-114610000D01*
X92540000Y-114610000D02*
X90150000Y-117000000D01*
X70500000Y-74750000D02*
X70799999Y-75049999D01*
X123550000Y-99600000D02*
X125150000Y-98000000D01*
X125150000Y-98000000D02*
X125150000Y-93600000D01*
X124500000Y-78500000D02*
X124500000Y-86500010D01*
X122000000Y-73500000D02*
X122000000Y-75500000D01*
X122000000Y-75500000D02*
X124500000Y-78000000D01*
X124500000Y-78000000D02*
X124500000Y-86075746D01*
X124500000Y-86075746D02*
X124500000Y-86500010D01*
X138950000Y-99800000D02*
X138950000Y-90600000D01*
X138950000Y-90600000D02*
X138750000Y-90400000D01*
X138950003Y-83200001D02*
X139249970Y-83499968D01*
X137000000Y-73000000D02*
X137000000Y-81249998D01*
X139249970Y-83499968D02*
X139249970Y-83500000D01*
X138250000Y-82500000D02*
X138950003Y-83200001D01*
X137000000Y-81249998D02*
X138950003Y-83200001D01*
X107299999Y-94450001D02*
X107000000Y-94750000D01*
X114400022Y-82349978D02*
X109350057Y-87399943D01*
X114400022Y-73645619D02*
X114400022Y-82349978D01*
X130540000Y-57505641D02*
X114400022Y-73645619D01*
X130540000Y-55000000D02*
X130540000Y-57505641D01*
X109350057Y-92399943D02*
X107299999Y-94450001D01*
X109350057Y-87399943D02*
X109350057Y-92399943D01*
X130540000Y-55000000D02*
X130540000Y-56626000D01*
X132080000Y-58166000D02*
X132334000Y-58166000D01*
X130540000Y-56626000D02*
X132080000Y-58166000D01*
D31*
X123600000Y-105800000D02*
X122800000Y-105800000D01*
X122800000Y-105800000D02*
X120000000Y-103000000D01*
X120000000Y-103000000D02*
X120000000Y-95000000D01*
X120000000Y-95000000D02*
X120250000Y-94750000D01*
X120250000Y-94750000D02*
X120250000Y-89250000D01*
X116750000Y-65499992D02*
X116499992Y-65499992D01*
X116499992Y-65499992D02*
X111000000Y-60000000D01*
X111000000Y-60000000D02*
X111300001Y-60299999D01*
D32*
X123600000Y-105800000D02*
X123200000Y-105800000D01*
X123200000Y-105800000D02*
X122000000Y-107000000D01*
X122000000Y-107000000D02*
X115200000Y-107000000D01*
X115200000Y-107000000D02*
X113200000Y-105000000D01*
X113500000Y-81977178D02*
X108450035Y-87027143D01*
X113500000Y-73272821D02*
X113500000Y-81977178D01*
X108450035Y-87027143D02*
X108450035Y-90706686D01*
X108450035Y-90706686D02*
X102072530Y-97084191D01*
X128000000Y-58772821D02*
X113500000Y-73272821D01*
X128000000Y-55000000D02*
X128000000Y-58772821D01*
X102072530Y-97084191D02*
X101772531Y-97384190D01*
X129286000Y-58123231D02*
X113950011Y-73459220D01*
X113950011Y-82163578D02*
X108900046Y-87213543D01*
X113950011Y-73459220D02*
X113950011Y-82163578D01*
X130540000Y-52460000D02*
X129286000Y-53714000D01*
X108900046Y-91158854D02*
X102144087Y-97914813D01*
X129286000Y-53714000D02*
X129286000Y-58123231D01*
X108900046Y-87213543D02*
X108900046Y-91158854D01*
X102144087Y-97914813D02*
X102144087Y-98092684D01*
X67000000Y-73000000D02*
X66000000Y-74000000D01*
X66000000Y-74000000D02*
X61500000Y-74000000D01*
X61500000Y-74000000D02*
X60750000Y-73250000D01*
X60750000Y-73250000D02*
X60250000Y-73250000D01*
X62500000Y-106000006D02*
X60500000Y-104000006D01*
X60500000Y-104000006D02*
X60500000Y-100999982D01*
X54299995Y-101299999D02*
X53999996Y-101000000D01*
X56200000Y-103200004D02*
X54299995Y-101299999D01*
X56200000Y-106000000D02*
X56200000Y-103200004D01*
X54000014Y-100999982D02*
X53999996Y-101000000D01*
X60500000Y-100999982D02*
X54000014Y-100999982D01*
X60500000Y-103750000D02*
X60500000Y-101424246D01*
X60500000Y-101424246D02*
X60500000Y-100999982D01*
X60500000Y-103500000D02*
X60500000Y-104000006D01*
X60924264Y-100999982D02*
X60500000Y-100999982D01*
X65000000Y-100000000D02*
X64000018Y-100999982D01*
X64000018Y-100999982D02*
X60924264Y-100999982D01*
X88224264Y-85400000D02*
X87800000Y-85400000D01*
X89924973Y-85400000D02*
X88224264Y-85400000D01*
X90524979Y-86000006D02*
X89924973Y-85400000D01*
X89462620Y-81984154D02*
X90224980Y-82746514D01*
X84786156Y-81984154D02*
X89462620Y-81984154D01*
X81861157Y-84909153D02*
X84786156Y-81984154D01*
X90224980Y-82746514D02*
X90524979Y-83046513D01*
X106575021Y-86499988D02*
X106575021Y-86075843D01*
X107825033Y-87750000D02*
X106575021Y-86499988D01*
X111500000Y-89750000D02*
X112170000Y-89080000D01*
X112170000Y-89080000D02*
X116550000Y-89080000D01*
X116550000Y-92550000D02*
X116550000Y-89080000D01*
X118250000Y-94250000D02*
X116550000Y-92550000D01*
X106250000Y-84500000D02*
X106700746Y-84500000D01*
X104250000Y-82500000D02*
X106250000Y-84500000D01*
X106700746Y-84500000D02*
X107125010Y-84500000D01*
X111549999Y-87700001D02*
X111250000Y-88000000D01*
X133570001Y-87700001D02*
X111549999Y-87700001D01*
X134950000Y-89080000D02*
X133570001Y-87700001D01*
X134750000Y-88400000D02*
X132774999Y-90375001D01*
X132774999Y-90375001D02*
X132774999Y-94174999D01*
X132774999Y-94174999D02*
X132900001Y-94300001D01*
X132900001Y-94300001D02*
X133200000Y-94600000D01*
X91100010Y-104250000D02*
X91250000Y-104250000D01*
X88950000Y-106400010D02*
X91100010Y-104250000D01*
X84709000Y-118110000D02*
X84709000Y-122682000D01*
X84709000Y-122682000D02*
X78359000Y-129032000D01*
X90750000Y-103490599D02*
X90750000Y-103250000D01*
X88831837Y-105408762D02*
X90750000Y-103490599D01*
X83820000Y-122301000D02*
X78740000Y-127381000D01*
X78740000Y-127381000D02*
X78740000Y-127762000D01*
X83820000Y-118110000D02*
X83820000Y-122301000D01*
X70080000Y-145000000D02*
X71638000Y-146558000D01*
X93250000Y-81000000D02*
X95825736Y-81000000D01*
X73942000Y-146558000D02*
X88206835Y-132293165D01*
X71638000Y-146558000D02*
X73942000Y-146558000D01*
X88206835Y-132293165D02*
X88206835Y-103406754D01*
X88206835Y-103406754D02*
X91600000Y-100013589D01*
X91600000Y-100013589D02*
X91600000Y-82650000D01*
X91600000Y-82650000D02*
X93250000Y-81000000D01*
X95825736Y-81000000D02*
X96250000Y-81000000D01*
X72620000Y-113380000D02*
X81500000Y-104500000D01*
X95325726Y-80000000D02*
X95749990Y-80000000D01*
X93613589Y-80000000D02*
X95325726Y-80000000D01*
X91149989Y-82463600D02*
X93613589Y-80000000D01*
X81500000Y-104500000D02*
X84250000Y-104500000D01*
X91149989Y-97600011D02*
X91149989Y-82463600D01*
X84250000Y-104500000D02*
X91149989Y-97600011D01*
X72620000Y-145000000D02*
X72620000Y-113380000D01*
X109500000Y-103500000D02*
X109500000Y-95250000D01*
X118000000Y-112000000D02*
X109500000Y-103500000D01*
X123750000Y-112600000D02*
X119600000Y-112600000D01*
X119600000Y-112600000D02*
X110500000Y-103500000D01*
X110500000Y-103500000D02*
X110500000Y-89424264D01*
X110500000Y-89424264D02*
X110500000Y-89000000D01*
X107825032Y-85825736D02*
X107825032Y-86250000D01*
X107825032Y-84075032D02*
X107825032Y-85825736D01*
X104250000Y-80500000D02*
X107825032Y-84075032D01*
X113250000Y-56000000D02*
X104250000Y-56000000D01*
X104250000Y-56000000D02*
X103250000Y-55000000D01*
X103250000Y-55000000D02*
X103250000Y-53710000D01*
X103250000Y-53710000D02*
X102540000Y-53000000D01*
X89173989Y-98209895D02*
X89173989Y-89026011D01*
X89700001Y-88499999D02*
X90000000Y-88200000D01*
X89173989Y-89026011D02*
X89700001Y-88499999D01*
X90244551Y-97621551D02*
X90059551Y-97806551D01*
X90244551Y-90371551D02*
X90244551Y-97621551D01*
X104750000Y-91250000D02*
X102750000Y-91250000D01*
X83000000Y-143900000D02*
X89000000Y-137900000D01*
X105950011Y-91686400D02*
X105950011Y-85325001D01*
X103675009Y-83049999D02*
X103375010Y-82750000D01*
X105950011Y-85325001D02*
X103675009Y-83049999D01*
X89000000Y-137900000D02*
X89000000Y-125500000D01*
X83000000Y-145000000D02*
X83000000Y-143900000D01*
X99250000Y-115250000D02*
X99250000Y-98386411D01*
X99250000Y-98386411D02*
X105950011Y-91686400D01*
X89000000Y-125500000D02*
X99250000Y-115250000D01*
X89500000Y-129175004D02*
X102942687Y-115732317D01*
X102942687Y-98564453D02*
X102942687Y-98140189D01*
X102942687Y-115732317D02*
X102942687Y-98564453D01*
X89500000Y-141040000D02*
X89500000Y-129175004D01*
X85540000Y-145000000D02*
X89500000Y-141040000D01*
X68400000Y-117799998D02*
X68400000Y-122375002D01*
X68400000Y-122375002D02*
X68452998Y-122428000D01*
X65194264Y-99060000D02*
X64770000Y-99060000D01*
X76250000Y-89586411D02*
X66776411Y-99060000D01*
X76250000Y-74750000D02*
X76250000Y-89586411D01*
X66776411Y-99060000D02*
X65194264Y-99060000D01*
X94000000Y-70300000D02*
X80700000Y-70300000D01*
X80700000Y-70300000D02*
X76250000Y-74750000D01*
X75500000Y-89700000D02*
X75500000Y-74750000D01*
X67029000Y-98171000D02*
X75500000Y-89700000D01*
X75500000Y-74750000D02*
X83250000Y-67000000D01*
X55753000Y-98171000D02*
X67029000Y-98171000D01*
X83250000Y-67000000D02*
X94000000Y-67000000D01*
X94000000Y-67000000D02*
X94000000Y-67250000D01*
X126032114Y-56782114D02*
X126032114Y-60104297D01*
X126032114Y-60104297D02*
X111436400Y-74700011D01*
X102750000Y-80750000D02*
X102750000Y-83250000D01*
X111436400Y-74700011D02*
X108799989Y-74700011D01*
X108799989Y-74700011D02*
X102750000Y-80750000D01*
X105500000Y-91500000D02*
X100400000Y-96600000D01*
X102750000Y-83250000D02*
X105500000Y-86000000D01*
X105500000Y-86000000D02*
X105500000Y-91500000D01*
X100400000Y-96600000D02*
X94400000Y-96600000D01*
X94400000Y-96600000D02*
X94200000Y-96600000D01*
D34*
X94250000Y-83750000D02*
X101500000Y-83750000D01*
X101500000Y-83750000D02*
X103750000Y-86000000D01*
X103750000Y-89750000D02*
X103500000Y-90000000D01*
X103750000Y-86000000D02*
X103750000Y-89750000D01*
D32*
X88058656Y-83950962D02*
X89240874Y-83950962D01*
X89240874Y-83950962D02*
X89665138Y-83950962D01*
X86736897Y-82629203D02*
X88058656Y-83950962D01*
X106575021Y-87924264D02*
X106575021Y-87500000D01*
X106575021Y-91697801D02*
X106575021Y-87924264D01*
X100000000Y-98272822D02*
X106575021Y-91697801D01*
X100000000Y-113000000D02*
X100000000Y-98272822D01*
X100000000Y-113000000D02*
X100000000Y-113250000D01*
X100000000Y-113000000D02*
X100000000Y-117075728D01*
X99999992Y-117075736D02*
X99999992Y-117500000D01*
X100000000Y-117075728D02*
X99999992Y-117075736D01*
X105600000Y-129400000D02*
X106600000Y-128400000D01*
X106600000Y-128400000D02*
X106600000Y-126200000D01*
X118250000Y-71000000D02*
X118854542Y-71000000D01*
X118854542Y-71000000D02*
X122104542Y-67750000D01*
X122104542Y-67750000D02*
X124825736Y-67750000D01*
X124825736Y-67750000D02*
X125250000Y-67750000D01*
X133800000Y-67800000D02*
X133600000Y-68000000D01*
X140400000Y-67800000D02*
X133800000Y-67800000D01*
D35*
G36*
X149417000Y-149417000D02*
X50583000Y-149417000D01*
X50583000Y-145734331D01*
X51291358Y-145734331D01*
X51854678Y-147097669D01*
X52896844Y-148141656D01*
X54259197Y-148707355D01*
X55734331Y-148708642D01*
X57097669Y-148145322D01*
X58141656Y-147103156D01*
X58707355Y-145740803D01*
X58707752Y-145285750D01*
X63515000Y-145285750D01*
X63515000Y-145976309D01*
X63611673Y-146209698D01*
X63790301Y-146388327D01*
X64023690Y-146485000D01*
X64714250Y-146485000D01*
X64873000Y-146326250D01*
X64873000Y-145127000D01*
X63673750Y-145127000D01*
X63515000Y-145285750D01*
X58707752Y-145285750D01*
X58708642Y-144265669D01*
X58608659Y-144023691D01*
X63515000Y-144023691D01*
X63515000Y-144714250D01*
X63673750Y-144873000D01*
X64873000Y-144873000D01*
X64873000Y-143673750D01*
X65127000Y-143673750D01*
X65127000Y-144873000D01*
X65147000Y-144873000D01*
X65147000Y-145127000D01*
X65127000Y-145127000D01*
X65127000Y-146326250D01*
X65285750Y-146485000D01*
X65976310Y-146485000D01*
X66209699Y-146388327D01*
X66388327Y-146209698D01*
X66485000Y-145976309D01*
X66485000Y-145845054D01*
X66579749Y-145986856D01*
X67020316Y-146281233D01*
X67540000Y-146384605D01*
X68059684Y-146281233D01*
X68500251Y-145986856D01*
X68794628Y-145546289D01*
X68810000Y-145469009D01*
X68825372Y-145546289D01*
X69119749Y-145986856D01*
X69560316Y-146281233D01*
X70080000Y-146384605D01*
X70488209Y-146303407D01*
X71190399Y-147005596D01*
X71190401Y-147005599D01*
X71395761Y-147142816D01*
X71435952Y-147150810D01*
X71638000Y-147191001D01*
X71638005Y-147191000D01*
X73941995Y-147191000D01*
X73942000Y-147191001D01*
X74184239Y-147142816D01*
X74389599Y-147005599D01*
X88367000Y-133028198D01*
X88367000Y-137637803D01*
X82552401Y-143452401D01*
X82432365Y-143632048D01*
X82150000Y-143632048D01*
X81961747Y-143667470D01*
X81788847Y-143778728D01*
X81672855Y-143948488D01*
X81632048Y-144150000D01*
X81632048Y-145850000D01*
X81667470Y-146038253D01*
X81778728Y-146211153D01*
X81948488Y-146327145D01*
X82150000Y-146367952D01*
X83850000Y-146367952D01*
X84038253Y-146332530D01*
X84211153Y-146221272D01*
X84327145Y-146051512D01*
X84367952Y-145850000D01*
X84367952Y-145669879D01*
X84579749Y-145986856D01*
X85020316Y-146281233D01*
X85540000Y-146384605D01*
X86059684Y-146281233D01*
X86500251Y-145986856D01*
X86794628Y-145546289D01*
X86810000Y-145469009D01*
X86825372Y-145546289D01*
X87119749Y-145986856D01*
X87560316Y-146281233D01*
X88080000Y-146384605D01*
X88599684Y-146281233D01*
X89040251Y-145986856D01*
X89295183Y-145605322D01*
X89424817Y-145881358D01*
X89853076Y-146271645D01*
X90263110Y-146441476D01*
X90493000Y-146320155D01*
X90493000Y-145127000D01*
X90747000Y-145127000D01*
X90747000Y-146320155D01*
X90976890Y-146441476D01*
X91386924Y-146271645D01*
X91815183Y-145881358D01*
X91977235Y-145536291D01*
X98291531Y-145536291D01*
X98702931Y-146531955D01*
X99464038Y-147294392D01*
X100458982Y-147707529D01*
X101536291Y-147708469D01*
X102531955Y-147297069D01*
X103294392Y-146535962D01*
X103707529Y-145541018D01*
X103707943Y-145065750D01*
X105985000Y-145065750D01*
X105985000Y-145806310D01*
X106081673Y-146039699D01*
X106260302Y-146218327D01*
X106493691Y-146315000D01*
X107234250Y-146315000D01*
X107393000Y-146156250D01*
X107393000Y-144907000D01*
X106143750Y-144907000D01*
X105985000Y-145065750D01*
X103707943Y-145065750D01*
X103708469Y-144463709D01*
X103415096Y-143753690D01*
X105985000Y-143753690D01*
X105985000Y-144494250D01*
X106143750Y-144653000D01*
X107393000Y-144653000D01*
X107393000Y-143403750D01*
X107647000Y-143403750D01*
X107647000Y-144653000D01*
X107667000Y-144653000D01*
X107667000Y-144907000D01*
X107647000Y-144907000D01*
X107647000Y-146156250D01*
X107805750Y-146315000D01*
X108546309Y-146315000D01*
X108779698Y-146218327D01*
X108958327Y-146039699D01*
X109055000Y-145806310D01*
X109055000Y-145766197D01*
X109261391Y-145972948D01*
X109778703Y-146187755D01*
X110338840Y-146188244D01*
X110856526Y-145974340D01*
X111252948Y-145578609D01*
X111467755Y-145061297D01*
X111468244Y-144501160D01*
X111254340Y-143983474D01*
X110858609Y-143587052D01*
X110341297Y-143372245D01*
X109781160Y-143371756D01*
X109263474Y-143585660D01*
X109055000Y-143793771D01*
X109055000Y-143753690D01*
X108958327Y-143520301D01*
X108779698Y-143341673D01*
X108546309Y-143245000D01*
X107805750Y-143245000D01*
X107647000Y-143403750D01*
X107393000Y-143403750D01*
X107234250Y-143245000D01*
X106493691Y-143245000D01*
X106260302Y-143341673D01*
X106081673Y-143520301D01*
X105985000Y-143753690D01*
X103415096Y-143753690D01*
X103297069Y-143468045D01*
X102535962Y-142705608D01*
X101541018Y-142292471D01*
X100463709Y-142291531D01*
X99468045Y-142702931D01*
X98705608Y-143464038D01*
X98292471Y-144458982D01*
X98291531Y-145536291D01*
X91977235Y-145536291D01*
X92061486Y-145356892D01*
X91940819Y-145127000D01*
X90747000Y-145127000D01*
X90493000Y-145127000D01*
X90473000Y-145127000D01*
X90473000Y-144873000D01*
X90493000Y-144873000D01*
X90493000Y-143679845D01*
X90747000Y-143679845D01*
X90747000Y-144873000D01*
X91940819Y-144873000D01*
X92061486Y-144643108D01*
X91815183Y-144118642D01*
X91386924Y-143728355D01*
X90976890Y-143558524D01*
X90747000Y-143679845D01*
X90493000Y-143679845D01*
X90263110Y-143558524D01*
X89853076Y-143728355D01*
X89424817Y-144118642D01*
X89295183Y-144394678D01*
X89040251Y-144013144D01*
X88599684Y-143718767D01*
X88080000Y-143615395D01*
X87755194Y-143680003D01*
X89947596Y-141487601D01*
X89947599Y-141487599D01*
X90084816Y-141282239D01*
X90104740Y-141182074D01*
X90133001Y-141040000D01*
X90133000Y-141039995D01*
X90133000Y-129560016D01*
X104791860Y-129560016D01*
X104914611Y-129857097D01*
X105141707Y-130084590D01*
X105438574Y-130207860D01*
X105760016Y-130208140D01*
X106057097Y-130085389D01*
X106284590Y-129858293D01*
X106407860Y-129561426D01*
X106407925Y-129487273D01*
X107047596Y-128847601D01*
X107047599Y-128847599D01*
X107184816Y-128642239D01*
X107184817Y-128642238D01*
X107233001Y-128400000D01*
X107233000Y-128399995D01*
X107233000Y-126709793D01*
X107284590Y-126658293D01*
X107407860Y-126361426D01*
X107408140Y-126039984D01*
X107285389Y-125742903D01*
X107058293Y-125515410D01*
X106761426Y-125392140D01*
X106439984Y-125391860D01*
X106142903Y-125514611D01*
X105915410Y-125741707D01*
X105792140Y-126038574D01*
X105791860Y-126360016D01*
X105914611Y-126657097D01*
X105967000Y-126709578D01*
X105967000Y-128137803D01*
X105512879Y-128591923D01*
X105439984Y-128591860D01*
X105142903Y-128714611D01*
X104915410Y-128941707D01*
X104792140Y-129238574D01*
X104791860Y-129560016D01*
X90133000Y-129560016D01*
X90133000Y-129437202D01*
X92133311Y-127436890D01*
X99558524Y-127436890D01*
X99728355Y-127846924D01*
X100118642Y-128275183D01*
X100643108Y-128521486D01*
X100873000Y-128400819D01*
X100873000Y-127207000D01*
X101127000Y-127207000D01*
X101127000Y-128400819D01*
X101356892Y-128521486D01*
X101881358Y-128275183D01*
X102271645Y-127846924D01*
X102441476Y-127436890D01*
X102320155Y-127207000D01*
X101127000Y-127207000D01*
X100873000Y-127207000D01*
X99679845Y-127207000D01*
X99558524Y-127436890D01*
X92133311Y-127436890D01*
X92847091Y-126723110D01*
X99558524Y-126723110D01*
X99679845Y-126953000D01*
X100873000Y-126953000D01*
X100873000Y-126933000D01*
X101127000Y-126933000D01*
X101127000Y-126953000D01*
X102320155Y-126953000D01*
X102441476Y-126723110D01*
X102271645Y-126313076D01*
X101881358Y-125884817D01*
X101605322Y-125755183D01*
X101986856Y-125500251D01*
X102281233Y-125059684D01*
X102384605Y-124540000D01*
X102281233Y-124020316D01*
X101986856Y-123579749D01*
X101669879Y-123367952D01*
X101850000Y-123367952D01*
X102038253Y-123332530D01*
X102211153Y-123221272D01*
X102327145Y-123051512D01*
X102367952Y-122850000D01*
X102367952Y-122758000D01*
X105092290Y-122758000D01*
X112984139Y-130649849D01*
X112983860Y-130970016D01*
X113034000Y-131091364D01*
X113034000Y-138292803D01*
X110989802Y-140337000D01*
X110618571Y-140337000D01*
X110440293Y-140158410D01*
X110143426Y-140035140D01*
X109821984Y-140034860D01*
X109524903Y-140157611D01*
X109297410Y-140384707D01*
X109174140Y-140681574D01*
X109173860Y-141003016D01*
X109296611Y-141300097D01*
X109523707Y-141527590D01*
X109820574Y-141650860D01*
X110142016Y-141651140D01*
X110258524Y-141603000D01*
X111251995Y-141603000D01*
X111252000Y-141603001D01*
X111494239Y-141554816D01*
X111699599Y-141417599D01*
X113034000Y-140083197D01*
X113034000Y-140892000D01*
X113091699Y-141182074D01*
X113256013Y-141427987D01*
X116262048Y-144434022D01*
X116262048Y-145680000D01*
X116297470Y-145868253D01*
X116408728Y-146041153D01*
X116578488Y-146157145D01*
X116780000Y-146197952D01*
X118580000Y-146197952D01*
X118768253Y-146162530D01*
X118941153Y-146051272D01*
X119057145Y-145881512D01*
X119097952Y-145680000D01*
X119097952Y-145648944D01*
X119421391Y-145972948D01*
X119938703Y-146187755D01*
X120498840Y-146188244D01*
X121016526Y-145974340D01*
X121412948Y-145578609D01*
X121430519Y-145536291D01*
X123291531Y-145536291D01*
X123702931Y-146531955D01*
X124464038Y-147294392D01*
X125458982Y-147707529D01*
X126536291Y-147708469D01*
X127531955Y-147297069D01*
X128294392Y-146535962D01*
X128627258Y-145734331D01*
X141291358Y-145734331D01*
X141854678Y-147097669D01*
X142896844Y-148141656D01*
X144259197Y-148707355D01*
X145734331Y-148708642D01*
X147097669Y-148145322D01*
X148141656Y-147103156D01*
X148707355Y-145740803D01*
X148708642Y-144265669D01*
X148145322Y-142902331D01*
X147103156Y-141858344D01*
X145740803Y-141292645D01*
X144265669Y-141291358D01*
X142902331Y-141854678D01*
X141858344Y-142896844D01*
X141292645Y-144259197D01*
X141291358Y-145734331D01*
X128627258Y-145734331D01*
X128707529Y-145541018D01*
X128708469Y-144463709D01*
X128297069Y-143468045D01*
X127535962Y-142705608D01*
X126541018Y-142292471D01*
X125463709Y-142291531D01*
X124468045Y-142702931D01*
X123705608Y-143464038D01*
X123292471Y-144458982D01*
X123291531Y-145536291D01*
X121430519Y-145536291D01*
X121627755Y-145061297D01*
X121628244Y-144501160D01*
X121414340Y-143983474D01*
X121018609Y-143587052D01*
X120501297Y-143372245D01*
X119941160Y-143371756D01*
X119423474Y-143585660D01*
X119097952Y-143910615D01*
X119097952Y-143880000D01*
X119062530Y-143691747D01*
X118951272Y-143518847D01*
X118781512Y-143402855D01*
X118580000Y-143362048D01*
X117334022Y-143362048D01*
X114550000Y-140578026D01*
X114550000Y-139693970D01*
X143575635Y-139693970D01*
X143735418Y-140012739D01*
X144526187Y-140322723D01*
X145375387Y-140306497D01*
X146084582Y-140012739D01*
X146244365Y-139693970D01*
X144910000Y-138359605D01*
X143575635Y-139693970D01*
X114550000Y-139693970D01*
X114550000Y-137796187D01*
X142767277Y-137796187D01*
X142783503Y-138645387D01*
X143077261Y-139354582D01*
X143396030Y-139514365D01*
X144730395Y-138180000D01*
X145089605Y-138180000D01*
X146423970Y-139514365D01*
X146742739Y-139354582D01*
X147052723Y-138563813D01*
X147036497Y-137714613D01*
X146742739Y-137005418D01*
X146423970Y-136845635D01*
X145089605Y-138180000D01*
X144730395Y-138180000D01*
X143396030Y-136845635D01*
X143077261Y-137005418D01*
X142767277Y-137796187D01*
X114550000Y-137796187D01*
X114550000Y-136666030D01*
X143575635Y-136666030D01*
X144910000Y-138000395D01*
X146244365Y-136666030D01*
X146084582Y-136347261D01*
X145293813Y-136037277D01*
X144444613Y-136053503D01*
X143735418Y-136347261D01*
X143575635Y-136666030D01*
X114550000Y-136666030D01*
X114550000Y-134869134D01*
X140981782Y-134869134D01*
X141172897Y-135331669D01*
X141526470Y-135685859D01*
X141988670Y-135877781D01*
X142489134Y-135878218D01*
X142951669Y-135687103D01*
X143305859Y-135333530D01*
X143497781Y-134871330D01*
X143498218Y-134370866D01*
X143307103Y-133908331D01*
X142953530Y-133554141D01*
X142491330Y-133362219D01*
X141990866Y-133361782D01*
X141528331Y-133552897D01*
X141174141Y-133906470D01*
X140982219Y-134368670D01*
X140981782Y-134869134D01*
X114550000Y-134869134D01*
X114550000Y-131091502D01*
X114599860Y-130971426D01*
X114600140Y-130649984D01*
X114550000Y-130528636D01*
X114550000Y-130385736D01*
X114532774Y-130299134D01*
X140981782Y-130299134D01*
X141172897Y-130761669D01*
X141475918Y-131065219D01*
X141174141Y-131366470D01*
X140982219Y-131828670D01*
X140981782Y-132329134D01*
X141172897Y-132791669D01*
X141526470Y-133145859D01*
X141988670Y-133337781D01*
X142489134Y-133338218D01*
X142951669Y-133147103D01*
X143305859Y-132793530D01*
X143497781Y-132331330D01*
X143498218Y-131830866D01*
X143307103Y-131368331D01*
X143004082Y-131064781D01*
X143305859Y-130763530D01*
X143497781Y-130301330D01*
X143498218Y-129800866D01*
X143307103Y-129338331D01*
X142953530Y-128984141D01*
X142643233Y-128855295D01*
X142963923Y-128722460D01*
X143031912Y-128481517D01*
X142240000Y-127689605D01*
X141448088Y-128481517D01*
X141516077Y-128722460D01*
X141861294Y-128845320D01*
X141528331Y-128982897D01*
X141174141Y-129336470D01*
X140982219Y-129798670D01*
X140981782Y-130299134D01*
X114532774Y-130299134D01*
X114492301Y-130095662D01*
X114327987Y-129849749D01*
X111783409Y-127305171D01*
X140842799Y-127305171D01*
X140870770Y-127855448D01*
X141027540Y-128233923D01*
X141268483Y-128301912D01*
X142060395Y-127510000D01*
X142419605Y-127510000D01*
X143211517Y-128301912D01*
X143452460Y-128233923D01*
X143637201Y-127714829D01*
X143609230Y-127164552D01*
X143452460Y-126786077D01*
X143211517Y-126718088D01*
X142419605Y-127510000D01*
X142060395Y-127510000D01*
X141268483Y-126718088D01*
X141027540Y-126786077D01*
X140842799Y-127305171D01*
X111783409Y-127305171D01*
X111016721Y-126538483D01*
X141448088Y-126538483D01*
X142240000Y-127330395D01*
X143031912Y-126538483D01*
X142963923Y-126297540D01*
X142444829Y-126112799D01*
X141894552Y-126140770D01*
X141516077Y-126297540D01*
X141448088Y-126538483D01*
X111016721Y-126538483D01*
X109744839Y-125266601D01*
X117113566Y-125266601D01*
X117318081Y-125761565D01*
X117696443Y-126140588D01*
X118191049Y-126345966D01*
X118726601Y-126346434D01*
X119221565Y-126141919D01*
X119600588Y-125763557D01*
X119730065Y-125451742D01*
X119858081Y-125761565D01*
X120236443Y-126140588D01*
X120731049Y-126345966D01*
X121266601Y-126346434D01*
X121761565Y-126141919D01*
X122066800Y-125837216D01*
X122066800Y-125964510D01*
X122163473Y-126197899D01*
X122342102Y-126376527D01*
X122575491Y-126473200D01*
X123254250Y-126473200D01*
X123413000Y-126314450D01*
X123413000Y-125127000D01*
X123667000Y-125127000D01*
X123667000Y-126314450D01*
X123825750Y-126473200D01*
X124504509Y-126473200D01*
X124737898Y-126376527D01*
X124916527Y-126197899D01*
X125009281Y-125973970D01*
X143575635Y-125973970D01*
X143735418Y-126292739D01*
X144526187Y-126602723D01*
X145375387Y-126586497D01*
X146084582Y-126292739D01*
X146244365Y-125973970D01*
X144910000Y-124639605D01*
X143575635Y-125973970D01*
X125009281Y-125973970D01*
X125013200Y-125964510D01*
X125013200Y-125285750D01*
X124854450Y-125127000D01*
X123667000Y-125127000D01*
X123413000Y-125127000D01*
X123393000Y-125127000D01*
X123393000Y-124873000D01*
X123413000Y-124873000D01*
X123413000Y-123685550D01*
X123667000Y-123685550D01*
X123667000Y-124873000D01*
X124854450Y-124873000D01*
X125013200Y-124714250D01*
X125013200Y-124076187D01*
X142767277Y-124076187D01*
X142783503Y-124925387D01*
X143077261Y-125634582D01*
X143396030Y-125794365D01*
X144730395Y-124460000D01*
X145089605Y-124460000D01*
X146423970Y-125794365D01*
X146742739Y-125634582D01*
X147052723Y-124843813D01*
X147036497Y-123994613D01*
X146742739Y-123285418D01*
X146423970Y-123125635D01*
X145089605Y-124460000D01*
X144730395Y-124460000D01*
X143396030Y-123125635D01*
X143077261Y-123285418D01*
X142767277Y-124076187D01*
X125013200Y-124076187D01*
X125013200Y-124035490D01*
X124916527Y-123802101D01*
X124737898Y-123623473D01*
X124504509Y-123526800D01*
X123825750Y-123526800D01*
X123667000Y-123685550D01*
X123413000Y-123685550D01*
X123254250Y-123526800D01*
X122575491Y-123526800D01*
X122342102Y-123623473D01*
X122163473Y-123802101D01*
X122066800Y-124035490D01*
X122066800Y-124163185D01*
X121763557Y-123859412D01*
X121268951Y-123654034D01*
X120733399Y-123653566D01*
X120238435Y-123858081D01*
X119859412Y-124236443D01*
X119729935Y-124548258D01*
X119601919Y-124238435D01*
X119223557Y-123859412D01*
X118728951Y-123654034D01*
X118193399Y-123653566D01*
X117698435Y-123858081D01*
X117319412Y-124236443D01*
X117114034Y-124731049D01*
X117113566Y-125266601D01*
X109744839Y-125266601D01*
X107424268Y-122946030D01*
X143575635Y-122946030D01*
X144910000Y-124280395D01*
X146244365Y-122946030D01*
X146084582Y-122627261D01*
X145293813Y-122317277D01*
X144444613Y-122333503D01*
X143735418Y-122627261D01*
X143575635Y-122946030D01*
X107424268Y-122946030D01*
X105942251Y-121464013D01*
X105696338Y-121299699D01*
X105406264Y-121242000D01*
X102367952Y-121242000D01*
X102367952Y-121150000D01*
X102332530Y-120961747D01*
X102221272Y-120788847D01*
X102051512Y-120672855D01*
X101850000Y-120632048D01*
X100150000Y-120632048D01*
X99961747Y-120667470D01*
X99788847Y-120778728D01*
X99672855Y-120948488D01*
X99632048Y-121150000D01*
X99632048Y-122850000D01*
X99667470Y-123038253D01*
X99778728Y-123211153D01*
X99948488Y-123327145D01*
X100150000Y-123367952D01*
X100330121Y-123367952D01*
X100013144Y-123579749D01*
X99718767Y-124020316D01*
X99615395Y-124540000D01*
X99718767Y-125059684D01*
X100013144Y-125500251D01*
X100394678Y-125755183D01*
X100118642Y-125884817D01*
X99728355Y-126313076D01*
X99558524Y-126723110D01*
X92847091Y-126723110D01*
X100196231Y-119373970D01*
X143575635Y-119373970D01*
X143735418Y-119692739D01*
X144526187Y-120002723D01*
X145375387Y-119986497D01*
X146084582Y-119692739D01*
X146244365Y-119373970D01*
X144910000Y-118039605D01*
X143575635Y-119373970D01*
X100196231Y-119373970D01*
X102094014Y-117476187D01*
X142767277Y-117476187D01*
X142783503Y-118325387D01*
X143077261Y-119034582D01*
X143396030Y-119194365D01*
X144730395Y-117860000D01*
X145089605Y-117860000D01*
X146423970Y-119194365D01*
X146742739Y-119034582D01*
X147052723Y-118243813D01*
X147036497Y-117394613D01*
X146742739Y-116685418D01*
X146423970Y-116525635D01*
X145089605Y-117860000D01*
X144730395Y-117860000D01*
X143396030Y-116525635D01*
X143077261Y-116685418D01*
X142767277Y-117476187D01*
X102094014Y-117476187D01*
X103224171Y-116346030D01*
X143575635Y-116346030D01*
X144910000Y-117680395D01*
X146244365Y-116346030D01*
X146084582Y-116027261D01*
X145293813Y-115717277D01*
X144444613Y-115733503D01*
X143735418Y-116027261D01*
X143575635Y-116346030D01*
X103224171Y-116346030D01*
X103390283Y-116179918D01*
X103390286Y-116179916D01*
X103527503Y-115974556D01*
X103575687Y-115732317D01*
X103575687Y-114549134D01*
X140981782Y-114549134D01*
X141172897Y-115011669D01*
X141526470Y-115365859D01*
X141988670Y-115557781D01*
X142489134Y-115558218D01*
X142951669Y-115367103D01*
X143305859Y-115013530D01*
X143497781Y-114551330D01*
X143498218Y-114050866D01*
X143307103Y-113588331D01*
X142953530Y-113234141D01*
X142491330Y-113042219D01*
X141990866Y-113041782D01*
X141528331Y-113232897D01*
X141174141Y-113586470D01*
X140982219Y-114048670D01*
X140981782Y-114549134D01*
X103575687Y-114549134D01*
X103575687Y-112150000D01*
X105632048Y-112150000D01*
X105632048Y-113850000D01*
X105667470Y-114038253D01*
X105778728Y-114211153D01*
X105948488Y-114327145D01*
X106150000Y-114367952D01*
X107850000Y-114367952D01*
X108038253Y-114332530D01*
X108211153Y-114221272D01*
X108327145Y-114051512D01*
X108358987Y-113894271D01*
X108773076Y-114271645D01*
X109183110Y-114441476D01*
X109413000Y-114320155D01*
X109413000Y-113127000D01*
X109393000Y-113127000D01*
X109393000Y-112873000D01*
X109413000Y-112873000D01*
X109413000Y-111679845D01*
X109667000Y-111679845D01*
X109667000Y-112873000D01*
X109687000Y-112873000D01*
X109687000Y-113127000D01*
X109667000Y-113127000D01*
X109667000Y-114320155D01*
X109896890Y-114441476D01*
X110306924Y-114271645D01*
X110735183Y-113881358D01*
X110864817Y-113605322D01*
X111119749Y-113986856D01*
X111560316Y-114281233D01*
X112080000Y-114384605D01*
X112599684Y-114281233D01*
X113040251Y-113986856D01*
X113295183Y-113605322D01*
X113424817Y-113881358D01*
X113853076Y-114271645D01*
X114263110Y-114441476D01*
X114493000Y-114320155D01*
X114493000Y-113127000D01*
X114747000Y-113127000D01*
X114747000Y-114320155D01*
X114976890Y-114441476D01*
X115386924Y-114271645D01*
X115815183Y-113881358D01*
X116061486Y-113356892D01*
X115940819Y-113127000D01*
X114747000Y-113127000D01*
X114493000Y-113127000D01*
X114473000Y-113127000D01*
X114473000Y-112873000D01*
X114493000Y-112873000D01*
X114493000Y-111679845D01*
X114747000Y-111679845D01*
X114747000Y-112873000D01*
X115940819Y-112873000D01*
X116061486Y-112643108D01*
X115815183Y-112118642D01*
X115386924Y-111728355D01*
X114976890Y-111558524D01*
X114747000Y-111679845D01*
X114493000Y-111679845D01*
X114263110Y-111558524D01*
X113853076Y-111728355D01*
X113424817Y-112118642D01*
X113295183Y-112394678D01*
X113040251Y-112013144D01*
X112599684Y-111718767D01*
X112080000Y-111615395D01*
X111560316Y-111718767D01*
X111119749Y-112013144D01*
X110864817Y-112394678D01*
X110735183Y-112118642D01*
X110306924Y-111728355D01*
X109896890Y-111558524D01*
X109667000Y-111679845D01*
X109413000Y-111679845D01*
X109183110Y-111558524D01*
X108773076Y-111728355D01*
X108359529Y-112105235D01*
X108332530Y-111961747D01*
X108221272Y-111788847D01*
X108051512Y-111672855D01*
X107850000Y-111632048D01*
X106150000Y-111632048D01*
X105961747Y-111667470D01*
X105788847Y-111778728D01*
X105672855Y-111948488D01*
X105632048Y-112150000D01*
X103575687Y-112150000D01*
X103575687Y-98649982D01*
X103627277Y-98598482D01*
X103750547Y-98301615D01*
X103750827Y-97980173D01*
X103628076Y-97683092D01*
X103449697Y-97504401D01*
X106191989Y-94762109D01*
X106191860Y-94910016D01*
X106314611Y-95207097D01*
X106541707Y-95434590D01*
X106838574Y-95557860D01*
X107160016Y-95558140D01*
X107457097Y-95435389D01*
X107684590Y-95208293D01*
X107807860Y-94911426D01*
X107807925Y-94837273D01*
X109797653Y-92847544D01*
X109797656Y-92847542D01*
X109867000Y-92743761D01*
X109867000Y-94527502D01*
X109661426Y-94442140D01*
X109339984Y-94441860D01*
X109042903Y-94564611D01*
X108815410Y-94791707D01*
X108692140Y-95088574D01*
X108691860Y-95410016D01*
X108814611Y-95707097D01*
X108867000Y-95759578D01*
X108867000Y-103499995D01*
X108866999Y-103500000D01*
X108915184Y-103742239D01*
X109052401Y-103947599D01*
X117191923Y-112087121D01*
X117191860Y-112160016D01*
X117314611Y-112457097D01*
X117541707Y-112684590D01*
X117838574Y-112807860D01*
X118160016Y-112808140D01*
X118457097Y-112685389D01*
X118623790Y-112518987D01*
X119152399Y-113047596D01*
X119152401Y-113047599D01*
X119357761Y-113184816D01*
X119600000Y-113233000D01*
X123240207Y-113233000D01*
X123291707Y-113284590D01*
X123588574Y-113407860D01*
X123910016Y-113408140D01*
X124207097Y-113285389D01*
X124434590Y-113058293D01*
X124557860Y-112761426D01*
X124558140Y-112439984D01*
X124435389Y-112142903D01*
X124208293Y-111915410D01*
X123911426Y-111792140D01*
X123589984Y-111791860D01*
X123292903Y-111914611D01*
X123240422Y-111967000D01*
X119862197Y-111967000D01*
X115528197Y-107633000D01*
X120724394Y-107633000D01*
X120565410Y-107791707D01*
X120442140Y-108088574D01*
X120441860Y-108410016D01*
X120564611Y-108707097D01*
X120617000Y-108759578D01*
X120617000Y-108999995D01*
X120616999Y-109000000D01*
X120665184Y-109242239D01*
X120802401Y-109447599D01*
X122191923Y-110837121D01*
X122191860Y-110910016D01*
X122314611Y-111207097D01*
X122541707Y-111434590D01*
X122838574Y-111557860D01*
X123160016Y-111558140D01*
X123457097Y-111435389D01*
X123684590Y-111208293D01*
X123807860Y-110911426D01*
X123808140Y-110589984D01*
X123685389Y-110292903D01*
X123458293Y-110065410D01*
X123250518Y-109979134D01*
X140981782Y-109979134D01*
X141172897Y-110441669D01*
X141475918Y-110745219D01*
X141174141Y-111046470D01*
X140982219Y-111508670D01*
X140981782Y-112009134D01*
X141172897Y-112471669D01*
X141526470Y-112825859D01*
X141988670Y-113017781D01*
X142489134Y-113018218D01*
X142951669Y-112827103D01*
X143305859Y-112473530D01*
X143497781Y-112011330D01*
X143498218Y-111510866D01*
X143307103Y-111048331D01*
X143004082Y-110744781D01*
X143305859Y-110443530D01*
X143497781Y-109981330D01*
X143498218Y-109480866D01*
X143307103Y-109018331D01*
X142953530Y-108664141D01*
X142643233Y-108535295D01*
X142963923Y-108402460D01*
X143031912Y-108161517D01*
X142240000Y-107369605D01*
X141448088Y-108161517D01*
X141516077Y-108402460D01*
X141861294Y-108525320D01*
X141528331Y-108662897D01*
X141174141Y-109016470D01*
X140982219Y-109478670D01*
X140981782Y-109979134D01*
X123250518Y-109979134D01*
X123161426Y-109942140D01*
X123087273Y-109942075D01*
X121894005Y-108748807D01*
X121934590Y-108708293D01*
X122057860Y-108411426D01*
X122058140Y-108089984D01*
X121935389Y-107792903D01*
X121775765Y-107633000D01*
X121999995Y-107633000D01*
X122000000Y-107633001D01*
X122242239Y-107584816D01*
X122447599Y-107447599D01*
X122910026Y-106985171D01*
X140842799Y-106985171D01*
X140870770Y-107535448D01*
X141027540Y-107913923D01*
X141268483Y-107981912D01*
X142060395Y-107190000D01*
X142419605Y-107190000D01*
X143211517Y-107981912D01*
X143452460Y-107913923D01*
X143637201Y-107394829D01*
X143609230Y-106844552D01*
X143452460Y-106466077D01*
X143211517Y-106398088D01*
X142419605Y-107190000D01*
X142060395Y-107190000D01*
X141268483Y-106398088D01*
X141027540Y-106466077D01*
X140842799Y-106985171D01*
X122910026Y-106985171D01*
X123087197Y-106808000D01*
X123600000Y-106808000D01*
X123985745Y-106731271D01*
X124312764Y-106512764D01*
X124509396Y-106218483D01*
X141448088Y-106218483D01*
X142240000Y-107010395D01*
X143031912Y-106218483D01*
X142963923Y-105977540D01*
X142444829Y-105792799D01*
X141894552Y-105820770D01*
X141516077Y-105977540D01*
X141448088Y-106218483D01*
X124509396Y-106218483D01*
X124531271Y-106185745D01*
X124608000Y-105800000D01*
X124578953Y-105653970D01*
X143575635Y-105653970D01*
X143735418Y-105972739D01*
X144526187Y-106282723D01*
X145375387Y-106266497D01*
X146084582Y-105972739D01*
X146244365Y-105653970D01*
X144910000Y-104319605D01*
X143575635Y-105653970D01*
X124578953Y-105653970D01*
X124531271Y-105414255D01*
X124312764Y-105087236D01*
X123985745Y-104868729D01*
X123600000Y-104792000D01*
X123217528Y-104792000D01*
X122181715Y-103756187D01*
X142767277Y-103756187D01*
X142783503Y-104605387D01*
X143077261Y-105314582D01*
X143396030Y-105474365D01*
X144730395Y-104140000D01*
X145089605Y-104140000D01*
X146423970Y-105474365D01*
X146742739Y-105314582D01*
X147052723Y-104523813D01*
X147036497Y-103674613D01*
X146742739Y-102965418D01*
X146423970Y-102805635D01*
X145089605Y-104140000D01*
X144730395Y-104140000D01*
X143396030Y-102805635D01*
X143077261Y-102965418D01*
X142767277Y-103756187D01*
X122181715Y-103756187D01*
X121051558Y-102626030D01*
X143575635Y-102626030D01*
X144910000Y-103960395D01*
X146244365Y-102626030D01*
X146084582Y-102307261D01*
X145293813Y-101997277D01*
X144444613Y-102013503D01*
X143735418Y-102307261D01*
X143575635Y-102626030D01*
X121051558Y-102626030D01*
X121008000Y-102582472D01*
X121008000Y-99760016D01*
X122741860Y-99760016D01*
X122864611Y-100057097D01*
X123091707Y-100284590D01*
X123388574Y-100407860D01*
X123710016Y-100408140D01*
X124007097Y-100285389D01*
X124234590Y-100058293D01*
X124357860Y-99761426D01*
X124357925Y-99687273D01*
X125597596Y-98447601D01*
X125597599Y-98447599D01*
X125734816Y-98242239D01*
X125755115Y-98140189D01*
X125783001Y-98000000D01*
X125783000Y-97999995D01*
X125783000Y-94109793D01*
X125834590Y-94058293D01*
X125957860Y-93761426D01*
X125958140Y-93439984D01*
X125835389Y-93142903D01*
X125608293Y-92915410D01*
X125311426Y-92792140D01*
X124989984Y-92791860D01*
X124692903Y-92914611D01*
X124465410Y-93141707D01*
X124342140Y-93438574D01*
X124341860Y-93760016D01*
X124464611Y-94057097D01*
X124517000Y-94109578D01*
X124517000Y-97737803D01*
X123462879Y-98791923D01*
X123389984Y-98791860D01*
X123092903Y-98914611D01*
X122865410Y-99141707D01*
X122742140Y-99438574D01*
X122741860Y-99760016D01*
X121008000Y-99760016D01*
X121008000Y-95395064D01*
X121181271Y-95135745D01*
X121258000Y-94750000D01*
X121258000Y-91760016D01*
X121991860Y-91760016D01*
X122114611Y-92057097D01*
X122341707Y-92284590D01*
X122638574Y-92407860D01*
X122960016Y-92408140D01*
X123081364Y-92358000D01*
X129518498Y-92358000D01*
X129638574Y-92407860D01*
X129960016Y-92408140D01*
X130257097Y-92285389D01*
X130484590Y-92058293D01*
X130607860Y-91761426D01*
X130608140Y-91439984D01*
X130485389Y-91142903D01*
X130258293Y-90915410D01*
X129961426Y-90792140D01*
X129639984Y-90791860D01*
X129518636Y-90842000D01*
X123081502Y-90842000D01*
X122961426Y-90792140D01*
X122639984Y-90791860D01*
X122342903Y-90914611D01*
X122115410Y-91141707D01*
X121992140Y-91438574D01*
X121991860Y-91760016D01*
X121258000Y-91760016D01*
X121258000Y-89250000D01*
X121181271Y-88864255D01*
X120962764Y-88537236D01*
X120657105Y-88333001D01*
X133307803Y-88333001D01*
X133614803Y-88640000D01*
X132327400Y-89927402D01*
X132190183Y-90132762D01*
X132141998Y-90375001D01*
X132141999Y-90375006D01*
X132141999Y-94174994D01*
X132141998Y-94174999D01*
X132190183Y-94417238D01*
X132327400Y-94622598D01*
X132391923Y-94687121D01*
X132391860Y-94760016D01*
X132514611Y-95057097D01*
X132741707Y-95284590D01*
X133038574Y-95407860D01*
X133360016Y-95408140D01*
X133657097Y-95285389D01*
X133884590Y-95058293D01*
X134007860Y-94761426D01*
X134008140Y-94439984D01*
X133885389Y-94142903D01*
X133658293Y-93915410D01*
X133407999Y-93811479D01*
X133407999Y-90637199D01*
X133485181Y-90560016D01*
X137941860Y-90560016D01*
X138064611Y-90857097D01*
X138291707Y-91084590D01*
X138317000Y-91095093D01*
X138317000Y-99290207D01*
X138265410Y-99341707D01*
X138142140Y-99638574D01*
X138141860Y-99960016D01*
X138264611Y-100257097D01*
X138491707Y-100484590D01*
X138788574Y-100607860D01*
X139110016Y-100608140D01*
X139407097Y-100485389D01*
X139634590Y-100258293D01*
X139757860Y-99961426D01*
X139758140Y-99639984D01*
X139635389Y-99342903D01*
X139583000Y-99290422D01*
X139583000Y-90600005D01*
X139583001Y-90600000D01*
X139557936Y-90473993D01*
X139558140Y-90239984D01*
X139435389Y-89942903D01*
X139208293Y-89715410D01*
X138911426Y-89592140D01*
X138589984Y-89591860D01*
X138292903Y-89714611D01*
X138065410Y-89941707D01*
X137942140Y-90238574D01*
X137941860Y-90560016D01*
X133485181Y-90560016D01*
X134020927Y-90024270D01*
X134025104Y-90030521D01*
X134449450Y-90314059D01*
X134950000Y-90413625D01*
X135450550Y-90314059D01*
X135874896Y-90030521D01*
X136158434Y-89606175D01*
X136258000Y-89105625D01*
X136258000Y-89054375D01*
X136158434Y-88553825D01*
X135874896Y-88129479D01*
X135450550Y-87845941D01*
X134950000Y-87746375D01*
X134798156Y-87776579D01*
X134750000Y-87767000D01*
X134568333Y-87803136D01*
X134017600Y-87252402D01*
X133812240Y-87115185D01*
X133570001Y-87067000D01*
X133569996Y-87067001D01*
X125075702Y-87067001D01*
X125184590Y-86958303D01*
X125307860Y-86661436D01*
X125308140Y-86339994D01*
X125185389Y-86042913D01*
X125133000Y-85990432D01*
X125133000Y-85007745D01*
X134121861Y-85007745D01*
X134195995Y-85253864D01*
X134733223Y-85446965D01*
X135303454Y-85419778D01*
X135704005Y-85253864D01*
X135778139Y-85007745D01*
X134950000Y-84179605D01*
X134121861Y-85007745D01*
X125133000Y-85007745D01*
X125133000Y-83783223D01*
X133503035Y-83783223D01*
X133530222Y-84353454D01*
X133696136Y-84754005D01*
X133942255Y-84828139D01*
X134770395Y-84000000D01*
X135129605Y-84000000D01*
X135957745Y-84828139D01*
X136203864Y-84754005D01*
X136396965Y-84216777D01*
X136369778Y-83646546D01*
X136203864Y-83245995D01*
X135957745Y-83171861D01*
X135129605Y-84000000D01*
X134770395Y-84000000D01*
X133942255Y-83171861D01*
X133696136Y-83245995D01*
X133503035Y-83783223D01*
X125133000Y-83783223D01*
X125133000Y-82992255D01*
X134121861Y-82992255D01*
X134950000Y-83820395D01*
X135778139Y-82992255D01*
X135704005Y-82746136D01*
X135166777Y-82553035D01*
X134596546Y-82580222D01*
X134195995Y-82746136D01*
X134121861Y-82992255D01*
X125133000Y-82992255D01*
X125133000Y-78000005D01*
X125133001Y-78000000D01*
X125084816Y-77757762D01*
X125084816Y-77757761D01*
X124947599Y-77552401D01*
X122633000Y-75237802D01*
X122633000Y-74009793D01*
X122684590Y-73958293D01*
X122807860Y-73661426D01*
X122808140Y-73339984D01*
X122733779Y-73160016D01*
X136191860Y-73160016D01*
X136314611Y-73457097D01*
X136367000Y-73509578D01*
X136367000Y-81249993D01*
X136366999Y-81249998D01*
X136415184Y-81492237D01*
X136552401Y-81697597D01*
X137802399Y-82947594D01*
X137802402Y-82947599D01*
X138338291Y-83483486D01*
X138441894Y-83587089D01*
X138441830Y-83660016D01*
X138564581Y-83957097D01*
X138791677Y-84184590D01*
X139088544Y-84307860D01*
X139409986Y-84308140D01*
X139707067Y-84185389D01*
X139934560Y-83958293D01*
X140057830Y-83661426D01*
X140058110Y-83339984D01*
X139935359Y-83042903D01*
X139708263Y-82815410D01*
X139411396Y-82692140D01*
X139337274Y-82692075D01*
X139225421Y-82580222D01*
X137633000Y-80987800D01*
X137633000Y-73509793D01*
X137684590Y-73458293D01*
X137807860Y-73161426D01*
X137808140Y-72839984D01*
X137685389Y-72542903D01*
X137458293Y-72315410D01*
X137161426Y-72192140D01*
X136839984Y-72191860D01*
X136542903Y-72314611D01*
X136315410Y-72541707D01*
X136192140Y-72838574D01*
X136191860Y-73160016D01*
X122733779Y-73160016D01*
X122685389Y-73042903D01*
X122458293Y-72815410D01*
X122161426Y-72692140D01*
X121839984Y-72691860D01*
X121542903Y-72814611D01*
X121315410Y-73041707D01*
X121192140Y-73338574D01*
X121191860Y-73660016D01*
X121314611Y-73957097D01*
X121367000Y-74009578D01*
X121367000Y-75499995D01*
X121366999Y-75500000D01*
X121415184Y-75742239D01*
X121552401Y-75947599D01*
X123867000Y-78262198D01*
X123867000Y-85990217D01*
X123815410Y-86041717D01*
X123692140Y-86338584D01*
X123691860Y-86660026D01*
X123814611Y-86957107D01*
X123924313Y-87067001D01*
X111550004Y-87067001D01*
X111549999Y-87067000D01*
X111347951Y-87107191D01*
X111307760Y-87115185D01*
X111192873Y-87191950D01*
X111089984Y-87191860D01*
X110792903Y-87314611D01*
X110565410Y-87541707D01*
X110442140Y-87838574D01*
X110441860Y-88160016D01*
X110455059Y-88191960D01*
X110339984Y-88191860D01*
X110042903Y-88314611D01*
X109983057Y-88374353D01*
X109983057Y-87662141D01*
X112637453Y-85007745D01*
X115721861Y-85007745D01*
X115795995Y-85253864D01*
X116333223Y-85446965D01*
X116903454Y-85419778D01*
X117304005Y-85253864D01*
X117378139Y-85007745D01*
X116550000Y-84179605D01*
X115721861Y-85007745D01*
X112637453Y-85007745D01*
X113861975Y-83783223D01*
X115103035Y-83783223D01*
X115130222Y-84353454D01*
X115296136Y-84754005D01*
X115542255Y-84828139D01*
X116370395Y-84000000D01*
X116729605Y-84000000D01*
X117557745Y-84828139D01*
X117803864Y-84754005D01*
X117996965Y-84216777D01*
X117969778Y-83646546D01*
X117803864Y-83245995D01*
X117557745Y-83171861D01*
X116729605Y-84000000D01*
X116370395Y-84000000D01*
X115542255Y-83171861D01*
X115296136Y-83245995D01*
X115103035Y-83783223D01*
X113861975Y-83783223D01*
X114652943Y-82992255D01*
X115721861Y-82992255D01*
X116550000Y-83820395D01*
X117378139Y-82992255D01*
X117304005Y-82746136D01*
X116766777Y-82553035D01*
X116196546Y-82580222D01*
X115795995Y-82746136D01*
X115721861Y-82992255D01*
X114652943Y-82992255D01*
X114847621Y-82797577D01*
X114984838Y-82592217D01*
X115033023Y-82349978D01*
X115033022Y-82349973D01*
X115033022Y-73907817D01*
X117540966Y-71399872D01*
X117564611Y-71457097D01*
X117791707Y-71684590D01*
X118088574Y-71807860D01*
X118410016Y-71808140D01*
X118707097Y-71685389D01*
X118759578Y-71633000D01*
X118854537Y-71633000D01*
X118854542Y-71633001D01*
X119096781Y-71584816D01*
X119302141Y-71447599D01*
X122366740Y-68383000D01*
X124740207Y-68383000D01*
X124791707Y-68434590D01*
X125088574Y-68557860D01*
X125410016Y-68558140D01*
X125707097Y-68435389D01*
X125934590Y-68208293D01*
X125954636Y-68160016D01*
X132791860Y-68160016D01*
X132914611Y-68457097D01*
X133141707Y-68684590D01*
X133438574Y-68807860D01*
X133760016Y-68808140D01*
X134057097Y-68685389D01*
X134284590Y-68458293D01*
X134295093Y-68433000D01*
X139890207Y-68433000D01*
X139941707Y-68484590D01*
X140238574Y-68607860D01*
X140560016Y-68608140D01*
X140857097Y-68485389D01*
X141084590Y-68258293D01*
X141207860Y-67961426D01*
X141208140Y-67639984D01*
X141085389Y-67342903D01*
X140858293Y-67115410D01*
X140561426Y-66992140D01*
X140239984Y-66991860D01*
X139942903Y-67114611D01*
X139890422Y-67167000D01*
X133800005Y-67167000D01*
X133800000Y-67166999D01*
X133673993Y-67192064D01*
X133439984Y-67191860D01*
X133142903Y-67314611D01*
X132915410Y-67541707D01*
X132792140Y-67838574D01*
X132791860Y-68160016D01*
X125954636Y-68160016D01*
X126057860Y-67911426D01*
X126058140Y-67589984D01*
X125935389Y-67292903D01*
X125708293Y-67065410D01*
X125411426Y-66942140D01*
X125089984Y-66941860D01*
X124792903Y-67064611D01*
X124740422Y-67117000D01*
X122104547Y-67117000D01*
X122104542Y-67116999D01*
X121862303Y-67165184D01*
X121656943Y-67302401D01*
X118662817Y-70296527D01*
X118649741Y-70291097D01*
X130979820Y-57961018D01*
X131632401Y-58613599D01*
X131652608Y-58627101D01*
X131875707Y-58850590D01*
X132172574Y-58973860D01*
X132494016Y-58974140D01*
X132791097Y-58851389D01*
X133018590Y-58624293D01*
X133141860Y-58327426D01*
X133142140Y-58005984D01*
X133019389Y-57708903D01*
X132792293Y-57481410D01*
X132495426Y-57358140D01*
X132173984Y-57357860D01*
X132169083Y-57359885D01*
X131173000Y-56363802D01*
X131173000Y-56205518D01*
X131500251Y-55986856D01*
X131794628Y-55546289D01*
X131810000Y-55469009D01*
X131825372Y-55546289D01*
X132119749Y-55986856D01*
X132560316Y-56281233D01*
X133080000Y-56384605D01*
X133599684Y-56281233D01*
X134040251Y-55986856D01*
X134208982Y-55734331D01*
X141291358Y-55734331D01*
X141854678Y-57097669D01*
X142896844Y-58141656D01*
X144259197Y-58707355D01*
X145734331Y-58708642D01*
X147097669Y-58145322D01*
X148141656Y-57103156D01*
X148707355Y-55740803D01*
X148708642Y-54265669D01*
X148145322Y-52902331D01*
X147103156Y-51858344D01*
X145740803Y-51292645D01*
X144265669Y-51291358D01*
X142902331Y-51854678D01*
X141858344Y-52896844D01*
X141292645Y-54259197D01*
X141291358Y-55734331D01*
X134208982Y-55734331D01*
X134334628Y-55546289D01*
X134438000Y-55026605D01*
X134438000Y-54973395D01*
X134334628Y-54453711D01*
X134040251Y-54013144D01*
X133706193Y-53789934D01*
X133846924Y-53731645D01*
X134275183Y-53341358D01*
X134521486Y-52816892D01*
X134400819Y-52587000D01*
X133207000Y-52587000D01*
X133207000Y-52607000D01*
X132953000Y-52607000D01*
X132953000Y-52587000D01*
X132933000Y-52587000D01*
X132933000Y-52333000D01*
X132953000Y-52333000D01*
X132953000Y-51139845D01*
X133207000Y-51139845D01*
X133207000Y-52333000D01*
X134400819Y-52333000D01*
X134521486Y-52103108D01*
X134275183Y-51578642D01*
X133846924Y-51188355D01*
X133436890Y-51018524D01*
X133207000Y-51139845D01*
X132953000Y-51139845D01*
X132723110Y-51018524D01*
X132313076Y-51188355D01*
X131884817Y-51578642D01*
X131755183Y-51854678D01*
X131500251Y-51473144D01*
X131059684Y-51178767D01*
X130540000Y-51075395D01*
X130020316Y-51178767D01*
X129579749Y-51473144D01*
X129285372Y-51913711D01*
X129270000Y-51990991D01*
X129254628Y-51913711D01*
X128960251Y-51473144D01*
X128519684Y-51178767D01*
X128000000Y-51075395D01*
X127480316Y-51178767D01*
X127039749Y-51473144D01*
X126745372Y-51913711D01*
X126667060Y-52307412D01*
X126518190Y-52456282D01*
X126204254Y-52518728D01*
X125877235Y-52737235D01*
X125737235Y-52877235D01*
X125518728Y-53204254D01*
X125456282Y-53518191D01*
X118537236Y-60437236D01*
X118318729Y-60764255D01*
X118241999Y-61150000D01*
X118242000Y-61150005D01*
X118242000Y-63500000D01*
X118318729Y-63885745D01*
X118537236Y-64212764D01*
X118864255Y-64431271D01*
X119250000Y-64508000D01*
X119635745Y-64431271D01*
X119962764Y-64212764D01*
X120181271Y-63885745D01*
X120258000Y-63500000D01*
X120258000Y-61567528D01*
X125238040Y-56587487D01*
X125224254Y-56620688D01*
X125223974Y-56942130D01*
X125346725Y-57239211D01*
X125399114Y-57291692D01*
X125399114Y-58442135D01*
X125089984Y-58441866D01*
X124792903Y-58564617D01*
X124565410Y-58791713D01*
X124442140Y-59088580D01*
X124441860Y-59410022D01*
X124564611Y-59707103D01*
X124617000Y-59759584D01*
X124617000Y-59987802D01*
X112111952Y-72492850D01*
X112111952Y-71032000D01*
X112076530Y-70843747D01*
X111965272Y-70670847D01*
X111795512Y-70554855D01*
X111594000Y-70514048D01*
X111427091Y-70514048D01*
X111704251Y-70328856D01*
X111998628Y-69888289D01*
X112102000Y-69368605D01*
X112102000Y-69315395D01*
X111998628Y-68795711D01*
X111704251Y-68355144D01*
X111263684Y-68060767D01*
X110744000Y-67957395D01*
X110224316Y-68060767D01*
X109783749Y-68355144D01*
X109489372Y-68795711D01*
X109386000Y-69315395D01*
X109386000Y-69368605D01*
X109489372Y-69888289D01*
X109783749Y-70328856D01*
X110060909Y-70514048D01*
X109894000Y-70514048D01*
X109705747Y-70549470D01*
X109532847Y-70660728D01*
X109416855Y-70830488D01*
X109376048Y-71032000D01*
X109376048Y-72732000D01*
X109411470Y-72920253D01*
X109522728Y-73093153D01*
X109692488Y-73209145D01*
X109894000Y-73249952D01*
X111354850Y-73249952D01*
X110987802Y-73617000D01*
X88262198Y-73617000D01*
X87197599Y-72552401D01*
X86992239Y-72415184D01*
X86750000Y-72366999D01*
X86749995Y-72367000D01*
X86370108Y-72367000D01*
X86279165Y-72146903D01*
X85855328Y-71722326D01*
X85301276Y-71492263D01*
X84701356Y-71491739D01*
X84146903Y-71720835D01*
X83722326Y-72144672D01*
X83492263Y-72698724D01*
X83491739Y-73298644D01*
X83720835Y-73853097D01*
X84144672Y-74277674D01*
X84698724Y-74507737D01*
X85298644Y-74508261D01*
X85853097Y-74279165D01*
X86277674Y-73855328D01*
X86369993Y-73633000D01*
X86487802Y-73633000D01*
X87552401Y-74697599D01*
X87757761Y-74834816D01*
X87797952Y-74842810D01*
X88000000Y-74883001D01*
X88000005Y-74883000D01*
X107721803Y-74883000D01*
X102302401Y-80302401D01*
X102165184Y-80507761D01*
X102116999Y-80750000D01*
X102117000Y-80750005D01*
X102117000Y-83120697D01*
X101837910Y-82934214D01*
X101500000Y-82867000D01*
X94250000Y-82867000D01*
X93912091Y-82934214D01*
X93625625Y-83125625D01*
X93434214Y-83412091D01*
X93367000Y-83750000D01*
X93434214Y-84087909D01*
X93625625Y-84374375D01*
X93912091Y-84565786D01*
X94250000Y-84633000D01*
X101134250Y-84633000D01*
X102867000Y-86365751D01*
X102867000Y-89388533D01*
X102684214Y-89662090D01*
X102617000Y-90000000D01*
X102684214Y-90337910D01*
X102753767Y-90442003D01*
X102589984Y-90441860D01*
X102292903Y-90564611D01*
X102065410Y-90791707D01*
X101942140Y-91088574D01*
X101941860Y-91410016D01*
X102064611Y-91707097D01*
X102291707Y-91934590D01*
X102588574Y-92057860D01*
X102910016Y-92058140D01*
X103207097Y-91935389D01*
X103259578Y-91883000D01*
X104221803Y-91883000D01*
X100137802Y-95967000D01*
X94709793Y-95967000D01*
X94658293Y-95915410D01*
X94361426Y-95792140D01*
X94039984Y-95791860D01*
X93742903Y-95914611D01*
X93515410Y-96141707D01*
X93392140Y-96438574D01*
X93391860Y-96760016D01*
X93514611Y-97057097D01*
X93741707Y-97284590D01*
X94038574Y-97407860D01*
X94360016Y-97408140D01*
X94657097Y-97285389D01*
X94709578Y-97233000D01*
X99508213Y-97233000D01*
X98802401Y-97938812D01*
X98665184Y-98144172D01*
X98616999Y-98386411D01*
X98617000Y-98386416D01*
X98617000Y-109528143D01*
X98580251Y-109473144D01*
X98139684Y-109178767D01*
X97620000Y-109075395D01*
X97100316Y-109178767D01*
X96659749Y-109473144D01*
X96365372Y-109913711D01*
X96350000Y-109990991D01*
X96334628Y-109913711D01*
X96040251Y-109473144D01*
X95599684Y-109178767D01*
X95080000Y-109075395D01*
X94560316Y-109178767D01*
X94119749Y-109473144D01*
X93825372Y-109913711D01*
X93810000Y-109990991D01*
X93794628Y-109913711D01*
X93500251Y-109473144D01*
X93059684Y-109178767D01*
X92540000Y-109075395D01*
X92020316Y-109178767D01*
X91579749Y-109473144D01*
X91285372Y-109913711D01*
X91270000Y-109990991D01*
X91254628Y-109913711D01*
X90960251Y-109473144D01*
X90519684Y-109178767D01*
X90000000Y-109075395D01*
X89480316Y-109178767D01*
X89039749Y-109473144D01*
X88839835Y-109772337D01*
X88839835Y-107207915D01*
X89110016Y-107208150D01*
X89407097Y-107085399D01*
X89634590Y-106858303D01*
X89757860Y-106561436D01*
X89757925Y-106487283D01*
X91187261Y-105057946D01*
X91410016Y-105058140D01*
X91707097Y-104935389D01*
X91934590Y-104708293D01*
X92057860Y-104411426D01*
X92058140Y-104089984D01*
X91935389Y-103792903D01*
X91708293Y-103565410D01*
X91525447Y-103489486D01*
X91557860Y-103411426D01*
X91558140Y-103089984D01*
X91435389Y-102792903D01*
X91208293Y-102565410D01*
X90911426Y-102442140D01*
X90589984Y-102441860D01*
X90292903Y-102564611D01*
X90065410Y-102791707D01*
X89942140Y-103088574D01*
X89941866Y-103403535D01*
X88839835Y-104505566D01*
X88839835Y-103668952D01*
X92047599Y-100461188D01*
X92083044Y-100408140D01*
X92184816Y-100255828D01*
X92209248Y-100133001D01*
X92233001Y-100013589D01*
X92233000Y-100013584D01*
X92233000Y-82912198D01*
X93512197Y-81633000D01*
X95740207Y-81633000D01*
X95791707Y-81684590D01*
X96088574Y-81807860D01*
X96410016Y-81808140D01*
X96707097Y-81685389D01*
X96934590Y-81458293D01*
X97057860Y-81161426D01*
X97058140Y-80839984D01*
X96935389Y-80542903D01*
X96708293Y-80315410D01*
X96525438Y-80239482D01*
X96557850Y-80161426D01*
X96558130Y-79839984D01*
X96435379Y-79542903D01*
X96208283Y-79315410D01*
X96057998Y-79253006D01*
X96058140Y-79089984D01*
X95935389Y-78792903D01*
X95708293Y-78565410D01*
X95411426Y-78442140D01*
X95089984Y-78441860D01*
X94792903Y-78564611D01*
X94565410Y-78791707D01*
X94534146Y-78867000D01*
X86370108Y-78867000D01*
X86279165Y-78646903D01*
X85855328Y-78222326D01*
X85301276Y-77992263D01*
X84701356Y-77991739D01*
X84146903Y-78220835D01*
X83722326Y-78644672D01*
X83492263Y-79198724D01*
X83491739Y-79798644D01*
X83720835Y-80353097D01*
X84144672Y-80777674D01*
X84698724Y-81007737D01*
X85298644Y-81008261D01*
X85853097Y-80779165D01*
X86277674Y-80355328D01*
X86369993Y-80133000D01*
X92585392Y-80133000D01*
X90702390Y-82016001D01*
X90577130Y-82203467D01*
X89910219Y-81536555D01*
X89704859Y-81399338D01*
X89462620Y-81351153D01*
X89462615Y-81351154D01*
X84786156Y-81351154D01*
X84543917Y-81399338D01*
X84338557Y-81536555D01*
X84338555Y-81536558D01*
X81774036Y-84101076D01*
X81701141Y-84101013D01*
X81404060Y-84223764D01*
X81176567Y-84450860D01*
X81053297Y-84747727D01*
X81053017Y-85069169D01*
X81175768Y-85366250D01*
X81402864Y-85593743D01*
X81699731Y-85717013D01*
X82021173Y-85717293D01*
X82318254Y-85594542D01*
X82545747Y-85367446D01*
X82669017Y-85070579D01*
X82669082Y-84996426D01*
X85048353Y-82617154D01*
X85928907Y-82617154D01*
X85928757Y-82789219D01*
X86051508Y-83086300D01*
X86278604Y-83313793D01*
X86575471Y-83437063D01*
X86649624Y-83437128D01*
X87611055Y-84398558D01*
X87611057Y-84398561D01*
X87691118Y-84452056D01*
X87816418Y-84535779D01*
X88058656Y-84583963D01*
X88058661Y-84583962D01*
X89155345Y-84583962D01*
X89206845Y-84635552D01*
X89503712Y-84758822D01*
X89825154Y-84759102D01*
X90122235Y-84636351D01*
X90349728Y-84409255D01*
X90472998Y-84112388D01*
X90473223Y-83854469D01*
X90516989Y-83854507D01*
X90516989Y-85096818D01*
X90372572Y-84952401D01*
X90167212Y-84815184D01*
X89924973Y-84766999D01*
X89924968Y-84767000D01*
X88309793Y-84767000D01*
X88258293Y-84715410D01*
X87961426Y-84592140D01*
X87639984Y-84591860D01*
X87342903Y-84714611D01*
X87115410Y-84941707D01*
X86992140Y-85238574D01*
X86991860Y-85560016D01*
X87114611Y-85857097D01*
X87341707Y-86084590D01*
X87638574Y-86207860D01*
X87960016Y-86208140D01*
X88257097Y-86085389D01*
X88309578Y-86033000D01*
X89662775Y-86033000D01*
X89716902Y-86087127D01*
X89716839Y-86160022D01*
X89839590Y-86457103D01*
X90066686Y-86684596D01*
X90363553Y-86807866D01*
X90516989Y-86808000D01*
X90516989Y-87574209D01*
X90458293Y-87515410D01*
X90161426Y-87392140D01*
X89839984Y-87391860D01*
X89542903Y-87514611D01*
X89315410Y-87741707D01*
X89192140Y-88038574D01*
X89192075Y-88112727D01*
X88726390Y-88578412D01*
X88589173Y-88783772D01*
X88540988Y-89026011D01*
X88540989Y-89026016D01*
X88540989Y-97700102D01*
X88489399Y-97751602D01*
X88366129Y-98048469D01*
X88365849Y-98369911D01*
X88488600Y-98666992D01*
X88715696Y-98894485D01*
X88888544Y-98966258D01*
X83987802Y-103867000D01*
X81500000Y-103867000D01*
X81257761Y-103915184D01*
X81052401Y-104052401D01*
X81052399Y-104052404D01*
X72172401Y-112932401D01*
X72035184Y-113137761D01*
X71986999Y-113380000D01*
X71987000Y-113380005D01*
X71987000Y-143794482D01*
X71659749Y-144013144D01*
X71365372Y-144453711D01*
X71350000Y-144530991D01*
X71334628Y-144453711D01*
X71040251Y-144013144D01*
X70599684Y-143718767D01*
X70080000Y-143615395D01*
X69560316Y-143718767D01*
X69119749Y-144013144D01*
X68825372Y-144453711D01*
X68810000Y-144530991D01*
X68794628Y-144453711D01*
X68500251Y-144013144D01*
X68059684Y-143718767D01*
X67540000Y-143615395D01*
X67020316Y-143718767D01*
X66579749Y-144013144D01*
X66485000Y-144154946D01*
X66485000Y-144023691D01*
X66388327Y-143790302D01*
X66209699Y-143611673D01*
X65976310Y-143515000D01*
X65285750Y-143515000D01*
X65127000Y-143673750D01*
X64873000Y-143673750D01*
X64714250Y-143515000D01*
X64023690Y-143515000D01*
X63790301Y-143611673D01*
X63611673Y-143790302D01*
X63515000Y-144023691D01*
X58608659Y-144023691D01*
X58145322Y-142902331D01*
X57103156Y-141858344D01*
X55740803Y-141292645D01*
X54265669Y-141291358D01*
X52902331Y-141854678D01*
X51858344Y-142896844D01*
X51292645Y-144259197D01*
X51291358Y-145734331D01*
X50583000Y-145734331D01*
X50583000Y-124896890D01*
X53558524Y-124896890D01*
X53728355Y-125306924D01*
X54118642Y-125735183D01*
X54394678Y-125864817D01*
X54013144Y-126119749D01*
X53718767Y-126560316D01*
X53615395Y-127080000D01*
X53718767Y-127599684D01*
X54013144Y-128040251D01*
X54453711Y-128334628D01*
X54530991Y-128350000D01*
X54453711Y-128365372D01*
X54013144Y-128659749D01*
X53718767Y-129100316D01*
X53615395Y-129620000D01*
X53718767Y-130139684D01*
X54013144Y-130580251D01*
X54453711Y-130874628D01*
X54973395Y-130978000D01*
X55026605Y-130978000D01*
X55546289Y-130874628D01*
X55986856Y-130580251D01*
X56281233Y-130139684D01*
X56384605Y-129620000D01*
X56281233Y-129100316D01*
X55986856Y-128659749D01*
X55546289Y-128365372D01*
X55469009Y-128350000D01*
X55546289Y-128334628D01*
X55986856Y-128040251D01*
X56281233Y-127599684D01*
X56384605Y-127080000D01*
X56281233Y-126560316D01*
X55986856Y-126119749D01*
X55605322Y-125864817D01*
X55881358Y-125735183D01*
X56271645Y-125306924D01*
X56441476Y-124896890D01*
X56320155Y-124667000D01*
X55127000Y-124667000D01*
X55127000Y-124687000D01*
X54873000Y-124687000D01*
X54873000Y-124667000D01*
X53679845Y-124667000D01*
X53558524Y-124896890D01*
X50583000Y-124896890D01*
X50583000Y-124183110D01*
X53558524Y-124183110D01*
X53679845Y-124413000D01*
X54873000Y-124413000D01*
X54873000Y-124393000D01*
X55127000Y-124393000D01*
X55127000Y-124413000D01*
X56320155Y-124413000D01*
X56441476Y-124183110D01*
X56271645Y-123773076D01*
X55894765Y-123359529D01*
X56038253Y-123332530D01*
X56211153Y-123221272D01*
X56327145Y-123051512D01*
X56367952Y-122850000D01*
X56367952Y-121150000D01*
X56332530Y-120961747D01*
X56221272Y-120788847D01*
X56051512Y-120672855D01*
X55850000Y-120632048D01*
X54150000Y-120632048D01*
X53961747Y-120667470D01*
X53788847Y-120778728D01*
X53672855Y-120948488D01*
X53632048Y-121150000D01*
X53632048Y-122850000D01*
X53667470Y-123038253D01*
X53778728Y-123211153D01*
X53948488Y-123327145D01*
X54105729Y-123358987D01*
X53728355Y-123773076D01*
X53558524Y-124183110D01*
X50583000Y-124183110D01*
X50583000Y-117960014D01*
X67591860Y-117960014D01*
X67714611Y-118257095D01*
X67767000Y-118309576D01*
X67767000Y-121973098D01*
X67645138Y-122266574D01*
X67644858Y-122588016D01*
X67767609Y-122885097D01*
X67994705Y-123112590D01*
X68291572Y-123235860D01*
X68613014Y-123236140D01*
X68910095Y-123113389D01*
X69137588Y-122886293D01*
X69260858Y-122589426D01*
X69261138Y-122267984D01*
X69138387Y-121970903D01*
X69033000Y-121865332D01*
X69033000Y-118309791D01*
X69084590Y-118258291D01*
X69207860Y-117961424D01*
X69208140Y-117639982D01*
X69085389Y-117342901D01*
X68858293Y-117115408D01*
X68561426Y-116992138D01*
X68239984Y-116991858D01*
X67942903Y-117114609D01*
X67715410Y-117341705D01*
X67592140Y-117638572D01*
X67591860Y-117960014D01*
X50583000Y-117960014D01*
X50583000Y-101160016D01*
X53191856Y-101160016D01*
X53314607Y-101457097D01*
X53541703Y-101684590D01*
X53838570Y-101807860D01*
X53912723Y-101807925D01*
X55567000Y-103462201D01*
X55567000Y-105490207D01*
X55515410Y-105541707D01*
X55392140Y-105838574D01*
X55391860Y-106160016D01*
X55514611Y-106457097D01*
X55741707Y-106684590D01*
X56038574Y-106807860D01*
X56360016Y-106808140D01*
X56657097Y-106685389D01*
X56884590Y-106458293D01*
X57007860Y-106161426D01*
X57008140Y-105839984D01*
X56885389Y-105542903D01*
X56833000Y-105490422D01*
X56833000Y-103200009D01*
X56833001Y-103200004D01*
X56784816Y-102957766D01*
X56784816Y-102957765D01*
X56647599Y-102752405D01*
X56647596Y-102752403D01*
X55528176Y-101632982D01*
X59867000Y-101632982D01*
X59867000Y-104000001D01*
X59866999Y-104000006D01*
X59915184Y-104242245D01*
X60052401Y-104447605D01*
X61691923Y-106087127D01*
X61691860Y-106160022D01*
X61814611Y-106457103D01*
X62041707Y-106684596D01*
X62338574Y-106807866D01*
X62660016Y-106808146D01*
X62957097Y-106685395D01*
X63184590Y-106458299D01*
X63307860Y-106161432D01*
X63308140Y-105839990D01*
X63185389Y-105542909D01*
X62958293Y-105315416D01*
X62661426Y-105192146D01*
X62587273Y-105192081D01*
X61133000Y-103737808D01*
X61133000Y-101632982D01*
X64000013Y-101632982D01*
X64000018Y-101632983D01*
X64242257Y-101584798D01*
X64447617Y-101447581D01*
X65087121Y-100808077D01*
X65160016Y-100808140D01*
X65457097Y-100685389D01*
X65684590Y-100458293D01*
X65807860Y-100161426D01*
X65808140Y-99839984D01*
X65747408Y-99693000D01*
X66776406Y-99693000D01*
X66776411Y-99693001D01*
X67018650Y-99644816D01*
X67224010Y-99507599D01*
X71482475Y-95249134D01*
X83741782Y-95249134D01*
X83932897Y-95711669D01*
X84286470Y-96065859D01*
X84748670Y-96257781D01*
X85249134Y-96258218D01*
X85711669Y-96067103D01*
X86065859Y-95713530D01*
X86257781Y-95251330D01*
X86258218Y-94750866D01*
X86067103Y-94288331D01*
X85713530Y-93934141D01*
X85251330Y-93742219D01*
X84750866Y-93741782D01*
X84288331Y-93932897D01*
X83934141Y-94286470D01*
X83742219Y-94748670D01*
X83741782Y-95249134D01*
X71482475Y-95249134D01*
X76362475Y-90369134D01*
X83741782Y-90369134D01*
X83932897Y-90831669D01*
X84286470Y-91185859D01*
X84748670Y-91377781D01*
X85249134Y-91378218D01*
X85711669Y-91187103D01*
X86065859Y-90833530D01*
X86257781Y-90371330D01*
X86258218Y-89870866D01*
X86067103Y-89408331D01*
X85713530Y-89054141D01*
X85251330Y-88862219D01*
X84750866Y-88861782D01*
X84288331Y-89052897D01*
X83934141Y-89406470D01*
X83742219Y-89868670D01*
X83741782Y-90369134D01*
X76362475Y-90369134D01*
X76697599Y-90034010D01*
X76834816Y-89828650D01*
X76883001Y-89586411D01*
X76883000Y-89586406D01*
X76883000Y-80652532D01*
X79527073Y-80652532D01*
X79625736Y-80919387D01*
X80235461Y-81145908D01*
X80885460Y-81121856D01*
X81374264Y-80919387D01*
X81472927Y-80652532D01*
X80500000Y-79679605D01*
X79527073Y-80652532D01*
X76883000Y-80652532D01*
X76883000Y-79235461D01*
X78854092Y-79235461D01*
X78878144Y-79885460D01*
X79080613Y-80374264D01*
X79347468Y-80472927D01*
X80320395Y-79500000D01*
X80679605Y-79500000D01*
X81652532Y-80472927D01*
X81919387Y-80374264D01*
X82145908Y-79764539D01*
X82121856Y-79114540D01*
X81919387Y-78625736D01*
X81652532Y-78527073D01*
X80679605Y-79500000D01*
X80320395Y-79500000D01*
X79347468Y-78527073D01*
X79080613Y-78625736D01*
X78854092Y-79235461D01*
X76883000Y-79235461D01*
X76883000Y-78347468D01*
X79527073Y-78347468D01*
X80500000Y-79320395D01*
X81472927Y-78347468D01*
X81374264Y-78080613D01*
X80764539Y-77854092D01*
X80114540Y-77878144D01*
X79625736Y-78080613D01*
X79527073Y-78347468D01*
X76883000Y-78347468D01*
X76883000Y-75012198D01*
X77742665Y-74152532D01*
X79527073Y-74152532D01*
X79625736Y-74419387D01*
X80235461Y-74645908D01*
X80885460Y-74621856D01*
X81374264Y-74419387D01*
X81472927Y-74152532D01*
X80500000Y-73179605D01*
X79527073Y-74152532D01*
X77742665Y-74152532D01*
X78864998Y-73030199D01*
X78878144Y-73385460D01*
X79080613Y-73874264D01*
X79347468Y-73972927D01*
X80320395Y-73000000D01*
X80679605Y-73000000D01*
X81652532Y-73972927D01*
X81919387Y-73874264D01*
X82145908Y-73264539D01*
X82121856Y-72614540D01*
X81919387Y-72125736D01*
X81652532Y-72027073D01*
X80679605Y-73000000D01*
X80320395Y-73000000D01*
X80306253Y-72985858D01*
X80485858Y-72806253D01*
X80500000Y-72820395D01*
X81472927Y-71847468D01*
X81374264Y-71580613D01*
X80764539Y-71354092D01*
X80532520Y-71362677D01*
X80962197Y-70933000D01*
X92954492Y-70933000D01*
X92975310Y-70983383D01*
X93314830Y-71323495D01*
X93758660Y-71507790D01*
X94239232Y-71508209D01*
X94683383Y-71324690D01*
X95023495Y-70985170D01*
X95207790Y-70541340D01*
X95207791Y-70539232D01*
X95291791Y-70539232D01*
X95475310Y-70983383D01*
X95814830Y-71323495D01*
X96258660Y-71507790D01*
X96739232Y-71508209D01*
X97183383Y-71324690D01*
X97523495Y-70985170D01*
X97707790Y-70541340D01*
X97707791Y-70539232D01*
X97791791Y-70539232D01*
X97975310Y-70983383D01*
X98314830Y-71323495D01*
X98758660Y-71507790D01*
X99239232Y-71508209D01*
X99683383Y-71324690D01*
X100023495Y-70985170D01*
X100207790Y-70541340D01*
X100208209Y-70060768D01*
X100024690Y-69616617D01*
X99685170Y-69276505D01*
X99241340Y-69092210D01*
X98760768Y-69091791D01*
X98316617Y-69275310D01*
X97976505Y-69614830D01*
X97792210Y-70058660D01*
X97791791Y-70539232D01*
X97707791Y-70539232D01*
X97708209Y-70060768D01*
X97524690Y-69616617D01*
X97185170Y-69276505D01*
X96741340Y-69092210D01*
X96260768Y-69091791D01*
X95816617Y-69275310D01*
X95476505Y-69614830D01*
X95292210Y-70058660D01*
X95291791Y-70539232D01*
X95207791Y-70539232D01*
X95208209Y-70060768D01*
X95024690Y-69616617D01*
X94685170Y-69276505D01*
X94241340Y-69092210D01*
X93760768Y-69091791D01*
X93316617Y-69275310D01*
X92976505Y-69614830D01*
X92954842Y-69667000D01*
X81478198Y-69667000D01*
X83512198Y-67633000D01*
X92782048Y-67633000D01*
X92782048Y-67700000D01*
X92817470Y-67888253D01*
X92928728Y-68061153D01*
X93098488Y-68177145D01*
X93300000Y-68217952D01*
X94700000Y-68217952D01*
X94888253Y-68182530D01*
X95061153Y-68071272D01*
X95177145Y-67901512D01*
X95217952Y-67700000D01*
X95217952Y-67239232D01*
X95291791Y-67239232D01*
X95475310Y-67683383D01*
X95814830Y-68023495D01*
X96258660Y-68207790D01*
X96739232Y-68208209D01*
X97183383Y-68024690D01*
X97523495Y-67685170D01*
X97707790Y-67241340D01*
X97707791Y-67239232D01*
X97791791Y-67239232D01*
X97975310Y-67683383D01*
X98314830Y-68023495D01*
X98758660Y-68207790D01*
X99239232Y-68208209D01*
X99683383Y-68024690D01*
X100023495Y-67685170D01*
X100207790Y-67241340D01*
X100208209Y-66760768D01*
X100024690Y-66316617D01*
X99685170Y-65976505D01*
X99241340Y-65792210D01*
X98760768Y-65791791D01*
X98316617Y-65975310D01*
X97976505Y-66314830D01*
X97792210Y-66758660D01*
X97791791Y-67239232D01*
X97707791Y-67239232D01*
X97708209Y-66760768D01*
X97524690Y-66316617D01*
X97185170Y-65976505D01*
X96741340Y-65792210D01*
X96260768Y-65791791D01*
X95816617Y-65975310D01*
X95476505Y-66314830D01*
X95292210Y-66758660D01*
X95291791Y-67239232D01*
X95217952Y-67239232D01*
X95217952Y-66300000D01*
X95182530Y-66111747D01*
X95071272Y-65938847D01*
X94901512Y-65822855D01*
X94700000Y-65782048D01*
X93300000Y-65782048D01*
X93111747Y-65817470D01*
X92938847Y-65928728D01*
X92822855Y-66098488D01*
X92782048Y-66300000D01*
X92782048Y-66367000D01*
X83250000Y-66367000D01*
X83007761Y-66415184D01*
X82802401Y-66552401D01*
X75052401Y-74302401D01*
X74915184Y-74507761D01*
X74866999Y-74750000D01*
X74867000Y-74750005D01*
X74867000Y-89437802D01*
X66766802Y-97538000D01*
X56262793Y-97538000D01*
X56211293Y-97486410D01*
X55914426Y-97363140D01*
X55592984Y-97362860D01*
X55295903Y-97485611D01*
X55068410Y-97712707D01*
X54945140Y-98009574D01*
X54944860Y-98331016D01*
X55067611Y-98628097D01*
X55294707Y-98855590D01*
X55591574Y-98978860D01*
X55913016Y-98979140D01*
X56210097Y-98856389D01*
X56262578Y-98804000D01*
X57189593Y-98804000D01*
X57042903Y-98864611D01*
X56815410Y-99091707D01*
X56692140Y-99388574D01*
X56691860Y-99710016D01*
X56814611Y-100007097D01*
X57041707Y-100234590D01*
X57338574Y-100357860D01*
X57660016Y-100358140D01*
X57957097Y-100235389D01*
X58184590Y-100008293D01*
X58307860Y-99711426D01*
X58307925Y-99637273D01*
X58312197Y-99633000D01*
X62237802Y-99633000D01*
X62752402Y-100147600D01*
X62971785Y-100366982D01*
X61009793Y-100366982D01*
X60958293Y-100315392D01*
X60661426Y-100192122D01*
X60339984Y-100191842D01*
X60042903Y-100314593D01*
X59990422Y-100366982D01*
X54509771Y-100366982D01*
X54458289Y-100315410D01*
X54161422Y-100192140D01*
X53839980Y-100191860D01*
X53542899Y-100314611D01*
X53315406Y-100541707D01*
X53192136Y-100838574D01*
X53191856Y-101160016D01*
X50583000Y-101160016D01*
X50583000Y-93127000D01*
X52000000Y-93127000D01*
X52046159Y-93118315D01*
X52088553Y-93091035D01*
X52116994Y-93049410D01*
X52127000Y-93000000D01*
X52127000Y-90127000D01*
X71000000Y-90127000D01*
X71046159Y-90118315D01*
X71088553Y-90091035D01*
X71116994Y-90049410D01*
X71127000Y-90000000D01*
X71127000Y-80000000D01*
X71118315Y-79953841D01*
X71091035Y-79911447D01*
X71049410Y-79883006D01*
X71000000Y-79873000D01*
X52127000Y-79873000D01*
X52127000Y-77000000D01*
X52118315Y-76953841D01*
X52091035Y-76911447D01*
X52049410Y-76883006D01*
X52000000Y-76873000D01*
X50583000Y-76873000D01*
X50583000Y-73548644D01*
X52241739Y-73548644D01*
X52470835Y-74103097D01*
X52894672Y-74527674D01*
X53448724Y-74757737D01*
X54048644Y-74758261D01*
X54603097Y-74529165D01*
X55027674Y-74105328D01*
X55257737Y-73551276D01*
X55257739Y-73548644D01*
X58741739Y-73548644D01*
X58970835Y-74103097D01*
X59394672Y-74527674D01*
X59948724Y-74757737D01*
X60548644Y-74758261D01*
X61103097Y-74529165D01*
X61131716Y-74500596D01*
X61257761Y-74584816D01*
X61500000Y-74633000D01*
X65999995Y-74633000D01*
X66000000Y-74633001D01*
X66242239Y-74584816D01*
X66447599Y-74447599D01*
X67087121Y-73808077D01*
X67160016Y-73808140D01*
X67457097Y-73685389D01*
X67684590Y-73458293D01*
X67807860Y-73161426D01*
X67808140Y-72839984D01*
X67685389Y-72542903D01*
X67458293Y-72315410D01*
X67161426Y-72192140D01*
X66839984Y-72191860D01*
X66542903Y-72314611D01*
X66315410Y-72541707D01*
X66192140Y-72838574D01*
X66192075Y-72912727D01*
X65737802Y-73367000D01*
X61762197Y-73367000D01*
X61757902Y-73362704D01*
X61758261Y-72951356D01*
X61529165Y-72396903D01*
X61105328Y-71972326D01*
X60551276Y-71742263D01*
X59951356Y-71741739D01*
X59396903Y-71970835D01*
X58972326Y-72394672D01*
X58742263Y-72948724D01*
X58741739Y-73548644D01*
X55257739Y-73548644D01*
X55258261Y-72951356D01*
X55029165Y-72396903D01*
X54605328Y-71972326D01*
X54051276Y-71742263D01*
X53451356Y-71741739D01*
X52896903Y-71970835D01*
X52472326Y-72394672D01*
X52242263Y-72948724D01*
X52241739Y-73548644D01*
X50583000Y-73548644D01*
X50583000Y-69048644D01*
X52241739Y-69048644D01*
X52470835Y-69603097D01*
X52894672Y-70027674D01*
X53448724Y-70257737D01*
X54048644Y-70258261D01*
X54603097Y-70029165D01*
X55027674Y-69605328D01*
X55257737Y-69051276D01*
X55257739Y-69048644D01*
X58741739Y-69048644D01*
X58970835Y-69603097D01*
X59394672Y-70027674D01*
X59948724Y-70257737D01*
X60548644Y-70258261D01*
X61103097Y-70029165D01*
X61527674Y-69605328D01*
X61757737Y-69051276D01*
X61758261Y-68451356D01*
X61529165Y-67896903D01*
X61105328Y-67472326D01*
X60551276Y-67242263D01*
X59951356Y-67241739D01*
X59396903Y-67470835D01*
X58972326Y-67894672D01*
X58742263Y-68448724D01*
X58741739Y-69048644D01*
X55257739Y-69048644D01*
X55258261Y-68451356D01*
X55029165Y-67896903D01*
X54605328Y-67472326D01*
X54051276Y-67242263D01*
X53451356Y-67241739D01*
X52896903Y-67470835D01*
X52472326Y-67894672D01*
X52242263Y-68448724D01*
X52241739Y-69048644D01*
X50583000Y-69048644D01*
X50583000Y-55734331D01*
X51291358Y-55734331D01*
X51854678Y-57097669D01*
X52896844Y-58141656D01*
X54259197Y-58707355D01*
X55734331Y-58708642D01*
X57097669Y-58145322D01*
X57886310Y-57358056D01*
X60491687Y-57358056D01*
X60766358Y-58022812D01*
X61274513Y-58531854D01*
X61938789Y-58807686D01*
X62658056Y-58808313D01*
X62920194Y-58700000D01*
X65182048Y-58700000D01*
X65182048Y-61300000D01*
X65217470Y-61488253D01*
X65328728Y-61661153D01*
X65498488Y-61777145D01*
X65700000Y-61817952D01*
X68300000Y-61817952D01*
X68488253Y-61782530D01*
X68661153Y-61671272D01*
X68777145Y-61501512D01*
X68817952Y-61300000D01*
X68817952Y-61257745D01*
X99421861Y-61257745D01*
X99495995Y-61503864D01*
X100033223Y-61696965D01*
X100603454Y-61669778D01*
X101004005Y-61503864D01*
X101078139Y-61257745D01*
X100250000Y-60429605D01*
X99421861Y-61257745D01*
X68817952Y-61257745D01*
X68817952Y-60033223D01*
X98803035Y-60033223D01*
X98830222Y-60603454D01*
X98996136Y-61004005D01*
X99242255Y-61078139D01*
X100070395Y-60250000D01*
X100429605Y-60250000D01*
X101257745Y-61078139D01*
X101503864Y-61004005D01*
X101696965Y-60466777D01*
X101669778Y-59896546D01*
X101503864Y-59495995D01*
X101351165Y-59450000D01*
X102432048Y-59450000D01*
X102432048Y-61050000D01*
X102467470Y-61238253D01*
X102578728Y-61411153D01*
X102748488Y-61527145D01*
X102950000Y-61567952D01*
X104550000Y-61567952D01*
X104738253Y-61532530D01*
X104911153Y-61421272D01*
X105027145Y-61251512D01*
X105067952Y-61050000D01*
X105067952Y-60000000D01*
X109991999Y-60000000D01*
X109991999Y-60000003D01*
X110012745Y-60104297D01*
X110051673Y-60299996D01*
X110068730Y-60385748D01*
X110139885Y-60492238D01*
X110287236Y-60712764D01*
X115787226Y-66212753D01*
X115787228Y-66212756D01*
X116018071Y-66367000D01*
X116114247Y-66431263D01*
X116499992Y-66507992D01*
X116750000Y-66507992D01*
X117135745Y-66431263D01*
X117462764Y-66212756D01*
X117681271Y-65885737D01*
X117758000Y-65499992D01*
X117681271Y-65114247D01*
X117462764Y-64787228D01*
X117135745Y-64568721D01*
X116959114Y-64533587D01*
X112012764Y-59587236D01*
X112012762Y-59587233D01*
X111831349Y-59405821D01*
X111712764Y-59287236D01*
X111385745Y-59068729D01*
X111385743Y-59068729D01*
X111385742Y-59068728D01*
X111230187Y-59037786D01*
X111000000Y-58991999D01*
X110999999Y-58991999D01*
X110769807Y-59037788D01*
X110614255Y-59068729D01*
X110614254Y-59068730D01*
X110614252Y-59068730D01*
X110491134Y-59150996D01*
X110287236Y-59287236D01*
X110068729Y-59614255D01*
X110068729Y-59614257D01*
X110068728Y-59614258D01*
X110050260Y-59707103D01*
X109991999Y-60000000D01*
X105067952Y-60000000D01*
X105067952Y-59450000D01*
X105032530Y-59261747D01*
X104921272Y-59088847D01*
X104751512Y-58972855D01*
X104550000Y-58932048D01*
X102950000Y-58932048D01*
X102761747Y-58967470D01*
X102588847Y-59078728D01*
X102472855Y-59248488D01*
X102432048Y-59450000D01*
X101351165Y-59450000D01*
X101257745Y-59421861D01*
X100429605Y-60250000D01*
X100070395Y-60250000D01*
X99242255Y-59421861D01*
X98996136Y-59495995D01*
X98803035Y-60033223D01*
X68817952Y-60033223D01*
X68817952Y-59242255D01*
X99421861Y-59242255D01*
X100250000Y-60070395D01*
X101078139Y-59242255D01*
X101004005Y-58996136D01*
X100466777Y-58803035D01*
X99896546Y-58830222D01*
X99495995Y-58996136D01*
X99421861Y-59242255D01*
X68817952Y-59242255D01*
X68817952Y-58700000D01*
X68782530Y-58511747D01*
X68671272Y-58338847D01*
X68501512Y-58222855D01*
X68300000Y-58182048D01*
X65700000Y-58182048D01*
X65511747Y-58217470D01*
X65338847Y-58328728D01*
X65222855Y-58498488D01*
X65182048Y-58700000D01*
X62920194Y-58700000D01*
X63322812Y-58533642D01*
X63831854Y-58025487D01*
X64107686Y-57361211D01*
X64108313Y-56641944D01*
X63961137Y-56285750D01*
X78365000Y-56285750D01*
X78365000Y-57126310D01*
X78461673Y-57359699D01*
X78640302Y-57538327D01*
X78873691Y-57635000D01*
X79714250Y-57635000D01*
X79873000Y-57476250D01*
X79873000Y-56127000D01*
X80127000Y-56127000D01*
X80127000Y-57476250D01*
X80285750Y-57635000D01*
X81126309Y-57635000D01*
X81359698Y-57538327D01*
X81538327Y-57359699D01*
X81635000Y-57126310D01*
X81635000Y-56298644D01*
X83491739Y-56298644D01*
X83720835Y-56853097D01*
X84144672Y-57277674D01*
X84698724Y-57507737D01*
X85298644Y-57508261D01*
X85853097Y-57279165D01*
X86277674Y-56855328D01*
X86507737Y-56301276D01*
X86508261Y-55701356D01*
X86279165Y-55146903D01*
X85855328Y-54722326D01*
X85301276Y-54492263D01*
X84701356Y-54491739D01*
X84146903Y-54720835D01*
X83722326Y-55144672D01*
X83492263Y-55698724D01*
X83491739Y-56298644D01*
X81635000Y-56298644D01*
X81635000Y-56285750D01*
X81476250Y-56127000D01*
X80127000Y-56127000D01*
X79873000Y-56127000D01*
X78523750Y-56127000D01*
X78365000Y-56285750D01*
X63961137Y-56285750D01*
X63833642Y-55977188D01*
X63325487Y-55468146D01*
X63087823Y-55369459D01*
X65810146Y-55369459D01*
X65945504Y-55667455D01*
X66663880Y-55944066D01*
X67433427Y-55924710D01*
X68054496Y-55667455D01*
X68189854Y-55369459D01*
X67000000Y-54179605D01*
X65810146Y-55369459D01*
X63087823Y-55369459D01*
X62661211Y-55192314D01*
X61941944Y-55191687D01*
X61277188Y-55466358D01*
X60768146Y-55974513D01*
X60492314Y-56638789D01*
X60491687Y-57358056D01*
X57886310Y-57358056D01*
X58141656Y-57103156D01*
X58707355Y-55740803D01*
X58708642Y-54265669D01*
X58459988Y-53663880D01*
X65055934Y-53663880D01*
X65075290Y-54433427D01*
X65332545Y-55054496D01*
X65630541Y-55189854D01*
X66820395Y-54000000D01*
X67179605Y-54000000D01*
X68369459Y-55189854D01*
X68667455Y-55054496D01*
X68737074Y-54873690D01*
X78365000Y-54873690D01*
X78365000Y-55714250D01*
X78523750Y-55873000D01*
X79873000Y-55873000D01*
X79873000Y-54523750D01*
X80127000Y-54523750D01*
X80127000Y-55873000D01*
X81476250Y-55873000D01*
X81635000Y-55714250D01*
X81635000Y-54873690D01*
X81538327Y-54640301D01*
X81359698Y-54461673D01*
X81126309Y-54365000D01*
X80285750Y-54365000D01*
X80127000Y-54523750D01*
X79873000Y-54523750D01*
X79714250Y-54365000D01*
X78873691Y-54365000D01*
X78640302Y-54461673D01*
X78461673Y-54640301D01*
X78365000Y-54873690D01*
X68737074Y-54873690D01*
X68944066Y-54336120D01*
X68924710Y-53566573D01*
X68808390Y-53285750D01*
X98515000Y-53285750D01*
X98515000Y-53976309D01*
X98611673Y-54209698D01*
X98790301Y-54388327D01*
X99023690Y-54485000D01*
X99714250Y-54485000D01*
X99873000Y-54326250D01*
X99873000Y-53127000D01*
X98673750Y-53127000D01*
X98515000Y-53285750D01*
X68808390Y-53285750D01*
X68667455Y-52945504D01*
X68369459Y-52810146D01*
X67179605Y-54000000D01*
X66820395Y-54000000D01*
X65630541Y-52810146D01*
X65332545Y-52945504D01*
X65055934Y-53663880D01*
X58459988Y-53663880D01*
X58145322Y-52902331D01*
X57874007Y-52630541D01*
X65810146Y-52630541D01*
X67000000Y-53820395D01*
X68189854Y-52630541D01*
X68054496Y-52332545D01*
X67336120Y-52055934D01*
X66566573Y-52075290D01*
X65945504Y-52332545D01*
X65810146Y-52630541D01*
X57874007Y-52630541D01*
X57268215Y-52023691D01*
X98515000Y-52023691D01*
X98515000Y-52714250D01*
X98673750Y-52873000D01*
X99873000Y-52873000D01*
X99873000Y-51673750D01*
X100127000Y-51673750D01*
X100127000Y-52873000D01*
X100147000Y-52873000D01*
X100147000Y-53127000D01*
X100127000Y-53127000D01*
X100127000Y-54326250D01*
X100285750Y-54485000D01*
X100976310Y-54485000D01*
X101209699Y-54388327D01*
X101388327Y-54209698D01*
X101485000Y-53976309D01*
X101485000Y-53845054D01*
X101579749Y-53986856D01*
X102020316Y-54281233D01*
X102540000Y-54384605D01*
X102617000Y-54369289D01*
X102617000Y-54999995D01*
X102616999Y-55000000D01*
X102665184Y-55242239D01*
X102802401Y-55447599D01*
X103802399Y-56447596D01*
X103802401Y-56447599D01*
X103939619Y-56539285D01*
X104007762Y-56584817D01*
X104250000Y-56633001D01*
X104250005Y-56633000D01*
X112740207Y-56633000D01*
X112791707Y-56684590D01*
X113088574Y-56807860D01*
X113410016Y-56808140D01*
X113707097Y-56685389D01*
X113934590Y-56458293D01*
X114057860Y-56161426D01*
X114058140Y-55839984D01*
X113935389Y-55542903D01*
X113708293Y-55315410D01*
X113411426Y-55192140D01*
X113089984Y-55191860D01*
X112792903Y-55314611D01*
X112740422Y-55367000D01*
X104512197Y-55367000D01*
X103883000Y-54737802D01*
X103883000Y-53710005D01*
X103883001Y-53710000D01*
X103861061Y-53599701D01*
X104119749Y-53986856D01*
X104560316Y-54281233D01*
X105080000Y-54384605D01*
X105599684Y-54281233D01*
X106040251Y-53986856D01*
X106334628Y-53546289D01*
X106438000Y-53026605D01*
X106438000Y-52973395D01*
X106334628Y-52453711D01*
X106040251Y-52013144D01*
X105599684Y-51718767D01*
X105080000Y-51615395D01*
X104560316Y-51718767D01*
X104119749Y-52013144D01*
X103825372Y-52453711D01*
X103810000Y-52530991D01*
X103794628Y-52453711D01*
X103500251Y-52013144D01*
X103059684Y-51718767D01*
X102540000Y-51615395D01*
X102020316Y-51718767D01*
X101579749Y-52013144D01*
X101485000Y-52154946D01*
X101485000Y-52023691D01*
X101388327Y-51790302D01*
X101209699Y-51611673D01*
X100976310Y-51515000D01*
X100285750Y-51515000D01*
X100127000Y-51673750D01*
X99873000Y-51673750D01*
X99714250Y-51515000D01*
X99023690Y-51515000D01*
X98790301Y-51611673D01*
X98611673Y-51790302D01*
X98515000Y-52023691D01*
X57268215Y-52023691D01*
X57103156Y-51858344D01*
X55740803Y-51292645D01*
X54265669Y-51291358D01*
X52902331Y-51854678D01*
X51858344Y-52896844D01*
X51292645Y-54259197D01*
X51291358Y-55734331D01*
X50583000Y-55734331D01*
X50583000Y-50583000D01*
X149417000Y-50583000D01*
X149417000Y-149417000D01*
X149417000Y-149417000D01*
G37*
X149417000Y-149417000D02*
X50583000Y-149417000D01*
X50583000Y-145734331D01*
X51291358Y-145734331D01*
X51854678Y-147097669D01*
X52896844Y-148141656D01*
X54259197Y-148707355D01*
X55734331Y-148708642D01*
X57097669Y-148145322D01*
X58141656Y-147103156D01*
X58707355Y-145740803D01*
X58707752Y-145285750D01*
X63515000Y-145285750D01*
X63515000Y-145976309D01*
X63611673Y-146209698D01*
X63790301Y-146388327D01*
X64023690Y-146485000D01*
X64714250Y-146485000D01*
X64873000Y-146326250D01*
X64873000Y-145127000D01*
X63673750Y-145127000D01*
X63515000Y-145285750D01*
X58707752Y-145285750D01*
X58708642Y-144265669D01*
X58608659Y-144023691D01*
X63515000Y-144023691D01*
X63515000Y-144714250D01*
X63673750Y-144873000D01*
X64873000Y-144873000D01*
X64873000Y-143673750D01*
X65127000Y-143673750D01*
X65127000Y-144873000D01*
X65147000Y-144873000D01*
X65147000Y-145127000D01*
X65127000Y-145127000D01*
X65127000Y-146326250D01*
X65285750Y-146485000D01*
X65976310Y-146485000D01*
X66209699Y-146388327D01*
X66388327Y-146209698D01*
X66485000Y-145976309D01*
X66485000Y-145845054D01*
X66579749Y-145986856D01*
X67020316Y-146281233D01*
X67540000Y-146384605D01*
X68059684Y-146281233D01*
X68500251Y-145986856D01*
X68794628Y-145546289D01*
X68810000Y-145469009D01*
X68825372Y-145546289D01*
X69119749Y-145986856D01*
X69560316Y-146281233D01*
X70080000Y-146384605D01*
X70488209Y-146303407D01*
X71190399Y-147005596D01*
X71190401Y-147005599D01*
X71395761Y-147142816D01*
X71435952Y-147150810D01*
X71638000Y-147191001D01*
X71638005Y-147191000D01*
X73941995Y-147191000D01*
X73942000Y-147191001D01*
X74184239Y-147142816D01*
X74389599Y-147005599D01*
X88367000Y-133028198D01*
X88367000Y-137637803D01*
X82552401Y-143452401D01*
X82432365Y-143632048D01*
X82150000Y-143632048D01*
X81961747Y-143667470D01*
X81788847Y-143778728D01*
X81672855Y-143948488D01*
X81632048Y-144150000D01*
X81632048Y-145850000D01*
X81667470Y-146038253D01*
X81778728Y-146211153D01*
X81948488Y-146327145D01*
X82150000Y-146367952D01*
X83850000Y-146367952D01*
X84038253Y-146332530D01*
X84211153Y-146221272D01*
X84327145Y-146051512D01*
X84367952Y-145850000D01*
X84367952Y-145669879D01*
X84579749Y-145986856D01*
X85020316Y-146281233D01*
X85540000Y-146384605D01*
X86059684Y-146281233D01*
X86500251Y-145986856D01*
X86794628Y-145546289D01*
X86810000Y-145469009D01*
X86825372Y-145546289D01*
X87119749Y-145986856D01*
X87560316Y-146281233D01*
X88080000Y-146384605D01*
X88599684Y-146281233D01*
X89040251Y-145986856D01*
X89295183Y-145605322D01*
X89424817Y-145881358D01*
X89853076Y-146271645D01*
X90263110Y-146441476D01*
X90493000Y-146320155D01*
X90493000Y-145127000D01*
X90747000Y-145127000D01*
X90747000Y-146320155D01*
X90976890Y-146441476D01*
X91386924Y-146271645D01*
X91815183Y-145881358D01*
X91977235Y-145536291D01*
X98291531Y-145536291D01*
X98702931Y-146531955D01*
X99464038Y-147294392D01*
X100458982Y-147707529D01*
X101536291Y-147708469D01*
X102531955Y-147297069D01*
X103294392Y-146535962D01*
X103707529Y-145541018D01*
X103707943Y-145065750D01*
X105985000Y-145065750D01*
X105985000Y-145806310D01*
X106081673Y-146039699D01*
X106260302Y-146218327D01*
X106493691Y-146315000D01*
X107234250Y-146315000D01*
X107393000Y-146156250D01*
X107393000Y-144907000D01*
X106143750Y-144907000D01*
X105985000Y-145065750D01*
X103707943Y-145065750D01*
X103708469Y-144463709D01*
X103415096Y-143753690D01*
X105985000Y-143753690D01*
X105985000Y-144494250D01*
X106143750Y-144653000D01*
X107393000Y-144653000D01*
X107393000Y-143403750D01*
X107647000Y-143403750D01*
X107647000Y-144653000D01*
X107667000Y-144653000D01*
X107667000Y-144907000D01*
X107647000Y-144907000D01*
X107647000Y-146156250D01*
X107805750Y-146315000D01*
X108546309Y-146315000D01*
X108779698Y-146218327D01*
X108958327Y-146039699D01*
X109055000Y-145806310D01*
X109055000Y-145766197D01*
X109261391Y-145972948D01*
X109778703Y-146187755D01*
X110338840Y-146188244D01*
X110856526Y-145974340D01*
X111252948Y-145578609D01*
X111467755Y-145061297D01*
X111468244Y-144501160D01*
X111254340Y-143983474D01*
X110858609Y-143587052D01*
X110341297Y-143372245D01*
X109781160Y-143371756D01*
X109263474Y-143585660D01*
X109055000Y-143793771D01*
X109055000Y-143753690D01*
X108958327Y-143520301D01*
X108779698Y-143341673D01*
X108546309Y-143245000D01*
X107805750Y-143245000D01*
X107647000Y-143403750D01*
X107393000Y-143403750D01*
X107234250Y-143245000D01*
X106493691Y-143245000D01*
X106260302Y-143341673D01*
X106081673Y-143520301D01*
X105985000Y-143753690D01*
X103415096Y-143753690D01*
X103297069Y-143468045D01*
X102535962Y-142705608D01*
X101541018Y-142292471D01*
X100463709Y-142291531D01*
X99468045Y-142702931D01*
X98705608Y-143464038D01*
X98292471Y-144458982D01*
X98291531Y-145536291D01*
X91977235Y-145536291D01*
X92061486Y-145356892D01*
X91940819Y-145127000D01*
X90747000Y-145127000D01*
X90493000Y-145127000D01*
X90473000Y-145127000D01*
X90473000Y-144873000D01*
X90493000Y-144873000D01*
X90493000Y-143679845D01*
X90747000Y-143679845D01*
X90747000Y-144873000D01*
X91940819Y-144873000D01*
X92061486Y-144643108D01*
X91815183Y-144118642D01*
X91386924Y-143728355D01*
X90976890Y-143558524D01*
X90747000Y-143679845D01*
X90493000Y-143679845D01*
X90263110Y-143558524D01*
X89853076Y-143728355D01*
X89424817Y-144118642D01*
X89295183Y-144394678D01*
X89040251Y-144013144D01*
X88599684Y-143718767D01*
X88080000Y-143615395D01*
X87755194Y-143680003D01*
X89947596Y-141487601D01*
X89947599Y-141487599D01*
X90084816Y-141282239D01*
X90104740Y-141182074D01*
X90133001Y-141040000D01*
X90133000Y-141039995D01*
X90133000Y-129560016D01*
X104791860Y-129560016D01*
X104914611Y-129857097D01*
X105141707Y-130084590D01*
X105438574Y-130207860D01*
X105760016Y-130208140D01*
X106057097Y-130085389D01*
X106284590Y-129858293D01*
X106407860Y-129561426D01*
X106407925Y-129487273D01*
X107047596Y-128847601D01*
X107047599Y-128847599D01*
X107184816Y-128642239D01*
X107184817Y-128642238D01*
X107233001Y-128400000D01*
X107233000Y-128399995D01*
X107233000Y-126709793D01*
X107284590Y-126658293D01*
X107407860Y-126361426D01*
X107408140Y-126039984D01*
X107285389Y-125742903D01*
X107058293Y-125515410D01*
X106761426Y-125392140D01*
X106439984Y-125391860D01*
X106142903Y-125514611D01*
X105915410Y-125741707D01*
X105792140Y-126038574D01*
X105791860Y-126360016D01*
X105914611Y-126657097D01*
X105967000Y-126709578D01*
X105967000Y-128137803D01*
X105512879Y-128591923D01*
X105439984Y-128591860D01*
X105142903Y-128714611D01*
X104915410Y-128941707D01*
X104792140Y-129238574D01*
X104791860Y-129560016D01*
X90133000Y-129560016D01*
X90133000Y-129437202D01*
X92133311Y-127436890D01*
X99558524Y-127436890D01*
X99728355Y-127846924D01*
X100118642Y-128275183D01*
X100643108Y-128521486D01*
X100873000Y-128400819D01*
X100873000Y-127207000D01*
X101127000Y-127207000D01*
X101127000Y-128400819D01*
X101356892Y-128521486D01*
X101881358Y-128275183D01*
X102271645Y-127846924D01*
X102441476Y-127436890D01*
X102320155Y-127207000D01*
X101127000Y-127207000D01*
X100873000Y-127207000D01*
X99679845Y-127207000D01*
X99558524Y-127436890D01*
X92133311Y-127436890D01*
X92847091Y-126723110D01*
X99558524Y-126723110D01*
X99679845Y-126953000D01*
X100873000Y-126953000D01*
X100873000Y-126933000D01*
X101127000Y-126933000D01*
X101127000Y-126953000D01*
X102320155Y-126953000D01*
X102441476Y-126723110D01*
X102271645Y-126313076D01*
X101881358Y-125884817D01*
X101605322Y-125755183D01*
X101986856Y-125500251D01*
X102281233Y-125059684D01*
X102384605Y-124540000D01*
X102281233Y-124020316D01*
X101986856Y-123579749D01*
X101669879Y-123367952D01*
X101850000Y-123367952D01*
X102038253Y-123332530D01*
X102211153Y-123221272D01*
X102327145Y-123051512D01*
X102367952Y-122850000D01*
X102367952Y-122758000D01*
X105092290Y-122758000D01*
X112984139Y-130649849D01*
X112983860Y-130970016D01*
X113034000Y-131091364D01*
X113034000Y-138292803D01*
X110989802Y-140337000D01*
X110618571Y-140337000D01*
X110440293Y-140158410D01*
X110143426Y-140035140D01*
X109821984Y-140034860D01*
X109524903Y-140157611D01*
X109297410Y-140384707D01*
X109174140Y-140681574D01*
X109173860Y-141003016D01*
X109296611Y-141300097D01*
X109523707Y-141527590D01*
X109820574Y-141650860D01*
X110142016Y-141651140D01*
X110258524Y-141603000D01*
X111251995Y-141603000D01*
X111252000Y-141603001D01*
X111494239Y-141554816D01*
X111699599Y-141417599D01*
X113034000Y-140083197D01*
X113034000Y-140892000D01*
X113091699Y-141182074D01*
X113256013Y-141427987D01*
X116262048Y-144434022D01*
X116262048Y-145680000D01*
X116297470Y-145868253D01*
X116408728Y-146041153D01*
X116578488Y-146157145D01*
X116780000Y-146197952D01*
X118580000Y-146197952D01*
X118768253Y-146162530D01*
X118941153Y-146051272D01*
X119057145Y-145881512D01*
X119097952Y-145680000D01*
X119097952Y-145648944D01*
X119421391Y-145972948D01*
X119938703Y-146187755D01*
X120498840Y-146188244D01*
X121016526Y-145974340D01*
X121412948Y-145578609D01*
X121430519Y-145536291D01*
X123291531Y-145536291D01*
X123702931Y-146531955D01*
X124464038Y-147294392D01*
X125458982Y-147707529D01*
X126536291Y-147708469D01*
X127531955Y-147297069D01*
X128294392Y-146535962D01*
X128627258Y-145734331D01*
X141291358Y-145734331D01*
X141854678Y-147097669D01*
X142896844Y-148141656D01*
X144259197Y-148707355D01*
X145734331Y-148708642D01*
X147097669Y-148145322D01*
X148141656Y-147103156D01*
X148707355Y-145740803D01*
X148708642Y-144265669D01*
X148145322Y-142902331D01*
X147103156Y-141858344D01*
X145740803Y-141292645D01*
X144265669Y-141291358D01*
X142902331Y-141854678D01*
X141858344Y-142896844D01*
X141292645Y-144259197D01*
X141291358Y-145734331D01*
X128627258Y-145734331D01*
X128707529Y-145541018D01*
X128708469Y-144463709D01*
X128297069Y-143468045D01*
X127535962Y-142705608D01*
X126541018Y-142292471D01*
X125463709Y-142291531D01*
X124468045Y-142702931D01*
X123705608Y-143464038D01*
X123292471Y-144458982D01*
X123291531Y-145536291D01*
X121430519Y-145536291D01*
X121627755Y-145061297D01*
X121628244Y-144501160D01*
X121414340Y-143983474D01*
X121018609Y-143587052D01*
X120501297Y-143372245D01*
X119941160Y-143371756D01*
X119423474Y-143585660D01*
X119097952Y-143910615D01*
X119097952Y-143880000D01*
X119062530Y-143691747D01*
X118951272Y-143518847D01*
X118781512Y-143402855D01*
X118580000Y-143362048D01*
X117334022Y-143362048D01*
X114550000Y-140578026D01*
X114550000Y-139693970D01*
X143575635Y-139693970D01*
X143735418Y-140012739D01*
X144526187Y-140322723D01*
X145375387Y-140306497D01*
X146084582Y-140012739D01*
X146244365Y-139693970D01*
X144910000Y-138359605D01*
X143575635Y-139693970D01*
X114550000Y-139693970D01*
X114550000Y-137796187D01*
X142767277Y-137796187D01*
X142783503Y-138645387D01*
X143077261Y-139354582D01*
X143396030Y-139514365D01*
X144730395Y-138180000D01*
X145089605Y-138180000D01*
X146423970Y-139514365D01*
X146742739Y-139354582D01*
X147052723Y-138563813D01*
X147036497Y-137714613D01*
X146742739Y-137005418D01*
X146423970Y-136845635D01*
X145089605Y-138180000D01*
X144730395Y-138180000D01*
X143396030Y-136845635D01*
X143077261Y-137005418D01*
X142767277Y-137796187D01*
X114550000Y-137796187D01*
X114550000Y-136666030D01*
X143575635Y-136666030D01*
X144910000Y-138000395D01*
X146244365Y-136666030D01*
X146084582Y-136347261D01*
X145293813Y-136037277D01*
X144444613Y-136053503D01*
X143735418Y-136347261D01*
X143575635Y-136666030D01*
X114550000Y-136666030D01*
X114550000Y-134869134D01*
X140981782Y-134869134D01*
X141172897Y-135331669D01*
X141526470Y-135685859D01*
X141988670Y-135877781D01*
X142489134Y-135878218D01*
X142951669Y-135687103D01*
X143305859Y-135333530D01*
X143497781Y-134871330D01*
X143498218Y-134370866D01*
X143307103Y-133908331D01*
X142953530Y-133554141D01*
X142491330Y-133362219D01*
X141990866Y-133361782D01*
X141528331Y-133552897D01*
X141174141Y-133906470D01*
X140982219Y-134368670D01*
X140981782Y-134869134D01*
X114550000Y-134869134D01*
X114550000Y-131091502D01*
X114599860Y-130971426D01*
X114600140Y-130649984D01*
X114550000Y-130528636D01*
X114550000Y-130385736D01*
X114532774Y-130299134D01*
X140981782Y-130299134D01*
X141172897Y-130761669D01*
X141475918Y-131065219D01*
X141174141Y-131366470D01*
X140982219Y-131828670D01*
X140981782Y-132329134D01*
X141172897Y-132791669D01*
X141526470Y-133145859D01*
X141988670Y-133337781D01*
X142489134Y-133338218D01*
X142951669Y-133147103D01*
X143305859Y-132793530D01*
X143497781Y-132331330D01*
X143498218Y-131830866D01*
X143307103Y-131368331D01*
X143004082Y-131064781D01*
X143305859Y-130763530D01*
X143497781Y-130301330D01*
X143498218Y-129800866D01*
X143307103Y-129338331D01*
X142953530Y-128984141D01*
X142643233Y-128855295D01*
X142963923Y-128722460D01*
X143031912Y-128481517D01*
X142240000Y-127689605D01*
X141448088Y-128481517D01*
X141516077Y-128722460D01*
X141861294Y-128845320D01*
X141528331Y-128982897D01*
X141174141Y-129336470D01*
X140982219Y-129798670D01*
X140981782Y-130299134D01*
X114532774Y-130299134D01*
X114492301Y-130095662D01*
X114327987Y-129849749D01*
X111783409Y-127305171D01*
X140842799Y-127305171D01*
X140870770Y-127855448D01*
X141027540Y-128233923D01*
X141268483Y-128301912D01*
X142060395Y-127510000D01*
X142419605Y-127510000D01*
X143211517Y-128301912D01*
X143452460Y-128233923D01*
X143637201Y-127714829D01*
X143609230Y-127164552D01*
X143452460Y-126786077D01*
X143211517Y-126718088D01*
X142419605Y-127510000D01*
X142060395Y-127510000D01*
X141268483Y-126718088D01*
X141027540Y-126786077D01*
X140842799Y-127305171D01*
X111783409Y-127305171D01*
X111016721Y-126538483D01*
X141448088Y-126538483D01*
X142240000Y-127330395D01*
X143031912Y-126538483D01*
X142963923Y-126297540D01*
X142444829Y-126112799D01*
X141894552Y-126140770D01*
X141516077Y-126297540D01*
X141448088Y-126538483D01*
X111016721Y-126538483D01*
X109744839Y-125266601D01*
X117113566Y-125266601D01*
X117318081Y-125761565D01*
X117696443Y-126140588D01*
X118191049Y-126345966D01*
X118726601Y-126346434D01*
X119221565Y-126141919D01*
X119600588Y-125763557D01*
X119730065Y-125451742D01*
X119858081Y-125761565D01*
X120236443Y-126140588D01*
X120731049Y-126345966D01*
X121266601Y-126346434D01*
X121761565Y-126141919D01*
X122066800Y-125837216D01*
X122066800Y-125964510D01*
X122163473Y-126197899D01*
X122342102Y-126376527D01*
X122575491Y-126473200D01*
X123254250Y-126473200D01*
X123413000Y-126314450D01*
X123413000Y-125127000D01*
X123667000Y-125127000D01*
X123667000Y-126314450D01*
X123825750Y-126473200D01*
X124504509Y-126473200D01*
X124737898Y-126376527D01*
X124916527Y-126197899D01*
X125009281Y-125973970D01*
X143575635Y-125973970D01*
X143735418Y-126292739D01*
X144526187Y-126602723D01*
X145375387Y-126586497D01*
X146084582Y-126292739D01*
X146244365Y-125973970D01*
X144910000Y-124639605D01*
X143575635Y-125973970D01*
X125009281Y-125973970D01*
X125013200Y-125964510D01*
X125013200Y-125285750D01*
X124854450Y-125127000D01*
X123667000Y-125127000D01*
X123413000Y-125127000D01*
X123393000Y-125127000D01*
X123393000Y-124873000D01*
X123413000Y-124873000D01*
X123413000Y-123685550D01*
X123667000Y-123685550D01*
X123667000Y-124873000D01*
X124854450Y-124873000D01*
X125013200Y-124714250D01*
X125013200Y-124076187D01*
X142767277Y-124076187D01*
X142783503Y-124925387D01*
X143077261Y-125634582D01*
X143396030Y-125794365D01*
X144730395Y-124460000D01*
X145089605Y-124460000D01*
X146423970Y-125794365D01*
X146742739Y-125634582D01*
X147052723Y-124843813D01*
X147036497Y-123994613D01*
X146742739Y-123285418D01*
X146423970Y-123125635D01*
X145089605Y-124460000D01*
X144730395Y-124460000D01*
X143396030Y-123125635D01*
X143077261Y-123285418D01*
X142767277Y-124076187D01*
X125013200Y-124076187D01*
X125013200Y-124035490D01*
X124916527Y-123802101D01*
X124737898Y-123623473D01*
X124504509Y-123526800D01*
X123825750Y-123526800D01*
X123667000Y-123685550D01*
X123413000Y-123685550D01*
X123254250Y-123526800D01*
X122575491Y-123526800D01*
X122342102Y-123623473D01*
X122163473Y-123802101D01*
X122066800Y-124035490D01*
X122066800Y-124163185D01*
X121763557Y-123859412D01*
X121268951Y-123654034D01*
X120733399Y-123653566D01*
X120238435Y-123858081D01*
X119859412Y-124236443D01*
X119729935Y-124548258D01*
X119601919Y-124238435D01*
X119223557Y-123859412D01*
X118728951Y-123654034D01*
X118193399Y-123653566D01*
X117698435Y-123858081D01*
X117319412Y-124236443D01*
X117114034Y-124731049D01*
X117113566Y-125266601D01*
X109744839Y-125266601D01*
X107424268Y-122946030D01*
X143575635Y-122946030D01*
X144910000Y-124280395D01*
X146244365Y-122946030D01*
X146084582Y-122627261D01*
X145293813Y-122317277D01*
X144444613Y-122333503D01*
X143735418Y-122627261D01*
X143575635Y-122946030D01*
X107424268Y-122946030D01*
X105942251Y-121464013D01*
X105696338Y-121299699D01*
X105406264Y-121242000D01*
X102367952Y-121242000D01*
X102367952Y-121150000D01*
X102332530Y-120961747D01*
X102221272Y-120788847D01*
X102051512Y-120672855D01*
X101850000Y-120632048D01*
X100150000Y-120632048D01*
X99961747Y-120667470D01*
X99788847Y-120778728D01*
X99672855Y-120948488D01*
X99632048Y-121150000D01*
X99632048Y-122850000D01*
X99667470Y-123038253D01*
X99778728Y-123211153D01*
X99948488Y-123327145D01*
X100150000Y-123367952D01*
X100330121Y-123367952D01*
X100013144Y-123579749D01*
X99718767Y-124020316D01*
X99615395Y-124540000D01*
X99718767Y-125059684D01*
X100013144Y-125500251D01*
X100394678Y-125755183D01*
X100118642Y-125884817D01*
X99728355Y-126313076D01*
X99558524Y-126723110D01*
X92847091Y-126723110D01*
X100196231Y-119373970D01*
X143575635Y-119373970D01*
X143735418Y-119692739D01*
X144526187Y-120002723D01*
X145375387Y-119986497D01*
X146084582Y-119692739D01*
X146244365Y-119373970D01*
X144910000Y-118039605D01*
X143575635Y-119373970D01*
X100196231Y-119373970D01*
X102094014Y-117476187D01*
X142767277Y-117476187D01*
X142783503Y-118325387D01*
X143077261Y-119034582D01*
X143396030Y-119194365D01*
X144730395Y-117860000D01*
X145089605Y-117860000D01*
X146423970Y-119194365D01*
X146742739Y-119034582D01*
X147052723Y-118243813D01*
X147036497Y-117394613D01*
X146742739Y-116685418D01*
X146423970Y-116525635D01*
X145089605Y-117860000D01*
X144730395Y-117860000D01*
X143396030Y-116525635D01*
X143077261Y-116685418D01*
X142767277Y-117476187D01*
X102094014Y-117476187D01*
X103224171Y-116346030D01*
X143575635Y-116346030D01*
X144910000Y-117680395D01*
X146244365Y-116346030D01*
X146084582Y-116027261D01*
X145293813Y-115717277D01*
X144444613Y-115733503D01*
X143735418Y-116027261D01*
X143575635Y-116346030D01*
X103224171Y-116346030D01*
X103390283Y-116179918D01*
X103390286Y-116179916D01*
X103527503Y-115974556D01*
X103575687Y-115732317D01*
X103575687Y-114549134D01*
X140981782Y-114549134D01*
X141172897Y-115011669D01*
X141526470Y-115365859D01*
X141988670Y-115557781D01*
X142489134Y-115558218D01*
X142951669Y-115367103D01*
X143305859Y-115013530D01*
X143497781Y-114551330D01*
X143498218Y-114050866D01*
X143307103Y-113588331D01*
X142953530Y-113234141D01*
X142491330Y-113042219D01*
X141990866Y-113041782D01*
X141528331Y-113232897D01*
X141174141Y-113586470D01*
X140982219Y-114048670D01*
X140981782Y-114549134D01*
X103575687Y-114549134D01*
X103575687Y-112150000D01*
X105632048Y-112150000D01*
X105632048Y-113850000D01*
X105667470Y-114038253D01*
X105778728Y-114211153D01*
X105948488Y-114327145D01*
X106150000Y-114367952D01*
X107850000Y-114367952D01*
X108038253Y-114332530D01*
X108211153Y-114221272D01*
X108327145Y-114051512D01*
X108358987Y-113894271D01*
X108773076Y-114271645D01*
X109183110Y-114441476D01*
X109413000Y-114320155D01*
X109413000Y-113127000D01*
X109393000Y-113127000D01*
X109393000Y-112873000D01*
X109413000Y-112873000D01*
X109413000Y-111679845D01*
X109667000Y-111679845D01*
X109667000Y-112873000D01*
X109687000Y-112873000D01*
X109687000Y-113127000D01*
X109667000Y-113127000D01*
X109667000Y-114320155D01*
X109896890Y-114441476D01*
X110306924Y-114271645D01*
X110735183Y-113881358D01*
X110864817Y-113605322D01*
X111119749Y-113986856D01*
X111560316Y-114281233D01*
X112080000Y-114384605D01*
X112599684Y-114281233D01*
X113040251Y-113986856D01*
X113295183Y-113605322D01*
X113424817Y-113881358D01*
X113853076Y-114271645D01*
X114263110Y-114441476D01*
X114493000Y-114320155D01*
X114493000Y-113127000D01*
X114747000Y-113127000D01*
X114747000Y-114320155D01*
X114976890Y-114441476D01*
X115386924Y-114271645D01*
X115815183Y-113881358D01*
X116061486Y-113356892D01*
X115940819Y-113127000D01*
X114747000Y-113127000D01*
X114493000Y-113127000D01*
X114473000Y-113127000D01*
X114473000Y-112873000D01*
X114493000Y-112873000D01*
X114493000Y-111679845D01*
X114747000Y-111679845D01*
X114747000Y-112873000D01*
X115940819Y-112873000D01*
X116061486Y-112643108D01*
X115815183Y-112118642D01*
X115386924Y-111728355D01*
X114976890Y-111558524D01*
X114747000Y-111679845D01*
X114493000Y-111679845D01*
X114263110Y-111558524D01*
X113853076Y-111728355D01*
X113424817Y-112118642D01*
X113295183Y-112394678D01*
X113040251Y-112013144D01*
X112599684Y-111718767D01*
X112080000Y-111615395D01*
X111560316Y-111718767D01*
X111119749Y-112013144D01*
X110864817Y-112394678D01*
X110735183Y-112118642D01*
X110306924Y-111728355D01*
X109896890Y-111558524D01*
X109667000Y-111679845D01*
X109413000Y-111679845D01*
X109183110Y-111558524D01*
X108773076Y-111728355D01*
X108359529Y-112105235D01*
X108332530Y-111961747D01*
X108221272Y-111788847D01*
X108051512Y-111672855D01*
X107850000Y-111632048D01*
X106150000Y-111632048D01*
X105961747Y-111667470D01*
X105788847Y-111778728D01*
X105672855Y-111948488D01*
X105632048Y-112150000D01*
X103575687Y-112150000D01*
X103575687Y-98649982D01*
X103627277Y-98598482D01*
X103750547Y-98301615D01*
X103750827Y-97980173D01*
X103628076Y-97683092D01*
X103449697Y-97504401D01*
X106191989Y-94762109D01*
X106191860Y-94910016D01*
X106314611Y-95207097D01*
X106541707Y-95434590D01*
X106838574Y-95557860D01*
X107160016Y-95558140D01*
X107457097Y-95435389D01*
X107684590Y-95208293D01*
X107807860Y-94911426D01*
X107807925Y-94837273D01*
X109797653Y-92847544D01*
X109797656Y-92847542D01*
X109867000Y-92743761D01*
X109867000Y-94527502D01*
X109661426Y-94442140D01*
X109339984Y-94441860D01*
X109042903Y-94564611D01*
X108815410Y-94791707D01*
X108692140Y-95088574D01*
X108691860Y-95410016D01*
X108814611Y-95707097D01*
X108867000Y-95759578D01*
X108867000Y-103499995D01*
X108866999Y-103500000D01*
X108915184Y-103742239D01*
X109052401Y-103947599D01*
X117191923Y-112087121D01*
X117191860Y-112160016D01*
X117314611Y-112457097D01*
X117541707Y-112684590D01*
X117838574Y-112807860D01*
X118160016Y-112808140D01*
X118457097Y-112685389D01*
X118623790Y-112518987D01*
X119152399Y-113047596D01*
X119152401Y-113047599D01*
X119357761Y-113184816D01*
X119600000Y-113233000D01*
X123240207Y-113233000D01*
X123291707Y-113284590D01*
X123588574Y-113407860D01*
X123910016Y-113408140D01*
X124207097Y-113285389D01*
X124434590Y-113058293D01*
X124557860Y-112761426D01*
X124558140Y-112439984D01*
X124435389Y-112142903D01*
X124208293Y-111915410D01*
X123911426Y-111792140D01*
X123589984Y-111791860D01*
X123292903Y-111914611D01*
X123240422Y-111967000D01*
X119862197Y-111967000D01*
X115528197Y-107633000D01*
X120724394Y-107633000D01*
X120565410Y-107791707D01*
X120442140Y-108088574D01*
X120441860Y-108410016D01*
X120564611Y-108707097D01*
X120617000Y-108759578D01*
X120617000Y-108999995D01*
X120616999Y-109000000D01*
X120665184Y-109242239D01*
X120802401Y-109447599D01*
X122191923Y-110837121D01*
X122191860Y-110910016D01*
X122314611Y-111207097D01*
X122541707Y-111434590D01*
X122838574Y-111557860D01*
X123160016Y-111558140D01*
X123457097Y-111435389D01*
X123684590Y-111208293D01*
X123807860Y-110911426D01*
X123808140Y-110589984D01*
X123685389Y-110292903D01*
X123458293Y-110065410D01*
X123250518Y-109979134D01*
X140981782Y-109979134D01*
X141172897Y-110441669D01*
X141475918Y-110745219D01*
X141174141Y-111046470D01*
X140982219Y-111508670D01*
X140981782Y-112009134D01*
X141172897Y-112471669D01*
X141526470Y-112825859D01*
X141988670Y-113017781D01*
X142489134Y-113018218D01*
X142951669Y-112827103D01*
X143305859Y-112473530D01*
X143497781Y-112011330D01*
X143498218Y-111510866D01*
X143307103Y-111048331D01*
X143004082Y-110744781D01*
X143305859Y-110443530D01*
X143497781Y-109981330D01*
X143498218Y-109480866D01*
X143307103Y-109018331D01*
X142953530Y-108664141D01*
X142643233Y-108535295D01*
X142963923Y-108402460D01*
X143031912Y-108161517D01*
X142240000Y-107369605D01*
X141448088Y-108161517D01*
X141516077Y-108402460D01*
X141861294Y-108525320D01*
X141528331Y-108662897D01*
X141174141Y-109016470D01*
X140982219Y-109478670D01*
X140981782Y-109979134D01*
X123250518Y-109979134D01*
X123161426Y-109942140D01*
X123087273Y-109942075D01*
X121894005Y-108748807D01*
X121934590Y-108708293D01*
X122057860Y-108411426D01*
X122058140Y-108089984D01*
X121935389Y-107792903D01*
X121775765Y-107633000D01*
X121999995Y-107633000D01*
X122000000Y-107633001D01*
X122242239Y-107584816D01*
X122447599Y-107447599D01*
X122910026Y-106985171D01*
X140842799Y-106985171D01*
X140870770Y-107535448D01*
X141027540Y-107913923D01*
X141268483Y-107981912D01*
X142060395Y-107190000D01*
X142419605Y-107190000D01*
X143211517Y-107981912D01*
X143452460Y-107913923D01*
X143637201Y-107394829D01*
X143609230Y-106844552D01*
X143452460Y-106466077D01*
X143211517Y-106398088D01*
X142419605Y-107190000D01*
X142060395Y-107190000D01*
X141268483Y-106398088D01*
X141027540Y-106466077D01*
X140842799Y-106985171D01*
X122910026Y-106985171D01*
X123087197Y-106808000D01*
X123600000Y-106808000D01*
X123985745Y-106731271D01*
X124312764Y-106512764D01*
X124509396Y-106218483D01*
X141448088Y-106218483D01*
X142240000Y-107010395D01*
X143031912Y-106218483D01*
X142963923Y-105977540D01*
X142444829Y-105792799D01*
X141894552Y-105820770D01*
X141516077Y-105977540D01*
X141448088Y-106218483D01*
X124509396Y-106218483D01*
X124531271Y-106185745D01*
X124608000Y-105800000D01*
X124578953Y-105653970D01*
X143575635Y-105653970D01*
X143735418Y-105972739D01*
X144526187Y-106282723D01*
X145375387Y-106266497D01*
X146084582Y-105972739D01*
X146244365Y-105653970D01*
X144910000Y-104319605D01*
X143575635Y-105653970D01*
X124578953Y-105653970D01*
X124531271Y-105414255D01*
X124312764Y-105087236D01*
X123985745Y-104868729D01*
X123600000Y-104792000D01*
X123217528Y-104792000D01*
X122181715Y-103756187D01*
X142767277Y-103756187D01*
X142783503Y-104605387D01*
X143077261Y-105314582D01*
X143396030Y-105474365D01*
X144730395Y-104140000D01*
X145089605Y-104140000D01*
X146423970Y-105474365D01*
X146742739Y-105314582D01*
X147052723Y-104523813D01*
X147036497Y-103674613D01*
X146742739Y-102965418D01*
X146423970Y-102805635D01*
X145089605Y-104140000D01*
X144730395Y-104140000D01*
X143396030Y-102805635D01*
X143077261Y-102965418D01*
X142767277Y-103756187D01*
X122181715Y-103756187D01*
X121051558Y-102626030D01*
X143575635Y-102626030D01*
X144910000Y-103960395D01*
X146244365Y-102626030D01*
X146084582Y-102307261D01*
X145293813Y-101997277D01*
X144444613Y-102013503D01*
X143735418Y-102307261D01*
X143575635Y-102626030D01*
X121051558Y-102626030D01*
X121008000Y-102582472D01*
X121008000Y-99760016D01*
X122741860Y-99760016D01*
X122864611Y-100057097D01*
X123091707Y-100284590D01*
X123388574Y-100407860D01*
X123710016Y-100408140D01*
X124007097Y-100285389D01*
X124234590Y-100058293D01*
X124357860Y-99761426D01*
X124357925Y-99687273D01*
X125597596Y-98447601D01*
X125597599Y-98447599D01*
X125734816Y-98242239D01*
X125755115Y-98140189D01*
X125783001Y-98000000D01*
X125783000Y-97999995D01*
X125783000Y-94109793D01*
X125834590Y-94058293D01*
X125957860Y-93761426D01*
X125958140Y-93439984D01*
X125835389Y-93142903D01*
X125608293Y-92915410D01*
X125311426Y-92792140D01*
X124989984Y-92791860D01*
X124692903Y-92914611D01*
X124465410Y-93141707D01*
X124342140Y-93438574D01*
X124341860Y-93760016D01*
X124464611Y-94057097D01*
X124517000Y-94109578D01*
X124517000Y-97737803D01*
X123462879Y-98791923D01*
X123389984Y-98791860D01*
X123092903Y-98914611D01*
X122865410Y-99141707D01*
X122742140Y-99438574D01*
X122741860Y-99760016D01*
X121008000Y-99760016D01*
X121008000Y-95395064D01*
X121181271Y-95135745D01*
X121258000Y-94750000D01*
X121258000Y-91760016D01*
X121991860Y-91760016D01*
X122114611Y-92057097D01*
X122341707Y-92284590D01*
X122638574Y-92407860D01*
X122960016Y-92408140D01*
X123081364Y-92358000D01*
X129518498Y-92358000D01*
X129638574Y-92407860D01*
X129960016Y-92408140D01*
X130257097Y-92285389D01*
X130484590Y-92058293D01*
X130607860Y-91761426D01*
X130608140Y-91439984D01*
X130485389Y-91142903D01*
X130258293Y-90915410D01*
X129961426Y-90792140D01*
X129639984Y-90791860D01*
X129518636Y-90842000D01*
X123081502Y-90842000D01*
X122961426Y-90792140D01*
X122639984Y-90791860D01*
X122342903Y-90914611D01*
X122115410Y-91141707D01*
X121992140Y-91438574D01*
X121991860Y-91760016D01*
X121258000Y-91760016D01*
X121258000Y-89250000D01*
X121181271Y-88864255D01*
X120962764Y-88537236D01*
X120657105Y-88333001D01*
X133307803Y-88333001D01*
X133614803Y-88640000D01*
X132327400Y-89927402D01*
X132190183Y-90132762D01*
X132141998Y-90375001D01*
X132141999Y-90375006D01*
X132141999Y-94174994D01*
X132141998Y-94174999D01*
X132190183Y-94417238D01*
X132327400Y-94622598D01*
X132391923Y-94687121D01*
X132391860Y-94760016D01*
X132514611Y-95057097D01*
X132741707Y-95284590D01*
X133038574Y-95407860D01*
X133360016Y-95408140D01*
X133657097Y-95285389D01*
X133884590Y-95058293D01*
X134007860Y-94761426D01*
X134008140Y-94439984D01*
X133885389Y-94142903D01*
X133658293Y-93915410D01*
X133407999Y-93811479D01*
X133407999Y-90637199D01*
X133485181Y-90560016D01*
X137941860Y-90560016D01*
X138064611Y-90857097D01*
X138291707Y-91084590D01*
X138317000Y-91095093D01*
X138317000Y-99290207D01*
X138265410Y-99341707D01*
X138142140Y-99638574D01*
X138141860Y-99960016D01*
X138264611Y-100257097D01*
X138491707Y-100484590D01*
X138788574Y-100607860D01*
X139110016Y-100608140D01*
X139407097Y-100485389D01*
X139634590Y-100258293D01*
X139757860Y-99961426D01*
X139758140Y-99639984D01*
X139635389Y-99342903D01*
X139583000Y-99290422D01*
X139583000Y-90600005D01*
X139583001Y-90600000D01*
X139557936Y-90473993D01*
X139558140Y-90239984D01*
X139435389Y-89942903D01*
X139208293Y-89715410D01*
X138911426Y-89592140D01*
X138589984Y-89591860D01*
X138292903Y-89714611D01*
X138065410Y-89941707D01*
X137942140Y-90238574D01*
X137941860Y-90560016D01*
X133485181Y-90560016D01*
X134020927Y-90024270D01*
X134025104Y-90030521D01*
X134449450Y-90314059D01*
X134950000Y-90413625D01*
X135450550Y-90314059D01*
X135874896Y-90030521D01*
X136158434Y-89606175D01*
X136258000Y-89105625D01*
X136258000Y-89054375D01*
X136158434Y-88553825D01*
X135874896Y-88129479D01*
X135450550Y-87845941D01*
X134950000Y-87746375D01*
X134798156Y-87776579D01*
X134750000Y-87767000D01*
X134568333Y-87803136D01*
X134017600Y-87252402D01*
X133812240Y-87115185D01*
X133570001Y-87067000D01*
X133569996Y-87067001D01*
X125075702Y-87067001D01*
X125184590Y-86958303D01*
X125307860Y-86661436D01*
X125308140Y-86339994D01*
X125185389Y-86042913D01*
X125133000Y-85990432D01*
X125133000Y-85007745D01*
X134121861Y-85007745D01*
X134195995Y-85253864D01*
X134733223Y-85446965D01*
X135303454Y-85419778D01*
X135704005Y-85253864D01*
X135778139Y-85007745D01*
X134950000Y-84179605D01*
X134121861Y-85007745D01*
X125133000Y-85007745D01*
X125133000Y-83783223D01*
X133503035Y-83783223D01*
X133530222Y-84353454D01*
X133696136Y-84754005D01*
X133942255Y-84828139D01*
X134770395Y-84000000D01*
X135129605Y-84000000D01*
X135957745Y-84828139D01*
X136203864Y-84754005D01*
X136396965Y-84216777D01*
X136369778Y-83646546D01*
X136203864Y-83245995D01*
X135957745Y-83171861D01*
X135129605Y-84000000D01*
X134770395Y-84000000D01*
X133942255Y-83171861D01*
X133696136Y-83245995D01*
X133503035Y-83783223D01*
X125133000Y-83783223D01*
X125133000Y-82992255D01*
X134121861Y-82992255D01*
X134950000Y-83820395D01*
X135778139Y-82992255D01*
X135704005Y-82746136D01*
X135166777Y-82553035D01*
X134596546Y-82580222D01*
X134195995Y-82746136D01*
X134121861Y-82992255D01*
X125133000Y-82992255D01*
X125133000Y-78000005D01*
X125133001Y-78000000D01*
X125084816Y-77757762D01*
X125084816Y-77757761D01*
X124947599Y-77552401D01*
X122633000Y-75237802D01*
X122633000Y-74009793D01*
X122684590Y-73958293D01*
X122807860Y-73661426D01*
X122808140Y-73339984D01*
X122733779Y-73160016D01*
X136191860Y-73160016D01*
X136314611Y-73457097D01*
X136367000Y-73509578D01*
X136367000Y-81249993D01*
X136366999Y-81249998D01*
X136415184Y-81492237D01*
X136552401Y-81697597D01*
X137802399Y-82947594D01*
X137802402Y-82947599D01*
X138338291Y-83483486D01*
X138441894Y-83587089D01*
X138441830Y-83660016D01*
X138564581Y-83957097D01*
X138791677Y-84184590D01*
X139088544Y-84307860D01*
X139409986Y-84308140D01*
X139707067Y-84185389D01*
X139934560Y-83958293D01*
X140057830Y-83661426D01*
X140058110Y-83339984D01*
X139935359Y-83042903D01*
X139708263Y-82815410D01*
X139411396Y-82692140D01*
X139337274Y-82692075D01*
X139225421Y-82580222D01*
X137633000Y-80987800D01*
X137633000Y-73509793D01*
X137684590Y-73458293D01*
X137807860Y-73161426D01*
X137808140Y-72839984D01*
X137685389Y-72542903D01*
X137458293Y-72315410D01*
X137161426Y-72192140D01*
X136839984Y-72191860D01*
X136542903Y-72314611D01*
X136315410Y-72541707D01*
X136192140Y-72838574D01*
X136191860Y-73160016D01*
X122733779Y-73160016D01*
X122685389Y-73042903D01*
X122458293Y-72815410D01*
X122161426Y-72692140D01*
X121839984Y-72691860D01*
X121542903Y-72814611D01*
X121315410Y-73041707D01*
X121192140Y-73338574D01*
X121191860Y-73660016D01*
X121314611Y-73957097D01*
X121367000Y-74009578D01*
X121367000Y-75499995D01*
X121366999Y-75500000D01*
X121415184Y-75742239D01*
X121552401Y-75947599D01*
X123867000Y-78262198D01*
X123867000Y-85990217D01*
X123815410Y-86041717D01*
X123692140Y-86338584D01*
X123691860Y-86660026D01*
X123814611Y-86957107D01*
X123924313Y-87067001D01*
X111550004Y-87067001D01*
X111549999Y-87067000D01*
X111347951Y-87107191D01*
X111307760Y-87115185D01*
X111192873Y-87191950D01*
X111089984Y-87191860D01*
X110792903Y-87314611D01*
X110565410Y-87541707D01*
X110442140Y-87838574D01*
X110441860Y-88160016D01*
X110455059Y-88191960D01*
X110339984Y-88191860D01*
X110042903Y-88314611D01*
X109983057Y-88374353D01*
X109983057Y-87662141D01*
X112637453Y-85007745D01*
X115721861Y-85007745D01*
X115795995Y-85253864D01*
X116333223Y-85446965D01*
X116903454Y-85419778D01*
X117304005Y-85253864D01*
X117378139Y-85007745D01*
X116550000Y-84179605D01*
X115721861Y-85007745D01*
X112637453Y-85007745D01*
X113861975Y-83783223D01*
X115103035Y-83783223D01*
X115130222Y-84353454D01*
X115296136Y-84754005D01*
X115542255Y-84828139D01*
X116370395Y-84000000D01*
X116729605Y-84000000D01*
X117557745Y-84828139D01*
X117803864Y-84754005D01*
X117996965Y-84216777D01*
X117969778Y-83646546D01*
X117803864Y-83245995D01*
X117557745Y-83171861D01*
X116729605Y-84000000D01*
X116370395Y-84000000D01*
X115542255Y-83171861D01*
X115296136Y-83245995D01*
X115103035Y-83783223D01*
X113861975Y-83783223D01*
X114652943Y-82992255D01*
X115721861Y-82992255D01*
X116550000Y-83820395D01*
X117378139Y-82992255D01*
X117304005Y-82746136D01*
X116766777Y-82553035D01*
X116196546Y-82580222D01*
X115795995Y-82746136D01*
X115721861Y-82992255D01*
X114652943Y-82992255D01*
X114847621Y-82797577D01*
X114984838Y-82592217D01*
X115033023Y-82349978D01*
X115033022Y-82349973D01*
X115033022Y-73907817D01*
X117540966Y-71399872D01*
X117564611Y-71457097D01*
X117791707Y-71684590D01*
X118088574Y-71807860D01*
X118410016Y-71808140D01*
X118707097Y-71685389D01*
X118759578Y-71633000D01*
X118854537Y-71633000D01*
X118854542Y-71633001D01*
X119096781Y-71584816D01*
X119302141Y-71447599D01*
X122366740Y-68383000D01*
X124740207Y-68383000D01*
X124791707Y-68434590D01*
X125088574Y-68557860D01*
X125410016Y-68558140D01*
X125707097Y-68435389D01*
X125934590Y-68208293D01*
X125954636Y-68160016D01*
X132791860Y-68160016D01*
X132914611Y-68457097D01*
X133141707Y-68684590D01*
X133438574Y-68807860D01*
X133760016Y-68808140D01*
X134057097Y-68685389D01*
X134284590Y-68458293D01*
X134295093Y-68433000D01*
X139890207Y-68433000D01*
X139941707Y-68484590D01*
X140238574Y-68607860D01*
X140560016Y-68608140D01*
X140857097Y-68485389D01*
X141084590Y-68258293D01*
X141207860Y-67961426D01*
X141208140Y-67639984D01*
X141085389Y-67342903D01*
X140858293Y-67115410D01*
X140561426Y-66992140D01*
X140239984Y-66991860D01*
X139942903Y-67114611D01*
X139890422Y-67167000D01*
X133800005Y-67167000D01*
X133800000Y-67166999D01*
X133673993Y-67192064D01*
X133439984Y-67191860D01*
X133142903Y-67314611D01*
X132915410Y-67541707D01*
X132792140Y-67838574D01*
X132791860Y-68160016D01*
X125954636Y-68160016D01*
X126057860Y-67911426D01*
X126058140Y-67589984D01*
X125935389Y-67292903D01*
X125708293Y-67065410D01*
X125411426Y-66942140D01*
X125089984Y-66941860D01*
X124792903Y-67064611D01*
X124740422Y-67117000D01*
X122104547Y-67117000D01*
X122104542Y-67116999D01*
X121862303Y-67165184D01*
X121656943Y-67302401D01*
X118662817Y-70296527D01*
X118649741Y-70291097D01*
X130979820Y-57961018D01*
X131632401Y-58613599D01*
X131652608Y-58627101D01*
X131875707Y-58850590D01*
X132172574Y-58973860D01*
X132494016Y-58974140D01*
X132791097Y-58851389D01*
X133018590Y-58624293D01*
X133141860Y-58327426D01*
X133142140Y-58005984D01*
X133019389Y-57708903D01*
X132792293Y-57481410D01*
X132495426Y-57358140D01*
X132173984Y-57357860D01*
X132169083Y-57359885D01*
X131173000Y-56363802D01*
X131173000Y-56205518D01*
X131500251Y-55986856D01*
X131794628Y-55546289D01*
X131810000Y-55469009D01*
X131825372Y-55546289D01*
X132119749Y-55986856D01*
X132560316Y-56281233D01*
X133080000Y-56384605D01*
X133599684Y-56281233D01*
X134040251Y-55986856D01*
X134208982Y-55734331D01*
X141291358Y-55734331D01*
X141854678Y-57097669D01*
X142896844Y-58141656D01*
X144259197Y-58707355D01*
X145734331Y-58708642D01*
X147097669Y-58145322D01*
X148141656Y-57103156D01*
X148707355Y-55740803D01*
X148708642Y-54265669D01*
X148145322Y-52902331D01*
X147103156Y-51858344D01*
X145740803Y-51292645D01*
X144265669Y-51291358D01*
X142902331Y-51854678D01*
X141858344Y-52896844D01*
X141292645Y-54259197D01*
X141291358Y-55734331D01*
X134208982Y-55734331D01*
X134334628Y-55546289D01*
X134438000Y-55026605D01*
X134438000Y-54973395D01*
X134334628Y-54453711D01*
X134040251Y-54013144D01*
X133706193Y-53789934D01*
X133846924Y-53731645D01*
X134275183Y-53341358D01*
X134521486Y-52816892D01*
X134400819Y-52587000D01*
X133207000Y-52587000D01*
X133207000Y-52607000D01*
X132953000Y-52607000D01*
X132953000Y-52587000D01*
X132933000Y-52587000D01*
X132933000Y-52333000D01*
X132953000Y-52333000D01*
X132953000Y-51139845D01*
X133207000Y-51139845D01*
X133207000Y-52333000D01*
X134400819Y-52333000D01*
X134521486Y-52103108D01*
X134275183Y-51578642D01*
X133846924Y-51188355D01*
X133436890Y-51018524D01*
X133207000Y-51139845D01*
X132953000Y-51139845D01*
X132723110Y-51018524D01*
X132313076Y-51188355D01*
X131884817Y-51578642D01*
X131755183Y-51854678D01*
X131500251Y-51473144D01*
X131059684Y-51178767D01*
X130540000Y-51075395D01*
X130020316Y-51178767D01*
X129579749Y-51473144D01*
X129285372Y-51913711D01*
X129270000Y-51990991D01*
X129254628Y-51913711D01*
X128960251Y-51473144D01*
X128519684Y-51178767D01*
X128000000Y-51075395D01*
X127480316Y-51178767D01*
X127039749Y-51473144D01*
X126745372Y-51913711D01*
X126667060Y-52307412D01*
X126518190Y-52456282D01*
X126204254Y-52518728D01*
X125877235Y-52737235D01*
X125737235Y-52877235D01*
X125518728Y-53204254D01*
X125456282Y-53518191D01*
X118537236Y-60437236D01*
X118318729Y-60764255D01*
X118241999Y-61150000D01*
X118242000Y-61150005D01*
X118242000Y-63500000D01*
X118318729Y-63885745D01*
X118537236Y-64212764D01*
X118864255Y-64431271D01*
X119250000Y-64508000D01*
X119635745Y-64431271D01*
X119962764Y-64212764D01*
X120181271Y-63885745D01*
X120258000Y-63500000D01*
X120258000Y-61567528D01*
X125238040Y-56587487D01*
X125224254Y-56620688D01*
X125223974Y-56942130D01*
X125346725Y-57239211D01*
X125399114Y-57291692D01*
X125399114Y-58442135D01*
X125089984Y-58441866D01*
X124792903Y-58564617D01*
X124565410Y-58791713D01*
X124442140Y-59088580D01*
X124441860Y-59410022D01*
X124564611Y-59707103D01*
X124617000Y-59759584D01*
X124617000Y-59987802D01*
X112111952Y-72492850D01*
X112111952Y-71032000D01*
X112076530Y-70843747D01*
X111965272Y-70670847D01*
X111795512Y-70554855D01*
X111594000Y-70514048D01*
X111427091Y-70514048D01*
X111704251Y-70328856D01*
X111998628Y-69888289D01*
X112102000Y-69368605D01*
X112102000Y-69315395D01*
X111998628Y-68795711D01*
X111704251Y-68355144D01*
X111263684Y-68060767D01*
X110744000Y-67957395D01*
X110224316Y-68060767D01*
X109783749Y-68355144D01*
X109489372Y-68795711D01*
X109386000Y-69315395D01*
X109386000Y-69368605D01*
X109489372Y-69888289D01*
X109783749Y-70328856D01*
X110060909Y-70514048D01*
X109894000Y-70514048D01*
X109705747Y-70549470D01*
X109532847Y-70660728D01*
X109416855Y-70830488D01*
X109376048Y-71032000D01*
X109376048Y-72732000D01*
X109411470Y-72920253D01*
X109522728Y-73093153D01*
X109692488Y-73209145D01*
X109894000Y-73249952D01*
X111354850Y-73249952D01*
X110987802Y-73617000D01*
X88262198Y-73617000D01*
X87197599Y-72552401D01*
X86992239Y-72415184D01*
X86750000Y-72366999D01*
X86749995Y-72367000D01*
X86370108Y-72367000D01*
X86279165Y-72146903D01*
X85855328Y-71722326D01*
X85301276Y-71492263D01*
X84701356Y-71491739D01*
X84146903Y-71720835D01*
X83722326Y-72144672D01*
X83492263Y-72698724D01*
X83491739Y-73298644D01*
X83720835Y-73853097D01*
X84144672Y-74277674D01*
X84698724Y-74507737D01*
X85298644Y-74508261D01*
X85853097Y-74279165D01*
X86277674Y-73855328D01*
X86369993Y-73633000D01*
X86487802Y-73633000D01*
X87552401Y-74697599D01*
X87757761Y-74834816D01*
X87797952Y-74842810D01*
X88000000Y-74883001D01*
X88000005Y-74883000D01*
X107721803Y-74883000D01*
X102302401Y-80302401D01*
X102165184Y-80507761D01*
X102116999Y-80750000D01*
X102117000Y-80750005D01*
X102117000Y-83120697D01*
X101837910Y-82934214D01*
X101500000Y-82867000D01*
X94250000Y-82867000D01*
X93912091Y-82934214D01*
X93625625Y-83125625D01*
X93434214Y-83412091D01*
X93367000Y-83750000D01*
X93434214Y-84087909D01*
X93625625Y-84374375D01*
X93912091Y-84565786D01*
X94250000Y-84633000D01*
X101134250Y-84633000D01*
X102867000Y-86365751D01*
X102867000Y-89388533D01*
X102684214Y-89662090D01*
X102617000Y-90000000D01*
X102684214Y-90337910D01*
X102753767Y-90442003D01*
X102589984Y-90441860D01*
X102292903Y-90564611D01*
X102065410Y-90791707D01*
X101942140Y-91088574D01*
X101941860Y-91410016D01*
X102064611Y-91707097D01*
X102291707Y-91934590D01*
X102588574Y-92057860D01*
X102910016Y-92058140D01*
X103207097Y-91935389D01*
X103259578Y-91883000D01*
X104221803Y-91883000D01*
X100137802Y-95967000D01*
X94709793Y-95967000D01*
X94658293Y-95915410D01*
X94361426Y-95792140D01*
X94039984Y-95791860D01*
X93742903Y-95914611D01*
X93515410Y-96141707D01*
X93392140Y-96438574D01*
X93391860Y-96760016D01*
X93514611Y-97057097D01*
X93741707Y-97284590D01*
X94038574Y-97407860D01*
X94360016Y-97408140D01*
X94657097Y-97285389D01*
X94709578Y-97233000D01*
X99508213Y-97233000D01*
X98802401Y-97938812D01*
X98665184Y-98144172D01*
X98616999Y-98386411D01*
X98617000Y-98386416D01*
X98617000Y-109528143D01*
X98580251Y-109473144D01*
X98139684Y-109178767D01*
X97620000Y-109075395D01*
X97100316Y-109178767D01*
X96659749Y-109473144D01*
X96365372Y-109913711D01*
X96350000Y-109990991D01*
X96334628Y-109913711D01*
X96040251Y-109473144D01*
X95599684Y-109178767D01*
X95080000Y-109075395D01*
X94560316Y-109178767D01*
X94119749Y-109473144D01*
X93825372Y-109913711D01*
X93810000Y-109990991D01*
X93794628Y-109913711D01*
X93500251Y-109473144D01*
X93059684Y-109178767D01*
X92540000Y-109075395D01*
X92020316Y-109178767D01*
X91579749Y-109473144D01*
X91285372Y-109913711D01*
X91270000Y-109990991D01*
X91254628Y-109913711D01*
X90960251Y-109473144D01*
X90519684Y-109178767D01*
X90000000Y-109075395D01*
X89480316Y-109178767D01*
X89039749Y-109473144D01*
X88839835Y-109772337D01*
X88839835Y-107207915D01*
X89110016Y-107208150D01*
X89407097Y-107085399D01*
X89634590Y-106858303D01*
X89757860Y-106561436D01*
X89757925Y-106487283D01*
X91187261Y-105057946D01*
X91410016Y-105058140D01*
X91707097Y-104935389D01*
X91934590Y-104708293D01*
X92057860Y-104411426D01*
X92058140Y-104089984D01*
X91935389Y-103792903D01*
X91708293Y-103565410D01*
X91525447Y-103489486D01*
X91557860Y-103411426D01*
X91558140Y-103089984D01*
X91435389Y-102792903D01*
X91208293Y-102565410D01*
X90911426Y-102442140D01*
X90589984Y-102441860D01*
X90292903Y-102564611D01*
X90065410Y-102791707D01*
X89942140Y-103088574D01*
X89941866Y-103403535D01*
X88839835Y-104505566D01*
X88839835Y-103668952D01*
X92047599Y-100461188D01*
X92083044Y-100408140D01*
X92184816Y-100255828D01*
X92209248Y-100133001D01*
X92233001Y-100013589D01*
X92233000Y-100013584D01*
X92233000Y-82912198D01*
X93512197Y-81633000D01*
X95740207Y-81633000D01*
X95791707Y-81684590D01*
X96088574Y-81807860D01*
X96410016Y-81808140D01*
X96707097Y-81685389D01*
X96934590Y-81458293D01*
X97057860Y-81161426D01*
X97058140Y-80839984D01*
X96935389Y-80542903D01*
X96708293Y-80315410D01*
X96525438Y-80239482D01*
X96557850Y-80161426D01*
X96558130Y-79839984D01*
X96435379Y-79542903D01*
X96208283Y-79315410D01*
X96057998Y-79253006D01*
X96058140Y-79089984D01*
X95935389Y-78792903D01*
X95708293Y-78565410D01*
X95411426Y-78442140D01*
X95089984Y-78441860D01*
X94792903Y-78564611D01*
X94565410Y-78791707D01*
X94534146Y-78867000D01*
X86370108Y-78867000D01*
X86279165Y-78646903D01*
X85855328Y-78222326D01*
X85301276Y-77992263D01*
X84701356Y-77991739D01*
X84146903Y-78220835D01*
X83722326Y-78644672D01*
X83492263Y-79198724D01*
X83491739Y-79798644D01*
X83720835Y-80353097D01*
X84144672Y-80777674D01*
X84698724Y-81007737D01*
X85298644Y-81008261D01*
X85853097Y-80779165D01*
X86277674Y-80355328D01*
X86369993Y-80133000D01*
X92585392Y-80133000D01*
X90702390Y-82016001D01*
X90577130Y-82203467D01*
X89910219Y-81536555D01*
X89704859Y-81399338D01*
X89462620Y-81351153D01*
X89462615Y-81351154D01*
X84786156Y-81351154D01*
X84543917Y-81399338D01*
X84338557Y-81536555D01*
X84338555Y-81536558D01*
X81774036Y-84101076D01*
X81701141Y-84101013D01*
X81404060Y-84223764D01*
X81176567Y-84450860D01*
X81053297Y-84747727D01*
X81053017Y-85069169D01*
X81175768Y-85366250D01*
X81402864Y-85593743D01*
X81699731Y-85717013D01*
X82021173Y-85717293D01*
X82318254Y-85594542D01*
X82545747Y-85367446D01*
X82669017Y-85070579D01*
X82669082Y-84996426D01*
X85048353Y-82617154D01*
X85928907Y-82617154D01*
X85928757Y-82789219D01*
X86051508Y-83086300D01*
X86278604Y-83313793D01*
X86575471Y-83437063D01*
X86649624Y-83437128D01*
X87611055Y-84398558D01*
X87611057Y-84398561D01*
X87691118Y-84452056D01*
X87816418Y-84535779D01*
X88058656Y-84583963D01*
X88058661Y-84583962D01*
X89155345Y-84583962D01*
X89206845Y-84635552D01*
X89503712Y-84758822D01*
X89825154Y-84759102D01*
X90122235Y-84636351D01*
X90349728Y-84409255D01*
X90472998Y-84112388D01*
X90473223Y-83854469D01*
X90516989Y-83854507D01*
X90516989Y-85096818D01*
X90372572Y-84952401D01*
X90167212Y-84815184D01*
X89924973Y-84766999D01*
X89924968Y-84767000D01*
X88309793Y-84767000D01*
X88258293Y-84715410D01*
X87961426Y-84592140D01*
X87639984Y-84591860D01*
X87342903Y-84714611D01*
X87115410Y-84941707D01*
X86992140Y-85238574D01*
X86991860Y-85560016D01*
X87114611Y-85857097D01*
X87341707Y-86084590D01*
X87638574Y-86207860D01*
X87960016Y-86208140D01*
X88257097Y-86085389D01*
X88309578Y-86033000D01*
X89662775Y-86033000D01*
X89716902Y-86087127D01*
X89716839Y-86160022D01*
X89839590Y-86457103D01*
X90066686Y-86684596D01*
X90363553Y-86807866D01*
X90516989Y-86808000D01*
X90516989Y-87574209D01*
X90458293Y-87515410D01*
X90161426Y-87392140D01*
X89839984Y-87391860D01*
X89542903Y-87514611D01*
X89315410Y-87741707D01*
X89192140Y-88038574D01*
X89192075Y-88112727D01*
X88726390Y-88578412D01*
X88589173Y-88783772D01*
X88540988Y-89026011D01*
X88540989Y-89026016D01*
X88540989Y-97700102D01*
X88489399Y-97751602D01*
X88366129Y-98048469D01*
X88365849Y-98369911D01*
X88488600Y-98666992D01*
X88715696Y-98894485D01*
X88888544Y-98966258D01*
X83987802Y-103867000D01*
X81500000Y-103867000D01*
X81257761Y-103915184D01*
X81052401Y-104052401D01*
X81052399Y-104052404D01*
X72172401Y-112932401D01*
X72035184Y-113137761D01*
X71986999Y-113380000D01*
X71987000Y-113380005D01*
X71987000Y-143794482D01*
X71659749Y-144013144D01*
X71365372Y-144453711D01*
X71350000Y-144530991D01*
X71334628Y-144453711D01*
X71040251Y-144013144D01*
X70599684Y-143718767D01*
X70080000Y-143615395D01*
X69560316Y-143718767D01*
X69119749Y-144013144D01*
X68825372Y-144453711D01*
X68810000Y-144530991D01*
X68794628Y-144453711D01*
X68500251Y-144013144D01*
X68059684Y-143718767D01*
X67540000Y-143615395D01*
X67020316Y-143718767D01*
X66579749Y-144013144D01*
X66485000Y-144154946D01*
X66485000Y-144023691D01*
X66388327Y-143790302D01*
X66209699Y-143611673D01*
X65976310Y-143515000D01*
X65285750Y-143515000D01*
X65127000Y-143673750D01*
X64873000Y-143673750D01*
X64714250Y-143515000D01*
X64023690Y-143515000D01*
X63790301Y-143611673D01*
X63611673Y-143790302D01*
X63515000Y-144023691D01*
X58608659Y-144023691D01*
X58145322Y-142902331D01*
X57103156Y-141858344D01*
X55740803Y-141292645D01*
X54265669Y-141291358D01*
X52902331Y-141854678D01*
X51858344Y-142896844D01*
X51292645Y-144259197D01*
X51291358Y-145734331D01*
X50583000Y-145734331D01*
X50583000Y-124896890D01*
X53558524Y-124896890D01*
X53728355Y-125306924D01*
X54118642Y-125735183D01*
X54394678Y-125864817D01*
X54013144Y-126119749D01*
X53718767Y-126560316D01*
X53615395Y-127080000D01*
X53718767Y-127599684D01*
X54013144Y-128040251D01*
X54453711Y-128334628D01*
X54530991Y-128350000D01*
X54453711Y-128365372D01*
X54013144Y-128659749D01*
X53718767Y-129100316D01*
X53615395Y-129620000D01*
X53718767Y-130139684D01*
X54013144Y-130580251D01*
X54453711Y-130874628D01*
X54973395Y-130978000D01*
X55026605Y-130978000D01*
X55546289Y-130874628D01*
X55986856Y-130580251D01*
X56281233Y-130139684D01*
X56384605Y-129620000D01*
X56281233Y-129100316D01*
X55986856Y-128659749D01*
X55546289Y-128365372D01*
X55469009Y-128350000D01*
X55546289Y-128334628D01*
X55986856Y-128040251D01*
X56281233Y-127599684D01*
X56384605Y-127080000D01*
X56281233Y-126560316D01*
X55986856Y-126119749D01*
X55605322Y-125864817D01*
X55881358Y-125735183D01*
X56271645Y-125306924D01*
X56441476Y-124896890D01*
X56320155Y-124667000D01*
X55127000Y-124667000D01*
X55127000Y-124687000D01*
X54873000Y-124687000D01*
X54873000Y-124667000D01*
X53679845Y-124667000D01*
X53558524Y-124896890D01*
X50583000Y-124896890D01*
X50583000Y-124183110D01*
X53558524Y-124183110D01*
X53679845Y-124413000D01*
X54873000Y-124413000D01*
X54873000Y-124393000D01*
X55127000Y-124393000D01*
X55127000Y-124413000D01*
X56320155Y-124413000D01*
X56441476Y-124183110D01*
X56271645Y-123773076D01*
X55894765Y-123359529D01*
X56038253Y-123332530D01*
X56211153Y-123221272D01*
X56327145Y-123051512D01*
X56367952Y-122850000D01*
X56367952Y-121150000D01*
X56332530Y-120961747D01*
X56221272Y-120788847D01*
X56051512Y-120672855D01*
X55850000Y-120632048D01*
X54150000Y-120632048D01*
X53961747Y-120667470D01*
X53788847Y-120778728D01*
X53672855Y-120948488D01*
X53632048Y-121150000D01*
X53632048Y-122850000D01*
X53667470Y-123038253D01*
X53778728Y-123211153D01*
X53948488Y-123327145D01*
X54105729Y-123358987D01*
X53728355Y-123773076D01*
X53558524Y-124183110D01*
X50583000Y-124183110D01*
X50583000Y-117960014D01*
X67591860Y-117960014D01*
X67714611Y-118257095D01*
X67767000Y-118309576D01*
X67767000Y-121973098D01*
X67645138Y-122266574D01*
X67644858Y-122588016D01*
X67767609Y-122885097D01*
X67994705Y-123112590D01*
X68291572Y-123235860D01*
X68613014Y-123236140D01*
X68910095Y-123113389D01*
X69137588Y-122886293D01*
X69260858Y-122589426D01*
X69261138Y-122267984D01*
X69138387Y-121970903D01*
X69033000Y-121865332D01*
X69033000Y-118309791D01*
X69084590Y-118258291D01*
X69207860Y-117961424D01*
X69208140Y-117639982D01*
X69085389Y-117342901D01*
X68858293Y-117115408D01*
X68561426Y-116992138D01*
X68239984Y-116991858D01*
X67942903Y-117114609D01*
X67715410Y-117341705D01*
X67592140Y-117638572D01*
X67591860Y-117960014D01*
X50583000Y-117960014D01*
X50583000Y-101160016D01*
X53191856Y-101160016D01*
X53314607Y-101457097D01*
X53541703Y-101684590D01*
X53838570Y-101807860D01*
X53912723Y-101807925D01*
X55567000Y-103462201D01*
X55567000Y-105490207D01*
X55515410Y-105541707D01*
X55392140Y-105838574D01*
X55391860Y-106160016D01*
X55514611Y-106457097D01*
X55741707Y-106684590D01*
X56038574Y-106807860D01*
X56360016Y-106808140D01*
X56657097Y-106685389D01*
X56884590Y-106458293D01*
X57007860Y-106161426D01*
X57008140Y-105839984D01*
X56885389Y-105542903D01*
X56833000Y-105490422D01*
X56833000Y-103200009D01*
X56833001Y-103200004D01*
X56784816Y-102957766D01*
X56784816Y-102957765D01*
X56647599Y-102752405D01*
X56647596Y-102752403D01*
X55528176Y-101632982D01*
X59867000Y-101632982D01*
X59867000Y-104000001D01*
X59866999Y-104000006D01*
X59915184Y-104242245D01*
X60052401Y-104447605D01*
X61691923Y-106087127D01*
X61691860Y-106160022D01*
X61814611Y-106457103D01*
X62041707Y-106684596D01*
X62338574Y-106807866D01*
X62660016Y-106808146D01*
X62957097Y-106685395D01*
X63184590Y-106458299D01*
X63307860Y-106161432D01*
X63308140Y-105839990D01*
X63185389Y-105542909D01*
X62958293Y-105315416D01*
X62661426Y-105192146D01*
X62587273Y-105192081D01*
X61133000Y-103737808D01*
X61133000Y-101632982D01*
X64000013Y-101632982D01*
X64000018Y-101632983D01*
X64242257Y-101584798D01*
X64447617Y-101447581D01*
X65087121Y-100808077D01*
X65160016Y-100808140D01*
X65457097Y-100685389D01*
X65684590Y-100458293D01*
X65807860Y-100161426D01*
X65808140Y-99839984D01*
X65747408Y-99693000D01*
X66776406Y-99693000D01*
X66776411Y-99693001D01*
X67018650Y-99644816D01*
X67224010Y-99507599D01*
X71482475Y-95249134D01*
X83741782Y-95249134D01*
X83932897Y-95711669D01*
X84286470Y-96065859D01*
X84748670Y-96257781D01*
X85249134Y-96258218D01*
X85711669Y-96067103D01*
X86065859Y-95713530D01*
X86257781Y-95251330D01*
X86258218Y-94750866D01*
X86067103Y-94288331D01*
X85713530Y-93934141D01*
X85251330Y-93742219D01*
X84750866Y-93741782D01*
X84288331Y-93932897D01*
X83934141Y-94286470D01*
X83742219Y-94748670D01*
X83741782Y-95249134D01*
X71482475Y-95249134D01*
X76362475Y-90369134D01*
X83741782Y-90369134D01*
X83932897Y-90831669D01*
X84286470Y-91185859D01*
X84748670Y-91377781D01*
X85249134Y-91378218D01*
X85711669Y-91187103D01*
X86065859Y-90833530D01*
X86257781Y-90371330D01*
X86258218Y-89870866D01*
X86067103Y-89408331D01*
X85713530Y-89054141D01*
X85251330Y-88862219D01*
X84750866Y-88861782D01*
X84288331Y-89052897D01*
X83934141Y-89406470D01*
X83742219Y-89868670D01*
X83741782Y-90369134D01*
X76362475Y-90369134D01*
X76697599Y-90034010D01*
X76834816Y-89828650D01*
X76883001Y-89586411D01*
X76883000Y-89586406D01*
X76883000Y-80652532D01*
X79527073Y-80652532D01*
X79625736Y-80919387D01*
X80235461Y-81145908D01*
X80885460Y-81121856D01*
X81374264Y-80919387D01*
X81472927Y-80652532D01*
X80500000Y-79679605D01*
X79527073Y-80652532D01*
X76883000Y-80652532D01*
X76883000Y-79235461D01*
X78854092Y-79235461D01*
X78878144Y-79885460D01*
X79080613Y-80374264D01*
X79347468Y-80472927D01*
X80320395Y-79500000D01*
X80679605Y-79500000D01*
X81652532Y-80472927D01*
X81919387Y-80374264D01*
X82145908Y-79764539D01*
X82121856Y-79114540D01*
X81919387Y-78625736D01*
X81652532Y-78527073D01*
X80679605Y-79500000D01*
X80320395Y-79500000D01*
X79347468Y-78527073D01*
X79080613Y-78625736D01*
X78854092Y-79235461D01*
X76883000Y-79235461D01*
X76883000Y-78347468D01*
X79527073Y-78347468D01*
X80500000Y-79320395D01*
X81472927Y-78347468D01*
X81374264Y-78080613D01*
X80764539Y-77854092D01*
X80114540Y-77878144D01*
X79625736Y-78080613D01*
X79527073Y-78347468D01*
X76883000Y-78347468D01*
X76883000Y-75012198D01*
X77742665Y-74152532D01*
X79527073Y-74152532D01*
X79625736Y-74419387D01*
X80235461Y-74645908D01*
X80885460Y-74621856D01*
X81374264Y-74419387D01*
X81472927Y-74152532D01*
X80500000Y-73179605D01*
X79527073Y-74152532D01*
X77742665Y-74152532D01*
X78864998Y-73030199D01*
X78878144Y-73385460D01*
X79080613Y-73874264D01*
X79347468Y-73972927D01*
X80320395Y-73000000D01*
X80679605Y-73000000D01*
X81652532Y-73972927D01*
X81919387Y-73874264D01*
X82145908Y-73264539D01*
X82121856Y-72614540D01*
X81919387Y-72125736D01*
X81652532Y-72027073D01*
X80679605Y-73000000D01*
X80320395Y-73000000D01*
X80306253Y-72985858D01*
X80485858Y-72806253D01*
X80500000Y-72820395D01*
X81472927Y-71847468D01*
X81374264Y-71580613D01*
X80764539Y-71354092D01*
X80532520Y-71362677D01*
X80962197Y-70933000D01*
X92954492Y-70933000D01*
X92975310Y-70983383D01*
X93314830Y-71323495D01*
X93758660Y-71507790D01*
X94239232Y-71508209D01*
X94683383Y-71324690D01*
X95023495Y-70985170D01*
X95207790Y-70541340D01*
X95207791Y-70539232D01*
X95291791Y-70539232D01*
X95475310Y-70983383D01*
X95814830Y-71323495D01*
X96258660Y-71507790D01*
X96739232Y-71508209D01*
X97183383Y-71324690D01*
X97523495Y-70985170D01*
X97707790Y-70541340D01*
X97707791Y-70539232D01*
X97791791Y-70539232D01*
X97975310Y-70983383D01*
X98314830Y-71323495D01*
X98758660Y-71507790D01*
X99239232Y-71508209D01*
X99683383Y-71324690D01*
X100023495Y-70985170D01*
X100207790Y-70541340D01*
X100208209Y-70060768D01*
X100024690Y-69616617D01*
X99685170Y-69276505D01*
X99241340Y-69092210D01*
X98760768Y-69091791D01*
X98316617Y-69275310D01*
X97976505Y-69614830D01*
X97792210Y-70058660D01*
X97791791Y-70539232D01*
X97707791Y-70539232D01*
X97708209Y-70060768D01*
X97524690Y-69616617D01*
X97185170Y-69276505D01*
X96741340Y-69092210D01*
X96260768Y-69091791D01*
X95816617Y-69275310D01*
X95476505Y-69614830D01*
X95292210Y-70058660D01*
X95291791Y-70539232D01*
X95207791Y-70539232D01*
X95208209Y-70060768D01*
X95024690Y-69616617D01*
X94685170Y-69276505D01*
X94241340Y-69092210D01*
X93760768Y-69091791D01*
X93316617Y-69275310D01*
X92976505Y-69614830D01*
X92954842Y-69667000D01*
X81478198Y-69667000D01*
X83512198Y-67633000D01*
X92782048Y-67633000D01*
X92782048Y-67700000D01*
X92817470Y-67888253D01*
X92928728Y-68061153D01*
X93098488Y-68177145D01*
X93300000Y-68217952D01*
X94700000Y-68217952D01*
X94888253Y-68182530D01*
X95061153Y-68071272D01*
X95177145Y-67901512D01*
X95217952Y-67700000D01*
X95217952Y-67239232D01*
X95291791Y-67239232D01*
X95475310Y-67683383D01*
X95814830Y-68023495D01*
X96258660Y-68207790D01*
X96739232Y-68208209D01*
X97183383Y-68024690D01*
X97523495Y-67685170D01*
X97707790Y-67241340D01*
X97707791Y-67239232D01*
X97791791Y-67239232D01*
X97975310Y-67683383D01*
X98314830Y-68023495D01*
X98758660Y-68207790D01*
X99239232Y-68208209D01*
X99683383Y-68024690D01*
X100023495Y-67685170D01*
X100207790Y-67241340D01*
X100208209Y-66760768D01*
X100024690Y-66316617D01*
X99685170Y-65976505D01*
X99241340Y-65792210D01*
X98760768Y-65791791D01*
X98316617Y-65975310D01*
X97976505Y-66314830D01*
X97792210Y-66758660D01*
X97791791Y-67239232D01*
X97707791Y-67239232D01*
X97708209Y-66760768D01*
X97524690Y-66316617D01*
X97185170Y-65976505D01*
X96741340Y-65792210D01*
X96260768Y-65791791D01*
X95816617Y-65975310D01*
X95476505Y-66314830D01*
X95292210Y-66758660D01*
X95291791Y-67239232D01*
X95217952Y-67239232D01*
X95217952Y-66300000D01*
X95182530Y-66111747D01*
X95071272Y-65938847D01*
X94901512Y-65822855D01*
X94700000Y-65782048D01*
X93300000Y-65782048D01*
X93111747Y-65817470D01*
X92938847Y-65928728D01*
X92822855Y-66098488D01*
X92782048Y-66300000D01*
X92782048Y-66367000D01*
X83250000Y-66367000D01*
X83007761Y-66415184D01*
X82802401Y-66552401D01*
X75052401Y-74302401D01*
X74915184Y-74507761D01*
X74866999Y-74750000D01*
X74867000Y-74750005D01*
X74867000Y-89437802D01*
X66766802Y-97538000D01*
X56262793Y-97538000D01*
X56211293Y-97486410D01*
X55914426Y-97363140D01*
X55592984Y-97362860D01*
X55295903Y-97485611D01*
X55068410Y-97712707D01*
X54945140Y-98009574D01*
X54944860Y-98331016D01*
X55067611Y-98628097D01*
X55294707Y-98855590D01*
X55591574Y-98978860D01*
X55913016Y-98979140D01*
X56210097Y-98856389D01*
X56262578Y-98804000D01*
X57189593Y-98804000D01*
X57042903Y-98864611D01*
X56815410Y-99091707D01*
X56692140Y-99388574D01*
X56691860Y-99710016D01*
X56814611Y-100007097D01*
X57041707Y-100234590D01*
X57338574Y-100357860D01*
X57660016Y-100358140D01*
X57957097Y-100235389D01*
X58184590Y-100008293D01*
X58307860Y-99711426D01*
X58307925Y-99637273D01*
X58312197Y-99633000D01*
X62237802Y-99633000D01*
X62752402Y-100147600D01*
X62971785Y-100366982D01*
X61009793Y-100366982D01*
X60958293Y-100315392D01*
X60661426Y-100192122D01*
X60339984Y-100191842D01*
X60042903Y-100314593D01*
X59990422Y-100366982D01*
X54509771Y-100366982D01*
X54458289Y-100315410D01*
X54161422Y-100192140D01*
X53839980Y-100191860D01*
X53542899Y-100314611D01*
X53315406Y-100541707D01*
X53192136Y-100838574D01*
X53191856Y-101160016D01*
X50583000Y-101160016D01*
X50583000Y-93127000D01*
X52000000Y-93127000D01*
X52046159Y-93118315D01*
X52088553Y-93091035D01*
X52116994Y-93049410D01*
X52127000Y-93000000D01*
X52127000Y-90127000D01*
X71000000Y-90127000D01*
X71046159Y-90118315D01*
X71088553Y-90091035D01*
X71116994Y-90049410D01*
X71127000Y-90000000D01*
X71127000Y-80000000D01*
X71118315Y-79953841D01*
X71091035Y-79911447D01*
X71049410Y-79883006D01*
X71000000Y-79873000D01*
X52127000Y-79873000D01*
X52127000Y-77000000D01*
X52118315Y-76953841D01*
X52091035Y-76911447D01*
X52049410Y-76883006D01*
X52000000Y-76873000D01*
X50583000Y-76873000D01*
X50583000Y-73548644D01*
X52241739Y-73548644D01*
X52470835Y-74103097D01*
X52894672Y-74527674D01*
X53448724Y-74757737D01*
X54048644Y-74758261D01*
X54603097Y-74529165D01*
X55027674Y-74105328D01*
X55257737Y-73551276D01*
X55257739Y-73548644D01*
X58741739Y-73548644D01*
X58970835Y-74103097D01*
X59394672Y-74527674D01*
X59948724Y-74757737D01*
X60548644Y-74758261D01*
X61103097Y-74529165D01*
X61131716Y-74500596D01*
X61257761Y-74584816D01*
X61500000Y-74633000D01*
X65999995Y-74633000D01*
X66000000Y-74633001D01*
X66242239Y-74584816D01*
X66447599Y-74447599D01*
X67087121Y-73808077D01*
X67160016Y-73808140D01*
X67457097Y-73685389D01*
X67684590Y-73458293D01*
X67807860Y-73161426D01*
X67808140Y-72839984D01*
X67685389Y-72542903D01*
X67458293Y-72315410D01*
X67161426Y-72192140D01*
X66839984Y-72191860D01*
X66542903Y-72314611D01*
X66315410Y-72541707D01*
X66192140Y-72838574D01*
X66192075Y-72912727D01*
X65737802Y-73367000D01*
X61762197Y-73367000D01*
X61757902Y-73362704D01*
X61758261Y-72951356D01*
X61529165Y-72396903D01*
X61105328Y-71972326D01*
X60551276Y-71742263D01*
X59951356Y-71741739D01*
X59396903Y-71970835D01*
X58972326Y-72394672D01*
X58742263Y-72948724D01*
X58741739Y-73548644D01*
X55257739Y-73548644D01*
X55258261Y-72951356D01*
X55029165Y-72396903D01*
X54605328Y-71972326D01*
X54051276Y-71742263D01*
X53451356Y-71741739D01*
X52896903Y-71970835D01*
X52472326Y-72394672D01*
X52242263Y-72948724D01*
X52241739Y-73548644D01*
X50583000Y-73548644D01*
X50583000Y-69048644D01*
X52241739Y-69048644D01*
X52470835Y-69603097D01*
X52894672Y-70027674D01*
X53448724Y-70257737D01*
X54048644Y-70258261D01*
X54603097Y-70029165D01*
X55027674Y-69605328D01*
X55257737Y-69051276D01*
X55257739Y-69048644D01*
X58741739Y-69048644D01*
X58970835Y-69603097D01*
X59394672Y-70027674D01*
X59948724Y-70257737D01*
X60548644Y-70258261D01*
X61103097Y-70029165D01*
X61527674Y-69605328D01*
X61757737Y-69051276D01*
X61758261Y-68451356D01*
X61529165Y-67896903D01*
X61105328Y-67472326D01*
X60551276Y-67242263D01*
X59951356Y-67241739D01*
X59396903Y-67470835D01*
X58972326Y-67894672D01*
X58742263Y-68448724D01*
X58741739Y-69048644D01*
X55257739Y-69048644D01*
X55258261Y-68451356D01*
X55029165Y-67896903D01*
X54605328Y-67472326D01*
X54051276Y-67242263D01*
X53451356Y-67241739D01*
X52896903Y-67470835D01*
X52472326Y-67894672D01*
X52242263Y-68448724D01*
X52241739Y-69048644D01*
X50583000Y-69048644D01*
X50583000Y-55734331D01*
X51291358Y-55734331D01*
X51854678Y-57097669D01*
X52896844Y-58141656D01*
X54259197Y-58707355D01*
X55734331Y-58708642D01*
X57097669Y-58145322D01*
X57886310Y-57358056D01*
X60491687Y-57358056D01*
X60766358Y-58022812D01*
X61274513Y-58531854D01*
X61938789Y-58807686D01*
X62658056Y-58808313D01*
X62920194Y-58700000D01*
X65182048Y-58700000D01*
X65182048Y-61300000D01*
X65217470Y-61488253D01*
X65328728Y-61661153D01*
X65498488Y-61777145D01*
X65700000Y-61817952D01*
X68300000Y-61817952D01*
X68488253Y-61782530D01*
X68661153Y-61671272D01*
X68777145Y-61501512D01*
X68817952Y-61300000D01*
X68817952Y-61257745D01*
X99421861Y-61257745D01*
X99495995Y-61503864D01*
X100033223Y-61696965D01*
X100603454Y-61669778D01*
X101004005Y-61503864D01*
X101078139Y-61257745D01*
X100250000Y-60429605D01*
X99421861Y-61257745D01*
X68817952Y-61257745D01*
X68817952Y-60033223D01*
X98803035Y-60033223D01*
X98830222Y-60603454D01*
X98996136Y-61004005D01*
X99242255Y-61078139D01*
X100070395Y-60250000D01*
X100429605Y-60250000D01*
X101257745Y-61078139D01*
X101503864Y-61004005D01*
X101696965Y-60466777D01*
X101669778Y-59896546D01*
X101503864Y-59495995D01*
X101351165Y-59450000D01*
X102432048Y-59450000D01*
X102432048Y-61050000D01*
X102467470Y-61238253D01*
X102578728Y-61411153D01*
X102748488Y-61527145D01*
X102950000Y-61567952D01*
X104550000Y-61567952D01*
X104738253Y-61532530D01*
X104911153Y-61421272D01*
X105027145Y-61251512D01*
X105067952Y-61050000D01*
X105067952Y-60000000D01*
X109991999Y-60000000D01*
X109991999Y-60000003D01*
X110012745Y-60104297D01*
X110051673Y-60299996D01*
X110068730Y-60385748D01*
X110139885Y-60492238D01*
X110287236Y-60712764D01*
X115787226Y-66212753D01*
X115787228Y-66212756D01*
X116018071Y-66367000D01*
X116114247Y-66431263D01*
X116499992Y-66507992D01*
X116750000Y-66507992D01*
X117135745Y-66431263D01*
X117462764Y-66212756D01*
X117681271Y-65885737D01*
X117758000Y-65499992D01*
X117681271Y-65114247D01*
X117462764Y-64787228D01*
X117135745Y-64568721D01*
X116959114Y-64533587D01*
X112012764Y-59587236D01*
X112012762Y-59587233D01*
X111831349Y-59405821D01*
X111712764Y-59287236D01*
X111385745Y-59068729D01*
X111385743Y-59068729D01*
X111385742Y-59068728D01*
X111230187Y-59037786D01*
X111000000Y-58991999D01*
X110999999Y-58991999D01*
X110769807Y-59037788D01*
X110614255Y-59068729D01*
X110614254Y-59068730D01*
X110614252Y-59068730D01*
X110491134Y-59150996D01*
X110287236Y-59287236D01*
X110068729Y-59614255D01*
X110068729Y-59614257D01*
X110068728Y-59614258D01*
X110050260Y-59707103D01*
X109991999Y-60000000D01*
X105067952Y-60000000D01*
X105067952Y-59450000D01*
X105032530Y-59261747D01*
X104921272Y-59088847D01*
X104751512Y-58972855D01*
X104550000Y-58932048D01*
X102950000Y-58932048D01*
X102761747Y-58967470D01*
X102588847Y-59078728D01*
X102472855Y-59248488D01*
X102432048Y-59450000D01*
X101351165Y-59450000D01*
X101257745Y-59421861D01*
X100429605Y-60250000D01*
X100070395Y-60250000D01*
X99242255Y-59421861D01*
X98996136Y-59495995D01*
X98803035Y-60033223D01*
X68817952Y-60033223D01*
X68817952Y-59242255D01*
X99421861Y-59242255D01*
X100250000Y-60070395D01*
X101078139Y-59242255D01*
X101004005Y-58996136D01*
X100466777Y-58803035D01*
X99896546Y-58830222D01*
X99495995Y-58996136D01*
X99421861Y-59242255D01*
X68817952Y-59242255D01*
X68817952Y-58700000D01*
X68782530Y-58511747D01*
X68671272Y-58338847D01*
X68501512Y-58222855D01*
X68300000Y-58182048D01*
X65700000Y-58182048D01*
X65511747Y-58217470D01*
X65338847Y-58328728D01*
X65222855Y-58498488D01*
X65182048Y-58700000D01*
X62920194Y-58700000D01*
X63322812Y-58533642D01*
X63831854Y-58025487D01*
X64107686Y-57361211D01*
X64108313Y-56641944D01*
X63961137Y-56285750D01*
X78365000Y-56285750D01*
X78365000Y-57126310D01*
X78461673Y-57359699D01*
X78640302Y-57538327D01*
X78873691Y-57635000D01*
X79714250Y-57635000D01*
X79873000Y-57476250D01*
X79873000Y-56127000D01*
X80127000Y-56127000D01*
X80127000Y-57476250D01*
X80285750Y-57635000D01*
X81126309Y-57635000D01*
X81359698Y-57538327D01*
X81538327Y-57359699D01*
X81635000Y-57126310D01*
X81635000Y-56298644D01*
X83491739Y-56298644D01*
X83720835Y-56853097D01*
X84144672Y-57277674D01*
X84698724Y-57507737D01*
X85298644Y-57508261D01*
X85853097Y-57279165D01*
X86277674Y-56855328D01*
X86507737Y-56301276D01*
X86508261Y-55701356D01*
X86279165Y-55146903D01*
X85855328Y-54722326D01*
X85301276Y-54492263D01*
X84701356Y-54491739D01*
X84146903Y-54720835D01*
X83722326Y-55144672D01*
X83492263Y-55698724D01*
X83491739Y-56298644D01*
X81635000Y-56298644D01*
X81635000Y-56285750D01*
X81476250Y-56127000D01*
X80127000Y-56127000D01*
X79873000Y-56127000D01*
X78523750Y-56127000D01*
X78365000Y-56285750D01*
X63961137Y-56285750D01*
X63833642Y-55977188D01*
X63325487Y-55468146D01*
X63087823Y-55369459D01*
X65810146Y-55369459D01*
X65945504Y-55667455D01*
X66663880Y-55944066D01*
X67433427Y-55924710D01*
X68054496Y-55667455D01*
X68189854Y-55369459D01*
X67000000Y-54179605D01*
X65810146Y-55369459D01*
X63087823Y-55369459D01*
X62661211Y-55192314D01*
X61941944Y-55191687D01*
X61277188Y-55466358D01*
X60768146Y-55974513D01*
X60492314Y-56638789D01*
X60491687Y-57358056D01*
X57886310Y-57358056D01*
X58141656Y-57103156D01*
X58707355Y-55740803D01*
X58708642Y-54265669D01*
X58459988Y-53663880D01*
X65055934Y-53663880D01*
X65075290Y-54433427D01*
X65332545Y-55054496D01*
X65630541Y-55189854D01*
X66820395Y-54000000D01*
X67179605Y-54000000D01*
X68369459Y-55189854D01*
X68667455Y-55054496D01*
X68737074Y-54873690D01*
X78365000Y-54873690D01*
X78365000Y-55714250D01*
X78523750Y-55873000D01*
X79873000Y-55873000D01*
X79873000Y-54523750D01*
X80127000Y-54523750D01*
X80127000Y-55873000D01*
X81476250Y-55873000D01*
X81635000Y-55714250D01*
X81635000Y-54873690D01*
X81538327Y-54640301D01*
X81359698Y-54461673D01*
X81126309Y-54365000D01*
X80285750Y-54365000D01*
X80127000Y-54523750D01*
X79873000Y-54523750D01*
X79714250Y-54365000D01*
X78873691Y-54365000D01*
X78640302Y-54461673D01*
X78461673Y-54640301D01*
X78365000Y-54873690D01*
X68737074Y-54873690D01*
X68944066Y-54336120D01*
X68924710Y-53566573D01*
X68808390Y-53285750D01*
X98515000Y-53285750D01*
X98515000Y-53976309D01*
X98611673Y-54209698D01*
X98790301Y-54388327D01*
X99023690Y-54485000D01*
X99714250Y-54485000D01*
X99873000Y-54326250D01*
X99873000Y-53127000D01*
X98673750Y-53127000D01*
X98515000Y-53285750D01*
X68808390Y-53285750D01*
X68667455Y-52945504D01*
X68369459Y-52810146D01*
X67179605Y-54000000D01*
X66820395Y-54000000D01*
X65630541Y-52810146D01*
X65332545Y-52945504D01*
X65055934Y-53663880D01*
X58459988Y-53663880D01*
X58145322Y-52902331D01*
X57874007Y-52630541D01*
X65810146Y-52630541D01*
X67000000Y-53820395D01*
X68189854Y-52630541D01*
X68054496Y-52332545D01*
X67336120Y-52055934D01*
X66566573Y-52075290D01*
X65945504Y-52332545D01*
X65810146Y-52630541D01*
X57874007Y-52630541D01*
X57268215Y-52023691D01*
X98515000Y-52023691D01*
X98515000Y-52714250D01*
X98673750Y-52873000D01*
X99873000Y-52873000D01*
X99873000Y-51673750D01*
X100127000Y-51673750D01*
X100127000Y-52873000D01*
X100147000Y-52873000D01*
X100147000Y-53127000D01*
X100127000Y-53127000D01*
X100127000Y-54326250D01*
X100285750Y-54485000D01*
X100976310Y-54485000D01*
X101209699Y-54388327D01*
X101388327Y-54209698D01*
X101485000Y-53976309D01*
X101485000Y-53845054D01*
X101579749Y-53986856D01*
X102020316Y-54281233D01*
X102540000Y-54384605D01*
X102617000Y-54369289D01*
X102617000Y-54999995D01*
X102616999Y-55000000D01*
X102665184Y-55242239D01*
X102802401Y-55447599D01*
X103802399Y-56447596D01*
X103802401Y-56447599D01*
X103939619Y-56539285D01*
X104007762Y-56584817D01*
X104250000Y-56633001D01*
X104250005Y-56633000D01*
X112740207Y-56633000D01*
X112791707Y-56684590D01*
X113088574Y-56807860D01*
X113410016Y-56808140D01*
X113707097Y-56685389D01*
X113934590Y-56458293D01*
X114057860Y-56161426D01*
X114058140Y-55839984D01*
X113935389Y-55542903D01*
X113708293Y-55315410D01*
X113411426Y-55192140D01*
X113089984Y-55191860D01*
X112792903Y-55314611D01*
X112740422Y-55367000D01*
X104512197Y-55367000D01*
X103883000Y-54737802D01*
X103883000Y-53710005D01*
X103883001Y-53710000D01*
X103861061Y-53599701D01*
X104119749Y-53986856D01*
X104560316Y-54281233D01*
X105080000Y-54384605D01*
X105599684Y-54281233D01*
X106040251Y-53986856D01*
X106334628Y-53546289D01*
X106438000Y-53026605D01*
X106438000Y-52973395D01*
X106334628Y-52453711D01*
X106040251Y-52013144D01*
X105599684Y-51718767D01*
X105080000Y-51615395D01*
X104560316Y-51718767D01*
X104119749Y-52013144D01*
X103825372Y-52453711D01*
X103810000Y-52530991D01*
X103794628Y-52453711D01*
X103500251Y-52013144D01*
X103059684Y-51718767D01*
X102540000Y-51615395D01*
X102020316Y-51718767D01*
X101579749Y-52013144D01*
X101485000Y-52154946D01*
X101485000Y-52023691D01*
X101388327Y-51790302D01*
X101209699Y-51611673D01*
X100976310Y-51515000D01*
X100285750Y-51515000D01*
X100127000Y-51673750D01*
X99873000Y-51673750D01*
X99714250Y-51515000D01*
X99023690Y-51515000D01*
X98790301Y-51611673D01*
X98611673Y-51790302D01*
X98515000Y-52023691D01*
X57268215Y-52023691D01*
X57103156Y-51858344D01*
X55740803Y-51292645D01*
X54265669Y-51291358D01*
X52902331Y-51854678D01*
X51858344Y-52896844D01*
X51292645Y-54259197D01*
X51291358Y-55734331D01*
X50583000Y-55734331D01*
X50583000Y-50583000D01*
X149417000Y-50583000D01*
X149417000Y-149417000D01*
G36*
X90967000Y-99751391D02*
X87759236Y-102959155D01*
X87622019Y-103164515D01*
X87573834Y-103406754D01*
X87573835Y-103406759D01*
X87573835Y-132030967D01*
X73679802Y-145925000D01*
X73621582Y-145925000D01*
X73874628Y-145546289D01*
X73978000Y-145026605D01*
X73978000Y-144973395D01*
X73874628Y-144453711D01*
X73580251Y-144013144D01*
X73253000Y-143794482D01*
X73253000Y-129192016D01*
X77550860Y-129192016D01*
X77673611Y-129489097D01*
X77900707Y-129716590D01*
X78197574Y-129839860D01*
X78519016Y-129840140D01*
X78816097Y-129717389D01*
X79043590Y-129490293D01*
X79166860Y-129193426D01*
X79166925Y-129119273D01*
X85156599Y-123129599D01*
X85293816Y-122924239D01*
X85342000Y-122682000D01*
X85342000Y-118619793D01*
X85393590Y-118568293D01*
X85516860Y-118271426D01*
X85517140Y-117949984D01*
X85394389Y-117652903D01*
X85167293Y-117425410D01*
X84870426Y-117302140D01*
X84548984Y-117301860D01*
X84264166Y-117419544D01*
X83981426Y-117302140D01*
X83659984Y-117301860D01*
X83362903Y-117424611D01*
X83135410Y-117651707D01*
X83012140Y-117948574D01*
X83011860Y-118270016D01*
X83134611Y-118567097D01*
X83187000Y-118619578D01*
X83187000Y-122038802D01*
X78292401Y-126933401D01*
X78155184Y-127138761D01*
X78138965Y-127220298D01*
X78055410Y-127303707D01*
X77932140Y-127600574D01*
X77931860Y-127922016D01*
X78054611Y-128219097D01*
X78100137Y-128264703D01*
X77901903Y-128346611D01*
X77674410Y-128573707D01*
X77551140Y-128870574D01*
X77550860Y-129192016D01*
X73253000Y-129192016D01*
X73253000Y-113642198D01*
X81762197Y-105133000D01*
X82065000Y-105133000D01*
X81991999Y-105500000D01*
X82068729Y-105885745D01*
X82287236Y-106212764D01*
X84992000Y-108917527D01*
X84992000Y-110500000D01*
X85068729Y-110885745D01*
X85287236Y-111212764D01*
X85614255Y-111431271D01*
X86000000Y-111508000D01*
X86385745Y-111431271D01*
X86712764Y-111212764D01*
X86931271Y-110885745D01*
X87008000Y-110500000D01*
X87008000Y-108500005D01*
X87008001Y-108500000D01*
X86931271Y-108114255D01*
X86915054Y-108089984D01*
X86712764Y-107787236D01*
X86712761Y-107787234D01*
X84058528Y-105133000D01*
X84249995Y-105133000D01*
X84250000Y-105133001D01*
X84492239Y-105084816D01*
X84697599Y-104947599D01*
X90967000Y-98678198D01*
X90967000Y-99751391D01*
X90967000Y-99751391D01*
G37*
X90967000Y-99751391D02*
X87759236Y-102959155D01*
X87622019Y-103164515D01*
X87573834Y-103406754D01*
X87573835Y-103406759D01*
X87573835Y-132030967D01*
X73679802Y-145925000D01*
X73621582Y-145925000D01*
X73874628Y-145546289D01*
X73978000Y-145026605D01*
X73978000Y-144973395D01*
X73874628Y-144453711D01*
X73580251Y-144013144D01*
X73253000Y-143794482D01*
X73253000Y-129192016D01*
X77550860Y-129192016D01*
X77673611Y-129489097D01*
X77900707Y-129716590D01*
X78197574Y-129839860D01*
X78519016Y-129840140D01*
X78816097Y-129717389D01*
X79043590Y-129490293D01*
X79166860Y-129193426D01*
X79166925Y-129119273D01*
X85156599Y-123129599D01*
X85293816Y-122924239D01*
X85342000Y-122682000D01*
X85342000Y-118619793D01*
X85393590Y-118568293D01*
X85516860Y-118271426D01*
X85517140Y-117949984D01*
X85394389Y-117652903D01*
X85167293Y-117425410D01*
X84870426Y-117302140D01*
X84548984Y-117301860D01*
X84264166Y-117419544D01*
X83981426Y-117302140D01*
X83659984Y-117301860D01*
X83362903Y-117424611D01*
X83135410Y-117651707D01*
X83012140Y-117948574D01*
X83011860Y-118270016D01*
X83134611Y-118567097D01*
X83187000Y-118619578D01*
X83187000Y-122038802D01*
X78292401Y-126933401D01*
X78155184Y-127138761D01*
X78138965Y-127220298D01*
X78055410Y-127303707D01*
X77932140Y-127600574D01*
X77931860Y-127922016D01*
X78054611Y-128219097D01*
X78100137Y-128264703D01*
X77901903Y-128346611D01*
X77674410Y-128573707D01*
X77551140Y-128870574D01*
X77550860Y-129192016D01*
X73253000Y-129192016D01*
X73253000Y-113642198D01*
X81762197Y-105133000D01*
X82065000Y-105133000D01*
X81991999Y-105500000D01*
X82068729Y-105885745D01*
X82287236Y-106212764D01*
X84992000Y-108917527D01*
X84992000Y-110500000D01*
X85068729Y-110885745D01*
X85287236Y-111212764D01*
X85614255Y-111431271D01*
X86000000Y-111508000D01*
X86385745Y-111431271D01*
X86712764Y-111212764D01*
X86931271Y-110885745D01*
X87008000Y-110500000D01*
X87008000Y-108500005D01*
X87008001Y-108500000D01*
X86931271Y-108114255D01*
X86915054Y-108089984D01*
X86712764Y-107787236D01*
X86712761Y-107787234D01*
X84058528Y-105133000D01*
X84249995Y-105133000D01*
X84250000Y-105133001D01*
X84492239Y-105084816D01*
X84697599Y-104947599D01*
X90967000Y-98678198D01*
X90967000Y-99751391D01*
G36*
X99367000Y-116990199D02*
X99315402Y-117041707D01*
X99192132Y-117338574D01*
X99191852Y-117660016D01*
X99314603Y-117957097D01*
X99541699Y-118184590D01*
X99579514Y-118200292D01*
X89633000Y-128146806D01*
X89633000Y-125762198D01*
X99367000Y-116028198D01*
X99367000Y-116990199D01*
X99367000Y-116990199D01*
G37*
X99367000Y-116990199D02*
X99315402Y-117041707D01*
X99192132Y-117338574D01*
X99191852Y-117660016D01*
X99314603Y-117957097D01*
X99541699Y-118184590D01*
X99579514Y-118200292D01*
X89633000Y-128146806D01*
X89633000Y-125762198D01*
X99367000Y-116028198D01*
X99367000Y-116990199D01*
G36*
X92667000Y-112873000D02*
X94953000Y-112873000D01*
X94953000Y-112853000D01*
X95207000Y-112853000D01*
X95207000Y-112873000D01*
X95227000Y-112873000D01*
X95227000Y-113127000D01*
X95207000Y-113127000D01*
X95207000Y-114320155D01*
X95436890Y-114441476D01*
X95846924Y-114271645D01*
X96275183Y-113881358D01*
X96404817Y-113605322D01*
X96659749Y-113986856D01*
X97100316Y-114281233D01*
X97620000Y-114384605D01*
X98139684Y-114281233D01*
X98580251Y-113986856D01*
X98617000Y-113931857D01*
X98617000Y-114987802D01*
X88839835Y-124764967D01*
X88839835Y-114252906D01*
X88948488Y-114327145D01*
X89150000Y-114367952D01*
X90850000Y-114367952D01*
X91038253Y-114332530D01*
X91211153Y-114221272D01*
X91327145Y-114051512D01*
X91358987Y-113894271D01*
X91773076Y-114271645D01*
X92183110Y-114441476D01*
X92413000Y-114320155D01*
X92413000Y-113127000D01*
X92667000Y-113127000D01*
X92667000Y-114320155D01*
X92896890Y-114441476D01*
X93306924Y-114271645D01*
X93735183Y-113881358D01*
X93810000Y-113722046D01*
X93884817Y-113881358D01*
X94313076Y-114271645D01*
X94723110Y-114441476D01*
X94953000Y-114320155D01*
X94953000Y-113127000D01*
X92667000Y-113127000D01*
X92413000Y-113127000D01*
X92393000Y-113127000D01*
X92393000Y-112873000D01*
X92413000Y-112873000D01*
X92413000Y-112853000D01*
X92667000Y-112853000D01*
X92667000Y-112873000D01*
X92667000Y-112873000D01*
G37*
X92667000Y-112873000D02*
X94953000Y-112873000D01*
X94953000Y-112853000D01*
X95207000Y-112853000D01*
X95207000Y-112873000D01*
X95227000Y-112873000D01*
X95227000Y-113127000D01*
X95207000Y-113127000D01*
X95207000Y-114320155D01*
X95436890Y-114441476D01*
X95846924Y-114271645D01*
X96275183Y-113881358D01*
X96404817Y-113605322D01*
X96659749Y-113986856D01*
X97100316Y-114281233D01*
X97620000Y-114384605D01*
X98139684Y-114281233D01*
X98580251Y-113986856D01*
X98617000Y-113931857D01*
X98617000Y-114987802D01*
X88839835Y-124764967D01*
X88839835Y-114252906D01*
X88948488Y-114327145D01*
X89150000Y-114367952D01*
X90850000Y-114367952D01*
X91038253Y-114332530D01*
X91211153Y-114221272D01*
X91327145Y-114051512D01*
X91358987Y-113894271D01*
X91773076Y-114271645D01*
X92183110Y-114441476D01*
X92413000Y-114320155D01*
X92413000Y-113127000D01*
X92667000Y-113127000D01*
X92667000Y-114320155D01*
X92896890Y-114441476D01*
X93306924Y-114271645D01*
X93735183Y-113881358D01*
X93810000Y-113722046D01*
X93884817Y-113881358D01*
X94313076Y-114271645D01*
X94723110Y-114441476D01*
X94953000Y-114320155D01*
X94953000Y-113127000D01*
X92667000Y-113127000D01*
X92413000Y-113127000D01*
X92393000Y-113127000D01*
X92393000Y-112873000D01*
X92413000Y-112873000D01*
X92413000Y-112853000D01*
X92667000Y-112853000D01*
X92667000Y-112873000D01*
G36*
X93825372Y-111006289D02*
X94119749Y-111446856D01*
X94453807Y-111670066D01*
X94313076Y-111728355D01*
X93884817Y-112118642D01*
X93810000Y-112277954D01*
X93735183Y-112118642D01*
X93306924Y-111728355D01*
X93166193Y-111670066D01*
X93500251Y-111446856D01*
X93794628Y-111006289D01*
X93810000Y-110929009D01*
X93825372Y-111006289D01*
X93825372Y-111006289D01*
G37*
X93825372Y-111006289D02*
X94119749Y-111446856D01*
X94453807Y-111670066D01*
X94313076Y-111728355D01*
X93884817Y-112118642D01*
X93810000Y-112277954D01*
X93735183Y-112118642D01*
X93306924Y-111728355D01*
X93166193Y-111670066D01*
X93500251Y-111446856D01*
X93794628Y-111006289D01*
X93810000Y-110929009D01*
X93825372Y-111006289D01*
G36*
X119537236Y-88537236D02*
X119318729Y-88864255D01*
X119242000Y-89250000D01*
X119242000Y-94354936D01*
X119068729Y-94614255D01*
X118991999Y-95000000D01*
X118992000Y-95000005D01*
X118992000Y-102999995D01*
X118991999Y-103000000D01*
X119068729Y-103385745D01*
X119287236Y-103712764D01*
X120787866Y-105213394D01*
X120542903Y-105314611D01*
X120315410Y-105541707D01*
X120192140Y-105838574D01*
X120191860Y-106160016D01*
X120277384Y-106367000D01*
X115462198Y-106367000D01*
X114008077Y-104912879D01*
X114008140Y-104839984D01*
X113885389Y-104542903D01*
X113658293Y-104315410D01*
X113361426Y-104192140D01*
X113039984Y-104191860D01*
X112742903Y-104314611D01*
X112515410Y-104541707D01*
X112492376Y-104597178D01*
X111133000Y-103237802D01*
X111133000Y-90472498D01*
X111338574Y-90557860D01*
X111660016Y-90558140D01*
X111957097Y-90435389D01*
X112184590Y-90208293D01*
X112307860Y-89911426D01*
X112307925Y-89837273D01*
X112432198Y-89713000D01*
X115412944Y-89713000D01*
X115625104Y-90030521D01*
X115917000Y-90225559D01*
X115917000Y-92549995D01*
X115916999Y-92550000D01*
X115965184Y-92792239D01*
X116102401Y-92997599D01*
X117441923Y-94337121D01*
X117441860Y-94410016D01*
X117564611Y-94707097D01*
X117791707Y-94934590D01*
X118088574Y-95057860D01*
X118410016Y-95058140D01*
X118707097Y-94935389D01*
X118934590Y-94708293D01*
X119057860Y-94411426D01*
X119058140Y-94089984D01*
X118935389Y-93792903D01*
X118708293Y-93565410D01*
X118411426Y-93442140D01*
X118337273Y-93442075D01*
X117183000Y-92287802D01*
X117183000Y-90225559D01*
X117474896Y-90030521D01*
X117758434Y-89606175D01*
X117858000Y-89105625D01*
X117858000Y-89054375D01*
X117758434Y-88553825D01*
X117610885Y-88333001D01*
X119842895Y-88333001D01*
X119537236Y-88537236D01*
X119537236Y-88537236D01*
G37*
X119537236Y-88537236D02*
X119318729Y-88864255D01*
X119242000Y-89250000D01*
X119242000Y-94354936D01*
X119068729Y-94614255D01*
X118991999Y-95000000D01*
X118992000Y-95000005D01*
X118992000Y-102999995D01*
X118991999Y-103000000D01*
X119068729Y-103385745D01*
X119287236Y-103712764D01*
X120787866Y-105213394D01*
X120542903Y-105314611D01*
X120315410Y-105541707D01*
X120192140Y-105838574D01*
X120191860Y-106160016D01*
X120277384Y-106367000D01*
X115462198Y-106367000D01*
X114008077Y-104912879D01*
X114008140Y-104839984D01*
X113885389Y-104542903D01*
X113658293Y-104315410D01*
X113361426Y-104192140D01*
X113039984Y-104191860D01*
X112742903Y-104314611D01*
X112515410Y-104541707D01*
X112492376Y-104597178D01*
X111133000Y-103237802D01*
X111133000Y-90472498D01*
X111338574Y-90557860D01*
X111660016Y-90558140D01*
X111957097Y-90435389D01*
X112184590Y-90208293D01*
X112307860Y-89911426D01*
X112307925Y-89837273D01*
X112432198Y-89713000D01*
X115412944Y-89713000D01*
X115625104Y-90030521D01*
X115917000Y-90225559D01*
X115917000Y-92549995D01*
X115916999Y-92550000D01*
X115965184Y-92792239D01*
X116102401Y-92997599D01*
X117441923Y-94337121D01*
X117441860Y-94410016D01*
X117564611Y-94707097D01*
X117791707Y-94934590D01*
X118088574Y-95057860D01*
X118410016Y-95058140D01*
X118707097Y-94935389D01*
X118934590Y-94708293D01*
X119057860Y-94411426D01*
X119058140Y-94089984D01*
X118935389Y-93792903D01*
X118708293Y-93565410D01*
X118411426Y-93442140D01*
X118337273Y-93442075D01*
X117183000Y-92287802D01*
X117183000Y-90225559D01*
X117474896Y-90030521D01*
X117758434Y-89606175D01*
X117858000Y-89105625D01*
X117858000Y-89054375D01*
X117758434Y-88553825D01*
X117610885Y-88333001D01*
X119842895Y-88333001D01*
X119537236Y-88537236D01*
G36*
X112867000Y-81714980D02*
X112184652Y-82397328D01*
X112064155Y-82169000D01*
X110871000Y-82169000D01*
X110871000Y-83362819D01*
X111099319Y-83482661D01*
X108591895Y-85990085D01*
X108510421Y-85792903D01*
X108458032Y-85740422D01*
X108458032Y-84075037D01*
X108458033Y-84075032D01*
X108410250Y-83834816D01*
X108409848Y-83832793D01*
X108272631Y-83627433D01*
X108272628Y-83627431D01*
X107044088Y-82398890D01*
X109302524Y-82398890D01*
X109472355Y-82808924D01*
X109862642Y-83237183D01*
X110387108Y-83483486D01*
X110617000Y-83362819D01*
X110617000Y-82169000D01*
X109423845Y-82169000D01*
X109302524Y-82398890D01*
X107044088Y-82398890D01*
X106330308Y-81685110D01*
X109302524Y-81685110D01*
X109423845Y-81915000D01*
X110617000Y-81915000D01*
X110617000Y-81895000D01*
X110871000Y-81895000D01*
X110871000Y-81915000D01*
X112064155Y-81915000D01*
X112185476Y-81685110D01*
X112015645Y-81275076D01*
X111625358Y-80846817D01*
X111349322Y-80717183D01*
X111730856Y-80462251D01*
X112025233Y-80021684D01*
X112128605Y-79502000D01*
X112025233Y-78982316D01*
X111730856Y-78541749D01*
X111413879Y-78329952D01*
X111594000Y-78329952D01*
X111782253Y-78294530D01*
X111955153Y-78183272D01*
X112071145Y-78013512D01*
X112111952Y-77812000D01*
X112111952Y-76112000D01*
X112076530Y-75923747D01*
X111965272Y-75750847D01*
X111795512Y-75634855D01*
X111594000Y-75594048D01*
X109894000Y-75594048D01*
X109705747Y-75629470D01*
X109532847Y-75740728D01*
X109416855Y-75910488D01*
X109376048Y-76112000D01*
X109376048Y-77812000D01*
X109411470Y-78000253D01*
X109522728Y-78173153D01*
X109692488Y-78289145D01*
X109894000Y-78329952D01*
X110074121Y-78329952D01*
X109757144Y-78541749D01*
X109462767Y-78982316D01*
X109359395Y-79502000D01*
X109462767Y-80021684D01*
X109757144Y-80462251D01*
X110138678Y-80717183D01*
X109862642Y-80846817D01*
X109472355Y-81275076D01*
X109302524Y-81685110D01*
X106330308Y-81685110D01*
X105058077Y-80412879D01*
X105058140Y-80339984D01*
X104935389Y-80042903D01*
X104708293Y-79815410D01*
X104617492Y-79777706D01*
X109062186Y-75333011D01*
X111436395Y-75333011D01*
X111436400Y-75333012D01*
X111678639Y-75284827D01*
X111883999Y-75147610D01*
X112867000Y-74164609D01*
X112867000Y-81714980D01*
X112867000Y-81714980D01*
G37*
X112867000Y-81714980D02*
X112184652Y-82397328D01*
X112064155Y-82169000D01*
X110871000Y-82169000D01*
X110871000Y-83362819D01*
X111099319Y-83482661D01*
X108591895Y-85990085D01*
X108510421Y-85792903D01*
X108458032Y-85740422D01*
X108458032Y-84075037D01*
X108458033Y-84075032D01*
X108410250Y-83834816D01*
X108409848Y-83832793D01*
X108272631Y-83627433D01*
X108272628Y-83627431D01*
X107044088Y-82398890D01*
X109302524Y-82398890D01*
X109472355Y-82808924D01*
X109862642Y-83237183D01*
X110387108Y-83483486D01*
X110617000Y-83362819D01*
X110617000Y-82169000D01*
X109423845Y-82169000D01*
X109302524Y-82398890D01*
X107044088Y-82398890D01*
X106330308Y-81685110D01*
X109302524Y-81685110D01*
X109423845Y-81915000D01*
X110617000Y-81915000D01*
X110617000Y-81895000D01*
X110871000Y-81895000D01*
X110871000Y-81915000D01*
X112064155Y-81915000D01*
X112185476Y-81685110D01*
X112015645Y-81275076D01*
X111625358Y-80846817D01*
X111349322Y-80717183D01*
X111730856Y-80462251D01*
X112025233Y-80021684D01*
X112128605Y-79502000D01*
X112025233Y-78982316D01*
X111730856Y-78541749D01*
X111413879Y-78329952D01*
X111594000Y-78329952D01*
X111782253Y-78294530D01*
X111955153Y-78183272D01*
X112071145Y-78013512D01*
X112111952Y-77812000D01*
X112111952Y-76112000D01*
X112076530Y-75923747D01*
X111965272Y-75750847D01*
X111795512Y-75634855D01*
X111594000Y-75594048D01*
X109894000Y-75594048D01*
X109705747Y-75629470D01*
X109532847Y-75740728D01*
X109416855Y-75910488D01*
X109376048Y-76112000D01*
X109376048Y-77812000D01*
X109411470Y-78000253D01*
X109522728Y-78173153D01*
X109692488Y-78289145D01*
X109894000Y-78329952D01*
X110074121Y-78329952D01*
X109757144Y-78541749D01*
X109462767Y-78982316D01*
X109359395Y-79502000D01*
X109462767Y-80021684D01*
X109757144Y-80462251D01*
X110138678Y-80717183D01*
X109862642Y-80846817D01*
X109472355Y-81275076D01*
X109302524Y-81685110D01*
X106330308Y-81685110D01*
X105058077Y-80412879D01*
X105058140Y-80339984D01*
X104935389Y-80042903D01*
X104708293Y-79815410D01*
X104617492Y-79777706D01*
X109062186Y-75333011D01*
X111436395Y-75333011D01*
X111436400Y-75333012D01*
X111678639Y-75284827D01*
X111883999Y-75147610D01*
X112867000Y-74164609D01*
X112867000Y-81714980D01*
M02*
