G04 #@! TF.FileFunction,Legend,Bot*
%FSLAX46Y46*%
G04 Gerber Fmt 4.6, Leading zero omitted, Abs format (unit mm)*
G04 Created by KiCad (PCBNEW 4.0.7) date 06/11/18 20:49:47*
%MOMM*%
%LPD*%
G01*
G04 APERTURE LIST*
%ADD10C,0.100000*%
%ADD11C,0.250000*%
%ADD12C,0.300000*%
G04 APERTURE END LIST*
D10*
D11*
X120790472Y-129746429D02*
X120028567Y-129746429D01*
X119552377Y-129746429D02*
X118790472Y-129746429D01*
X118314282Y-129746429D02*
X117552377Y-129746429D01*
X117076187Y-129746429D02*
X116314282Y-129746429D01*
X115838092Y-129746429D02*
X115076187Y-129746429D01*
X114599997Y-129746429D02*
X113838092Y-129746429D01*
X113361902Y-129746429D02*
X112599997Y-129746429D01*
X112123807Y-129746429D02*
X111361902Y-129746429D01*
X110885712Y-129746429D02*
X110123807Y-129746429D01*
X109647617Y-129746429D02*
X108885712Y-129746429D01*
X108409522Y-129746429D02*
X107647617Y-129746429D01*
X107171427Y-129746429D02*
X106409522Y-129746429D01*
X105933332Y-129746429D02*
X105171427Y-129746429D01*
X104695237Y-129746429D02*
X103933332Y-129746429D01*
X103457142Y-129746429D02*
X102695237Y-129746429D01*
X102219047Y-129746429D02*
X101457142Y-129746429D01*
X100980952Y-129746429D02*
X100219047Y-129746429D01*
X99742857Y-129746429D02*
X98980952Y-129746429D01*
X98504762Y-129746429D02*
X97742857Y-129746429D01*
X97266667Y-129746429D02*
X96504762Y-129746429D01*
X96028572Y-129746429D02*
X95266667Y-129746429D01*
X94790477Y-129746429D02*
X94028572Y-129746429D01*
X93552382Y-129746429D02*
X92790477Y-129746429D01*
X92314287Y-129746429D02*
X91552382Y-129746429D01*
X91076192Y-129746429D02*
X90314287Y-129746429D01*
X89838097Y-129746429D02*
X89076192Y-129746429D01*
X88600002Y-129746429D02*
X87838097Y-129746429D01*
X87361907Y-129746429D02*
X86600002Y-129746429D01*
X86123812Y-129746429D02*
X85361907Y-129746429D01*
X84885717Y-129746429D02*
X84123812Y-129746429D01*
X83647622Y-129746429D02*
X82885717Y-129746429D01*
X82409527Y-129746429D02*
X81647622Y-129746429D01*
X81171432Y-129746429D02*
X80409527Y-129746429D01*
X112242859Y-131877381D02*
X112242859Y-130877381D01*
X111861906Y-130877381D01*
X111766668Y-130925000D01*
X111719049Y-130972619D01*
X111671430Y-131067857D01*
X111671430Y-131210714D01*
X111719049Y-131305952D01*
X111766668Y-131353571D01*
X111861906Y-131401190D01*
X112242859Y-131401190D01*
X110671430Y-131782143D02*
X110719049Y-131829762D01*
X110861906Y-131877381D01*
X110957144Y-131877381D01*
X111100002Y-131829762D01*
X111195240Y-131734524D01*
X111242859Y-131639286D01*
X111290478Y-131448810D01*
X111290478Y-131305952D01*
X111242859Y-131115476D01*
X111195240Y-131020238D01*
X111100002Y-130925000D01*
X110957144Y-130877381D01*
X110861906Y-130877381D01*
X110719049Y-130925000D01*
X110671430Y-130972619D01*
X109909525Y-131353571D02*
X109766668Y-131401190D01*
X109719049Y-131448810D01*
X109671430Y-131544048D01*
X109671430Y-131686905D01*
X109719049Y-131782143D01*
X109766668Y-131829762D01*
X109861906Y-131877381D01*
X110242859Y-131877381D01*
X110242859Y-130877381D01*
X109909525Y-130877381D01*
X109814287Y-130925000D01*
X109766668Y-130972619D01*
X109719049Y-131067857D01*
X109719049Y-131163095D01*
X109766668Y-131258333D01*
X109814287Y-131305952D01*
X109909525Y-131353571D01*
X110242859Y-131353571D01*
X108052382Y-131877381D02*
X108052382Y-130877381D01*
X108052382Y-131829762D02*
X108147620Y-131877381D01*
X108338097Y-131877381D01*
X108433335Y-131829762D01*
X108480954Y-131782143D01*
X108528573Y-131686905D01*
X108528573Y-131401190D01*
X108480954Y-131305952D01*
X108433335Y-131258333D01*
X108338097Y-131210714D01*
X108147620Y-131210714D01*
X108052382Y-131258333D01*
X107195239Y-131829762D02*
X107290477Y-131877381D01*
X107480954Y-131877381D01*
X107576192Y-131829762D01*
X107623811Y-131734524D01*
X107623811Y-131353571D01*
X107576192Y-131258333D01*
X107480954Y-131210714D01*
X107290477Y-131210714D01*
X107195239Y-131258333D01*
X107147620Y-131353571D01*
X107147620Y-131448810D01*
X107623811Y-131544048D01*
X106766668Y-131829762D02*
X106671430Y-131877381D01*
X106480954Y-131877381D01*
X106385715Y-131829762D01*
X106338096Y-131734524D01*
X106338096Y-131686905D01*
X106385715Y-131591667D01*
X106480954Y-131544048D01*
X106623811Y-131544048D01*
X106719049Y-131496429D01*
X106766668Y-131401190D01*
X106766668Y-131353571D01*
X106719049Y-131258333D01*
X106623811Y-131210714D01*
X106480954Y-131210714D01*
X106385715Y-131258333D01*
X105909525Y-131877381D02*
X105909525Y-131210714D01*
X105909525Y-130877381D02*
X105957144Y-130925000D01*
X105909525Y-130972619D01*
X105861906Y-130925000D01*
X105909525Y-130877381D01*
X105909525Y-130972619D01*
X105004763Y-131210714D02*
X105004763Y-132020238D01*
X105052382Y-132115476D01*
X105100001Y-132163095D01*
X105195240Y-132210714D01*
X105338097Y-132210714D01*
X105433335Y-132163095D01*
X105004763Y-131829762D02*
X105100001Y-131877381D01*
X105290478Y-131877381D01*
X105385716Y-131829762D01*
X105433335Y-131782143D01*
X105480954Y-131686905D01*
X105480954Y-131401190D01*
X105433335Y-131305952D01*
X105385716Y-131258333D01*
X105290478Y-131210714D01*
X105100001Y-131210714D01*
X105004763Y-131258333D01*
X104528573Y-131210714D02*
X104528573Y-131877381D01*
X104528573Y-131305952D02*
X104480954Y-131258333D01*
X104385716Y-131210714D01*
X104242858Y-131210714D01*
X104147620Y-131258333D01*
X104100001Y-131353571D01*
X104100001Y-131877381D01*
X103242858Y-131829762D02*
X103338096Y-131877381D01*
X103528573Y-131877381D01*
X103623811Y-131829762D01*
X103671430Y-131734524D01*
X103671430Y-131353571D01*
X103623811Y-131258333D01*
X103528573Y-131210714D01*
X103338096Y-131210714D01*
X103242858Y-131258333D01*
X103195239Y-131353571D01*
X103195239Y-131448810D01*
X103671430Y-131544048D01*
X102338096Y-131877381D02*
X102338096Y-130877381D01*
X102338096Y-131829762D02*
X102433334Y-131877381D01*
X102623811Y-131877381D01*
X102719049Y-131829762D01*
X102766668Y-131782143D01*
X102814287Y-131686905D01*
X102814287Y-131401190D01*
X102766668Y-131305952D01*
X102719049Y-131258333D01*
X102623811Y-131210714D01*
X102433334Y-131210714D01*
X102338096Y-131258333D01*
X101100001Y-131877381D02*
X101100001Y-130877381D01*
X101100001Y-131258333D02*
X101004763Y-131210714D01*
X100814286Y-131210714D01*
X100719048Y-131258333D01*
X100671429Y-131305952D01*
X100623810Y-131401190D01*
X100623810Y-131686905D01*
X100671429Y-131782143D01*
X100719048Y-131829762D01*
X100814286Y-131877381D01*
X101004763Y-131877381D01*
X101100001Y-131829762D01*
X100290477Y-131210714D02*
X100052382Y-131877381D01*
X99814286Y-131210714D02*
X100052382Y-131877381D01*
X100147620Y-132115476D01*
X100195239Y-132163095D01*
X100290477Y-132210714D01*
X98814286Y-130877381D02*
X98242857Y-130877381D01*
X98528572Y-131877381D02*
X98528572Y-130877381D01*
X97909524Y-131877381D02*
X97909524Y-130877381D01*
X97480952Y-131877381D02*
X97480952Y-131353571D01*
X97528571Y-131258333D01*
X97623809Y-131210714D01*
X97766667Y-131210714D01*
X97861905Y-131258333D01*
X97909524Y-131305952D01*
X96623809Y-131829762D02*
X96719047Y-131877381D01*
X96909524Y-131877381D01*
X97004762Y-131829762D01*
X97052381Y-131734524D01*
X97052381Y-131353571D01*
X97004762Y-131258333D01*
X96909524Y-131210714D01*
X96719047Y-131210714D01*
X96623809Y-131258333D01*
X96576190Y-131353571D01*
X96576190Y-131448810D01*
X97052381Y-131544048D01*
X96004762Y-131877381D02*
X96100000Y-131829762D01*
X96147619Y-131782143D01*
X96195238Y-131686905D01*
X96195238Y-131401190D01*
X96147619Y-131305952D01*
X96100000Y-131258333D01*
X96004762Y-131210714D01*
X95861904Y-131210714D01*
X95766666Y-131258333D01*
X95719047Y-131305952D01*
X95671428Y-131401190D01*
X95671428Y-131686905D01*
X95719047Y-131782143D01*
X95766666Y-131829762D01*
X95861904Y-131877381D01*
X96004762Y-131877381D01*
X94814285Y-131877381D02*
X94814285Y-130877381D01*
X94814285Y-131829762D02*
X94909523Y-131877381D01*
X95100000Y-131877381D01*
X95195238Y-131829762D01*
X95242857Y-131782143D01*
X95290476Y-131686905D01*
X95290476Y-131401190D01*
X95242857Y-131305952D01*
X95195238Y-131258333D01*
X95100000Y-131210714D01*
X94909523Y-131210714D01*
X94814285Y-131258333D01*
X94195238Y-131877381D02*
X94290476Y-131829762D01*
X94338095Y-131782143D01*
X94385714Y-131686905D01*
X94385714Y-131401190D01*
X94338095Y-131305952D01*
X94290476Y-131258333D01*
X94195238Y-131210714D01*
X94052380Y-131210714D01*
X93957142Y-131258333D01*
X93909523Y-131305952D01*
X93861904Y-131401190D01*
X93861904Y-131686905D01*
X93909523Y-131782143D01*
X93957142Y-131829762D01*
X94052380Y-131877381D01*
X94195238Y-131877381D01*
X93433333Y-131877381D02*
X93433333Y-131210714D01*
X93433333Y-131401190D02*
X93385714Y-131305952D01*
X93338095Y-131258333D01*
X93242857Y-131210714D01*
X93147618Y-131210714D01*
X92433332Y-131829762D02*
X92528570Y-131877381D01*
X92719047Y-131877381D01*
X92814285Y-131829762D01*
X92861904Y-131734524D01*
X92861904Y-131353571D01*
X92814285Y-131258333D01*
X92719047Y-131210714D01*
X92528570Y-131210714D01*
X92433332Y-131258333D01*
X92385713Y-131353571D01*
X92385713Y-131448810D01*
X92861904Y-131544048D01*
X90623808Y-131782143D02*
X90671427Y-131829762D01*
X90814284Y-131877381D01*
X90909522Y-131877381D01*
X91052380Y-131829762D01*
X91147618Y-131734524D01*
X91195237Y-131639286D01*
X91242856Y-131448810D01*
X91242856Y-131305952D01*
X91195237Y-131115476D01*
X91147618Y-131020238D01*
X91052380Y-130925000D01*
X90909522Y-130877381D01*
X90814284Y-130877381D01*
X90671427Y-130925000D01*
X90623808Y-130972619D01*
X90052380Y-131877381D02*
X90147618Y-131829762D01*
X90195237Y-131782143D01*
X90242856Y-131686905D01*
X90242856Y-131401190D01*
X90195237Y-131305952D01*
X90147618Y-131258333D01*
X90052380Y-131210714D01*
X89909522Y-131210714D01*
X89814284Y-131258333D01*
X89766665Y-131305952D01*
X89719046Y-131401190D01*
X89719046Y-131686905D01*
X89766665Y-131782143D01*
X89814284Y-131829762D01*
X89909522Y-131877381D01*
X90052380Y-131877381D01*
X89385713Y-131877381D02*
X88861903Y-131210714D01*
X89385713Y-131210714D02*
X88861903Y-131877381D01*
X108957145Y-135329762D02*
X108814288Y-135377381D01*
X108576192Y-135377381D01*
X108480954Y-135329762D01*
X108433335Y-135282143D01*
X108385716Y-135186905D01*
X108385716Y-135091667D01*
X108433335Y-134996429D01*
X108480954Y-134948810D01*
X108576192Y-134901190D01*
X108766669Y-134853571D01*
X108861907Y-134805952D01*
X108909526Y-134758333D01*
X108957145Y-134663095D01*
X108957145Y-134567857D01*
X108909526Y-134472619D01*
X108861907Y-134425000D01*
X108766669Y-134377381D01*
X108528573Y-134377381D01*
X108385716Y-134425000D01*
X107814288Y-135377381D02*
X107909526Y-135329762D01*
X107957145Y-135282143D01*
X108004764Y-135186905D01*
X108004764Y-134901190D01*
X107957145Y-134805952D01*
X107909526Y-134758333D01*
X107814288Y-134710714D01*
X107671430Y-134710714D01*
X107576192Y-134758333D01*
X107528573Y-134805952D01*
X107480954Y-134901190D01*
X107480954Y-135186905D01*
X107528573Y-135282143D01*
X107576192Y-135329762D01*
X107671430Y-135377381D01*
X107814288Y-135377381D01*
X107195240Y-134710714D02*
X106814288Y-134710714D01*
X107052383Y-135377381D02*
X107052383Y-134520238D01*
X107004764Y-134425000D01*
X106909526Y-134377381D01*
X106814288Y-134377381D01*
X106623811Y-134710714D02*
X106242859Y-134710714D01*
X106480954Y-134377381D02*
X106480954Y-135234524D01*
X106433335Y-135329762D01*
X106338097Y-135377381D01*
X106242859Y-135377381D01*
X106004763Y-134710714D02*
X105814287Y-135377381D01*
X105623810Y-134901190D01*
X105433334Y-135377381D01*
X105242858Y-134710714D01*
X104433334Y-135377381D02*
X104433334Y-134853571D01*
X104480953Y-134758333D01*
X104576191Y-134710714D01*
X104766668Y-134710714D01*
X104861906Y-134758333D01*
X104433334Y-135329762D02*
X104528572Y-135377381D01*
X104766668Y-135377381D01*
X104861906Y-135329762D01*
X104909525Y-135234524D01*
X104909525Y-135139286D01*
X104861906Y-135044048D01*
X104766668Y-134996429D01*
X104528572Y-134996429D01*
X104433334Y-134948810D01*
X103957144Y-135377381D02*
X103957144Y-134710714D01*
X103957144Y-134901190D02*
X103909525Y-134805952D01*
X103861906Y-134758333D01*
X103766668Y-134710714D01*
X103671429Y-134710714D01*
X102957143Y-135329762D02*
X103052381Y-135377381D01*
X103242858Y-135377381D01*
X103338096Y-135329762D01*
X103385715Y-135234524D01*
X103385715Y-134853571D01*
X103338096Y-134758333D01*
X103242858Y-134710714D01*
X103052381Y-134710714D01*
X102957143Y-134758333D01*
X102909524Y-134853571D01*
X102909524Y-134948810D01*
X103385715Y-135044048D01*
X101290476Y-135377381D02*
X101290476Y-134377381D01*
X101290476Y-135329762D02*
X101385714Y-135377381D01*
X101576191Y-135377381D01*
X101671429Y-135329762D01*
X101719048Y-135282143D01*
X101766667Y-135186905D01*
X101766667Y-134901190D01*
X101719048Y-134805952D01*
X101671429Y-134758333D01*
X101576191Y-134710714D01*
X101385714Y-134710714D01*
X101290476Y-134758333D01*
X100433333Y-135329762D02*
X100528571Y-135377381D01*
X100719048Y-135377381D01*
X100814286Y-135329762D01*
X100861905Y-135234524D01*
X100861905Y-134853571D01*
X100814286Y-134758333D01*
X100719048Y-134710714D01*
X100528571Y-134710714D01*
X100433333Y-134758333D01*
X100385714Y-134853571D01*
X100385714Y-134948810D01*
X100861905Y-135044048D01*
X100052381Y-134710714D02*
X99814286Y-135377381D01*
X99576190Y-134710714D01*
X98814285Y-135329762D02*
X98909523Y-135377381D01*
X99100000Y-135377381D01*
X99195238Y-135329762D01*
X99242857Y-135234524D01*
X99242857Y-134853571D01*
X99195238Y-134758333D01*
X99100000Y-134710714D01*
X98909523Y-134710714D01*
X98814285Y-134758333D01*
X98766666Y-134853571D01*
X98766666Y-134948810D01*
X99242857Y-135044048D01*
X98195238Y-135377381D02*
X98290476Y-135329762D01*
X98338095Y-135234524D01*
X98338095Y-134377381D01*
X97671428Y-135377381D02*
X97766666Y-135329762D01*
X97814285Y-135282143D01*
X97861904Y-135186905D01*
X97861904Y-134901190D01*
X97814285Y-134805952D01*
X97766666Y-134758333D01*
X97671428Y-134710714D01*
X97528570Y-134710714D01*
X97433332Y-134758333D01*
X97385713Y-134805952D01*
X97338094Y-134901190D01*
X97338094Y-135186905D01*
X97385713Y-135282143D01*
X97433332Y-135329762D01*
X97528570Y-135377381D01*
X97671428Y-135377381D01*
X96909523Y-134710714D02*
X96909523Y-135710714D01*
X96909523Y-134758333D02*
X96814285Y-134710714D01*
X96623808Y-134710714D01*
X96528570Y-134758333D01*
X96480951Y-134805952D01*
X96433332Y-134901190D01*
X96433332Y-135186905D01*
X96480951Y-135282143D01*
X96528570Y-135329762D01*
X96623808Y-135377381D01*
X96814285Y-135377381D01*
X96909523Y-135329762D01*
X95623808Y-135329762D02*
X95719046Y-135377381D01*
X95909523Y-135377381D01*
X96004761Y-135329762D01*
X96052380Y-135234524D01*
X96052380Y-134853571D01*
X96004761Y-134758333D01*
X95909523Y-134710714D01*
X95719046Y-134710714D01*
X95623808Y-134758333D01*
X95576189Y-134853571D01*
X95576189Y-134948810D01*
X96052380Y-135044048D01*
X94719046Y-135377381D02*
X94719046Y-134377381D01*
X94719046Y-135329762D02*
X94814284Y-135377381D01*
X95004761Y-135377381D01*
X95099999Y-135329762D01*
X95147618Y-135282143D01*
X95195237Y-135186905D01*
X95195237Y-134901190D01*
X95147618Y-134805952D01*
X95099999Y-134758333D01*
X95004761Y-134710714D01*
X94814284Y-134710714D01*
X94719046Y-134758333D01*
X93480951Y-135377381D02*
X93480951Y-134377381D01*
X93480951Y-134758333D02*
X93385713Y-134710714D01*
X93195236Y-134710714D01*
X93099998Y-134758333D01*
X93052379Y-134805952D01*
X93004760Y-134901190D01*
X93004760Y-135186905D01*
X93052379Y-135282143D01*
X93099998Y-135329762D01*
X93195236Y-135377381D01*
X93385713Y-135377381D01*
X93480951Y-135329762D01*
X92671427Y-134710714D02*
X92433332Y-135377381D01*
X92195236Y-134710714D02*
X92433332Y-135377381D01*
X92528570Y-135615476D01*
X92576189Y-135663095D01*
X92671427Y-135710714D01*
X106790477Y-137032143D02*
X106838096Y-137079762D01*
X106980953Y-137127381D01*
X107076191Y-137127381D01*
X107219049Y-137079762D01*
X107314287Y-136984524D01*
X107361906Y-136889286D01*
X107409525Y-136698810D01*
X107409525Y-136555952D01*
X107361906Y-136365476D01*
X107314287Y-136270238D01*
X107219049Y-136175000D01*
X107076191Y-136127381D01*
X106980953Y-136127381D01*
X106838096Y-136175000D01*
X106790477Y-136222619D01*
X106361906Y-137127381D02*
X106361906Y-136127381D01*
X105933334Y-137127381D02*
X105933334Y-136603571D01*
X105980953Y-136508333D01*
X106076191Y-136460714D01*
X106219049Y-136460714D01*
X106314287Y-136508333D01*
X106361906Y-136555952D01*
X105457144Y-137127381D02*
X105457144Y-136460714D01*
X105457144Y-136651190D02*
X105409525Y-136555952D01*
X105361906Y-136508333D01*
X105266668Y-136460714D01*
X105171429Y-136460714D01*
X104838096Y-137127381D02*
X104838096Y-136460714D01*
X104838096Y-136127381D02*
X104885715Y-136175000D01*
X104838096Y-136222619D01*
X104790477Y-136175000D01*
X104838096Y-136127381D01*
X104838096Y-136222619D01*
X104409525Y-137079762D02*
X104314287Y-137127381D01*
X104123811Y-137127381D01*
X104028572Y-137079762D01*
X103980953Y-136984524D01*
X103980953Y-136936905D01*
X104028572Y-136841667D01*
X104123811Y-136794048D01*
X104266668Y-136794048D01*
X104361906Y-136746429D01*
X104409525Y-136651190D01*
X104409525Y-136603571D01*
X104361906Y-136508333D01*
X104266668Y-136460714D01*
X104123811Y-136460714D01*
X104028572Y-136508333D01*
X103695239Y-136460714D02*
X103314287Y-136460714D01*
X103552382Y-136127381D02*
X103552382Y-136984524D01*
X103504763Y-137079762D01*
X103409525Y-137127381D01*
X103314287Y-137127381D01*
X102838096Y-137127381D02*
X102933334Y-137079762D01*
X102980953Y-137032143D01*
X103028572Y-136936905D01*
X103028572Y-136651190D01*
X102980953Y-136555952D01*
X102933334Y-136508333D01*
X102838096Y-136460714D01*
X102695238Y-136460714D01*
X102600000Y-136508333D01*
X102552381Y-136555952D01*
X102504762Y-136651190D01*
X102504762Y-136936905D01*
X102552381Y-137032143D01*
X102600000Y-137079762D01*
X102695238Y-137127381D01*
X102838096Y-137127381D01*
X102076191Y-136460714D02*
X102076191Y-137460714D01*
X102076191Y-136508333D02*
X101980953Y-136460714D01*
X101790476Y-136460714D01*
X101695238Y-136508333D01*
X101647619Y-136555952D01*
X101600000Y-136651190D01*
X101600000Y-136936905D01*
X101647619Y-137032143D01*
X101695238Y-137079762D01*
X101790476Y-137127381D01*
X101980953Y-137127381D01*
X102076191Y-137079762D01*
X101171429Y-137127381D02*
X101171429Y-136127381D01*
X100742857Y-137127381D02*
X100742857Y-136603571D01*
X100790476Y-136508333D01*
X100885714Y-136460714D01*
X101028572Y-136460714D01*
X101123810Y-136508333D01*
X101171429Y-136555952D01*
X99885714Y-137079762D02*
X99980952Y-137127381D01*
X100171429Y-137127381D01*
X100266667Y-137079762D01*
X100314286Y-136984524D01*
X100314286Y-136603571D01*
X100266667Y-136508333D01*
X100171429Y-136460714D01*
X99980952Y-136460714D01*
X99885714Y-136508333D01*
X99838095Y-136603571D01*
X99838095Y-136698810D01*
X100314286Y-136794048D01*
X99409524Y-137127381D02*
X99409524Y-136460714D01*
X99409524Y-136651190D02*
X99361905Y-136555952D01*
X99314286Y-136508333D01*
X99219048Y-136460714D01*
X99123809Y-136460714D01*
X97457142Y-137032143D02*
X97504761Y-137079762D01*
X97647618Y-137127381D01*
X97742856Y-137127381D01*
X97885714Y-137079762D01*
X97980952Y-136984524D01*
X98028571Y-136889286D01*
X98076190Y-136698810D01*
X98076190Y-136555952D01*
X98028571Y-136365476D01*
X97980952Y-136270238D01*
X97885714Y-136175000D01*
X97742856Y-136127381D01*
X97647618Y-136127381D01*
X97504761Y-136175000D01*
X97457142Y-136222619D01*
X96885714Y-137127381D02*
X96980952Y-137079762D01*
X97028571Y-137032143D01*
X97076190Y-136936905D01*
X97076190Y-136651190D01*
X97028571Y-136555952D01*
X96980952Y-136508333D01*
X96885714Y-136460714D01*
X96742856Y-136460714D01*
X96647618Y-136508333D01*
X96599999Y-136555952D01*
X96552380Y-136651190D01*
X96552380Y-136936905D01*
X96599999Y-137032143D01*
X96647618Y-137079762D01*
X96742856Y-137127381D01*
X96885714Y-137127381D01*
X96123809Y-137127381D02*
X96123809Y-136460714D01*
X96123809Y-136651190D02*
X96076190Y-136555952D01*
X96028571Y-136508333D01*
X95933333Y-136460714D01*
X95838094Y-136460714D01*
X95361904Y-137127381D02*
X95457142Y-137079762D01*
X95504761Y-136984524D01*
X95504761Y-136127381D01*
X94599998Y-137079762D02*
X94695236Y-137127381D01*
X94885713Y-137127381D01*
X94980951Y-137079762D01*
X95028570Y-136984524D01*
X95028570Y-136603571D01*
X94980951Y-136508333D01*
X94885713Y-136460714D01*
X94695236Y-136460714D01*
X94599998Y-136508333D01*
X94552379Y-136603571D01*
X94552379Y-136698810D01*
X95028570Y-136794048D01*
X94219046Y-136460714D02*
X93980951Y-137127381D01*
X93742855Y-136460714D02*
X93980951Y-137127381D01*
X94076189Y-137365476D01*
X94123808Y-137413095D01*
X94219046Y-137460714D01*
X105266667Y-138877381D02*
X105266667Y-137877381D01*
X105028572Y-137877381D01*
X104885714Y-137925000D01*
X104790476Y-138020238D01*
X104742857Y-138115476D01*
X104695238Y-138305952D01*
X104695238Y-138448810D01*
X104742857Y-138639286D01*
X104790476Y-138734524D01*
X104885714Y-138829762D01*
X105028572Y-138877381D01*
X105266667Y-138877381D01*
X104266667Y-138877381D02*
X104266667Y-137877381D01*
X103838095Y-138877381D02*
X103838095Y-138353571D01*
X103885714Y-138258333D01*
X103980952Y-138210714D01*
X104123810Y-138210714D01*
X104219048Y-138258333D01*
X104266667Y-138305952D01*
X102933333Y-138877381D02*
X102933333Y-138353571D01*
X102980952Y-138258333D01*
X103076190Y-138210714D01*
X103266667Y-138210714D01*
X103361905Y-138258333D01*
X102933333Y-138829762D02*
X103028571Y-138877381D01*
X103266667Y-138877381D01*
X103361905Y-138829762D01*
X103409524Y-138734524D01*
X103409524Y-138639286D01*
X103361905Y-138544048D01*
X103266667Y-138496429D01*
X103028571Y-138496429D01*
X102933333Y-138448810D01*
X102552381Y-138210714D02*
X102314286Y-138877381D01*
X102076190Y-138210714D01*
X101266666Y-138877381D02*
X101266666Y-138353571D01*
X101314285Y-138258333D01*
X101409523Y-138210714D01*
X101600000Y-138210714D01*
X101695238Y-138258333D01*
X101266666Y-138829762D02*
X101361904Y-138877381D01*
X101600000Y-138877381D01*
X101695238Y-138829762D01*
X101742857Y-138734524D01*
X101742857Y-138639286D01*
X101695238Y-138544048D01*
X101600000Y-138496429D01*
X101361904Y-138496429D01*
X101266666Y-138448810D01*
X100647619Y-138877381D02*
X100742857Y-138829762D01*
X100790476Y-138734524D01*
X100790476Y-137877381D01*
X99504761Y-138877381D02*
X99504761Y-137877381D01*
X99266666Y-137877381D01*
X99123808Y-137925000D01*
X99028570Y-138020238D01*
X98980951Y-138115476D01*
X98933332Y-138305952D01*
X98933332Y-138448810D01*
X98980951Y-138639286D01*
X99028570Y-138734524D01*
X99123808Y-138829762D01*
X99266666Y-138877381D01*
X99504761Y-138877381D01*
X98123808Y-138829762D02*
X98219046Y-138877381D01*
X98409523Y-138877381D01*
X98504761Y-138829762D01*
X98552380Y-138734524D01*
X98552380Y-138353571D01*
X98504761Y-138258333D01*
X98409523Y-138210714D01*
X98219046Y-138210714D01*
X98123808Y-138258333D01*
X98076189Y-138353571D01*
X98076189Y-138448810D01*
X98552380Y-138544048D01*
X97695237Y-138829762D02*
X97599999Y-138877381D01*
X97409523Y-138877381D01*
X97314284Y-138829762D01*
X97266665Y-138734524D01*
X97266665Y-138686905D01*
X97314284Y-138591667D01*
X97409523Y-138544048D01*
X97552380Y-138544048D01*
X97647618Y-138496429D01*
X97695237Y-138401190D01*
X97695237Y-138353571D01*
X97647618Y-138258333D01*
X97552380Y-138210714D01*
X97409523Y-138210714D01*
X97314284Y-138258333D01*
X96409522Y-138877381D02*
X96409522Y-138353571D01*
X96457141Y-138258333D01*
X96552379Y-138210714D01*
X96742856Y-138210714D01*
X96838094Y-138258333D01*
X96409522Y-138829762D02*
X96504760Y-138877381D01*
X96742856Y-138877381D01*
X96838094Y-138829762D01*
X96885713Y-138734524D01*
X96885713Y-138639286D01*
X96838094Y-138544048D01*
X96742856Y-138496429D01*
X96504760Y-138496429D01*
X96409522Y-138448810D01*
X95933332Y-138877381D02*
X95933332Y-138210714D01*
X95933332Y-137877381D02*
X95980951Y-137925000D01*
X95933332Y-137972619D01*
X95885713Y-137925000D01*
X95933332Y-137877381D01*
X95933332Y-137972619D01*
X105242858Y-140627381D02*
X105242858Y-139627381D01*
X104909524Y-140341667D01*
X104576191Y-139627381D01*
X104576191Y-140627381D01*
X104100001Y-140627381D02*
X104100001Y-139960714D01*
X104100001Y-139627381D02*
X104147620Y-139675000D01*
X104100001Y-139722619D01*
X104052382Y-139675000D01*
X104100001Y-139627381D01*
X104100001Y-139722619D01*
X103623811Y-140627381D02*
X103623811Y-139627381D01*
X103528573Y-140246429D02*
X103242858Y-140627381D01*
X103242858Y-139960714D02*
X103623811Y-140341667D01*
X102433334Y-140579762D02*
X102528572Y-140627381D01*
X102719049Y-140627381D01*
X102814287Y-140579762D01*
X102861906Y-140484524D01*
X102861906Y-140103571D01*
X102814287Y-140008333D01*
X102719049Y-139960714D01*
X102528572Y-139960714D01*
X102433334Y-140008333D01*
X102385715Y-140103571D01*
X102385715Y-140198810D01*
X102861906Y-140294048D01*
X102052382Y-139960714D02*
X101814287Y-140627381D01*
X101576191Y-139960714D02*
X101814287Y-140627381D01*
X101909525Y-140865476D01*
X101957144Y-140913095D01*
X102052382Y-140960714D01*
X99909524Y-139675000D02*
X100004762Y-139627381D01*
X100147619Y-139627381D01*
X100290477Y-139675000D01*
X100385715Y-139770238D01*
X100433334Y-139865476D01*
X100480953Y-140055952D01*
X100480953Y-140198810D01*
X100433334Y-140389286D01*
X100385715Y-140484524D01*
X100290477Y-140579762D01*
X100147619Y-140627381D01*
X100052381Y-140627381D01*
X99909524Y-140579762D01*
X99861905Y-140532143D01*
X99861905Y-140198810D01*
X100052381Y-140198810D01*
X99004762Y-140627381D02*
X99004762Y-140103571D01*
X99052381Y-140008333D01*
X99147619Y-139960714D01*
X99338096Y-139960714D01*
X99433334Y-140008333D01*
X99004762Y-140579762D02*
X99100000Y-140627381D01*
X99338096Y-140627381D01*
X99433334Y-140579762D01*
X99480953Y-140484524D01*
X99480953Y-140389286D01*
X99433334Y-140294048D01*
X99338096Y-140246429D01*
X99100000Y-140246429D01*
X99004762Y-140198810D01*
X98528572Y-140627381D02*
X98528572Y-139960714D01*
X98528572Y-140151190D02*
X98480953Y-140055952D01*
X98433334Y-140008333D01*
X98338096Y-139960714D01*
X98242857Y-139960714D01*
X97909524Y-140627381D02*
X97909524Y-139960714D01*
X97909524Y-140151190D02*
X97861905Y-140055952D01*
X97814286Y-140008333D01*
X97719048Y-139960714D01*
X97623809Y-139960714D01*
X97290476Y-140627381D02*
X97290476Y-139960714D01*
X97290476Y-139627381D02*
X97338095Y-139675000D01*
X97290476Y-139722619D01*
X97242857Y-139675000D01*
X97290476Y-139627381D01*
X97290476Y-139722619D01*
X96957143Y-139960714D02*
X96576191Y-139960714D01*
X96814286Y-139627381D02*
X96814286Y-140484524D01*
X96766667Y-140579762D01*
X96671429Y-140627381D01*
X96576191Y-140627381D01*
X96338095Y-139960714D02*
X96100000Y-140627381D01*
X95861904Y-139960714D02*
X96100000Y-140627381D01*
X96195238Y-140865476D01*
X96242857Y-140913095D01*
X96338095Y-140960714D01*
X120790472Y-141996429D02*
X120028567Y-141996429D01*
X119552377Y-141996429D02*
X118790472Y-141996429D01*
X118314282Y-141996429D02*
X117552377Y-141996429D01*
X117076187Y-141996429D02*
X116314282Y-141996429D01*
X115838092Y-141996429D02*
X115076187Y-141996429D01*
X114599997Y-141996429D02*
X113838092Y-141996429D01*
X113361902Y-141996429D02*
X112599997Y-141996429D01*
X112123807Y-141996429D02*
X111361902Y-141996429D01*
X110885712Y-141996429D02*
X110123807Y-141996429D01*
X109647617Y-141996429D02*
X108885712Y-141996429D01*
X108409522Y-141996429D02*
X107647617Y-141996429D01*
X107171427Y-141996429D02*
X106409522Y-141996429D01*
X105933332Y-141996429D02*
X105171427Y-141996429D01*
X104695237Y-141996429D02*
X103933332Y-141996429D01*
X103457142Y-141996429D02*
X102695237Y-141996429D01*
X102219047Y-141996429D02*
X101457142Y-141996429D01*
X100980952Y-141996429D02*
X100219047Y-141996429D01*
X99742857Y-141996429D02*
X98980952Y-141996429D01*
X98504762Y-141996429D02*
X97742857Y-141996429D01*
X97266667Y-141996429D02*
X96504762Y-141996429D01*
X96028572Y-141996429D02*
X95266667Y-141996429D01*
X94790477Y-141996429D02*
X94028572Y-141996429D01*
X93552382Y-141996429D02*
X92790477Y-141996429D01*
X92314287Y-141996429D02*
X91552382Y-141996429D01*
X91076192Y-141996429D02*
X90314287Y-141996429D01*
X89838097Y-141996429D02*
X89076192Y-141996429D01*
X88600002Y-141996429D02*
X87838097Y-141996429D01*
X87361907Y-141996429D02*
X86600002Y-141996429D01*
X86123812Y-141996429D02*
X85361907Y-141996429D01*
X84885717Y-141996429D02*
X84123812Y-141996429D01*
X83647622Y-141996429D02*
X82885717Y-141996429D01*
X82409527Y-141996429D02*
X81647622Y-141996429D01*
X81171432Y-141996429D02*
X80409527Y-141996429D01*
D12*
X81814285Y-95628571D02*
X81814285Y-96842857D01*
X81742857Y-96985714D01*
X81671428Y-97057143D01*
X81528571Y-97128571D01*
X81242857Y-97128571D01*
X81099999Y-97057143D01*
X81028571Y-96985714D01*
X80957142Y-96842857D01*
X80957142Y-95628571D01*
X79385713Y-96985714D02*
X79457142Y-97057143D01*
X79671428Y-97128571D01*
X79814285Y-97128571D01*
X80028570Y-97057143D01*
X80171428Y-96914286D01*
X80242856Y-96771429D01*
X80314285Y-96485714D01*
X80314285Y-96271429D01*
X80242856Y-95985714D01*
X80171428Y-95842857D01*
X80028570Y-95700000D01*
X79814285Y-95628571D01*
X79671428Y-95628571D01*
X79457142Y-95700000D01*
X79385713Y-95771429D01*
X78242856Y-96342857D02*
X78742856Y-96342857D01*
X78742856Y-97128571D02*
X78742856Y-95628571D01*
X78028570Y-95628571D01*
X76385714Y-97057143D02*
X76171428Y-97128571D01*
X75814285Y-97128571D01*
X75671428Y-97057143D01*
X75599999Y-96985714D01*
X75528571Y-96842857D01*
X75528571Y-96700000D01*
X75599999Y-96557143D01*
X75671428Y-96485714D01*
X75814285Y-96414286D01*
X76099999Y-96342857D01*
X76242857Y-96271429D01*
X76314285Y-96200000D01*
X76385714Y-96057143D01*
X76385714Y-95914286D01*
X76314285Y-95771429D01*
X76242857Y-95700000D01*
X76099999Y-95628571D01*
X75742857Y-95628571D01*
X75528571Y-95700000D01*
X74314286Y-97057143D02*
X74457143Y-97128571D01*
X74742857Y-97128571D01*
X74885714Y-97057143D01*
X74957143Y-96914286D01*
X74957143Y-96342857D01*
X74885714Y-96200000D01*
X74742857Y-96128571D01*
X74457143Y-96128571D01*
X74314286Y-96200000D01*
X74242857Y-96342857D01*
X74242857Y-96485714D01*
X74957143Y-96628571D01*
X73600000Y-96128571D02*
X73600000Y-97128571D01*
X73600000Y-96271429D02*
X73528572Y-96200000D01*
X73385714Y-96128571D01*
X73171429Y-96128571D01*
X73028572Y-96200000D01*
X72957143Y-96342857D01*
X72957143Y-97128571D01*
X72242857Y-97128571D02*
X72242857Y-96128571D01*
X72242857Y-95628571D02*
X72314286Y-95700000D01*
X72242857Y-95771429D01*
X72171429Y-95700000D01*
X72242857Y-95628571D01*
X72242857Y-95771429D01*
X71314285Y-97128571D02*
X71457143Y-97057143D01*
X71528571Y-96985714D01*
X71600000Y-96842857D01*
X71600000Y-96414286D01*
X71528571Y-96271429D01*
X71457143Y-96200000D01*
X71314285Y-96128571D01*
X71100000Y-96128571D01*
X70957143Y-96200000D01*
X70885714Y-96271429D01*
X70814285Y-96414286D01*
X70814285Y-96842857D01*
X70885714Y-96985714D01*
X70957143Y-97057143D01*
X71100000Y-97128571D01*
X71314285Y-97128571D01*
X70171428Y-97128571D02*
X70171428Y-96128571D01*
X70171428Y-96414286D02*
X70100000Y-96271429D01*
X70028571Y-96200000D01*
X69885714Y-96128571D01*
X69742857Y-96128571D01*
X68100000Y-97128571D02*
X68100000Y-95628571D01*
X67742857Y-95628571D01*
X67528572Y-95700000D01*
X67385714Y-95842857D01*
X67314286Y-95985714D01*
X67242857Y-96271429D01*
X67242857Y-96485714D01*
X67314286Y-96771429D01*
X67385714Y-96914286D01*
X67528572Y-97057143D01*
X67742857Y-97128571D01*
X68100000Y-97128571D01*
X66028572Y-97057143D02*
X66171429Y-97128571D01*
X66457143Y-97128571D01*
X66600000Y-97057143D01*
X66671429Y-96914286D01*
X66671429Y-96342857D01*
X66600000Y-96200000D01*
X66457143Y-96128571D01*
X66171429Y-96128571D01*
X66028572Y-96200000D01*
X65957143Y-96342857D01*
X65957143Y-96485714D01*
X66671429Y-96628571D01*
X65385715Y-97057143D02*
X65242858Y-97128571D01*
X64957143Y-97128571D01*
X64814286Y-97057143D01*
X64742858Y-96914286D01*
X64742858Y-96842857D01*
X64814286Y-96700000D01*
X64957143Y-96628571D01*
X65171429Y-96628571D01*
X65314286Y-96557143D01*
X65385715Y-96414286D01*
X65385715Y-96342857D01*
X65314286Y-96200000D01*
X65171429Y-96128571D01*
X64957143Y-96128571D01*
X64814286Y-96200000D01*
X64100000Y-97128571D02*
X64100000Y-96128571D01*
X64100000Y-95628571D02*
X64171429Y-95700000D01*
X64100000Y-95771429D01*
X64028572Y-95700000D01*
X64100000Y-95628571D01*
X64100000Y-95771429D01*
X62742857Y-96128571D02*
X62742857Y-97342857D01*
X62814286Y-97485714D01*
X62885714Y-97557143D01*
X63028571Y-97628571D01*
X63242857Y-97628571D01*
X63385714Y-97557143D01*
X62742857Y-97057143D02*
X62885714Y-97128571D01*
X63171428Y-97128571D01*
X63314286Y-97057143D01*
X63385714Y-96985714D01*
X63457143Y-96842857D01*
X63457143Y-96414286D01*
X63385714Y-96271429D01*
X63314286Y-96200000D01*
X63171428Y-96128571D01*
X62885714Y-96128571D01*
X62742857Y-96200000D01*
X62028571Y-96128571D02*
X62028571Y-97128571D01*
X62028571Y-96271429D02*
X61957143Y-96200000D01*
X61814285Y-96128571D01*
X61600000Y-96128571D01*
X61457143Y-96200000D01*
X61385714Y-96342857D01*
X61385714Y-97128571D01*
X78135714Y-99607143D02*
X77921428Y-99678571D01*
X77564285Y-99678571D01*
X77421428Y-99607143D01*
X77349999Y-99535714D01*
X77278571Y-99392857D01*
X77278571Y-99250000D01*
X77349999Y-99107143D01*
X77421428Y-99035714D01*
X77564285Y-98964286D01*
X77849999Y-98892857D01*
X77992857Y-98821429D01*
X78064285Y-98750000D01*
X78135714Y-98607143D01*
X78135714Y-98464286D01*
X78064285Y-98321429D01*
X77992857Y-98250000D01*
X77849999Y-98178571D01*
X77492857Y-98178571D01*
X77278571Y-98250000D01*
X76635714Y-99678571D02*
X76635714Y-98678571D01*
X76635714Y-98821429D02*
X76564286Y-98750000D01*
X76421428Y-98678571D01*
X76207143Y-98678571D01*
X76064286Y-98750000D01*
X75992857Y-98892857D01*
X75992857Y-99678571D01*
X75992857Y-98892857D02*
X75921428Y-98750000D01*
X75778571Y-98678571D01*
X75564286Y-98678571D01*
X75421428Y-98750000D01*
X75350000Y-98892857D01*
X75350000Y-99678571D01*
X73992857Y-99678571D02*
X73992857Y-98892857D01*
X74064286Y-98750000D01*
X74207143Y-98678571D01*
X74492857Y-98678571D01*
X74635714Y-98750000D01*
X73992857Y-99607143D02*
X74135714Y-99678571D01*
X74492857Y-99678571D01*
X74635714Y-99607143D01*
X74707143Y-99464286D01*
X74707143Y-99321429D01*
X74635714Y-99178571D01*
X74492857Y-99107143D01*
X74135714Y-99107143D01*
X73992857Y-99035714D01*
X73278571Y-99678571D02*
X73278571Y-98678571D01*
X73278571Y-98964286D02*
X73207143Y-98821429D01*
X73135714Y-98750000D01*
X72992857Y-98678571D01*
X72850000Y-98678571D01*
X72564286Y-98678571D02*
X71992857Y-98678571D01*
X72350000Y-98178571D02*
X72350000Y-99464286D01*
X72278572Y-99607143D01*
X72135714Y-99678571D01*
X71992857Y-99678571D01*
X70564286Y-98178571D02*
X69707143Y-98178571D01*
X70135714Y-99678571D02*
X70135714Y-98178571D01*
X68564286Y-99678571D02*
X68564286Y-98892857D01*
X68635715Y-98750000D01*
X68778572Y-98678571D01*
X69064286Y-98678571D01*
X69207143Y-98750000D01*
X68564286Y-99607143D02*
X68707143Y-99678571D01*
X69064286Y-99678571D01*
X69207143Y-99607143D01*
X69278572Y-99464286D01*
X69278572Y-99321429D01*
X69207143Y-99178571D01*
X69064286Y-99107143D01*
X68707143Y-99107143D01*
X68564286Y-99035714D01*
X67850000Y-99678571D02*
X67850000Y-98178571D01*
X67850000Y-98750000D02*
X67707143Y-98678571D01*
X67421429Y-98678571D01*
X67278572Y-98750000D01*
X67207143Y-98821429D01*
X67135714Y-98964286D01*
X67135714Y-99392857D01*
X67207143Y-99535714D01*
X67278572Y-99607143D01*
X67421429Y-99678571D01*
X67707143Y-99678571D01*
X67850000Y-99607143D01*
X66278571Y-99678571D02*
X66421429Y-99607143D01*
X66492857Y-99464286D01*
X66492857Y-98178571D01*
X65135715Y-99607143D02*
X65278572Y-99678571D01*
X65564286Y-99678571D01*
X65707143Y-99607143D01*
X65778572Y-99464286D01*
X65778572Y-98892857D01*
X65707143Y-98750000D01*
X65564286Y-98678571D01*
X65278572Y-98678571D01*
X65135715Y-98750000D01*
X65064286Y-98892857D01*
X65064286Y-99035714D01*
X65778572Y-99178571D01*
X79242856Y-102157143D02*
X79028570Y-102228571D01*
X78671427Y-102228571D01*
X78528570Y-102157143D01*
X78457141Y-102085714D01*
X78385713Y-101942857D01*
X78385713Y-101800000D01*
X78457141Y-101657143D01*
X78528570Y-101585714D01*
X78671427Y-101514286D01*
X78957141Y-101442857D01*
X79099999Y-101371429D01*
X79171427Y-101300000D01*
X79242856Y-101157143D01*
X79242856Y-101014286D01*
X79171427Y-100871429D01*
X79099999Y-100800000D01*
X78957141Y-100728571D01*
X78599999Y-100728571D01*
X78385713Y-100800000D01*
X77099999Y-101228571D02*
X77099999Y-102228571D01*
X77742856Y-101228571D02*
X77742856Y-102014286D01*
X77671428Y-102157143D01*
X77528570Y-102228571D01*
X77314285Y-102228571D01*
X77171428Y-102157143D01*
X77099999Y-102085714D01*
X76385713Y-102228571D02*
X76385713Y-101228571D01*
X76385713Y-101371429D02*
X76314285Y-101300000D01*
X76171427Y-101228571D01*
X75957142Y-101228571D01*
X75814285Y-101300000D01*
X75742856Y-101442857D01*
X75742856Y-102228571D01*
X75742856Y-101442857D02*
X75671427Y-101300000D01*
X75528570Y-101228571D01*
X75314285Y-101228571D01*
X75171427Y-101300000D01*
X75099999Y-101442857D01*
X75099999Y-102228571D01*
X74385713Y-102228571D02*
X74385713Y-101228571D01*
X74385713Y-101371429D02*
X74314285Y-101300000D01*
X74171427Y-101228571D01*
X73957142Y-101228571D01*
X73814285Y-101300000D01*
X73742856Y-101442857D01*
X73742856Y-102228571D01*
X73742856Y-101442857D02*
X73671427Y-101300000D01*
X73528570Y-101228571D01*
X73314285Y-101228571D01*
X73171427Y-101300000D01*
X73099999Y-101442857D01*
X73099999Y-102228571D01*
X71814285Y-102157143D02*
X71957142Y-102228571D01*
X72242856Y-102228571D01*
X72385713Y-102157143D01*
X72457142Y-102014286D01*
X72457142Y-101442857D01*
X72385713Y-101300000D01*
X72242856Y-101228571D01*
X71957142Y-101228571D01*
X71814285Y-101300000D01*
X71742856Y-101442857D01*
X71742856Y-101585714D01*
X72457142Y-101728571D01*
X71099999Y-102228571D02*
X71099999Y-101228571D01*
X71099999Y-101514286D02*
X71028571Y-101371429D01*
X70957142Y-101300000D01*
X70814285Y-101228571D01*
X70671428Y-101228571D01*
X69100000Y-100871429D02*
X69028571Y-100800000D01*
X68885714Y-100728571D01*
X68528571Y-100728571D01*
X68385714Y-100800000D01*
X68314285Y-100871429D01*
X68242857Y-101014286D01*
X68242857Y-101157143D01*
X68314285Y-101371429D01*
X69171428Y-102228571D01*
X68242857Y-102228571D01*
X67314286Y-100728571D02*
X67171429Y-100728571D01*
X67028572Y-100800000D01*
X66957143Y-100871429D01*
X66885714Y-101014286D01*
X66814286Y-101300000D01*
X66814286Y-101657143D01*
X66885714Y-101942857D01*
X66957143Y-102085714D01*
X67028572Y-102157143D01*
X67171429Y-102228571D01*
X67314286Y-102228571D01*
X67457143Y-102157143D01*
X67528572Y-102085714D01*
X67600000Y-101942857D01*
X67671429Y-101657143D01*
X67671429Y-101300000D01*
X67600000Y-101014286D01*
X67528572Y-100871429D01*
X67457143Y-100800000D01*
X67314286Y-100728571D01*
X65385715Y-102228571D02*
X66242858Y-102228571D01*
X65814286Y-102228571D02*
X65814286Y-100728571D01*
X65957143Y-100942857D01*
X66100001Y-101085714D01*
X66242858Y-101157143D01*
X64528572Y-101371429D02*
X64671430Y-101300000D01*
X64742858Y-101228571D01*
X64814287Y-101085714D01*
X64814287Y-101014286D01*
X64742858Y-100871429D01*
X64671430Y-100800000D01*
X64528572Y-100728571D01*
X64242858Y-100728571D01*
X64100001Y-100800000D01*
X64028572Y-100871429D01*
X63957144Y-101014286D01*
X63957144Y-101085714D01*
X64028572Y-101228571D01*
X64100001Y-101300000D01*
X64242858Y-101371429D01*
X64528572Y-101371429D01*
X64671430Y-101442857D01*
X64742858Y-101514286D01*
X64814287Y-101657143D01*
X64814287Y-101942857D01*
X64742858Y-102085714D01*
X64671430Y-102157143D01*
X64528572Y-102228571D01*
X64242858Y-102228571D01*
X64100001Y-102157143D01*
X64028572Y-102085714D01*
X63957144Y-101942857D01*
X63957144Y-101657143D01*
X64028572Y-101514286D01*
X64100001Y-101442857D01*
X64242858Y-101371429D01*
D10*
X73031674Y-104038033D02*
X66811699Y-104091542D01*
X62052108Y-104759903D02*
X61531674Y-105538033D01*
X79251649Y-104091542D02*
X73031674Y-104038033D01*
X79531674Y-107038033D02*
X81992163Y-106968790D01*
X84236615Y-106245043D02*
X84531674Y-105538033D01*
X112630410Y-112772408D02*
X113571913Y-113580675D01*
X116880302Y-117038033D02*
X114531674Y-119538033D01*
X84531674Y-105538033D02*
X84011240Y-104759903D01*
X76564280Y-110557228D02*
X75499471Y-109347599D01*
X74685590Y-108307448D02*
X74531674Y-107841866D01*
X111357360Y-122038033D02*
X111033463Y-121787891D01*
X114531674Y-119538033D02*
X113571913Y-120495391D01*
X74777524Y-107526263D02*
X76000424Y-107274159D01*
X75499471Y-109347599D02*
X74685590Y-108307448D01*
X84011240Y-104759903D02*
X82365007Y-104320642D01*
X83448341Y-106713033D02*
X84236615Y-106245043D01*
X110591203Y-115121261D02*
X110774219Y-113506783D01*
X111033463Y-121787891D02*
X110774219Y-120569283D01*
X111033463Y-112288175D02*
X111357360Y-112038033D01*
X112630410Y-121303658D02*
X111808349Y-121901057D01*
X110531674Y-117038033D02*
X110591203Y-115121261D01*
X66811699Y-104091542D02*
X63698341Y-104320642D01*
X77826301Y-111838978D02*
X76564280Y-110557228D01*
X85534509Y-110535144D02*
X81120928Y-115032256D01*
X110774219Y-120569283D02*
X110591203Y-118954805D01*
X113571913Y-113580675D02*
X114531674Y-114538033D01*
X111357360Y-112038033D02*
X111808349Y-112175009D01*
X89696590Y-106871774D02*
X85534509Y-110535144D01*
X81992163Y-106968790D02*
X83448341Y-106713033D01*
X113571913Y-120495391D02*
X112630410Y-121303658D01*
X110591203Y-118954805D02*
X110531674Y-117038033D01*
X63698341Y-104320642D02*
X62052108Y-104759903D01*
X82365007Y-104320642D02*
X79251649Y-104091542D01*
X111808349Y-121901057D02*
X111357360Y-122038033D01*
X110774219Y-113506783D02*
X111033463Y-112288175D01*
X111808349Y-112175009D02*
X112630410Y-112772408D01*
X76000424Y-107274159D02*
X77614877Y-107095977D01*
X74531674Y-107841866D02*
X74777524Y-107526263D01*
X114531674Y-114538033D02*
X116880302Y-117038033D01*
X81120928Y-115032256D02*
X77826301Y-111838978D01*
X77614877Y-107095977D02*
X79531674Y-107038033D01*
X108828726Y-91038033D02*
X110460093Y-90415993D01*
X100438267Y-115774068D02*
X99517735Y-114569283D01*
X85642654Y-115429664D02*
X89531674Y-111632137D01*
X94367282Y-102400119D02*
X97617460Y-105073567D01*
X96852852Y-91226767D02*
X93914348Y-94051690D01*
X120323809Y-118080373D02*
X120531674Y-117472428D01*
X89531674Y-129038033D02*
X99815834Y-129038033D01*
X73246556Y-112065810D02*
X77827364Y-116884349D01*
X68893897Y-107951610D02*
X70668770Y-109354109D01*
X65128913Y-107038033D02*
X67214259Y-107267414D01*
X63469765Y-106957290D02*
X65128913Y-107038033D01*
X98823483Y-90424756D02*
X96852852Y-91226767D01*
X84057019Y-81368982D02*
X83531674Y-82335085D01*
X97617460Y-105073567D02*
X103254936Y-105046655D01*
X110460093Y-90415993D02*
X113787982Y-87255964D01*
X103917032Y-91167753D02*
X101906078Y-90398194D01*
X89531674Y-111632137D02*
X89531674Y-120335085D01*
X103355672Y-112953498D02*
X102423154Y-114569283D01*
X116968627Y-81317733D02*
X115772006Y-81263383D01*
X100358979Y-90168249D02*
X98823483Y-90424756D01*
X110099994Y-129038033D02*
X115315834Y-123756588D01*
X99815834Y-129038033D02*
X110099994Y-129038033D01*
X82527856Y-117942545D02*
X85642654Y-115429664D01*
X105291943Y-108814691D02*
X104247176Y-111038033D01*
X110168825Y-106773717D02*
X108164199Y-106038033D01*
X70668770Y-109354109D02*
X73246556Y-112065810D01*
X119776890Y-115647114D02*
X115055145Y-111101378D01*
X107747505Y-89393284D02*
X107862623Y-90512688D01*
X108871621Y-87468353D02*
X107747505Y-89393284D01*
X101559156Y-115770292D02*
X101004143Y-116038033D01*
X99517735Y-114569283D02*
X98511077Y-112953462D01*
X101004143Y-116038033D02*
X100438267Y-115774068D01*
X118999521Y-119732019D02*
X120323809Y-118080373D01*
X62381214Y-106683786D02*
X63469765Y-106957290D01*
X102423154Y-114569283D02*
X101559156Y-115770292D01*
X104247176Y-111038033D02*
X103355672Y-112953498D01*
X106283555Y-107273362D02*
X105291943Y-108814691D01*
X107237721Y-106344087D02*
X106283555Y-107273362D01*
X108164199Y-106038033D02*
X107237721Y-106344087D01*
X115055145Y-111101378D02*
X110168825Y-106773717D01*
X89531674Y-120335085D02*
X89531674Y-129038033D01*
X87101354Y-82377980D02*
X85176423Y-81253864D01*
X67214259Y-107267414D02*
X68893897Y-107951610D01*
X101906078Y-90398194D02*
X100358979Y-90168249D01*
X120531674Y-117472428D02*
X119776890Y-115647114D01*
X117314177Y-121660259D02*
X118999521Y-119732019D01*
X115315834Y-123756588D02*
X117314177Y-121660259D01*
X80283959Y-118303761D02*
X82527856Y-117942545D01*
X61531674Y-105538033D02*
X61762368Y-106210801D01*
X117531674Y-82245870D02*
X116968627Y-81317733D01*
X77827364Y-116884349D02*
X80283959Y-118303761D01*
X107661329Y-95288094D02*
X103917032Y-91167753D01*
X107394330Y-101001849D02*
X107661329Y-95288094D01*
X103254936Y-105046655D02*
X107394330Y-101001849D01*
X115772006Y-81263383D02*
X113781081Y-82467690D01*
X113787982Y-87255964D02*
X116912293Y-83896452D01*
X92987458Y-98250074D02*
X94367282Y-102400119D01*
X85176423Y-81253864D02*
X84057019Y-81368982D01*
X113781081Y-82467690D02*
X111234622Y-84830196D01*
X111234622Y-84830196D02*
X108871621Y-87468353D01*
X116912293Y-83896452D02*
X117531674Y-82245870D01*
X107862623Y-90512688D02*
X108828726Y-91038033D01*
X61762368Y-106210801D02*
X62381214Y-106683786D01*
X93914348Y-94051690D02*
X92987458Y-98250074D01*
X84153714Y-83966452D02*
X87313743Y-87294341D01*
X83531674Y-82335085D02*
X84153714Y-83966452D01*
X102219174Y-78288033D02*
X101754704Y-77375745D01*
X101754704Y-88700321D02*
X102219174Y-87788033D01*
X99531674Y-83038033D02*
X99596126Y-86073975D01*
X102467222Y-80002091D02*
X102219174Y-78288033D01*
X99844174Y-78288033D02*
X99596126Y-80002091D01*
X89739511Y-84740981D02*
X87101354Y-82377980D01*
X100308644Y-77375745D02*
X99844174Y-78288033D01*
X101754704Y-77375745D02*
X101031674Y-77038033D01*
X102219174Y-87788033D02*
X102467222Y-86073975D01*
X92102017Y-87287440D02*
X89739511Y-84740981D01*
X93306324Y-89278365D02*
X92102017Y-87287440D01*
X100308644Y-88700321D02*
X101031674Y-89038033D01*
X93251974Y-90474986D02*
X93306324Y-89278365D01*
X92323837Y-91038033D02*
X93251974Y-90474986D01*
X87313743Y-87294341D02*
X90673255Y-90418652D01*
X99596126Y-80002091D02*
X99531674Y-83038033D01*
X102531674Y-83038033D02*
X102467222Y-80002091D01*
X99844174Y-87788033D02*
X100308644Y-88700321D01*
X101031674Y-77038033D02*
X100308644Y-77375745D01*
X101031674Y-89038033D02*
X101754704Y-88700321D01*
X102467222Y-86073975D02*
X102531674Y-83038033D01*
X99596126Y-86073975D02*
X99844174Y-87788033D01*
X90673255Y-90418652D02*
X92323837Y-91038033D01*
X97531674Y-111038033D02*
X95150000Y-107200000D01*
X98511077Y-112953462D02*
X97531674Y-111038033D01*
X92670595Y-105940642D02*
X89696590Y-106871774D01*
X95150000Y-107200000D02*
X92670595Y-105940642D01*
M02*
