<?xml version="1.0" standalone="no"?>
<!DOCTYPE svg PUBLIC "-//W3C//DTD SVG 20010904//EN"
 "http://www.w3.org/TR/2001/REC-SVG-20010904/DTD/svg10.dtd">
<svg version="1.0" xmlns="http://www.w3.org/2000/svg"
 width="64.000000pt" height="64.000000pt" viewBox="0 0 64.000000 64.000000"
 preserveAspectRatio="xMidYMid meet">

<g transform="translate(0.000000,64.000000) scale(0.100000,-0.100000)"
fill="#000000" stroke="none">
<path d="M410 570 c0 -47 3 -60 15 -60 12 0 15 13 15 60 0 47 -3 60 -15 60
-12 0 -15 -13 -15 -60z"/>
<path d="M250 577 c0 -16 72 -87 88 -87 23 0 12 26 -26 63 -39 38 -62 47 -62
24z"/>
<path d="M527 552 c-38 -39 -47 -62 -24 -62 16 0 87 72 87 88 0 23 -26 12 -63
-26z"/>
<path d="M383 488 c-55 -27 -50 -114 8 -138 89 -37 151 99 63 139 -30 13 -42
13 -71 -1z"/>
<path d="M30 345 c0 -11 11 -15 36 -15 31 0 43 -8 81 -50 69 -77 78 -79 124
-34 l39 38 0 -87 0 -87 103 0 103 0 52 53 c29 29 52 57 52 63 0 17 -105 114
-124 114 -12 0 -25 -16 -39 -50 -11 -27 -26 -50 -32 -50 -6 0 -22 23 -35 50
-31 67 -58 68 -120 5 l-44 -45 -33 32 c-18 18 -33 36 -33 40 0 4 23 8 50 8 38
0 50 4 50 15 0 12 -19 15 -115 15 -96 0 -115 -3 -115 -15z m530 -90 l23 -25
-23 -25 c-13 -14 -27 -25 -32 -25 -4 0 -8 23 -8 50 0 28 4 50 8 50 5 0 19 -11
32 -25z"/>
</g>
</svg>
