  0
SECTION
  2
HEADER
  9
$ACADVER
  1
AC1006
  9
$EXTMIN
 10
0.000000
 20
0.000000
 30
0.000000
  9
$EXTMAX
 10
48.000000
 20
48.000000
 30
0.000000
  0
ENDSEC
  0
SECTION
  2
ENTITIES
  0
POLYLINE
  8
0
 66
1
 70
1
  0
VERTEX
  8
0
 10
31.000000
 20
42.901210
 42
-0.033242
  0
VERTEX
  8
0
 10
30.854064
 20
40.708615
 42
-0.069397
  0
VERTEX
  8
0
 10
30.396089
 20
39.063384
 42
-0.069335
  0
VERTEX
  8
0
 10
29.505128
 20
37.605320
 42
-0.033131
  0
VERTEX
  8
0
 10
28.000000
 20
36.000000
 42
0.026716
  0
VERTEX
  8
0
 10
26.851760
 20
34.806366
 42
0.029779
  0
VERTEX
  8
0
 10
25.881250
 20
33.537794
 42
0.031093
  0
VERTEX
  8
0
 10
25.195369
 20
32.370801
 42
0.117837
  0
VERTEX
  8
0
 10
25.000000
 20
31.553336
 42
0.153924
  0
VERTEX
  8
0
 10
25.562538
 20
29.769304
 42
0.042629
  0
VERTEX
  8
0
 10
27.468385
 20
27.488640
 42
0.042582
  0
VERTEX
  8
0
 10
29.730922
 20
25.565962
 42
0.156063
  0
VERTEX
  8
0
 10
31.500000
 20
25.000000
 42
0.155909
  0
VERTEX
  8
0
 10
33.255507
 20
25.561036
 42
0.041710
  0
VERTEX
  8
0
 10
35.522031
 20
27.477969
 42
0.041710
  0
VERTEX
  8
0
 10
37.438964
 20
29.744493
 42
0.155909
  0
VERTEX
  8
0
 10
38.000000
 20
31.500000
 42
0.105634
  0
VERTEX
  8
0
 10
37.833344
 20
32.280033
 42
0.031904
  0
VERTEX
  8
0
 10
37.265625
 20
33.357955
 42
0.030394
  0
VERTEX
  8
0
 10
36.456788
 20
34.516906
 42
0.028836
  0
VERTEX
  8
0
 10
35.500000
 20
35.590909
 42
-0.044304
  0
VERTEX
  8
0
 10
34.288070
 20
37.038999
 42
-0.065897
  0
VERTEX
  8
0
 10
33.530612
 20
38.505751
 42
-0.058657
  0
VERTEX
  8
0
 10
33.127591
 20
40.243336
 42
-0.027690
  0
VERTEX
  8
0
 10
33.000000
 20
42.545455
 42
0.021161
  0
VERTEX
  8
0
 10
32.927709
 20
44.252775
 42
0.034062
  0
VERTEX
  8
0
 10
32.706250
 20
45.691477
 42
0.037532
  0
VERTEX
  8
0
 10
32.388389
 20
46.734315
 42
0.309311
  0
VERTEX
  8
0
 10
32.000000
 20
47.000000
 42
0.299015
  0
VERTEX
  8
0
 10
31.612594
 20
46.745571
 42
0.042346
  0
VERTEX
  8
0
 10
31.293750
 20
45.795980
 42
0.036824
  0
VERTEX
  8
0
 10
31.072366
 20
44.472054
 42
0.023022
  0
SEQEND
  0
POLYLINE
  8
0
 66
1
 70
1
  0
VERTEX
  8
0
 10
19.000000
 20
42.674314
 42
0.166720
  0
VERTEX
  8
0
 10
19.489196
 20
41.247980
 42
0.034211
  0
VERTEX
  8
0
 10
21.288889
 20
39.233723
 42
0.034429
  0
VERTEX
  8
0
 10
23.351039
 20
37.481338
 42
0.160235
  0
VERTEX
  8
0
 10
24.814451
 20
37.000000
 42
0.248338
  0
VERTEX
  8
0
 10
25.709008
 20
37.473507
 42
0.209733
  0
VERTEX
  8
0
 10
25.906843
 20
38.538504
 42
0.099741
  0
VERTEX
  8
0
 10
25.180360
 20
40.128320
 42
0.047324
  0
VERTEX
  8
0
 10
23.685549
 20
41.825686
 42
0.037815
  0
VERTEX
  8
0
 10
21.866833
 20
43.292187
 42
0.106355
  0
VERTEX
  8
0
 10
20.363927
 20
43.911873
 42
0.237322
  0
VERTEX
  8
0
 10
19.415046
 20
43.631968
 42
0.207380
  0
SEQEND
  0
POLYLINE
  8
0
 66
1
 70
1
  0
VERTEX
  8
0
 10
39.174314
 20
41.685549
 42
0.037815
  0
VERTEX
  8
0
 10
37.707813
 20
39.866833
 42
0.106355
  0
VERTEX
  8
0
 10
37.088127
 20
38.363927
 42
0.237322
  0
VERTEX
  8
0
 10
37.368032
 20
37.415046
 42
0.207380
  0
VERTEX
  8
0
 10
38.325686
 20
37.000000
 42
0.166720
  0
VERTEX
  8
0
 10
39.752020
 20
37.489196
 42
0.034211
  0
VERTEX
  8
0
 10
41.766277
 20
39.288889
 42
0.034429
  0
VERTEX
  8
0
 10
43.518662
 20
41.351039
 42
0.160235
  0
VERTEX
  8
0
 10
44.000000
 20
42.814451
 42
0.248338
  0
VERTEX
  8
0
 10
43.526493
 20
43.709008
 42
0.209733
  0
VERTEX
  8
0
 10
42.461496
 20
43.906843
 42
0.099741
  0
VERTEX
  8
0
 10
40.871680
 20
43.180360
 42
0.047324
  0
SEQEND
  0
POLYLINE
  8
0
 66
1
 70
1
  0
VERTEX
  8
0
 10
2.000000
 20
26.000000
 42
0.234138
  0
VERTEX
  8
0
 10
2.189875
 20
25.616753
 42
0.071798
  0
VERTEX
  8
0
 10
2.770779
 20
25.293750
 42
0.054819
  0
VERTEX
  8
0
 10
3.619006
 20
25.073014
 42
0.036280
  0
VERTEX
  8
0
 10
4.623928
 20
25.000000
 42
-0.091986
  0
VERTEX
  8
0
 10
6.054705
 20
24.734532
 42
-0.058208
  0
VERTEX
  8
0
 10
7.561679
 20
23.943856
 42
-0.043170
  0
VERTEX
  8
0
 10
9.239465
 20
22.571020
 42
-0.019241
  0
VERTEX
  8
0
 10
11.208915
 20
20.500000
 42
0.031827
  0
VERTEX
  8
0
 10
14.320815
 20
17.388231
 42
0.133824
  0
VERTEX
  8
0
 10
16.672281
 20
16.235830
 42
0.195026
  0
VERTEX
  8
0
 10
18.765343
 20
16.650549
 42
0.081041
  0
VERTEX
  8
0
 10
20.927420
 20
18.634859
 42
0.000000
  0
VERTEX
  8
0
 10
23.000000
 20
21.269717
 42
0.000000
  0
VERTEX
  8
0
 10
23.000000
 20
14.634859
 42
0.000000
  0
VERTEX
  8
0
 10
23.000000
 20
8.000000
 42
0.000000
  0
VERTEX
  8
0
 10
30.791792
 20
8.000000
 42
0.000000
  0
VERTEX
  8
0
 10
38.583584
 20
8.000000
 42
0.000000
  0
VERTEX
  8
0
 10
43.000000
 20
12.500000
 42
0.000000
  0
VERTEX
  8
0
 10
47.416416
 20
17.000000
 42
0.000000
  0
VERTEX
  8
0
 10
43.000000
 20
21.500000
 42
0.014388
  0
VERTEX
  8
0
 10
41.208398
 20
23.223399
 42
0.019109
  0
VERTEX
  8
0
 10
39.477812
 20
24.678125
 42
0.016684
  0
VERTEX
  8
0
 10
37.979048
 20
25.765014
 42
0.149619
  0
VERTEX
  8
0
 10
37.211347
 20
26.000000
 42
0.195577
  0
VERTEX
  8
0
 10
36.580050
 20
25.743244
 42
0.040983
  0
VERTEX
  8
0
 10
35.780651
 20
24.825000
 42
0.037276
  0
VERTEX
  8
0
 10
34.969971
 20
23.531600
 42
0.027774
  0
VERTEX
  8
0
 10
34.267865
 20
22.000000
 42
-0.015720
  0
VERTEX
  8
0
 10
33.609507
 20
20.467386
 42
-0.023377
  0
VERTEX
  8
0
 10
32.930234
 20
19.175000
 42
-0.020172
  0
VERTEX
  8
0
 10
32.303336
 20
18.199095
 42
-0.244574
  0
VERTEX
  8
0
 10
31.920658
 20
18.000000
 42
-0.236538
  0
VERTEX
  8
0
 10
31.529456
 20
18.196037
 42
-0.018959
  0
VERTEX
  8
0
 10
30.854226
 20
19.175000
 42
-0.022422
  0
VERTEX
  8
0
 10
30.112419
 20
20.467424
 42
-0.015178
  0
VERTEX
  8
0
 10
29.379900
 20
22.000000
 42
0.068702
  0
VERTEX
  8
0
 10
27.587746
 20
24.905448
 42
0.209765
  0
VERTEX
  8
0
 10
25.565283
 20
25.926118
 42
0.171250
  0
VERTEX
  8
0
 10
23.139126
 20
25.214335
 42
0.044138
  0
VERTEX
  8
0
 10
20.005060
 20
22.505221
 42
0.000000
  0
VERTEX
  8
0
 10
16.617787
 20
19.010442
 42
0.000000
  0
VERTEX
  8
0
 10
14.308894
 20
21.179535
 42
-0.025414
  0
VERTEX
  8
0
 10
12.373305
 20
23.192561
 42
-0.290722
  0
VERTEX
  8
0
 10
12.217138
 20
24.232002
 42
-0.271833
  0
VERTEX
  8
0
 10
13.098982
 20
24.865879
 42
-0.023104
  0
VERTEX
  8
0
 10
16.000000
 20
25.000000
 42
0.023598
  0
VERTEX
  8
0
 10
17.532944
 20
25.072390
 42
0.037669
  0
VERTEX
  8
0
 10
18.825000
 20
25.293750
 42
0.043820
  0
VERTEX
  8
0
 10
19.748945
 20
25.612873
 42
0.295869
  0
VERTEX
  8
0
 10
20.000000
 20
26.000000
 42
0.365646
  0
VERTEX
  8
0
 10
19.644810
 20
26.420765
 42
0.014491
  0
VERTEX
  8
0
 10
17.500000
 20
26.722222
 42
0.018502
  0
VERTEX
  8
0
 10
14.639727
 20
26.933283
 42
0.009164
  0
VERTEX
  8
0
 10
11.000000
 20
27.000000
 42
0.009164
  0
VERTEX
  8
0
 10
7.360273
 20
26.933283
 42
0.018502
  0
VERTEX
  8
0
 10
4.500000
 20
26.722222
 42
0.014491
  0
VERTEX
  8
0
 10
2.355190
 20
26.420765
 42
0.365646
  0
SEQEND
  0
POLYLINE
  8
0
 66
1
 70
1
  0
VERTEX
  8
0
 10
42.045252
 20
15.554525
 42
-0.054495
  0
VERTEX
  8
0
 10
40.672961
 20
14.226016
 42
-0.331092
  0
VERTEX
  8
0
 10
39.743645
 20
14.206644
 42
-0.212087
  0
VERTEX
  8
0
 10
39.145713
 20
15.217404
 42
-0.029062
  0
VERTEX
  8
0
 10
39.000000
 20
17.722222
 42
0.000000
  0
VERTEX
  8
0
 10
39.000000
 20
21.444444
 42
0.000000
  0
VERTEX
  8
0
 10
41.167697
 20
19.276748
 42
-0.023807
  0
VERTEX
  8
0
 10
42.276824
 20
18.056656
 42
-0.115169
  0
VERTEX
  8
0
 10
42.690554
 20
17.223399
 42
-0.166861
  0
VERTEX
  8
0
 10
42.614633
 20
16.460141
 42
-0.065821
  0
SEQEND
  0
ENDSEC
  0
EOF
