  0
SECTION
  2
HEADER
  9
$ACADVER
  1
AC1006
  9
$EXTMIN
 10
0.000000
 20
0.000000
 30
0.000000
  9
$EXTMAX
 10
64.000000
 20
64.000000
 30
0.000000
  0
ENDSEC
  0
SECTION
  2
ENTITIES
  0
POLYLINE
  8
0
 66
1
 70
1
  0
VERTEX
  8
0
 10
41.000000
 20
57.000000
 42
0.010614
  0
VERTEX
  8
0
 10
41.064452
 20
53.964058
 42
0.050675
  0
VERTEX
  8
0
 10
41.312500
 20
52.250000
 42
0.113455
  0
VERTEX
  8
0
 10
41.776970
 20
51.337712
 42
0.222027
  0
VERTEX
  8
0
 10
42.500000
 20
51.000000
 42
0.222027
  0
VERTEX
  8
0
 10
43.223030
 20
51.337712
 42
0.113455
  0
VERTEX
  8
0
 10
43.687500
 20
52.250000
 42
0.050675
  0
VERTEX
  8
0
 10
43.935548
 20
53.964058
 42
0.010614
  0
VERTEX
  8
0
 10
44.000000
 20
57.000000
 42
0.010614
  0
VERTEX
  8
0
 10
43.935548
 20
60.035942
 42
0.050675
  0
VERTEX
  8
0
 10
43.687500
 20
61.750000
 42
0.113455
  0
VERTEX
  8
0
 10
43.223030
 20
62.662288
 42
0.222027
  0
VERTEX
  8
0
 10
42.500000
 20
63.000000
 42
0.222027
  0
VERTEX
  8
0
 10
41.776970
 20
62.662288
 42
0.113455
  0
VERTEX
  8
0
 10
41.312500
 20
61.750000
 42
0.050675
  0
VERTEX
  8
0
 10
41.064452
 20
60.035942
 42
0.010614
  0
SEQEND
  0
POLYLINE
  8
0
 66
1
 70
1
  0
VERTEX
  8
0
 10
25.000000
 20
57.702948
 42
0.184183
  0
VERTEX
  8
0
 10
25.622040
 20
56.071581
 42
0.015484
  0
VERTEX
  8
0
 10
28.782069
 20
52.743692
 42
0.015581
  0
VERTEX
  8
0
 10
32.141581
 20
49.619381
 42
0.181448
  0
VERTEX
  8
0
 10
33.792163
 20
49.000000
 42
0.279607
  0
VERTEX
  8
0
 10
34.720300
 20
49.563047
 42
0.220907
  0
VERTEX
  8
0
 10
34.774650
 20
50.759668
 42
0.077440
  0
VERTEX
  8
0
 10
33.570343
 20
52.750593
 42
0.024684
  0
VERTEX
  8
0
 10
31.207837
 20
55.297052
 42
0.021534
  0
VERTEX
  8
0
 10
28.569680
 20
57.660053
 42
0.079577
  0
VERTEX
  8
0
 10
26.644749
 20
58.784169
 42
0.240594
  0
VERTEX
  8
0
 10
25.525345
 20
58.669051
 42
0.254305
  0
SEQEND
  0
POLYLINE
  8
0
 66
1
 70
1
  0
VERTEX
  8
0
 10
52.702948
 20
55.207837
 42
0.021534
  0
VERTEX
  8
0
 10
50.339947
 20
52.569680
 42
0.079577
  0
VERTEX
  8
0
 10
49.215831
 20
50.644749
 42
0.240594
  0
VERTEX
  8
0
 10
49.330949
 20
49.525345
 42
0.254305
  0
VERTEX
  8
0
 10
50.297052
 20
49.000000
 42
0.184183
  0
VERTEX
  8
0
 10
51.928419
 20
49.622040
 42
0.015484
  0
VERTEX
  8
0
 10
55.256308
 20
52.782069
 42
0.015581
  0
VERTEX
  8
0
 10
58.380619
 20
56.141581
 42
0.181448
  0
VERTEX
  8
0
 10
59.000000
 20
57.792163
 42
0.279607
  0
VERTEX
  8
0
 10
58.436953
 20
58.720300
 42
0.220907
  0
VERTEX
  8
0
 10
57.240332
 20
58.774650
 42
0.077440
  0
VERTEX
  8
0
 10
55.249407
 20
57.570343
 42
0.024684
  0
SEQEND
  0
POLYLINE
  8
0
 66
1
 70
1
  0
VERTEX
  8
0
 10
38.321178
 20
48.811266
 42
0.159003
  0
VERTEX
  8
0
 10
35.382674
 20
45.986343
 42
0.137074
  0
VERTEX
  8
0
 10
34.455784
 20
41.787959
 42
0.133700
  0
VERTEX
  8
0
 10
35.835608
 20
37.637914
 42
0.148908
  0
VERTEX
  8
0
 10
39.085786
 20
34.964466
 42
0.201395
  0
VERTEX
  8
0
 10
44.723262
 20
34.991378
 42
0.187965
  0
VERTEX
  8
0
 10
48.862656
 20
39.036184
 42
0.191628
  0
VERTEX
  8
0
 10
49.129655
 20
44.749939
 42
0.205653
  0
VERTEX
  8
0
 10
45.385358
 20
48.870280
 42
0.031028
  0
VERTEX
  8
0
 10
43.374404
 20
49.639839
 42
0.078110
  0
VERTEX
  8
0
 10
41.827305
 20
49.869784
 42
0.078747
  0
VERTEX
  8
0
 10
40.291809
 20
49.613277
 42
0.031920
  0
SEQEND
  0
POLYLINE
  8
0
 66
1
 70
1
  0
VERTEX
  8
0
 10
3.000000
 20
34.500000
 42
0.166688
  0
VERTEX
  8
0
 10
3.230694
 20
33.827232
 42
0.129481
  0
VERTEX
  8
0
 10
3.849540
 20
33.354247
 42
0.074590
  0
VERTEX
  8
0
 10
4.938091
 20
33.080743
 42
0.024318
  0
VERTEX
  8
0
 10
6.597239
 20
33.000000
 42
-0.054833
  0
VERTEX
  8
0
 10
8.682585
 20
32.770619
 42
-0.084053
  0
VERTEX
  8
0
 10
10.362223
 20
32.086423
 42
-0.057161
  0
VERTEX
  8
0
 10
12.137096
 20
30.683924
 42
-0.013889
  0
VERTEX
  8
0
 10
14.714882
 20
27.972223
 42
0.013902
  0
VERTEX
  8
0
 10
19.295690
 20
23.153684
 42
0.130204
  0
VERTEX
  8
0
 10
21.752285
 20
21.734272
 42
0.215543
  0
VERTEX
  8
0
 10
23.996182
 20
22.095488
 42
0.047360
  0
VERTEX
  8
0
 10
27.110980
 20
24.608369
 42
0.000000
  0
VERTEX
  8
0
 10
31.000000
 20
28.405896
 42
0.000000
  0
VERTEX
  8
0
 10
31.000000
 20
19.702948
 42
0.000000
  0
VERTEX
  8
0
 10
31.000000
 20
11.000000
 42
0.000000
  0
VERTEX
  8
0
 10
41.284160
 20
11.000000
 42
0.000000
  0
VERTEX
  8
0
 10
51.568320
 20
11.000000
 42
0.000000
  0
VERTEX
  8
0
 10
56.784160
 20
16.281445
 42
0.008838
  0
VERTEX
  8
0
 10
58.782503
 20
18.377774
 42
0.012758
  0
VERTEX
  8
0
 10
60.467847
 20
20.306014
 42
0.008465
  0
VERTEX
  8
0
 10
61.792135
 20
21.957660
 42
0.166233
  0
VERTEX
  8
0
 10
62.000000
 20
22.565605
 42
0.198600
  0
VERTEX
  8
0
 10
61.245216
 20
24.390919
 42
0.010096
  0
VERTEX
  8
0
 10
56.523471
 20
28.936655
 42
0.010688
  0
VERTEX
  8
0
 10
51.637151
 20
33.264316
 42
0.177702
  0
VERTEX
  8
0
 10
49.632525
 20
34.000000
 42
0.160895
  0
VERTEX
  8
0
 10
48.706047
 20
33.693946
 42
0.067137
  0
VERTEX
  8
0
 10
47.751881
 20
32.764671
 42
0.046461
  0
VERTEX
  8
0
 10
46.760269
 20
31.223342
 42
0.019775
  0
VERTEX
  8
0
 10
45.715502
 20
29.000000
 42
-0.017935
  0
VERTEX
  8
0
 10
44.823998
 20
27.084535
 42
-0.025987
  0
VERTEX
  8
0
 10
43.891480
 20
25.468750
 42
-0.024119
  0
VERTEX
  8
0
 10
43.027482
 20
24.267741
 42
-0.228598
  0
VERTEX
  8
0
 10
42.472469
 20
24.000000
 42
-0.221766
  0
VERTEX
  8
0
 10
41.906593
 20
24.263965
 42
-0.022714
  0
VERTEX
  8
0
 10
40.986061
 20
25.468750
 42
-0.024935
  0
VERTEX
  8
0
 10
39.979403
 20
27.084571
 42
-0.017320
  0
VERTEX
  8
0
 10
39.000000
 20
29.000000
 42
0.058748
  0
VERTEX
  8
0
 10
36.618326
 20
32.838033
 42
0.217368
  0
VERTEX
  8
0
 10
34.138921
 20
34.097391
 42
0.174394
  0
VERTEX
  8
0
 10
31.164916
 20
33.166259
 42
0.036525
  0
VERTEX
  8
0
 10
27.002835
 20
29.502889
 42
0.000000
  0
VERTEX
  8
0
 10
22.589254
 20
25.005777
 42
0.000000
  0
VERTEX
  8
0
 10
19.294627
 20
28.199055
 42
-0.011688
  0
VERTEX
  8
0
 10
18.032606
 20
29.480805
 42
-0.016230
  0
VERTEX
  8
0
 10
16.967797
 20
30.690434
 42
-0.012700
  0
VERTEX
  8
0
 10
16.153916
 20
31.730585
 42
-0.161010
  0
VERTEX
  8
0
 10
16.000000
 20
32.196167
 42
-0.343528
  0
VERTEX
  8
0
 10
16.245850
 20
32.511770
 42
-0.021954
  0
VERTEX
  8
0
 10
17.468750
 20
32.763874
 42
-0.024745
  0
VERTEX
  8
0
 10
19.083203
 20
32.942056
 42
-0.015111
  0
VERTEX
  8
0
 10
21.000000
 20
33.000000
 42
0.014068
  0
VERTEX
  8
0
 10
23.460489
 20
33.069243
 42
0.058865
  0
VERTEX
  8
0
 10
24.916667
 20
33.325000
 42
0.122766
  0
VERTEX
  8
0
 10
25.704941
 20
33.792990
 42
0.200296
  0
VERTEX
  8
0
 10
26.000000
 20
34.500000
 42
0.303591
  0
VERTEX
  8
0
 10
25.479566
 20
35.278130
 42
0.065619
  0
VERTEX
  8
0
 10
23.833333
 20
35.717391
 42
0.028132
  0
VERTEX
  8
0
 10
20.719975
 20
35.946491
 42
0.004301
  0
VERTEX
  8
0
 10
14.500000
 20
36.000000
 42
0.004301
  0
VERTEX
  8
0
 10
8.280025
 20
35.946491
 42
0.028132
  0
VERTEX
  8
0
 10
5.166667
 20
35.717391
 42
0.065619
  0
VERTEX
  8
0
 10
3.520434
 20
35.278130
 42
0.303591
  0
SEQEND
  0
POLYLINE
  8
0
 66
1
 70
1
  0
VERTEX
  8
0
 10
56.000000
 20
25.500000
 42
0.000000
  0
VERTEX
  8
0
 10
58.348628
 20
23.000000
 42
0.000000
  0
VERTEX
  8
0
 10
56.000000
 20
20.500000
 42
-0.016233
  0
VERTEX
  8
0
 10
55.040239
 20
19.542642
 42
-0.021145
  0
VERTEX
  8
0
 10
54.098736
 20
18.734375
 42
-0.019347
  0
VERTEX
  8
0
 10
53.276675
 20
18.136976
 42
-0.148512
  0
VERTEX
  8
0
 10
52.825686
 20
18.000000
 42
-0.341193
  0
VERTEX
  8
0
 10
52.501789
 20
18.250142
 42
-0.022981
  0
VERTEX
  8
0
 10
52.242545
 20
19.468750
 42
-0.025397
  0
VERTEX
  8
0
 10
52.059529
 20
21.083228
 42
-0.015525
  0
VERTEX
  8
0
 10
52.000000
 20
23.000000
 42
-0.015525
  0
VERTEX
  8
0
 10
52.059529
 20
24.916772
 42
-0.025397
  0
VERTEX
  8
0
 10
52.242545
 20
26.531250
 42
-0.022981
  0
VERTEX
  8
0
 10
52.501789
 20
27.749858
 42
-0.341193
  0
VERTEX
  8
0
 10
52.825686
 20
28.000000
 42
-0.148512
  0
VERTEX
  8
0
 10
53.276675
 20
27.863024
 42
-0.019347
  0
VERTEX
  8
0
 10
54.098736
 20
27.265625
 42
-0.021145
  0
VERTEX
  8
0
 10
55.040239
 20
26.457358
 42
-0.016233
  0
SEQEND
  0
ENDSEC
  0
EOF
