  0
SECTION
  2
HEADER
  9
$ACADVER
  1
AC1006
  9
$EXTMIN
 10
0.000000
 20
0.000000
 30
0.000000
  9
$EXTMAX
 10
103.000000
 20
103.000000
 30
0.000000
  0
ENDSEC
  0
SECTION
  2
ENTITIES
  0
POLYLINE
  8
0
 66
1
 70
1
  0
VERTEX
  8
0
 10
43.000000
 20
101.922900
 42
0.082272
  0
VERTEX
  8
0
 10
28.293898
 20
96.994114
 42
0.075291
  0
VERTEX
  8
0
 10
15.451652
 20
87.475169
 42
0.075105
  0
VERTEX
  8
0
 10
5.978272
 20
74.555867
 42
0.081185
  0
VERTEX
  8
0
 10
1.059165
 20
59.750000
 42
0.000000
  0
VERTEX
  8
0
 10
0.298689
 20
55.000000
 42
0.000000
  0
VERTEX
  8
0
 10
13.180729
 20
55.000000
 42
0.003514
  0
VERTEX
  8
0
 10
20.610416
 20
55.052210
 42
0.028854
  0
VERTEX
  8
0
 10
23.986899
 20
55.294875
 42
0.073868
  0
VERTEX
  8
0
 10
25.781640
 20
55.804954
 42
0.211967
  0
VERTEX
  8
0
 10
26.625120
 20
56.750000
 42
-0.051789
  0
VERTEX
  8
0
 10
29.792212
 20
63.949881
 42
-0.066961
  0
VERTEX
  8
0
 10
34.165658
 20
69.683601
 42
-0.070614
  0
VERTEX
  8
0
 10
39.690308
 20
73.835383
 42
-0.066999
  0
VERTEX
  8
0
 10
46.250000
 20
76.377152
 42
0.000000
  0
VERTEX
  8
0
 10
49.000000
 20
77.038104
 42
0.000000
  0
VERTEX
  8
0
 10
49.000000
 20
89.460035
 42
0.005650
  0
VERTEX
  8
0
 10
48.945883
 20
94.249289
 42
0.008978
  0
VERTEX
  8
0
 10
48.779688
 20
98.345164
 42
0.003559
  0
VERTEX
  8
0
 10
48.552030
 20
101.809057
 42
0.262604
  0
VERTEX
  8
0
 10
48.250000
 20
102.263720
 42
0.123913
  0
VERTEX
  8
0
 10
47.741770
 20
102.379644
 42
0.010629
  0
VERTEX
  8
0
 10
46.398438
 20
102.321078
 42
0.013524
  0
VERTEX
  8
0
 10
44.778256
 20
102.171804
 42
0.010073
  0
SEQEND
  0
POLYLINE
  8
0
 66
1
 70
1
  0
VERTEX
  8
0
 10
54.514958
 20
102.181624
 42
0.186337
  0
VERTEX
  8
0
 10
54.306960
 20
101.712018
 42
0.002096
  0
VERTEX
  8
0
 10
54.151269
 20
98.200615
 42
0.006120
  0
VERTEX
  8
0
 10
54.037195
 20
94.109659
 42
0.003909
  0
VERTEX
  8
0
 10
54.000000
 20
89.352385
 42
0.000000
  0
VERTEX
  8
0
 10
54.000000
 20
77.038104
 42
0.000000
  0
VERTEX
  8
0
 10
56.750000
 20
76.377152
 42
-0.066999
  0
VERTEX
  8
0
 10
63.309692
 20
73.835383
 42
-0.070614
  0
VERTEX
  8
0
 10
68.834342
 20
69.683601
 42
-0.066961
  0
VERTEX
  8
0
 10
73.207788
 20
63.949881
 42
-0.051789
  0
VERTEX
  8
0
 10
76.374880
 20
56.750000
 42
0.211967
  0
VERTEX
  8
0
 10
77.218360
 20
55.804954
 42
0.073868
  0
VERTEX
  8
0
 10
79.013101
 20
55.294875
 42
0.028854
  0
VERTEX
  8
0
 10
82.389584
 20
55.052210
 42
0.003514
  0
VERTEX
  8
0
 10
89.819271
 20
55.000000
 42
0.000000
  0
VERTEX
  8
0
 10
102.701311
 20
55.000000
 42
0.000000
  0
VERTEX
  8
0
 10
101.940835
 20
59.750000
 42
0.081077
  0
VERTEX
  8
0
 10
97.006933
 20
74.610964
 42
0.075869
  0
VERTEX
  8
0
 10
87.521756
 20
87.516774
 42
0.075880
  0
VERTEX
  8
0
 10
74.620214
 20
97.004312
 42
0.081140
  0
VERTEX
  8
0
 10
59.764958
 20
101.938471
 42
0.011468
  0
VERTEX
  8
0
 10
57.913405
 20
102.191515
 42
0.016653
  0
VERTEX
  8
0
 10
56.269565
 20
102.322618
 42
0.012240
  0
VERTEX
  8
0
 10
54.924599
 20
102.351946
 42
0.198217
  0
SEQEND
  0
POLYLINE
  8
0
 66
1
 70
1
  0
VERTEX
  8
0
 10
43.594017
 20
65.791869
 42
0.043536
  0
VERTEX
  8
0
 10
39.631903
 20
62.977354
 42
0.087935
  0
VERTEX
  8
0
 10
37.200428
 20
60.035615
 42
0.087059
  0
VERTEX
  8
0
 10
35.913865
 20
56.417192
 42
0.042009
  0
VERTEX
  8
0
 10
35.500000
 20
51.500000
 42
0.042009
  0
VERTEX
  8
0
 10
35.913865
 20
46.582808
 42
0.087059
  0
VERTEX
  8
0
 10
37.200428
 20
42.964385
 42
0.087935
  0
VERTEX
  8
0
 10
39.631903
 20
40.022646
 42
0.043536
  0
VERTEX
  8
0
 10
43.594017
 20
37.208131
 42
0.030603
  0
VERTEX
  8
0
 10
45.798103
 20
36.090085
 42
0.050806
  0
VERTEX
  8
0
 10
47.782954
 20
35.461437
 42
0.046955
  0
VERTEX
  8
0
 10
49.961544
 20
35.217819
 42
0.022192
  0
VERTEX
  8
0
 10
52.791471
 20
35.293843
 42
0.150511
  0
VERTEX
  8
0
 10
62.181318
 20
38.935991
 42
0.161799
  0
VERTEX
  8
0
 10
67.567656
 20
47.136112
 42
0.157835
  0
VERTEX
  8
0
 10
67.042291
 20
57.091890
 42
0.142824
  0
VERTEX
  8
0
 10
60.791471
 20
65.322341
 42
0.093125
  0
VERTEX
  8
0
 10
57.131144
 20
67.098679
 42
0.059772
  0
VERTEX
  8
0
 10
52.446815
 20
67.790831
 42
0.058815
  0
VERTEX
  8
0
 10
47.636046
 20
67.355720
 42
0.080909
  0
SEQEND
  0
POLYLINE
  8
0
 66
1
 70
1
  0
VERTEX
  8
0
 10
0.652761
 20
45.250000
 42
0.038835
  0
VERTEX
  8
0
 10
2.324505
 20
37.676578
 42
0.035180
  0
VERTEX
  8
0
 10
5.187712
 20
30.188515
 42
0.034862
  0
VERTEX
  8
0
 10
9.104281
 20
23.107787
 42
0.036414
  0
VERTEX
  8
0
 10
13.916034
 20
16.748413
 42
0.057853
  0
VERTEX
  8
0
 10
20.029076
 20
11.225933
 42
0.036306
  0
VERTEX
  8
0
 10
28.269123
 20
6.213165
 42
0.036402
  0
VERTEX
  8
0
 10
37.099554
 20
2.467429
 42
0.060518
  0
VERTEX
  8
0
 10
45.000000
 20
0.803976
 42
0.000000
  0
VERTEX
  8
0
 10
48.500000
 20
0.500000
 42
0.000000
  0
VERTEX
  8
0
 10
48.779679
 20
13.223499
 42
0.000000
  0
VERTEX
  8
0
 10
49.059358
 20
25.946998
 42
0.000000
  0
VERTEX
  8
0
 10
46.279679
 20
26.615399
 42
-0.072316
  0
VERTEX
  8
0
 10
39.647702
 20
29.267070
 42
-0.065104
  0
VERTEX
  8
0
 10
33.777127
 20
33.774228
 42
-0.065165
  0
VERTEX
  8
0
 10
29.267521
 20
39.634751
 42
-0.072722
  0
VERTEX
  8
0
 10
26.621288
 20
46.250000
 42
0.000000
  0
VERTEX
  8
0
 10
25.961896
 20
49.000000
 42
0.000000
  0
VERTEX
  8
0
 10
13.043819
 20
49.000000
 42
0.000000
  0
VERTEX
  8
0
 10
0.125741
 20
49.000000
 42
0.000000
  0
SEQEND
  0
POLYLINE
  8
0
 66
1
 70
1
  0
VERTEX
  8
0
 10
76.378712
 20
46.250000
 42
-0.072722
  0
VERTEX
  8
0
 10
73.732479
 20
39.634751
 42
-0.065165
  0
VERTEX
  8
0
 10
69.222873
 20
33.774228
 42
-0.065104
  0
VERTEX
  8
0
 10
63.352298
 20
29.267070
 42
-0.072316
  0
VERTEX
  8
0
 10
56.720321
 20
26.615399
 42
0.000000
  0
VERTEX
  8
0
 10
53.940642
 20
25.946998
 42
0.000000
  0
VERTEX
  8
0
 10
54.220321
 20
13.223499
 42
0.000000
  0
VERTEX
  8
0
 10
54.500000
 20
0.500000
 42
0.000000
  0
VERTEX
  8
0
 10
58.000000
 20
0.803976
 42
0.060518
  0
VERTEX
  8
0
 10
65.900446
 20
2.467429
 42
0.036402
  0
VERTEX
  8
0
 10
74.730877
 20
6.213165
 42
0.036306
  0
VERTEX
  8
0
 10
82.970924
 20
11.225933
 42
0.057853
  0
VERTEX
  8
0
 10
89.083966
 20
16.748413
 42
0.036414
  0
VERTEX
  8
0
 10
93.895719
 20
23.107787
 42
0.034862
  0
VERTEX
  8
0
 10
97.812288
 20
30.188515
 42
0.035180
  0
VERTEX
  8
0
 10
100.675495
 20
37.676578
 42
0.038835
  0
VERTEX
  8
0
 10
102.347239
 20
45.250000
 42
0.000000
  0
VERTEX
  8
0
 10
102.874259
 20
49.000000
 42
0.000000
  0
VERTEX
  8
0
 10
89.956181
 20
49.000000
 42
0.000000
  0
VERTEX
  8
0
 10
77.038104
 20
49.000000
 42
0.000000
  0
SEQEND
  0
ENDSEC
  0
EOF
