  0
SECTION
  2
HEADER
  9
$ACADVER
  1
AC1006
  9
$EXTMIN
 10
0.000000
 20
0.000000
 30
0.000000
  9
$EXTMAX
 10
512.000000
 20
512.000000
 30
0.000000
  0
ENDSEC
  0
SECTION
  2
ENTITIES
  0
POLYLINE
  8
0
 66
1
 70
1
  0
VERTEX
  8
0
 10
236.500000
 20
509.304459
 42
0.010709
  0
VERTEX
  8
0
 10
226.536353
 20
508.193818
 42
0.008305
  0
VERTEX
  8
0
 10
215.742656
 20
506.573131
 42
0.008273
  0
VERTEX
  8
0
 10
204.953183
 20
504.585317
 42
0.010298
  0
VERTEX
  8
0
 10
195.000000
 20
502.366540
 42
0.068658
  0
VERTEX
  8
0
 10
131.264358
 20
477.128822
 42
0.067922
  0
VERTEX
  8
0
 10
76.483226
 20
435.503946
 42
0.067928
  0
VERTEX
  8
0
 10
34.862622
 20
380.725722
 42
0.068689
  0
VERTEX
  8
0
 10
9.635851
 20
317.000000
 42
0.010683
  0
VERTEX
  8
0
 10
7.186222
 20
305.963178
 42
0.008694
  0
VERTEX
  8
0
 10
5.022166
 20
294.047606
 42
0.008348
  0
VERTEX
  8
0
 10
3.436725
 20
283.233634
 42
0.032230
  0
VERTEX
  8
0
 10
3.000000
 20
276.465618
 42
0.000000
  0
VERTEX
  8
0
 10
3.000000
 20
273.000000
 42
0.000000
  0
VERTEX
  8
0
 10
66.531385
 20
273.000000
 42
0.000792
  0
VERTEX
  8
0
 10
99.106053
 20
273.051579
 42
0.004101
  0
VERTEX
  8
0
 10
117.108166
 20
273.256238
 42
0.001618
  0
VERTEX
  8
0
 10
129.495516
 20
273.538781
 42
0.332131
  0
VERTEX
  8
0
 10
130.398085
 20
274.250000
 42
0.007603
  0
VERTEX
  8
0
 10
130.614641
 20
275.109289
 42
0.000384
  0
VERTEX
  8
0
 10
131.276234
 20
277.923437
 42
0.000615
  0
VERTEX
  8
0
 10
132.055909
 20
281.269840
 42
0.000445
  0
VERTEX
  8
0
 10
132.916659
 20
285.000000
 42
-0.027886
  0
VERTEX
  8
0
 10
136.666974
 20
297.961434
 42
-0.028061
  0
VERTEX
  8
0
 10
141.829985
 20
310.397270
 42
-0.027419
  0
VERTEX
  8
0
 10
148.478056
 20
322.438898
 42
-0.024150
  0
VERTEX
  8
0
 10
156.670589
 20
334.221693
 42
-0.045395
  0
VERTEX
  8
0
 10
170.827839
 20
349.523006
 42
-0.041477
  0
VERTEX
  8
0
 10
187.925805
 20
362.536640
 42
-0.041354
  0
VERTEX
  8
0
 10
206.992020
 20
372.584535
 42
-0.044470
  0
VERTEX
  8
0
 10
227.000000
 20
379.070274
 42
0.003118
  0
VERTEX
  8
0
 10
230.801197
 20
379.963599
 42
0.003742
  0
VERTEX
  8
0
 10
234.366006
 20
380.853144
 42
0.003215
  0
VERTEX
  8
0
 10
237.357654
 20
381.644036
 42
0.024788
  0
VERTEX
  8
0
 10
238.735339
 20
382.092114
 42
0.000000
  0
VERTEX
  8
0
 10
240.970678
 20
382.943762
 42
0.000000
  0
VERTEX
  8
0
 10
241.235339
 20
446.472035
 42
0.000737
  0
VERTEX
  8
0
 10
241.300909
 20
470.820549
 42
0.001234
  0
VERTEX
  8
0
 10
241.275381
 20
491.289453
 42
0.000065
  0
VERTEX
  8
0
 10
241.204666
 20
509.685596
 42
0.511567
  0
VERTEX
  8
0
 10
241.000000
 20
509.832051
 42
-0.049563
  0
VERTEX
  8
0
 10
240.649230
 20
509.751560
 42
-0.002453
  0
VERTEX
  8
0
 10
239.471875
 20
509.607665
 42
-0.003942
  0
VERTEX
  8
0
 10
238.068701
 20
509.454358
 42
-0.002837
  0
SEQEND
  0
POLYLINE
  8
0
 66
1
 70
1
  0
VERTEX
  8
0
 10
270.764506
 20
445.891730
 42
0.000000
  0
VERTEX
  8
0
 10
271.029011
 20
382.085184
 42
0.000000
  0
VERTEX
  8
0
 10
274.764506
 20
381.441400
 42
-0.044576
  0
VERTEX
  8
0
 10
298.272497
 20
375.193829
 42
-0.045353
  0
VERTEX
  8
0
 10
320.157598
 20
364.904185
 42
-0.046186
  0
VERTEX
  8
0
 10
339.465536
 20
351.048595
 42
-0.050089
  0
VERTEX
  8
0
 10
355.329411
 20
334.221693
 42
-0.024150
  0
VERTEX
  8
0
 10
363.521944
 20
322.438898
 42
-0.027419
  0
VERTEX
  8
0
 10
370.170015
 20
310.397270
 42
-0.028061
  0
VERTEX
  8
0
 10
375.333026
 20
297.961434
 42
-0.027886
  0
VERTEX
  8
0
 10
379.083341
 20
285.000000
 42
0.000445
  0
VERTEX
  8
0
 10
379.944091
 20
281.269840
 42
0.000615
  0
VERTEX
  8
0
 10
380.723766
 20
277.923437
 42
0.000384
  0
VERTEX
  8
0
 10
381.385359
 20
275.109289
 42
0.007603
  0
VERTEX
  8
0
 10
381.601915
 20
274.250000
 42
0.332131
  0
VERTEX
  8
0
 10
382.504484
 20
273.538781
 42
0.001618
  0
VERTEX
  8
0
 10
394.891834
 20
273.256238
 42
0.004101
  0
VERTEX
  8
0
 10
412.893947
 20
273.051579
 42
0.000792
  0
VERTEX
  8
0
 10
445.468615
 20
273.000000
 42
0.000000
  0
VERTEX
  8
0
 10
509.000000
 20
273.000000
 42
0.000000
  0
VERTEX
  8
0
 10
509.000000
 20
276.465618
 42
0.032230
  0
VERTEX
  8
0
 10
508.563275
 20
283.233634
 42
0.008348
  0
VERTEX
  8
0
 10
506.977834
 20
294.047606
 42
0.008694
  0
VERTEX
  8
0
 10
504.813778
 20
305.963178
 42
0.010683
  0
VERTEX
  8
0
 10
502.364149
 20
317.000000
 42
0.050101
  0
VERTEX
  8
0
 10
485.688258
 20
364.158038
 42
0.049592
  0
VERTEX
  8
0
 10
459.921023
 20
407.230615
 42
0.049552
  0
VERTEX
  8
0
 10
426.154450
 20
444.416561
 42
0.049855
  0
VERTEX
  8
0
 10
385.796028
 20
474.146597
 42
0.027641
  0
VERTEX
  8
0
 10
359.963161
 20
487.595717
 42
0.029425
  0
VERTEX
  8
0
 10
333.329936
 20
497.800531
 42
0.028882
  0
VERTEX
  8
0
 10
305.228625
 20
504.955770
 42
0.024745
  0
VERTEX
  8
0
 10
275.000000
 20
509.280307
 42
0.000000
  0
VERTEX
  8
0
 10
270.500000
 20
509.698276
 42
0.000000
  0
SEQEND
  0
POLYLINE
  8
0
 66
1
 70
1
  0
VERTEX
  8
0
 10
242.576105
 20
336.242772
 42
-0.103965
  0
VERTEX
  8
0
 10
242.241728
 20
336.024551
 42
-0.019367
  0
VERTEX
  8
0
 10
241.544930
 20
335.784090
 42
-0.020000
  0
VERTEX
  8
0
 10
240.694131
 20
335.563602
 42
-0.017093
  0
VERTEX
  8
0
 10
239.782748
 20
335.398326
 42
0.011413
  0
VERTEX
  8
0
 10
237.537650
 20
335.017468
 42
0.020096
  0
VERTEX
  8
0
 10
235.706225
 20
334.586620
 42
0.019415
  0
VERTEX
  8
0
 10
233.873217
 20
333.999330
 42
0.009855
  0
VERTEX
  8
0
 10
231.613678
 20
333.126578
 42
-0.011157
  0
VERTEX
  8
0
 10
230.384983
 20
332.655664
 42
-0.009742
  0
VERTEX
  8
0
 10
229.079950
 20
332.217101
 42
-0.009842
  0
VERTEX
  8
0
 10
227.884650
 20
331.866868
 42
-0.028484
  0
VERTEX
  8
0
 10
227.041354
 20
331.688540
 42
0.071717
  0
VERTEX
  8
0
 10
224.573701
 20
330.939695
 42
0.008357
  0
VERTEX
  8
0
 10
219.379251
 20
328.401370
 42
0.009429
  0
VERTEX
  8
0
 10
214.289323
 20
325.685772
 42
0.053069
  0
VERTEX
  8
0
 10
211.775370
 20
323.909946
 42
-0.023108
  0
VERTEX
  8
0
 10
210.888124
 20
323.200019
 42
-0.011232
  0
VERTEX
  8
0
 10
209.694819
 20
322.372799
 42
-0.011114
  0
VERTEX
  8
0
 10
208.411769
 20
321.565762
 42
-0.015745
  0
VERTEX
  8
0
 10
207.233121
 20
320.909946
 42
0.024644
  0
VERTEX
  8
0
 10
206.076870
 20
320.239383
 42
0.018075
  0
VERTEX
  8
0
 10
204.862229
 20
319.388698
 42
0.018349
  0
VERTEX
  8
0
 10
203.768657
 20
318.497462
 42
0.038143
  0
VERTEX
  8
0
 10
203.000000
 20
317.711153
 42
-0.036886
  0
VERTEX
  8
0
 10
202.246472
 20
316.936437
 42
-0.019342
  0
VERTEX
  8
0
 10
201.206250
 20
316.083407
 42
-0.019134
  0
VERTEX
  8
0
 10
200.066854
 20
315.287226
 42
-0.027773
  0
VERTEX
  8
0
 10
199.000000
 20
314.681888
 42
0.054567
  0
VERTEX
  8
0
 10
197.946222
 20
314.007039
 42
0.032317
  0
VERTEX
  8
0
 10
196.846014
 20
312.995894
 42
0.032020
  0
VERTEX
  8
0
 10
195.866769
 20
311.830753
 42
0.046985
  0
VERTEX
  8
0
 10
195.177921
 20
310.684195
 42
-0.033982
  0
VERTEX
  8
0
 10
194.530465
 20
309.540271
 42
-0.026032
  0
VERTEX
  8
0
 10
193.677875
 20
308.383192
 42
-0.026624
  0
VERTEX
  8
0
 10
192.761622
 20
307.380364
 42
-0.054804
  0
VERTEX
  8
0
 10
191.927921
 20
306.722913
 42
0.042926
  0
VERTEX
  8
0
 10
191.190321
 20
306.169084
 42
0.044255
  0
VERTEX
  8
0
 10
190.566327
 20
305.502619
 42
0.048329
  0
VERTEX
  8
0
 10
190.136423
 20
304.828148
 42
0.118266
  0
VERTEX
  8
0
 10
190.000000
 20
304.259453
 42
-0.077892
  0
VERTEX
  8
0
 10
189.924590
 20
303.778323
 42
-0.090277
  0
VERTEX
  8
0
 10
189.706250
 20
303.369964
 42
-0.100780
  0
VERTEX
  8
0
 10
189.381376
 20
303.096967
 42
-0.125138
  0
VERTEX
  8
0
 10
189.000000
 20
303.000000
 42
0.148195
  0
VERTEX
  8
0
 10
188.618646
 20
302.884432
 42
0.098894
  0
VERTEX
  8
0
 10
188.293750
 20
302.559375
 42
0.082425
  0
VERTEX
  8
0
 10
188.074694
 20
302.073457
 42
0.064853
  0
VERTEX
  8
0
 10
188.000000
 20
301.500000
 42
-0.064853
  0
VERTEX
  8
0
 10
187.925306
 20
300.926543
 42
-0.082425
  0
VERTEX
  8
0
 10
187.706250
 20
300.440625
 42
-0.098894
  0
VERTEX
  8
0
 10
187.381354
 20
300.115568
 42
-0.148195
  0
VERTEX
  8
0
 10
187.000000
 20
300.000000
 42
0.148195
  0
VERTEX
  8
0
 10
186.618646
 20
299.884432
 42
0.098894
  0
VERTEX
  8
0
 10
186.293750
 20
299.559375
 42
0.082425
  0
VERTEX
  8
0
 10
186.074694
 20
299.073457
 42
0.064853
  0
VERTEX
  8
0
 10
186.000000
 20
298.500000
 42
-0.068870
  0
VERTEX
  8
0
 10
185.920655
 20
297.926682
 42
-0.085131
  0
VERTEX
  8
0
 10
185.688914
 20
297.440625
 42
-0.099915
  0
VERTEX
  8
0
 10
185.344827
 20
297.115626
 42
-0.140337
  0
VERTEX
  8
0
 10
184.940983
 20
297.000000
 42
0.108972
  0
VERTEX
  8
0
 10
184.586039
 20
296.921712
 42
0.182303
  0
VERTEX
  8
0
 10
184.374600
 20
296.706250
 42
0.161196
  0
VERTEX
  8
0
 10
184.343488
 20
296.382100
 42
0.082592
  0
VERTEX
  8
0
 10
184.500000
 20
296.000000
 42
-0.070831
  0
VERTEX
  8
0
 10
184.667296
 20
295.617335
 42
-0.146055
  0
VERTEX
  8
0
 10
184.661038
 20
295.293750
 42
-0.189502
  0
VERTEX
  8
0
 10
184.487046
 20
295.080324
 42
-0.128773
  0
VERTEX
  8
0
 10
184.180337
 20
295.000000
 42
0.263599
  0
VERTEX
  8
0
 10
183.472953
 20
294.599220
 42
0.013084
  0
VERTEX
  8
0
 10
182.110299
 20
292.184045
 42
0.020221
  0
VERTEX
  8
0
 10
180.912654
 20
289.686138
 42
0.074797
  0
VERTEX
  8
0
 10
180.468923
 20
288.000000
 42
-0.054146
  0
VERTEX
  8
0
 10
180.209903
 20
286.820674
 42
-0.003004
  0
VERTEX
  8
0
 10
178.985483
 20
283.250597
 42
-0.003343
  0
VERTEX
  8
0
 10
177.726527
 20
279.726261
 42
-0.045951
  0
VERTEX
  8
0
 10
177.146806
 20
278.500000
 42
0.031768
  0
VERTEX
  8
0
 10
176.898160
 20
278.010432
 42
0.015136
  0
VERTEX
  8
0
 10
176.638550
 20
277.353125
 42
0.014936
  0
VERTEX
  8
0
 10
176.407813
 20
276.647450
 42
0.020531
  0
VERTEX
  8
0
 10
176.245876
 20
276.000000
 42
-0.002030
  0
VERTEX
  8
0
 10
176.088102
 20
275.252779
 42
-0.000761
  0
VERTEX
  8
0
 10
175.861021
 20
274.206250
 42
-0.000754
  0
VERTEX
  8
0
 10
175.610223
 20
273.067076
 42
-0.000915
  0
VERTEX
  8
0
 10
175.371563
 20
272.000000
 42
0.052286
  0
VERTEX
  8
0
 10
174.899339
 20
267.995750
 42
0.003228
  0
VERTEX
  8
0
 10
174.821900
 20
256.000000
 42
0.003228
  0
VERTEX
  8
0
 10
174.899339
 20
244.004250
 42
0.052286
  0
VERTEX
  8
0
 10
175.371563
 20
240.000000
 42
-0.000915
  0
VERTEX
  8
0
 10
175.610223
 20
238.932924
 42
-0.000754
  0
VERTEX
  8
0
 10
175.861021
 20
237.793750
 42
-0.000761
  0
VERTEX
  8
0
 10
176.088102
 20
236.747221
 42
-0.002030
  0
VERTEX
  8
0
 10
176.245876
 20
236.000000
 42
0.020531
  0
VERTEX
  8
0
 10
176.407813
 20
235.352550
 42
0.014936
  0
VERTEX
  8
0
 10
176.638550
 20
234.646875
 42
0.015136
  0
VERTEX
  8
0
 10
176.898160
 20
233.989568
 42
0.031768
  0
VERTEX
  8
0
 10
177.146806
 20
233.500000
 42
-0.045951
  0
VERTEX
  8
0
 10
177.726527
 20
232.273739
 42
-0.003343
  0
VERTEX
  8
0
 10
178.985483
 20
228.749403
 42
-0.003004
  0
VERTEX
  8
0
 10
180.209903
 20
225.179326
 42
-0.054146
  0
VERTEX
  8
0
 10
180.468923
 20
224.000000
 42
0.074797
  0
VERTEX
  8
0
 10
180.912654
 20
222.313862
 42
0.020221
  0
VERTEX
  8
0
 10
182.110299
 20
219.815955
 42
0.013084
  0
VERTEX
  8
0
 10
183.472953
 20
217.400780
 42
0.263599
  0
VERTEX
  8
0
 10
184.180337
 20
217.000000
 42
-0.128773
  0
VERTEX
  8
0
 10
184.487046
 20
216.919676
 42
-0.189502
  0
VERTEX
  8
0
 10
184.661038
 20
216.706250
 42
-0.146055
  0
VERTEX
  8
0
 10
184.667296
 20
216.382665
 42
-0.070831
  0
VERTEX
  8
0
 10
184.500000
 20
216.000000
 42
0.082592
  0
VERTEX
  8
0
 10
184.343488
 20
215.617900
 42
0.161196
  0
VERTEX
  8
0
 10
184.374600
 20
215.293750
 42
0.182303
  0
VERTEX
  8
0
 10
184.586039
 20
215.078288
 42
0.108972
  0
VERTEX
  8
0
 10
184.940983
 20
215.000000
 42
-0.140337
  0
VERTEX
  8
0
 10
185.344827
 20
214.884374
 42
-0.099915
  0
VERTEX
  8
0
 10
185.688914
 20
214.559375
 42
-0.085131
  0
VERTEX
  8
0
 10
185.920655
 20
214.073318
 42
-0.068870
  0
VERTEX
  8
0
 10
186.000000
 20
213.500000
 42
0.064853
  0
VERTEX
  8
0
 10
186.074694
 20
212.926543
 42
0.082425
  0
VERTEX
  8
0
 10
186.293750
 20
212.440625
 42
0.098894
  0
VERTEX
  8
0
 10
186.618646
 20
212.115568
 42
0.148195
  0
VERTEX
  8
0
 10
187.000000
 20
212.000000
 42
-0.148195
  0
VERTEX
  8
0
 10
187.381354
 20
211.884432
 42
-0.098894
  0
VERTEX
  8
0
 10
187.706250
 20
211.559375
 42
-0.082425
  0
VERTEX
  8
0
 10
187.925306
 20
211.073457
 42
-0.064853
  0
VERTEX
  8
0
 10
188.000000
 20
210.500000
 42
0.064853
  0
VERTEX
  8
0
 10
188.074694
 20
209.926543
 42
0.082425
  0
VERTEX
  8
0
 10
188.293750
 20
209.440625
 42
0.098894
  0
VERTEX
  8
0
 10
188.618646
 20
209.115568
 42
0.148195
  0
VERTEX
  8
0
 10
189.000000
 20
209.000000
 42
-0.125138
  0
VERTEX
  8
0
 10
189.381376
 20
208.903033
 42
-0.100780
  0
VERTEX
  8
0
 10
189.706250
 20
208.630036
 42
-0.090277
  0
VERTEX
  8
0
 10
189.924590
 20
208.221677
 42
-0.077892
  0
VERTEX
  8
0
 10
190.000000
 20
207.740547
 42
0.118266
  0
VERTEX
  8
0
 10
190.136423
 20
207.171852
 42
0.048329
  0
VERTEX
  8
0
 10
190.566327
 20
206.497381
 42
0.044255
  0
VERTEX
  8
0
 10
191.190321
 20
205.830916
 42
0.042926
  0
VERTEX
  8
0
 10
191.927921
 20
205.277087
 42
-0.054804
  0
VERTEX
  8
0
 10
192.761622
 20
204.619636
 42
-0.026624
  0
VERTEX
  8
0
 10
193.677875
 20
203.616808
 42
-0.026032
  0
VERTEX
  8
0
 10
194.530465
 20
202.459729
 42
-0.033982
  0
VERTEX
  8
0
 10
195.177921
 20
201.315805
 42
0.046985
  0
VERTEX
  8
0
 10
195.866769
 20
200.169247
 42
0.032020
  0
VERTEX
  8
0
 10
196.846014
 20
199.004106
 42
0.032317
  0
VERTEX
  8
0
 10
197.946222
 20
197.992961
 42
0.054567
  0
VERTEX
  8
0
 10
199.000000
 20
197.318112
 42
-0.027773
  0
VERTEX
  8
0
 10
200.066854
 20
196.712774
 42
-0.019134
  0
VERTEX
  8
0
 10
201.206250
 20
195.916593
 42
-0.019342
  0
VERTEX
  8
0
 10
202.246472
 20
195.063563
 42
-0.036886
  0
VERTEX
  8
0
 10
203.000000
 20
194.288847
 42
0.038143
  0
VERTEX
  8
0
 10
203.768657
 20
193.502538
 42
0.018349
  0
VERTEX
  8
0
 10
204.862229
 20
192.611302
 42
0.018075
  0
VERTEX
  8
0
 10
206.076870
 20
191.760617
 42
0.024644
  0
VERTEX
  8
0
 10
207.233121
 20
191.090054
 42
-0.015745
  0
VERTEX
  8
0
 10
208.411769
 20
190.434238
 42
-0.011114
  0
VERTEX
  8
0
 10
209.694819
 20
189.627201
 42
-0.011232
  0
VERTEX
  8
0
 10
210.888124
 20
188.799981
 42
-0.023108
  0
VERTEX
  8
0
 10
211.775370
 20
188.090054
 42
0.053069
  0
VERTEX
  8
0
 10
214.289323
 20
186.314228
 42
0.009429
  0
VERTEX
  8
0
 10
219.379251
 20
183.598630
 42
0.008357
  0
VERTEX
  8
0
 10
224.573701
 20
181.060305
 42
0.071717
  0
VERTEX
  8
0
 10
227.041354
 20
180.311460
 42
-0.028484
  0
VERTEX
  8
0
 10
227.884650
 20
180.133132
 42
-0.009842
  0
VERTEX
  8
0
 10
229.079950
 20
179.782899
 42
-0.009742
  0
VERTEX
  8
0
 10
230.384983
 20
179.344336
 42
-0.011157
  0
VERTEX
  8
0
 10
231.613678
 20
178.873422
 42
0.007988
  0
VERTEX
  8
0
 10
233.615404
 20
178.091646
 42
0.016462
  0
VERTEX
  8
0
 10
235.209162
 20
177.557405
 42
0.013163
  0
VERTEX
  8
0
 10
237.043886
 20
177.061087
 42
0.003483
  0
VERTEX
  8
0
 10
240.000000
 20
176.366125
 42
0.053155
  0
VERTEX
  8
0
 10
244.064366
 20
175.885423
 42
0.002879
  0
VERTEX
  8
0
 10
257.000000
 20
175.810936
 42
0.002879
  0
VERTEX
  8
0
 10
269.935634
 20
175.885423
 42
0.053155
  0
VERTEX
  8
0
 10
274.000000
 20
176.366125
 42
0.003483
  0
VERTEX
  8
0
 10
276.956114
 20
177.061087
 42
0.013163
  0
VERTEX
  8
0
 10
278.790838
 20
177.557405
 42
0.016462
  0
VERTEX
  8
0
 10
280.384596
 20
178.091646
 42
0.007988
  0
VERTEX
  8
0
 10
282.386322
 20
178.873422
 42
-0.011157
  0
VERTEX
  8
0
 10
283.615017
 20
179.344336
 42
-0.009742
  0
VERTEX
  8
0
 10
284.920050
 20
179.782899
 42
-0.009842
  0
VERTEX
  8
0
 10
286.115350
 20
180.133132
 42
-0.028484
  0
VERTEX
  8
0
 10
286.958646
 20
180.311460
 42
0.071717
  0
VERTEX
  8
0
 10
289.426299
 20
181.060305
 42
0.008357
  0
VERTEX
  8
0
 10
294.620749
 20
183.598630
 42
0.009429
  0
VERTEX
  8
0
 10
299.710677
 20
186.314228
 42
0.053069
  0
VERTEX
  8
0
 10
302.224630
 20
188.090054
 42
-0.023108
  0
VERTEX
  8
0
 10
303.111876
 20
188.799981
 42
-0.011232
  0
VERTEX
  8
0
 10
304.305181
 20
189.627201
 42
-0.011114
  0
VERTEX
  8
0
 10
305.588231
 20
190.434238
 42
-0.015745
  0
VERTEX
  8
0
 10
306.766879
 20
191.090054
 42
0.024644
  0
VERTEX
  8
0
 10
307.923130
 20
191.760617
 42
0.018075
  0
VERTEX
  8
0
 10
309.137771
 20
192.611302
 42
0.018349
  0
VERTEX
  8
0
 10
310.231343
 20
193.502538
 42
0.038143
  0
VERTEX
  8
0
 10
311.000000
 20
194.288847
 42
-0.036886
  0
VERTEX
  8
0
 10
311.753528
 20
195.063563
 42
-0.019342
  0
VERTEX
  8
0
 10
312.793750
 20
195.916593
 42
-0.019134
  0
VERTEX
  8
0
 10
313.933146
 20
196.712774
 42
-0.027773
  0
VERTEX
  8
0
 10
315.000000
 20
197.318112
 42
0.054567
  0
VERTEX
  8
0
 10
316.053778
 20
197.992961
 42
0.032317
  0
VERTEX
  8
0
 10
317.153986
 20
199.004106
 42
0.032020
  0
VERTEX
  8
0
 10
318.133231
 20
200.169247
 42
0.046985
  0
VERTEX
  8
0
 10
318.822079
 20
201.315805
 42
-0.033982
  0
VERTEX
  8
0
 10
319.469535
 20
202.459729
 42
-0.026032
  0
VERTEX
  8
0
 10
320.322125
 20
203.616808
 42
-0.026624
  0
VERTEX
  8
0
 10
321.238378
 20
204.619636
 42
-0.054804
  0
VERTEX
  8
0
 10
322.072079
 20
205.277087
 42
0.042926
  0
VERTEX
  8
0
 10
322.809679
 20
205.830916
 42
0.044255
  0
VERTEX
  8
0
 10
323.433673
 20
206.497381
 42
0.048329
  0
VERTEX
  8
0
 10
323.863577
 20
207.171852
 42
0.118266
  0
VERTEX
  8
0
 10
324.000000
 20
207.740547
 42
-0.077892
  0
VERTEX
  8
0
 10
324.075410
 20
208.221677
 42
-0.090277
  0
VERTEX
  8
0
 10
324.293750
 20
208.630036
 42
-0.100780
  0
VERTEX
  8
0
 10
324.618624
 20
208.903033
 42
-0.125138
  0
VERTEX
  8
0
 10
325.000000
 20
209.000000
 42
0.148195
  0
VERTEX
  8
0
 10
325.381354
 20
209.115568
 42
0.098894
  0
VERTEX
  8
0
 10
325.706250
 20
209.440625
 42
0.082425
  0
VERTEX
  8
0
 10
325.925306
 20
209.926543
 42
0.064853
  0
VERTEX
  8
0
 10
326.000000
 20
210.500000
 42
-0.064853
  0
VERTEX
  8
0
 10
326.074694
 20
211.073457
 42
-0.082425
  0
VERTEX
  8
0
 10
326.293750
 20
211.559375
 42
-0.098894
  0
VERTEX
  8
0
 10
326.618646
 20
211.884432
 42
-0.148195
  0
VERTEX
  8
0
 10
327.000000
 20
212.000000
 42
0.148195
  0
VERTEX
  8
0
 10
327.381354
 20
212.115568
 42
0.098894
  0
VERTEX
  8
0
 10
327.706250
 20
212.440625
 42
0.082425
  0
VERTEX
  8
0
 10
327.925306
 20
212.926543
 42
0.064853
  0
VERTEX
  8
0
 10
328.000000
 20
213.500000
 42
-0.068870
  0
VERTEX
  8
0
 10
328.079345
 20
214.073318
 42
-0.085131
  0
VERTEX
  8
0
 10
328.311086
 20
214.559375
 42
-0.099915
  0
VERTEX
  8
0
 10
328.655173
 20
214.884374
 42
-0.140337
  0
VERTEX
  8
0
 10
329.059017
 20
215.000000
 42
0.108972
  0
VERTEX
  8
0
 10
329.413961
 20
215.078288
 42
0.182303
  0
VERTEX
  8
0
 10
329.625400
 20
215.293750
 42
0.161196
  0
VERTEX
  8
0
 10
329.656512
 20
215.617900
 42
0.082592
  0
VERTEX
  8
0
 10
329.500000
 20
216.000000
 42
-0.075954
  0
VERTEX
  8
0
 10
329.337431
 20
216.382422
 42
-0.153151
  0
VERTEX
  8
0
 10
329.354805
 20
216.706250
 42
-0.186776
  0
VERTEX
  8
0
 10
329.545429
 20
216.920620
 42
-0.119226
  0
VERTEX
  8
0
 10
329.873595
 20
217.000000
 42
0.256832
  0
VERTEX
  8
0
 10
330.657005
 20
217.430828
 42
0.037112
  0
VERTEX
  8
0
 10
331.548142
 20
219.097473
 42
0.039949
  0
VERTEX
  8
0
 10
332.198874
 20
220.954967
 42
0.129562
  0
VERTEX
  8
0
 10
332.198125
 20
222.250000
 42
-0.136332
  0
VERTEX
  8
0
 10
332.201758
 20
222.535414
 42
-0.134577
  0
VERTEX
  8
0
 10
332.351949
 20
222.779687
 42
-0.112284
  0
VERTEX
  8
0
 10
332.632787
 20
222.943614
 42
-0.076328
  0
VERTEX
  8
0
 10
333.000000
 20
223.000000
 42
0.075686
  0
VERTEX
  8
0
 10
333.370458
 20
223.056400
 42
0.106306
  0
VERTEX
  8
0
 10
333.660772
 20
223.220313
 42
0.126502
  0
VERTEX
  8
0
 10
333.825436
 20
223.464481
 42
0.137157
  0
VERTEX
  8
0
 10
333.845182
 20
223.750000
 42
-0.119163
  0
VERTEX
  8
0
 10
333.898466
 20
225.333193
 42
-0.009461
  0
VERTEX
  8
0
 10
335.106495
 20
229.384731
 42
-0.005625
  0
VERTEX
  8
0
 10
336.487605
 20
233.553152
 42
-0.320218
  0
VERTEX
  8
0
 10
337.113785
 20
234.000000
 42
0.298089
  0
VERTEX
  8
0
 10
337.341973
 20
234.149308
 42
0.081236
  0
VERTEX
  8
0
 10
337.453802
 20
234.587500
 42
0.054721
  0
VERTEX
  8
0
 10
337.439865
 20
235.233281
 42
0.031227
  0
VERTEX
  8
0
 10
337.289749
 20
236.000000
 42
-0.041690
  0
VERTEX
  8
0
 10
337.156279
 20
236.766287
 42
-0.071569
  0
VERTEX
  8
0
 10
337.191065
 20
237.412500
 42
-0.108072
  0
VERTEX
  8
0
 10
337.378811
 20
237.842134
 42
-0.240350
  0
VERTEX
  8
0
 10
337.688247
 20
238.000000
 42
0.395922
  0
VERTEX
  8
0
 10
338.074747
 20
238.362941
 42
0.002925
  0
VERTEX
  8
0
 10
338.346957
 20
243.133292
 42
0.008306
  0
VERTEX
  8
0
 10
338.546087
 20
248.896525
 42
0.004481
  0
VERTEX
  8
0
 10
338.609756
 20
256.000000
 42
0.004481
  0
VERTEX
  8
0
 10
338.546087
 20
263.103475
 42
0.008306
  0
VERTEX
  8
0
 10
338.346957
 20
268.866708
 42
0.002925
  0
VERTEX
  8
0
 10
338.074747
 20
273.637059
 42
0.395922
  0
VERTEX
  8
0
 10
337.688247
 20
274.000000
 42
-0.240350
  0
VERTEX
  8
0
 10
337.378811
 20
274.157866
 42
-0.108072
  0
VERTEX
  8
0
 10
337.191065
 20
274.587500
 42
-0.071569
  0
VERTEX
  8
0
 10
337.156279
 20
275.233713
 42
-0.041690
  0
VERTEX
  8
0
 10
337.289749
 20
276.000000
 42
0.031227
  0
VERTEX
  8
0
 10
337.439865
 20
276.766719
 42
0.054721
  0
VERTEX
  8
0
 10
337.453802
 20
277.412500
 42
0.081236
  0
VERTEX
  8
0
 10
337.341973
 20
277.850692
 42
0.298089
  0
VERTEX
  8
0
 10
337.113785
 20
278.000000
 42
-0.320218
  0
VERTEX
  8
0
 10
336.487605
 20
278.446848
 42
-0.005625
  0
VERTEX
  8
0
 10
335.106495
 20
282.615269
 42
-0.009461
  0
VERTEX
  8
0
 10
333.898466
 20
286.666807
 42
-0.119163
  0
VERTEX
  8
0
 10
333.845182
 20
288.250000
 42
0.137157
  0
VERTEX
  8
0
 10
333.825436
 20
288.535519
 42
0.126502
  0
VERTEX
  8
0
 10
333.660772
 20
288.779688
 42
0.106306
  0
VERTEX
  8
0
 10
333.370458
 20
288.943600
 42
0.075686
  0
VERTEX
  8
0
 10
333.000000
 20
289.000000
 42
-0.076328
  0
VERTEX
  8
0
 10
332.632787
 20
289.056386
 42
-0.112284
  0
VERTEX
  8
0
 10
332.351949
 20
289.220312
 42
-0.134577
  0
VERTEX
  8
0
 10
332.201758
 20
289.464586
 42
-0.136332
  0
VERTEX
  8
0
 10
332.198125
 20
289.750000
 42
0.129562
  0
VERTEX
  8
0
 10
332.198874
 20
291.045033
 42
0.039949
  0
VERTEX
  8
0
 10
331.548142
 20
292.902527
 42
0.037112
  0
VERTEX
  8
0
 10
330.657005
 20
294.569172
 42
0.256832
  0
VERTEX
  8
0
 10
329.873595
 20
295.000000
 42
-0.119226
  0
VERTEX
  8
0
 10
329.545429
 20
295.079380
 42
-0.186776
  0
VERTEX
  8
0
 10
329.354805
 20
295.293750
 42
-0.153151
  0
VERTEX
  8
0
 10
329.337431
 20
295.617578
 42
-0.075954
  0
VERTEX
  8
0
 10
329.500000
 20
296.000000
 42
0.082592
  0
VERTEX
  8
0
 10
329.656512
 20
296.382100
 42
0.161196
  0
VERTEX
  8
0
 10
329.625400
 20
296.706250
 42
0.182303
  0
VERTEX
  8
0
 10
329.413961
 20
296.921712
 42
0.108972
  0
VERTEX
  8
0
 10
329.059017
 20
297.000000
 42
-0.140337
  0
VERTEX
  8
0
 10
328.655173
 20
297.115626
 42
-0.099915
  0
VERTEX
  8
0
 10
328.311086
 20
297.440625
 42
-0.085131
  0
VERTEX
  8
0
 10
328.079345
 20
297.926682
 42
-0.068870
  0
VERTEX
  8
0
 10
328.000000
 20
298.500000
 42
0.064853
  0
VERTEX
  8
0
 10
327.925306
 20
299.073457
 42
0.082425
  0
VERTEX
  8
0
 10
327.706250
 20
299.559375
 42
0.098894
  0
VERTEX
  8
0
 10
327.381354
 20
299.884432
 42
0.148195
  0
VERTEX
  8
0
 10
327.000000
 20
300.000000
 42
-0.148195
  0
VERTEX
  8
0
 10
326.618646
 20
300.115568
 42
-0.098894
  0
VERTEX
  8
0
 10
326.293750
 20
300.440625
 42
-0.082425
  0
VERTEX
  8
0
 10
326.074694
 20
300.926543
 42
-0.064853
  0
VERTEX
  8
0
 10
326.000000
 20
301.500000
 42
0.064853
  0
VERTEX
  8
0
 10
325.925306
 20
302.073457
 42
0.082425
  0
VERTEX
  8
0
 10
325.706250
 20
302.559375
 42
0.098894
  0
VERTEX
  8
0
 10
325.381354
 20
302.884432
 42
0.148195
  0
VERTEX
  8
0
 10
325.000000
 20
303.000000
 42
-0.125138
  0
VERTEX
  8
0
 10
324.618624
 20
303.096967
 42
-0.100780
  0
VERTEX
  8
0
 10
324.293750
 20
303.369964
 42
-0.090277
  0
VERTEX
  8
0
 10
324.075410
 20
303.778323
 42
-0.077892
  0
VERTEX
  8
0
 10
324.000000
 20
304.259453
 42
0.118266
  0
VERTEX
  8
0
 10
323.863577
 20
304.828148
 42
0.048329
  0
VERTEX
  8
0
 10
323.433673
 20
305.502619
 42
0.044255
  0
VERTEX
  8
0
 10
322.809679
 20
306.169084
 42
0.042926
  0
VERTEX
  8
0
 10
322.072079
 20
306.722913
 42
-0.054804
  0
VERTEX
  8
0
 10
321.238378
 20
307.380364
 42
-0.026624
  0
VERTEX
  8
0
 10
320.322125
 20
308.383192
 42
-0.026032
  0
VERTEX
  8
0
 10
319.469535
 20
309.540271
 42
-0.033982
  0
VERTEX
  8
0
 10
318.822079
 20
310.684195
 42
0.046985
  0
VERTEX
  8
0
 10
318.133231
 20
311.830753
 42
0.032020
  0
VERTEX
  8
0
 10
317.153986
 20
312.995894
 42
0.032317
  0
VERTEX
  8
0
 10
316.053778
 20
314.007039
 42
0.054567
  0
VERTEX
  8
0
 10
315.000000
 20
314.681888
 42
-0.027773
  0
VERTEX
  8
0
 10
313.933146
 20
315.287226
 42
-0.019134
  0
VERTEX
  8
0
 10
312.793750
 20
316.083407
 42
-0.019342
  0
VERTEX
  8
0
 10
311.753528
 20
316.936437
 42
-0.036886
  0
VERTEX
  8
0
 10
311.000000
 20
317.711153
 42
0.038143
  0
VERTEX
  8
0
 10
310.231343
 20
318.497462
 42
0.018349
  0
VERTEX
  8
0
 10
309.137771
 20
319.388698
 42
0.018075
  0
VERTEX
  8
0
 10
307.923130
 20
320.239383
 42
0.024644
  0
VERTEX
  8
0
 10
306.766879
 20
320.909946
 42
-0.015745
  0
VERTEX
  8
0
 10
305.588231
 20
321.565762
 42
-0.011114
  0
VERTEX
  8
0
 10
304.305181
 20
322.372799
 42
-0.011232
  0
VERTEX
  8
0
 10
303.111876
 20
323.200019
 42
-0.023108
  0
VERTEX
  8
0
 10
302.224630
 20
323.909946
 42
0.053069
  0
VERTEX
  8
0
 10
299.710677
 20
325.685772
 42
0.009429
  0
VERTEX
  8
0
 10
294.620749
 20
328.401370
 42
0.008357
  0
VERTEX
  8
0
 10
289.426299
 20
330.939695
 42
0.071717
  0
VERTEX
  8
0
 10
286.958646
 20
331.688540
 42
-0.028484
  0
VERTEX
  8
0
 10
286.115350
 20
331.866868
 42
-0.009842
  0
VERTEX
  8
0
 10
284.920050
 20
332.217101
 42
-0.009742
  0
VERTEX
  8
0
 10
283.615017
 20
332.655664
 42
-0.011157
  0
VERTEX
  8
0
 10
282.386322
 20
333.126578
 42
0.008237
  0
VERTEX
  8
0
 10
280.360525
 20
333.916588
 42
0.016583
  0
VERTEX
  8
0
 10
278.733879
 20
334.459612
 42
0.013629
  0
VERTEX
  8
0
 10
276.883904
 20
334.955273
 42
0.003934
  0
VERTEX
  8
0
 10
274.000000
 20
335.620358
 42
0.047040
  0
VERTEX
  8
0
 10
269.903595
 20
336.134166
 42
0.002740
  0
VERTEX
  8
0
 10
257.295300
 20
336.453037
 42
0.000854
  0
VERTEX
  8
0
 10
243.703655
 20
336.699030
 42
0.203175
  0
SEQEND
  0
POLYLINE
  8
0
 66
1
 70
1
  0
VERTEX
  8
0
 10
381.540082
 20
238.500000
 42
-0.053328
  0
VERTEX
  8
0
 10
376.055904
 20
215.693783
 42
-0.045465
  0
VERTEX
  8
0
 10
365.661961
 20
193.232806
 42
-0.045356
  0
VERTEX
  8
0
 10
351.347332
 20
172.965157
 42
-0.052389
  0
VERTEX
  8
0
 10
334.221693
 20
156.670589
 42
-0.029247
  0
VERTEX
  8
0
 10
320.501772
 20
147.337047
 42
-0.031281
  0
VERTEX
  8
0
 10
306.083249
 20
139.897266
 42
-0.031322
  0
VERTEX
  8
0
 10
290.866985
 20
134.322366
 42
-0.029484
  0
VERTEX
  8
0
 10
274.764506
 20
130.558600
 42
0.000000
  0
VERTEX
  8
0
 10
271.029011
 20
129.914816
 42
0.000000
  0
VERTEX
  8
0
 10
270.764506
 20
66.108270
 42
0.000000
  0
VERTEX
  8
0
 10
270.500000
 20
2.301724
 42
0.000000
  0
VERTEX
  8
0
 10
275.000000
 20
2.719693
 42
0.015121
  0
VERTEX
  8
0
 10
292.760067
 20
4.912678
 42
0.014654
  0
VERTEX
  8
0
 10
310.543203
 20
8.192846
 42
0.015138
  0
VERTEX
  8
0
 10
327.434614
 20
12.361984
 42
0.020069
  0
VERTEX
  8
0
 10
342.500000
 20
17.227553
 42
0.053547
  0
VERTEX
  8
0
 10
392.403691
 20
41.921958
 42
0.054778
  0
VERTEX
  8
0
 10
435.508554
 20
76.491446
 42
0.054778
  0
VERTEX
  8
0
 10
470.078042
 20
119.596309
 42
0.053547
  0
VERTEX
  8
0
 10
494.772447
 20
169.500000
 42
0.021373
  0
VERTEX
  8
0
 10
499.786841
 20
185.165756
 42
0.014478
  0
VERTEX
  8
0
 10
504.207818
 20
203.382270
 42
0.014537
  0
VERTEX
  8
0
 10
507.535442
 20
221.662599
 42
0.022997
  0
VERTEX
  8
0
 10
509.204566
 20
237.500000
 42
0.000000
  0
VERTEX
  8
0
 10
509.500000
 20
242.500000
 42
0.000000
  0
VERTEX
  8
0
 10
445.845442
 20
243.000000
 42
0.000000
  0
VERTEX
  8
0
 10
382.190884
 20
243.500000
 42
0.000000
  0
SEQEND
  0
POLYLINE
  8
0
 66
1
 70
1
  0
VERTEX
  8
0
 10
4.378775
 20
242.311142
 42
0.235866
  0
VERTEX
  8
0
 10
3.071785
 20
241.302747
 42
0.115845
  0
VERTEX
  8
0
 10
2.602074
 20
239.199529
 42
0.027557
  0
VERTEX
  8
0
 10
2.899349
 20
234.704499
 42
0.001590
  0
VERTEX
  8
0
 10
4.611899
 20
221.000000
 42
0.046641
  0
VERTEX
  8
0
 10
14.022909
 20
179.055447
 42
0.042369
  0
VERTEX
  8
0
 10
31.254782
 20
138.140145
 42
0.042273
  0
VERTEX
  8
0
 10
55.185161
 20
100.623660
 42
0.045907
  0
VERTEX
  8
0
 10
84.500000
 20
68.777974
 42
0.039153
  0
VERTEX
  8
0
 10
118.150097
 20
42.837395
 42
0.042451
  0
VERTEX
  8
0
 10
154.565277
 20
23.244280
 42
0.042041
  0
VERTEX
  8
0
 10
194.089750
 20
9.938130
 42
0.037039
  0
VERTEX
  8
0
 10
237.000000
 20
2.719693
 42
0.000000
  0
VERTEX
  8
0
 10
241.500000
 20
2.301724
 42
0.000000
  0
VERTEX
  8
0
 10
241.235494
 20
66.108270
 42
0.000000
  0
VERTEX
  8
0
 10
240.970989
 20
129.914816
 42
0.000000
  0
VERTEX
  8
0
 10
237.235494
 20
130.558600
 42
-0.044576
  0
VERTEX
  8
0
 10
213.727503
 20
136.806171
 42
-0.045353
  0
VERTEX
  8
0
 10
191.842402
 20
147.095815
 42
-0.046186
  0
VERTEX
  8
0
 10
172.534464
 20
160.951405
 42
-0.050089
  0
VERTEX
  8
0
 10
156.670589
 20
177.778307
 42
-0.029194
  0
VERTEX
  8
0
 10
147.308916
 20
191.536456
 42
-0.031566
  0
VERTEX
  8
0
 10
139.880103
 20
205.946367
 42
-0.031500
  0
VERTEX
  8
0
 10
134.311979
 20
221.204693
 42
-0.028830
  0
VERTEX
  8
0
 10
130.509408
 20
237.497708
 42
0.022988
  0
VERTEX
  8
0
 10
130.159067
 20
239.082198
 42
0.027291
  0
VERTEX
  8
0
 10
129.679768
 20
240.537577
 42
0.027782
  0
VERTEX
  8
0
 10
129.149971
 20
241.698098
 42
0.130813
  0
VERTEX
  8
0
 10
128.658217
 20
242.232395
 42
0.142382
  0
VERTEX
  8
0
 10
126.747723
 20
242.789686
 42
0.000082
  0
VERTEX
  8
0
 10
67.509653
 20
242.836946
 42
0.000225
  0
VERTEX
  8
0
 10
9.886408
 20
242.847475
 42
0.048441
  0
SEQEND
  0
ENDSEC
  0
EOF
