  0
SECTION
  2
HEADER
  9
$ACADVER
  1
AC1006
  9
$EXTMIN
 10
0.000000
 20
0.000000
 30
0.000000
  9
$EXTMAX
 10
77.000000
 20
77.000000
 30
0.000000
  0
ENDSEC
  0
SECTION
  2
ENTITIES
  0
POLYLINE
  8
0
 66
1
 70
1
  0
VERTEX
  8
0
 10
29.745923
 20
75.914329
 42
0.042035
  0
VERTEX
  8
0
 10
25.029626
 20
74.375030
 42
0.029976
  0
VERTEX
  8
0
 10
20.047692
 20
71.910261
 42
0.029602
  0
VERTEX
  8
0
 10
15.313320
 20
68.818237
 42
0.036932
  0
VERTEX
  8
0
 10
11.336893
 20
65.389525
 42
0.047407
  0
VERTEX
  8
0
 10
7.886949
 20
61.215049
 42
0.028595
  0
VERTEX
  8
0
 10
4.590739
 20
55.700365
 42
0.028645
  0
VERTEX
  8
0
 10
1.958858
 20
49.874112
 42
0.049451
  0
VERTEX
  8
0
 10
0.550671
 20
44.750000
 42
0.000000
  0
VERTEX
  8
0
 10
-0.090626
 20
41.000000
 42
0.000000
  0
VERTEX
  8
0
 10
9.796399
 20
41.000000
 42
0.000000
  0
VERTEX
  8
0
 10
19.683425
 20
41.000000
 42
0.000000
  0
VERTEX
  8
0
 10
20.848950
 20
44.890176
 42
-0.082792
  0
VERTEX
  8
0
 10
22.579505
 20
48.415787
 42
-0.045803
  0
VERTEX
  8
0
 10
25.725172
 20
52.053034
 42
-0.046000
  0
VERTEX
  8
0
 10
29.436435
 20
55.019161
 42
-0.091788
  0
VERTEX
  8
0
 10
32.887610
 20
56.475315
 42
0.000000
  0
VERTEX
  8
0
 10
36.000000
 20
57.158911
 42
0.000000
  0
VERTEX
  8
0
 10
36.000000
 20
67.079455
 42
0.005541
  0
VERTEX
  8
0
 10
35.919802
 20
74.315786
 42
0.149559
  0
VERTEX
  8
0
 10
35.324920
 20
76.116437
 42
0.282180
  0
VERTEX
  8
0
 10
33.933219
 20
76.712631
 42
0.021539
  0
SEQEND
  0
POLYLINE
  8
0
 66
1
 70
1
  0
VERTEX
  8
0
 10
41.000000
 20
67.124768
 42
0.000000
  0
VERTEX
  8
0
 10
41.000000
 20
57.158911
 42
0.000000
  0
VERTEX
  8
0
 10
44.112390
 20
56.475315
 42
-0.091788
  0
VERTEX
  8
0
 10
47.563565
 20
55.019161
 42
-0.046000
  0
VERTEX
  8
0
 10
51.274828
 20
52.053034
 42
-0.045803
  0
VERTEX
  8
0
 10
54.420495
 20
48.415787
 42
-0.082792
  0
VERTEX
  8
0
 10
56.151050
 20
44.890176
 42
0.000000
  0
VERTEX
  8
0
 10
57.316575
 20
41.000000
 42
0.000000
  0
VERTEX
  8
0
 10
67.203601
 20
41.000000
 42
0.000000
  0
VERTEX
  8
0
 10
77.090626
 20
41.000000
 42
0.000000
  0
VERTEX
  8
0
 10
76.449329
 20
44.750000
 42
0.049581
  0
VERTEX
  8
0
 10
75.029505
 20
49.911217
 42
0.029132
  0
VERTEX
  8
0
 10
72.382630
 20
55.747437
 42
0.029038
  0
VERTEX
  8
0
 10
69.049788
 20
61.281214
 42
0.046346
  0
VERTEX
  8
0
 10
65.526316
 20
65.526316
 42
0.046346
  0
VERTEX
  8
0
 10
61.281214
 20
69.049788
 42
0.029038
  0
VERTEX
  8
0
 10
55.747437
 20
72.382630
 42
0.029132
  0
VERTEX
  8
0
 10
49.911217
 20
75.029505
 42
0.049581
  0
VERTEX
  8
0
 10
44.750000
 20
76.449329
 42
0.000000
  0
VERTEX
  8
0
 10
41.000000
 20
77.090626
 42
0.000000
  0
SEQEND
  0
POLYLINE
  8
0
 66
1
 70
1
  0
VERTEX
  8
0
 10
32.298549
 20
49.040484
 42
0.090672
  0
VERTEX
  8
0
 10
28.605306
 20
45.745990
 42
0.102345
  0
VERTEX
  8
0
 10
26.508175
 20
41.487235
 42
0.104094
  0
VERTEX
  8
0
 10
26.291934
 20
36.804978
 42
0.096865
  0
VERTEX
  8
0
 10
27.959516
 20
32.298549
 42
0.086993
  0
VERTEX
  8
0
 10
31.081247
 20
28.747128
 42
0.096211
  0
VERTEX
  8
0
 10
35.123753
 20
26.620313
 42
0.098231
  0
VERTEX
  8
0
 10
39.598260
 20
26.186488
 42
0.094799
  0
VERTEX
  8
0
 10
43.961364
 20
27.480020
 42
0.127860
  0
VERTEX
  8
0
 10
49.155735
 20
32.143444
 42
0.147268
  0
VERTEX
  8
0
 10
51.069472
 20
38.500000
 42
0.147268
  0
VERTEX
  8
0
 10
49.155735
 20
44.856556
 42
0.127860
  0
VERTEX
  8
0
 10
43.961364
 20
49.519980
 42
0.059292
  0
VERTEX
  8
0
 10
41.035740
 20
50.617200
 42
0.070478
  0
VERTEX
  8
0
 10
38.103261
 20
50.910345
 42
0.069871
  0
VERTEX
  8
0
 10
35.184293
 20
50.377359
 42
0.056918
  0
SEQEND
  0
POLYLINE
  8
0
 66
1
 70
1
  0
VERTEX
  8
0
 10
0.562729
 20
36.101497
 42
0.185212
  0
VERTEX
  8
0
 10
0.216432
 20
34.274282
 42
0.019631
  0
VERTEX
  8
0
 10
1.171777
 20
29.966324
 42
0.024307
  0
VERTEX
  8
0
 10
2.681916
 20
25.187779
 42
0.028589
  0
VERTEX
  8
0
 10
4.582138
 20
20.837908
 42
0.066398
  0
VERTEX
  8
0
 10
9.346785
 20
13.897676
 42
0.051014
  0
VERTEX
  8
0
 10
16.175977
 20
7.728941
 42
0.050888
  0
VERTEX
  8
0
 10
24.134304
 20
3.055313
 42
0.065076
  0
VERTEX
  8
0
 10
32.250000
 20
0.550671
 42
0.000000
  0
VERTEX
  8
0
 10
36.000000
 20
-0.090626
 42
0.000000
  0
VERTEX
  8
0
 10
36.000000
 20
9.796399
 42
0.000000
  0
VERTEX
  8
0
 10
36.000000
 20
19.683425
 42
0.000000
  0
VERTEX
  8
0
 10
32.221615
 20
20.815456
 42
-0.074390
  0
VERTEX
  8
0
 10
28.730241
 20
22.457434
 42
-0.051103
  0
VERTEX
  8
0
 10
25.350811
 20
25.247892
 42
-0.049992
  0
VERTEX
  8
0
 10
22.525861
 20
28.751638
 42
-0.061555
  0
VERTEX
  8
0
 10
20.679406
 20
32.519162
 42
0.000000
  0
VERTEX
  8
0
 10
19.303671
 20
36.500000
 42
0.000000
  0
VERTEX
  8
0
 10
10.233378
 20
36.786447
 42
0.009770
  0
VERTEX
  8
0
 10
6.650193
 20
36.829561
 42
0.015802
  0
VERTEX
  8
0
 10
3.604168
 20
36.710376
 42
0.010981
  0
VERTEX
  8
0
 10
1.164276
 20
36.483622
 42
0.229557
  0
SEQEND
  0
POLYLINE
  8
0
 66
1
 70
1
  0
VERTEX
  8
0
 10
56.554785
 20
33.440335
 42
-0.091112
  0
VERTEX
  8
0
 10
55.142330
 20
29.767893
 42
-0.049620
  0
VERTEX
  8
0
 10
52.216553
 20
25.903601
 42
-0.049367
  0
VERTEX
  8
0
 10
48.551497
 20
22.656968
 42
-0.083992
  0
VERTEX
  8
0
 10
44.890176
 20
20.848950
 42
0.000000
  0
VERTEX
  8
0
 10
41.000000
 20
19.683425
 42
0.000000
  0
VERTEX
  8
0
 10
41.000000
 20
9.796399
 42
0.000000
  0
VERTEX
  8
0
 10
41.000000
 20
-0.090626
 42
0.000000
  0
VERTEX
  8
0
 10
44.750000
 20
0.550671
 42
0.049581
  0
VERTEX
  8
0
 10
49.911217
 20
1.970495
 42
0.029132
  0
VERTEX
  8
0
 10
55.747437
 20
4.617370
 42
0.029038
  0
VERTEX
  8
0
 10
61.281214
 20
7.950212
 42
0.046346
  0
VERTEX
  8
0
 10
65.526316
 20
11.473684
 42
0.046566
  0
VERTEX
  8
0
 10
69.151007
 20
15.844645
 42
0.030717
  0
VERTEX
  8
0
 10
72.497965
 20
21.455480
 42
0.030827
  0
VERTEX
  8
0
 10
75.112484
 20
27.392746
 42
0.049307
  0
VERTEX
  8
0
 10
76.506914
 20
32.750000
 42
0.000000
  0
VERTEX
  8
0
 10
77.175796
 20
37.000000
 42
0.000000
  0
VERTEX
  8
0
 10
67.199189
 20
37.000000
 42
0.000000
  0
VERTEX
  8
0
 10
57.222582
 20
37.000000
 42
0.000000
  0
SEQEND
  0
ENDSEC
  0
EOF
