  0
SECTION
  2
HEADER
  9
$ACADVER
  1
AC1006
  9
$EXTMIN
 10
0.000000
 20
0.000000
 30
0.000000
  9
$EXTMAX
 10
52.000000
 20
52.000000
 30
0.000000
  0
ENDSEC
  0
SECTION
  2
ENTITIES
  0
POLYLINE
  8
0
 66
1
 70
1
  0
VERTEX
  8
0
 10
17.627496
 20
50.531830
 42
0.072663
  0
VERTEX
  8
0
 10
11.988662
 20
47.542318
 42
0.053046
  0
VERTEX
  8
0
 10
6.738151
 20
42.762062
 42
0.053475
  0
VERTEX
  8
0
 10
2.657637
 20
37.039123
 42
0.078176
  0
VERTEX
  8
0
 10
0.501549
 20
31.250000
 42
0.000000
  0
VERTEX
  8
0
 10
-0.158911
 20
28.000000
 42
0.000000
  0
VERTEX
  8
0
 10
6.920545
 20
28.000000
 42
0.009099
  0
VERTEX
  8
0
 10
10.390371
 20
28.063147
 42
0.038544
  0
VERTEX
  8
0
 10
12.453531
 20
28.298208
 42
0.077106
  0
VERTEX
  8
0
 10
13.613085
 20
28.714136
 42
0.274737
  0
VERTEX
  8
0
 10
14.000000
 20
29.365141
 42
-0.144800
  0
VERTEX
  8
0
 10
14.580449
 20
31.327426
 42
-0.043144
  0
VERTEX
  8
0
 10
16.519860
 20
33.818929
 42
-0.042887
  0
VERTEX
  8
0
 10
19.066749
 20
36.132369
 42
-0.064063
  0
VERTEX
  8
0
 10
21.667900
 20
37.634600
 42
0.037995
  0
VERTEX
  8
0
 10
23.685092
 20
38.663665
 42
0.157023
  0
VERTEX
  8
0
 10
24.567919
 20
39.687435
 42
0.091848
  0
VERTEX
  8
0
 10
24.929367
 20
41.327453
 42
0.008436
  0
VERTEX
  8
0
 10
25.000000
 20
45.513420
 42
0.018825
  0
VERTEX
  8
0
 10
24.824041
 20
50.185324
 42
0.228311
  0
VERTEX
  8
0
 10
23.950165
 20
51.696758
 42
0.220894
  0
VERTEX
  8
0
 10
22.204039
 20
51.983646
 42
0.017616
  0
SEQEND
  0
POLYLINE
  8
0
 66
1
 70
1
  0
VERTEX
  8
0
 10
27.000000
 20
45.624711
 42
0.008134
  0
VERTEX
  8
0
 10
27.069499
 20
41.352764
 42
0.090890
  0
VERTEX
  8
0
 10
27.429010
 20
39.697068
 42
0.157953
  0
VERTEX
  8
0
 10
28.311358
 20
38.667227
 42
0.038339
  0
VERTEX
  8
0
 10
30.332100
 20
37.634600
 42
-0.064063
  0
VERTEX
  8
0
 10
32.933251
 20
36.132369
 42
-0.042887
  0
VERTEX
  8
0
 10
35.480140
 20
33.818929
 42
-0.043144
  0
VERTEX
  8
0
 10
37.419551
 20
31.327426
 42
-0.144800
  0
VERTEX
  8
0
 10
38.000000
 20
29.365141
 42
0.274737
  0
VERTEX
  8
0
 10
38.386915
 20
28.714136
 42
0.077106
  0
VERTEX
  8
0
 10
39.546469
 20
28.298208
 42
0.038544
  0
VERTEX
  8
0
 10
41.609629
 20
28.063147
 42
0.009099
  0
VERTEX
  8
0
 10
45.079455
 20
28.000000
 42
0.000000
  0
VERTEX
  8
0
 10
52.158911
 20
28.000000
 42
0.000000
  0
VERTEX
  8
0
 10
51.481414
 20
31.250000
 42
0.081215
  0
VERTEX
  8
0
 10
48.834856
 20
38.122498
 42
0.067021
  0
VERTEX
  8
0
 10
43.993122
 20
44.316056
 42
0.066909
  0
VERTEX
  8
0
 10
37.676365
 20
49.017488
 42
0.080363
  0
VERTEX
  8
0
 10
30.715445
 20
51.525560
 42
0.000000
  0
VERTEX
  8
0
 10
27.000000
 20
52.222582
 42
0.000000
  0
SEQEND
  0
POLYLINE
  8
0
 66
1
 70
1
  0
VERTEX
  8
0
 10
20.007647
 20
31.508140
 42
0.143616
  0
VERTEX
  8
0
 10
17.915517
 20
27.378336
 42
0.147292
  0
VERTEX
  8
0
 10
18.413926
 20
22.817724
 42
0.148357
  0
VERTEX
  8
0
 10
21.341002
 20
19.313523
 42
0.146109
  0
VERTEX
  8
0
 10
25.740055
 20
18.000000
 42
0.044919
  0
VERTEX
  8
0
 10
28.767817
 20
18.272561
 42
0.090805
  0
VERTEX
  8
0
 10
31.000359
 20
19.114606
 42
0.098765
  0
VERTEX
  8
0
 10
32.671186
 20
20.636168
 42
0.060707
  0
VERTEX
  8
0
 10
33.984170
 20
22.961783
 42
0.093668
  0
VERTEX
  8
0
 10
34.564088
 20
25.738260
 42
0.078547
  0
VERTEX
  8
0
 10
34.150714
 20
28.722244
 42
0.081475
  0
VERTEX
  8
0
 10
32.866258
 20
31.334313
 42
0.115457
  0
VERTEX
  8
0
 10
30.928591
 20
33.038217
 42
0.086680
  0
VERTEX
  8
0
 10
28.197674
 20
33.938577
 42
0.071306
  0
VERTEX
  8
0
 10
25.124316
 20
33.948324
 42
0.072615
  0
VERTEX
  8
0
 10
22.226675
 20
33.101985
 42
0.097169
  0
SEQEND
  0
POLYLINE
  8
0
 66
1
 70
1
  0
VERTEX
  8
0
 10
0.474440
 20
21.284555
 42
0.081135
  0
VERTEX
  8
0
 10
3.045250
 20
14.183662
 42
0.068864
  0
VERTEX
  8
0
 10
7.857170
 20
7.811491
 42
0.069070
  0
VERTEX
  8
0
 10
14.202447
 20
3.002001
 42
0.082633
  0
VERTEX
  8
0
 10
21.250000
 20
0.463199
 42
0.000000
  0
VERTEX
  8
0
 10
25.000000
 20
-0.222582
 42
0.000000
  0
VERTEX
  8
0
 10
25.000000
 20
6.413460
 42
0.008082
  0
VERTEX
  8
0
 10
24.933383
 20
10.534783
 42
0.077976
  0
VERTEX
  8
0
 10
24.607105
 20
12.250152
 42
0.156463
  0
VERTEX
  8
0
 10
23.831201
 20
13.262355
 42
0.060839
  0
VERTEX
  8
0
 10
22.251830
 20
14.094354
 42
-0.045453
  0
VERTEX
  8
0
 10
19.626245
 20
15.376171
 42
-0.056178
  0
VERTEX
  8
0
 10
17.472412
 20
17.038289
 42
-0.055915
  0
VERTEX
  8
0
 10
15.735052
 20
19.145049
 42
-0.044413
  0
VERTEX
  8
0
 10
14.348564
 20
21.750000
 42
0.040590
  0
VERTEX
  8
0
 10
13.326841
 20
23.705471
 42
0.156543
  0
VERTEX
  8
0
 10
12.289802
 20
24.574739
 42
0.088802
  0
VERTEX
  8
0
 10
10.620287
 20
24.930431
 42
0.008194
  0
VERTEX
  8
0
 10
6.375289
 20
25.000000
 42
0.000000
  0
VERTEX
  8
0
 10
-0.222582
 20
25.000000
 42
0.000000
  0
SEQEND
  0
POLYLINE
  8
0
 66
1
 70
1
  0
VERTEX
  8
0
 10
37.651436
 20
21.750000
 42
-0.044413
  0
VERTEX
  8
0
 10
36.264948
 20
19.145049
 42
-0.055915
  0
VERTEX
  8
0
 10
34.527588
 20
17.038289
 42
-0.056178
  0
VERTEX
  8
0
 10
32.373755
 20
15.376171
 42
-0.045453
  0
VERTEX
  8
0
 10
29.748170
 20
14.094354
 42
0.060839
  0
VERTEX
  8
0
 10
28.168799
 20
13.262355
 42
0.156463
  0
VERTEX
  8
0
 10
27.392895
 20
12.250152
 42
0.077976
  0
VERTEX
  8
0
 10
27.066617
 20
10.534783
 42
0.008082
  0
VERTEX
  8
0
 10
27.000000
 20
6.413460
 42
0.000000
  0
VERTEX
  8
0
 10
27.000000
 20
-0.222582
 42
0.000000
  0
VERTEX
  8
0
 10
30.750000
 20
0.463199
 42
0.082633
  0
VERTEX
  8
0
 10
37.797553
 20
3.002001
 42
0.069070
  0
VERTEX
  8
0
 10
44.142830
 20
7.811491
 42
0.068864
  0
VERTEX
  8
0
 10
48.954750
 20
14.183662
 42
0.081135
  0
VERTEX
  8
0
 10
51.525560
 20
21.284555
 42
0.000000
  0
VERTEX
  8
0
 10
52.222582
 20
25.000000
 42
0.000000
  0
VERTEX
  8
0
 10
45.624711
 20
25.000000
 42
0.008194
  0
VERTEX
  8
0
 10
41.379713
 20
24.930431
 42
0.088802
  0
VERTEX
  8
0
 10
39.710198
 20
24.574739
 42
0.156543
  0
VERTEX
  8
0
 10
38.673159
 20
23.705471
 42
0.040590
  0
SEQEND
  0
ENDSEC
  0
EOF
