  0
SECTION
  2
HEADER
  9
$ACADVER
  1
AC1006
  9
$EXTMIN
 10
0.000000
 20
0.000000
 30
0.000000
  9
$EXTMAX
 10
64.000000
 20
64.000000
 30
0.000000
  0
ENDSEC
  0
SECTION
  2
ENTITIES
  0
POLYLINE
  8
0
 66
1
 70
1
  0
VERTEX
  8
0
 10
20.000000
 20
57.000000
 42
0.010614
  0
VERTEX
  8
0
 10
20.064452
 20
53.964058
 42
0.050675
  0
VERTEX
  8
0
 10
20.312500
 20
52.250000
 42
0.113455
  0
VERTEX
  8
0
 10
20.776970
 20
51.337712
 42
0.222027
  0
VERTEX
  8
0
 10
21.500000
 20
51.000000
 42
0.222027
  0
VERTEX
  8
0
 10
22.223030
 20
51.337712
 42
0.113455
  0
VERTEX
  8
0
 10
22.687500
 20
52.250000
 42
0.050675
  0
VERTEX
  8
0
 10
22.935548
 20
53.964058
 42
0.010614
  0
VERTEX
  8
0
 10
23.000000
 20
57.000000
 42
0.010614
  0
VERTEX
  8
0
 10
22.935548
 20
60.035942
 42
0.050675
  0
VERTEX
  8
0
 10
22.687500
 20
61.750000
 42
0.113455
  0
VERTEX
  8
0
 10
22.223030
 20
62.662288
 42
0.222027
  0
VERTEX
  8
0
 10
21.500000
 20
63.000000
 42
0.222027
  0
VERTEX
  8
0
 10
20.776970
 20
62.662288
 42
0.113455
  0
VERTEX
  8
0
 10
20.312500
 20
61.750000
 42
0.050675
  0
VERTEX
  8
0
 10
20.064452
 20
60.035942
 42
0.010614
  0
SEQEND
  0
POLYLINE
  8
0
 66
1
 70
1
  0
VERTEX
  8
0
 10
5.000000
 20
57.702948
 42
0.184183
  0
VERTEX
  8
0
 10
5.622040
 20
56.071581
 42
0.015484
  0
VERTEX
  8
0
 10
8.782069
 20
52.743692
 42
0.015581
  0
VERTEX
  8
0
 10
12.141581
 20
49.619381
 42
0.181448
  0
VERTEX
  8
0
 10
13.792163
 20
49.000000
 42
0.279607
  0
VERTEX
  8
0
 10
14.720300
 20
49.563047
 42
0.220907
  0
VERTEX
  8
0
 10
14.774650
 20
50.759668
 42
0.077440
  0
VERTEX
  8
0
 10
13.570343
 20
52.750593
 42
0.024684
  0
VERTEX
  8
0
 10
11.207837
 20
55.297052
 42
0.021534
  0
VERTEX
  8
0
 10
8.569680
 20
57.660053
 42
0.079577
  0
VERTEX
  8
0
 10
6.644749
 20
58.784169
 42
0.240594
  0
VERTEX
  8
0
 10
5.525345
 20
58.669051
 42
0.254305
  0
SEQEND
  0
POLYLINE
  8
0
 66
1
 70
1
  0
VERTEX
  8
0
 10
32.702948
 20
55.207837
 42
0.021534
  0
VERTEX
  8
0
 10
30.339947
 20
52.569680
 42
0.079577
  0
VERTEX
  8
0
 10
29.215831
 20
50.644749
 42
0.240594
  0
VERTEX
  8
0
 10
29.330949
 20
49.525345
 42
0.254305
  0
VERTEX
  8
0
 10
30.297052
 20
49.000000
 42
0.184183
  0
VERTEX
  8
0
 10
31.928419
 20
49.622040
 42
0.015484
  0
VERTEX
  8
0
 10
35.256308
 20
52.782069
 42
0.015581
  0
VERTEX
  8
0
 10
38.380619
 20
56.141581
 42
0.181448
  0
VERTEX
  8
0
 10
39.000000
 20
57.792163
 42
0.279607
  0
VERTEX
  8
0
 10
38.436953
 20
58.720300
 42
0.220907
  0
VERTEX
  8
0
 10
37.240332
 20
58.774650
 42
0.077440
  0
VERTEX
  8
0
 10
35.249407
 20
57.570343
 42
0.024684
  0
SEQEND
  0
POLYLINE
  8
0
 66
1
 70
1
  0
VERTEX
  8
0
 10
18.321178
 20
48.811266
 42
0.159003
  0
VERTEX
  8
0
 10
15.382674
 20
45.986343
 42
0.137074
  0
VERTEX
  8
0
 10
14.455784
 20
41.787959
 42
0.133700
  0
VERTEX
  8
0
 10
15.835608
 20
37.637914
 42
0.148908
  0
VERTEX
  8
0
 10
19.085786
 20
34.964466
 42
0.201395
  0
VERTEX
  8
0
 10
24.723262
 20
34.991378
 42
0.187965
  0
VERTEX
  8
0
 10
28.862656
 20
39.036184
 42
0.191628
  0
VERTEX
  8
0
 10
29.129655
 20
44.749939
 42
0.205653
  0
VERTEX
  8
0
 10
25.385358
 20
48.870280
 42
0.031028
  0
VERTEX
  8
0
 10
23.374404
 20
49.639839
 42
0.078110
  0
VERTEX
  8
0
 10
21.827305
 20
49.869784
 42
0.078747
  0
VERTEX
  8
0
 10
20.291809
 20
49.613277
 42
0.031920
  0
SEQEND
  0
POLYLINE
  8
0
 66
1
 70
1
  0
VERTEX
  8
0
 10
38.000000
 20
34.500000
 42
0.200296
  0
VERTEX
  8
0
 10
38.295059
 20
33.792990
 42
0.122766
  0
VERTEX
  8
0
 10
39.083333
 20
33.325000
 42
0.058865
  0
VERTEX
  8
0
 10
40.539511
 20
33.069243
 42
0.014068
  0
VERTEX
  8
0
 10
43.000000
 20
33.000000
 42
-0.015111
  0
VERTEX
  8
0
 10
44.916797
 20
32.942056
 42
-0.024745
  0
VERTEX
  8
0
 10
46.531250
 20
32.763874
 42
-0.021954
  0
VERTEX
  8
0
 10
47.754150
 20
32.511770
 42
-0.343528
  0
VERTEX
  8
0
 10
48.000000
 20
32.196167
 42
-0.161010
  0
VERTEX
  8
0
 10
47.846084
 20
31.730585
 42
-0.012700
  0
VERTEX
  8
0
 10
47.032203
 20
30.690434
 42
-0.016230
  0
VERTEX
  8
0
 10
45.967394
 20
29.480805
 42
-0.011688
  0
VERTEX
  8
0
 10
44.705373
 20
28.199055
 42
0.000000
  0
VERTEX
  8
0
 10
41.410746
 20
25.005777
 42
0.000000
  0
VERTEX
  8
0
 10
36.997165
 20
29.502889
 42
0.036525
  0
VERTEX
  8
0
 10
32.835084
 20
33.166259
 42
0.174394
  0
VERTEX
  8
0
 10
29.861079
 20
34.097391
 42
0.217368
  0
VERTEX
  8
0
 10
27.381674
 20
32.838033
 42
0.058748
  0
VERTEX
  8
0
 10
25.000000
 20
29.000000
 42
-0.017320
  0
VERTEX
  8
0
 10
24.020597
 20
27.084571
 42
-0.024935
  0
VERTEX
  8
0
 10
23.013939
 20
25.468750
 42
-0.022714
  0
VERTEX
  8
0
 10
22.093407
 20
24.263965
 42
-0.221766
  0
VERTEX
  8
0
 10
21.527531
 20
24.000000
 42
-0.228598
  0
VERTEX
  8
0
 10
20.972518
 20
24.267741
 42
-0.024119
  0
VERTEX
  8
0
 10
20.108520
 20
25.468750
 42
-0.025987
  0
VERTEX
  8
0
 10
19.176002
 20
27.084535
 42
-0.017935
  0
VERTEX
  8
0
 10
18.284498
 20
29.000000
 42
0.019295
  0
VERTEX
  8
0
 10
17.219746
 20
31.271533
 42
0.048966
  0
VERTEX
  8
0
 10
16.230235
 20
32.799235
 42
0.073222
  0
VERTEX
  8
0
 10
15.269894
 20
33.697470
 42
0.152621
  0
VERTEX
  8
0
 10
14.301869
 20
34.000000
 42
0.179404
  0
VERTEX
  8
0
 10
12.276039
 20
33.248940
 42
0.011124
  0
VERTEX
  8
0
 10
7.431668
 20
28.893416
 42
0.010644
  0
VERTEX
  8
0
 10
2.766815
 20
24.316824
 42
0.195864
  0
VERTEX
  8
0
 10
2.000000
 20
22.434395
 42
0.169005
  0
VERTEX
  8
0
 10
2.210691
 20
21.828872
 42
0.008600
  0
VERTEX
  8
0
 10
3.551425
 20
20.194074
 42
0.012940
  0
VERTEX
  8
0
 10
5.257955
 20
18.287039
 42
0.008951
  0
VERTEX
  8
0
 10
7.281445
 20
16.215840
 42
0.000000
  0
VERTEX
  8
0
 10
12.562891
 20
11.000000
 42
0.000000
  0
VERTEX
  8
0
 10
22.781445
 20
11.000000
 42
0.000000
  0
VERTEX
  8
0
 10
33.000000
 20
11.000000
 42
0.000000
  0
VERTEX
  8
0
 10
33.000000
 20
19.702948
 42
0.000000
  0
VERTEX
  8
0
 10
33.000000
 20
28.405896
 42
0.000000
  0
VERTEX
  8
0
 10
36.889020
 20
24.608369
 42
0.047360
  0
VERTEX
  8
0
 10
40.003818
 20
22.095488
 42
0.215543
  0
VERTEX
  8
0
 10
42.247715
 20
21.734272
 42
0.130204
  0
VERTEX
  8
0
 10
44.704310
 20
23.153684
 42
0.013902
  0
VERTEX
  8
0
 10
49.285118
 20
27.972223
 42
-0.013889
  0
VERTEX
  8
0
 10
51.862904
 20
30.683924
 42
-0.057161
  0
VERTEX
  8
0
 10
53.637777
 20
32.086423
 42
-0.084053
  0
VERTEX
  8
0
 10
55.317415
 20
32.770619
 42
-0.054833
  0
VERTEX
  8
0
 10
57.402761
 20
33.000000
 42
0.024318
  0
VERTEX
  8
0
 10
59.061909
 20
33.080743
 42
0.074590
  0
VERTEX
  8
0
 10
60.150460
 20
33.354247
 42
0.129481
  0
VERTEX
  8
0
 10
60.769306
 20
33.827232
 42
0.166688
  0
VERTEX
  8
0
 10
61.000000
 20
34.500000
 42
0.303591
  0
VERTEX
  8
0
 10
60.479566
 20
35.278130
 42
0.065619
  0
VERTEX
  8
0
 10
58.833333
 20
35.717391
 42
0.028132
  0
VERTEX
  8
0
 10
55.719975
 20
35.946491
 42
0.004301
  0
VERTEX
  8
0
 10
49.500000
 20
36.000000
 42
0.004301
  0
VERTEX
  8
0
 10
43.280025
 20
35.946491
 42
0.028132
  0
VERTEX
  8
0
 10
40.166667
 20
35.717391
 42
0.065619
  0
VERTEX
  8
0
 10
38.520434
 20
35.278130
 42
0.303591
  0
SEQEND
  0
POLYLINE
  8
0
 66
1
 70
1
  0
VERTEX
  8
0
 10
12.000000
 20
23.000000
 42
-0.015525
  0
VERTEX
  8
0
 10
11.940471
 20
21.083228
 42
-0.025397
  0
VERTEX
  8
0
 10
11.757455
 20
19.468750
 42
-0.022981
  0
VERTEX
  8
0
 10
11.498211
 20
18.250142
 42
-0.341193
  0
VERTEX
  8
0
 10
11.174314
 20
18.000000
 42
-0.148512
  0
VERTEX
  8
0
 10
10.723325
 20
18.136976
 42
-0.019347
  0
VERTEX
  8
0
 10
9.901264
 20
18.734375
 42
-0.021145
  0
VERTEX
  8
0
 10
8.959761
 20
19.542642
 42
-0.016233
  0
VERTEX
  8
0
 10
8.000000
 20
20.500000
 42
0.000000
  0
VERTEX
  8
0
 10
5.651372
 20
23.000000
 42
0.000000
  0
VERTEX
  8
0
 10
8.000000
 20
25.500000
 42
-0.016233
  0
VERTEX
  8
0
 10
8.959761
 20
26.457358
 42
-0.021145
  0
VERTEX
  8
0
 10
9.901264
 20
27.265625
 42
-0.019347
  0
VERTEX
  8
0
 10
10.723325
 20
27.863024
 42
-0.148512
  0
VERTEX
  8
0
 10
11.174314
 20
28.000000
 42
-0.341193
  0
VERTEX
  8
0
 10
11.498211
 20
27.749858
 42
-0.022981
  0
VERTEX
  8
0
 10
11.757455
 20
26.531250
 42
-0.025397
  0
VERTEX
  8
0
 10
11.940471
 20
24.916772
 42
-0.015525
  0
SEQEND
  0
ENDSEC
  0
EOF
